M48
;Layer_Color=9474304
;FILE_FORMAT=4:4
METRIC,LZ
;TYPE=PLATED
T1F00S00C0.5000
T2F00S00C0.6000
T3F00S00C0.7000
T5F00S00C0.9000
T6F00S00C0.9500
T7F00S00C1.0000
T8F00S00C1.1000
T9F00S00C1.2000
T10F00S00C1.3000
T11F00S00C1.9000
T12F00S00C2.8000
T13F00S00C3.0000
%
T01
X-00228Y0002
X-00072Y00138755
X-0004Y00139
X00032Y00125
X00063Y00039
X00086Y00015
X0014775Y00034
X00145823Y00122
X0015925Y00122
X00205Y00125
X003665Y001195
Y001565
X00415Y0017
Y0021
X003625Y00264888
X00358Y00341
X0034Y00335
X00267Y00354
X002Y00355
X00155Y00335
Y00385
X0009Y00365
Y0033
X001Y00265
X0012Y00275
X00151Y00273888
X00175
X00134Y00158
X00129801Y00142449
X00234Y00149
X0037Y00425
Y00475
Y00525
X00125Y0050425
X00035Y00495
X00009Y004994
X-00019462Y0053469
X-0006Y00505
X-0015Y00455
Y00405
X-00196Y00413
X-0015Y00345
Y00305
X-00089Y00335
X-00103Y00349
X-000855Y0027664
X-000405Y0031264
X-00023Y0032
X-0004Y00383
X00036Y00386
X00047Y00421
X00047Y00443
X00067Y0033
Y0029
X000435Y0026
X0006925Y00142
X-00071Y00196
X-0023Y00145
X-00311449Y001475
X-00330449
X-00325Y00184
X-0042Y00175
Y00225
Y00375
Y00425
Y00475
X-00373Y003441
X-00435Y00575
X-00337Y00604
X-00382Y007
X-00338Y00747
X-00289Y00651
X-00285227Y00592215
X-00225Y006131
Y006512
X-00235Y006639
X-00225Y006766
X-00235Y006893
X-00225Y00712182
X-00167382Y0071
Y00735
X-00127382
Y0071
X-00087382
Y00735
X-00047382
Y0071
Y00685
Y0066
Y00635
X-000475Y0061
X-000875
X-00087382Y00635
Y0066
Y00685
X-00167382
Y0066
Y00635
X-001675Y0061
X-001275
X-00127382Y00635
X-0008Y00552
X-00045
X00009Y006004
X00021Y006131
X0001Y0064
Y0067
X0001Y00702
X0002Y007147
X00002Y00787
Y00817
X00032
X00076921Y00775249
X00069499Y00543394
X-00223Y00812
X00114Y00733444
X00149Y0072
X0016785Y0072168
X00136Y00707
X00084Y00642298
X00085Y005975
X00228797Y00616767
X00242Y00582
X0037Y00575
X00373Y00611
X003285Y00662
X00335Y0075
X00272Y00787
X00223977Y00778401
X00267Y00707
X0040525Y005425
T02
X-00342Y00085
X-00308Y000515
X-00247Y00583
T03
X-0019775Y00085
X-00099602Y000515
X-00032Y00083
X00032
X00110163Y00213806
X00189Y00291806
X00175163Y00467806
X00155163Y00471806
X00090647Y00536225
X00435094Y00284003
X00341Y0018
X0000025Y00148
X-001Y00148
X-00099Y002
X-00143Y0027
X-00162Y00148
X-002529Y00365
X-002605Y00388
X-0002Y00485
X-003489Y00428
X-00361Y00416608
X00175647Y00583225
X0017565Y0065675
X00223647Y00753225
T05
X-0018075Y000725
Y000925
X-0015825Y00107112
X-0013825Y00107
X-0011575Y000925
Y000725
X003285Y0062865
Y0070485
T06
X00417Y0033545
Y0036085
Y0038625
Y0041165
X0041675Y0043705
T07
X0012525Y000425
X0017025
T08
X-00317Y0065
Y007
T09
X-00301Y00119
X00222424Y00109927
X00241Y0012725
X00259576Y00144573
X00278153Y00161896
T10
X0011275Y000675
X0018275
T11
X002313Y00240967
Y00291767
X003075Y00265
Y00475
X002313Y00450967
Y00501767
X-002313Y005004
Y004496
X-003075Y00475
Y00265
X-002313Y002396
Y002904
T12
X0006395Y006735
X001315Y0060595
T13
X-001148Y006794
M30
