G04*
G04 #@! TF.GenerationSoftware,Altium Limited,Altium Designer,21.6.4 (81)*
G04*
G04 Layer_Color=16711935*
%FSLAX44Y44*%
%MOMM*%
G71*
G04*
G04 #@! TF.SameCoordinates,1D25D15E-8086-452C-9D9C-5104EB157640*
G04*
G04*
G04 #@! TF.FilePolarity,Negative*
G04*
G01*
G75*
%ADD25R,1.5532X1.1532*%
%ADD26R,1.7032X1.4532*%
%ADD39R,0.8032X2.0032*%
%ADD42R,1.4532X1.7032*%
%ADD54C,1.7032*%
%ADD55C,1.8032*%
%ADD56C,2.1032*%
%ADD57C,1.9032*%
%ADD58C,2.5032*%
%ADD59C,2.2032*%
%ADD60C,4.2032*%
%ADD61C,5.0032*%
%ADD62O,1.4032X2.4032*%
%ADD63O,1.4032X2.0032*%
%ADD64C,0.2032*%
%ADD65C,1.7272*%
%ADD66C,1.4032*%
%ADD67C,1.2032*%
%ADD68C,1.0032*%
%ADD69C,1.6032*%
%ADD70C,3.7032*%
%ADD142R,0.5032X2.0032*%
%ADD143R,1.7032X1.9532*%
%ADD144R,1.7032X1.8532*%
%ADD145C,1.3032*%
%ADD146C,1.2532*%
D25*
X633250Y322500D02*
D03*
Y306500D02*
D03*
D26*
X722500Y359500D02*
D03*
Y380500D02*
D03*
X697500D02*
D03*
Y359500D02*
D03*
D39*
X678000Y315350D02*
D03*
X742000D02*
D03*
X734000D02*
D03*
X686000D02*
D03*
D42*
X478500Y648000D02*
D03*
X501500D02*
D03*
X752750Y359500D02*
D03*
X773750D02*
D03*
X351500Y652750D02*
D03*
X330500D02*
D03*
X351750Y623000D02*
D03*
X330750D02*
D03*
X511500Y622000D02*
D03*
X490000D02*
D03*
X710000D02*
D03*
X688500D02*
D03*
X698500Y647000D02*
D03*
X721500D02*
D03*
X666750Y359500D02*
D03*
X645750D02*
D03*
D54*
X1038500Y883650D02*
D03*
Y959850D02*
D03*
D55*
X1126750Y692050D02*
D03*
X1127000Y641250D02*
D03*
Y666650D02*
D03*
Y615850D02*
D03*
Y590450D02*
D03*
D56*
X932424Y364927D02*
D03*
X951000Y382250D02*
D03*
X969576Y399573D02*
D03*
D57*
X988128Y416189D02*
D03*
D58*
X822750Y322500D02*
D03*
X892750D02*
D03*
D59*
X835250Y297500D02*
D03*
X880250D02*
D03*
X393000Y905000D02*
D03*
Y955000D02*
D03*
D60*
X402500Y730000D02*
D03*
Y520000D02*
D03*
X478700Y494600D02*
D03*
Y545400D02*
D03*
Y704600D02*
D03*
Y755400D02*
D03*
X1017500Y520000D02*
D03*
X941300Y546767D02*
D03*
Y495967D02*
D03*
Y705967D02*
D03*
Y756767D02*
D03*
X1017500Y730000D02*
D03*
D61*
X841500Y860950D02*
D03*
X773950Y928500D02*
D03*
D62*
X666800Y306500D02*
D03*
X753200D02*
D03*
D63*
X666800Y264700D02*
D03*
X753200D02*
D03*
D64*
X738900Y301250D02*
D03*
X681100D02*
D03*
D65*
X1010000Y1020000D02*
D03*
X410000D02*
D03*
X1110000Y390000D02*
D03*
X310000D02*
D03*
D66*
X457100Y620000D02*
D03*
X361100Y683000D02*
D03*
X349000Y671608D02*
D03*
X548000Y403000D02*
D03*
X610000D02*
D03*
X611000Y455000D02*
D03*
X610398Y306500D02*
D03*
X512250Y340000D02*
D03*
X885163Y722806D02*
D03*
X899000Y546806D02*
D03*
X567000Y525000D02*
D03*
X820163Y468806D02*
D03*
X1051000Y435000D02*
D03*
X885650Y911750D02*
D03*
X800647Y791225D02*
D03*
X690000Y740000D02*
D03*
X885647Y838225D02*
D03*
X933647Y1008225D02*
D03*
X678000Y338000D02*
D03*
X742000D02*
D03*
X710250Y403000D02*
D03*
X368000Y340000D02*
D03*
X463000Y838000D02*
D03*
X1145094Y539003D02*
D03*
X865163Y726806D02*
D03*
X402000Y306500D02*
D03*
D67*
X915000Y380000D02*
D03*
X944000Y404000D02*
D03*
X796000Y270000D02*
D03*
X773000Y294000D02*
D03*
X398551Y402500D02*
D03*
X485000Y906200D02*
D03*
Y931600D02*
D03*
Y868100D02*
D03*
X861000Y528888D02*
D03*
X859000Y975000D02*
D03*
X824000Y988444D02*
D03*
X885000Y528888D02*
D03*
X1050000Y590000D02*
D03*
X1072500Y519888D02*
D03*
X720000Y957000D02*
D03*
X730000Y969700D02*
D03*
X731000Y868100D02*
D03*
X719000Y855400D02*
D03*
X877850Y976680D02*
D03*
X786921Y1030249D02*
D03*
X475000Y944300D02*
D03*
Y918900D02*
D03*
X690538Y789690D02*
D03*
X779250Y397000D02*
D03*
X337000Y599100D02*
D03*
X719000Y754400D02*
D03*
X977000Y609000D02*
D03*
X669500Y567640D02*
D03*
X839801Y397449D02*
D03*
X379551Y402500D02*
D03*
X621000Y590000D02*
D03*
X624500Y531640D02*
D03*
X746000Y641000D02*
D03*
D68*
X795000Y852500D02*
D03*
D69*
X409000Y374000D02*
D03*
D70*
X595200Y934400D02*
D03*
D142*
X707500Y315350D02*
D03*
X727500D02*
D03*
X692500D02*
D03*
X722500D02*
D03*
X697500D02*
D03*
X717500D02*
D03*
X702500D02*
D03*
X712500D02*
D03*
D143*
X386750Y652500D02*
D03*
Y615000D02*
D03*
X431250Y615500D02*
D03*
D144*
Y651000D02*
D03*
D145*
X551750Y362112D02*
D03*
X571750Y362000D02*
D03*
X529250Y347500D02*
D03*
Y327500D02*
D03*
X594250D02*
D03*
Y347500D02*
D03*
D146*
X449500Y643000D02*
D03*
M02*
