G04*
G04 #@! TF.GenerationSoftware,Altium Limited,Altium Designer,21.6.4 (81)*
G04*
G04 Layer_Physical_Order=2*
G04 Layer_Color=16711680*
%FSLAX44Y44*%
%MOMM*%
G71*
G04*
G04 #@! TF.SameCoordinates,1D25D15E-8086-452C-9D9C-5104EB157640*
G04*
G04*
G04 #@! TF.FilePolarity,Positive*
G04*
G01*
G75*
%ADD10C,0.2500*%
%ADD71C,0.5000*%
%ADD72C,0.4000*%
%ADD83R,1.3500X0.9500*%
%ADD84R,1.5000X1.2500*%
%ADD97R,0.6000X1.8000*%
%ADD100R,1.2500X1.5000*%
%ADD111C,2.0000*%
%ADD112C,0.6000*%
%ADD113C,0.3000*%
%ADD115C,0.8000*%
%ADD116C,1.0000*%
%ADD118C,1.2000*%
%ADD121C,1.5000*%
%ADD122C,1.6000*%
%ADD123C,1.9000*%
%ADD124C,1.7000*%
%ADD125C,2.3000*%
%ADD126C,2.0000*%
%ADD127C,4.0000*%
%ADD128C,4.8000*%
%ADD129O,1.2000X2.2000*%
%ADD130O,1.2000X1.8000*%
%ADD131C,1.5240*%
%ADD132C,1.0000*%
%ADD133C,1.2000*%
%ADD134C,0.8000*%
%ADD135C,1.4000*%
%ADD136C,3.5000*%
%ADD137R,0.3000X1.8000*%
%ADD138R,1.5000X1.7500*%
%ADD139R,1.5000X1.6500*%
%ADD140C,1.1000*%
%ADD141C,1.0500*%
G36*
X790792Y1033542D02*
X791273Y1033349D01*
X791927Y1033179D01*
X792753Y1033032D01*
X794920Y1032806D01*
X797776Y1032670D01*
X801320Y1032624D01*
X801177Y1027624D01*
X799306Y1027615D01*
X791795Y1027162D01*
X791161Y1027021D01*
X790705Y1026861D01*
X790424Y1026682D01*
X790483Y1033757D01*
X790792Y1033542D01*
D02*
G37*
G36*
X909693Y1082451D02*
X917842Y1080456D01*
X933397Y1075826D01*
X933212Y1074556D01*
X784000D01*
X782303Y1074333D01*
X780722Y1073678D01*
X779364Y1072636D01*
X713653Y1006925D01*
X712611Y1005567D01*
X711956Y1003986D01*
X711733Y1002289D01*
Y960681D01*
X711613Y960474D01*
X711000Y958185D01*
Y955815D01*
X711613Y953526D01*
X712798Y951474D01*
X714474Y949798D01*
X716526Y948613D01*
X718815Y948000D01*
X721185D01*
X723474Y948613D01*
X725526Y949798D01*
X727202Y951474D01*
X728387Y953526D01*
X729000Y955815D01*
Y958185D01*
X728649Y959495D01*
X728650Y959502D01*
X729641Y960700D01*
X731185D01*
X733474Y961313D01*
X735526Y962498D01*
X737202Y964174D01*
X738387Y966226D01*
X739000Y968515D01*
Y970885D01*
X738387Y973174D01*
X737202Y975226D01*
X736556Y975872D01*
Y994284D01*
X778534Y1036262D01*
X779550Y1035482D01*
X778534Y1033723D01*
X777921Y1031433D01*
Y1029064D01*
X778534Y1026775D01*
X779719Y1024723D01*
X781395Y1023047D01*
X783447Y1021862D01*
X785736Y1021249D01*
X788105D01*
X790394Y1021862D01*
X792447Y1023047D01*
X792520Y1023120D01*
X799439Y1023537D01*
X801197Y1023546D01*
X801306Y1023568D01*
X821690D01*
X859988Y985270D01*
X859462Y984000D01*
X857815D01*
X855526Y983387D01*
X853474Y982202D01*
X851798Y980526D01*
X850613Y978474D01*
X850000Y976185D01*
Y973815D01*
X850613Y971526D01*
X851439Y970096D01*
X851308Y969640D01*
X849817Y969034D01*
X849088Y969455D01*
X848000Y969746D01*
Y962000D01*
Y954254D01*
X849088Y954545D01*
X850912Y955598D01*
X851174Y955860D01*
X852444Y955334D01*
Y917000D01*
X852667Y915303D01*
X853322Y913722D01*
X854364Y912364D01*
X867694Y899034D01*
Y874014D01*
X866424Y873709D01*
X865448Y875625D01*
X862857Y879191D01*
X859741Y882307D01*
X856175Y884898D01*
X852248Y886899D01*
X848057Y888261D01*
X843704Y888950D01*
X839296D01*
X834943Y888261D01*
X830752Y886899D01*
X826825Y884898D01*
X823259Y882307D01*
X820143Y879191D01*
X817552Y875625D01*
X816076Y872728D01*
X814806Y873033D01*
Y898534D01*
X828636Y912364D01*
X829678Y913722D01*
X830333Y915303D01*
X830556Y917000D01*
Y973982D01*
X830578Y974091D01*
X830588Y975897D01*
X830738Y980260D01*
X830920Y982156D01*
X831008Y982690D01*
X831019Y982734D01*
X831202Y982917D01*
X832387Y984970D01*
X833000Y987259D01*
Y989628D01*
X832387Y991917D01*
X831202Y993970D01*
X829526Y995645D01*
X827474Y996830D01*
X825185Y997443D01*
X822815D01*
X820526Y996830D01*
X818474Y995645D01*
X816798Y993970D01*
X815613Y991917D01*
X815000Y989628D01*
Y987259D01*
X815613Y984970D01*
X816798Y982917D01*
X816953Y982762D01*
X817412Y975832D01*
X817422Y974091D01*
X817444Y973982D01*
Y919716D01*
X803614Y905886D01*
X802572Y904528D01*
X801917Y902947D01*
X801829Y902277D01*
X800514Y902015D01*
X800402Y902210D01*
X798912Y903699D01*
X797088Y904752D01*
X796000Y905044D01*
Y897298D01*
Y889551D01*
X797088Y889843D01*
X798912Y890896D01*
X800402Y892385D01*
X800424Y892424D01*
X801694Y892084D01*
Y858916D01*
X800424Y858390D01*
X799912Y858902D01*
X798088Y859955D01*
X796053Y860500D01*
X793947D01*
X791912Y859955D01*
X790788Y859306D01*
X758966D01*
X745536Y872736D01*
X744178Y873778D01*
X742597Y874433D01*
X740900Y874656D01*
X737172D01*
X736526Y875302D01*
X734474Y876487D01*
X732185Y877100D01*
X729815D01*
X727526Y876487D01*
X725474Y875302D01*
X723798Y873626D01*
X722613Y871574D01*
X722000Y869285D01*
Y866915D01*
X722487Y865098D01*
X721705Y864150D01*
X721506Y864046D01*
X720185Y864400D01*
X717815D01*
X715526Y863787D01*
X713474Y862602D01*
X711798Y860926D01*
X710613Y858874D01*
X710000Y856585D01*
Y854215D01*
X710613Y851926D01*
X711798Y849874D01*
X712444Y849228D01*
Y760572D01*
X711798Y759926D01*
X710613Y757874D01*
X710000Y755585D01*
Y753215D01*
X710613Y750926D01*
X711798Y748874D01*
X713474Y747198D01*
X715526Y746013D01*
X717815Y745400D01*
X720185D01*
X722474Y746013D01*
X724526Y747198D01*
X726202Y748874D01*
X727387Y750926D01*
X728000Y753215D01*
Y755585D01*
X727387Y757874D01*
X726202Y759926D01*
X725556Y760572D01*
Y849228D01*
X726202Y849874D01*
X727387Y851926D01*
X728000Y854215D01*
Y856585D01*
X727513Y858402D01*
X728295Y859350D01*
X728494Y859454D01*
X729815Y859100D01*
X732185D01*
X734474Y859713D01*
X736526Y860898D01*
X736990Y861362D01*
X738366D01*
X751614Y848114D01*
X752972Y847072D01*
X754553Y846417D01*
X756250Y846194D01*
X789992D01*
X790088Y846098D01*
X791912Y845045D01*
X793947Y844500D01*
X796053D01*
X798088Y845045D01*
X799912Y846098D01*
X800538Y846724D01*
X801879Y846269D01*
X801917Y845979D01*
X802572Y844398D01*
X803614Y843040D01*
X817444Y829210D01*
Y565888D01*
X817667Y564191D01*
X818322Y562610D01*
X819364Y561252D01*
X846138Y534478D01*
X846199Y534386D01*
X847469Y533102D01*
X850449Y529911D01*
X851661Y528441D01*
X851976Y528001D01*
X852000Y527962D01*
Y527703D01*
X852613Y525414D01*
X853798Y523362D01*
X855474Y521687D01*
X857526Y520502D01*
X859815Y519888D01*
X862185D01*
X864474Y520502D01*
X866526Y521687D01*
X868202Y523362D01*
X869387Y525414D01*
X870000Y527703D01*
Y530073D01*
X869387Y532362D01*
X868202Y534414D01*
X866526Y536090D01*
X864474Y537275D01*
X862185Y537888D01*
X861966D01*
X856740Y542465D01*
X855502Y543689D01*
X855410Y543750D01*
X830556Y568604D01*
Y751308D01*
X831656Y751943D01*
X831912Y751795D01*
X833000Y751504D01*
Y759250D01*
Y766996D01*
X831912Y766705D01*
X831656Y766557D01*
X830556Y767192D01*
Y831926D01*
X830333Y833623D01*
X830232Y833865D01*
X830342Y834105D01*
X830540Y834378D01*
X831196Y834857D01*
X834943Y833640D01*
X839296Y832950D01*
X843704D01*
X848057Y833640D01*
X852248Y835001D01*
X855685Y836752D01*
X856440Y835712D01*
X854364Y833636D01*
X853322Y832278D01*
X852667Y830697D01*
X852444Y829000D01*
Y753690D01*
X841364Y742610D01*
X840322Y741252D01*
X839667Y739671D01*
X839444Y737974D01*
Y567888D01*
X839667Y566191D01*
X840322Y564610D01*
X841364Y563252D01*
X870138Y534478D01*
X870200Y534386D01*
X871469Y533102D01*
X874449Y529911D01*
X875661Y528441D01*
X875976Y528001D01*
X876000Y527962D01*
Y527703D01*
X876613Y525414D01*
X877798Y523362D01*
X879474Y521687D01*
X881526Y520502D01*
X883815Y519888D01*
X886185D01*
X888474Y520502D01*
X890526Y521687D01*
X892202Y523362D01*
X893387Y525414D01*
X894000Y527703D01*
Y530073D01*
X893387Y532362D01*
X892202Y534414D01*
X890526Y536090D01*
X888474Y537275D01*
X886185Y537888D01*
X885966D01*
X880741Y542465D01*
X879503Y543689D01*
X879410Y543750D01*
X852556Y570604D01*
Y735259D01*
X863636Y746339D01*
X864678Y747696D01*
X865333Y749277D01*
X865556Y750974D01*
Y826284D01*
X874862Y835590D01*
X876088Y835261D01*
X876328Y834365D01*
X877094Y833039D01*
Y823150D01*
X877085Y822281D01*
X877094Y822233D01*
Y728830D01*
X875845Y726666D01*
X875163Y724123D01*
Y721490D01*
X875845Y718947D01*
X876867Y717177D01*
X877085Y706252D01*
X877094Y706214D01*
Y560643D01*
X877369Y558555D01*
X878175Y556609D01*
X879457Y554938D01*
X881590Y552805D01*
X881615Y552767D01*
X888682Y545576D01*
X889099Y545119D01*
X889681Y542947D01*
X890998Y540666D01*
X892860Y538804D01*
X895140Y537488D01*
X897683Y536806D01*
X900316D01*
X902860Y537488D01*
X905140Y538804D01*
X907002Y540666D01*
X908318Y542947D01*
X909000Y545490D01*
Y548123D01*
X908318Y550666D01*
X907002Y552946D01*
X905140Y554808D01*
X902860Y556125D01*
X900886Y556654D01*
X893232Y564007D01*
Y706255D01*
X893241Y706299D01*
X893329Y716380D01*
X893357Y716999D01*
X894482Y718947D01*
X895163Y721490D01*
Y724123D01*
X894482Y726666D01*
X893232Y728830D01*
Y821145D01*
X893236Y821163D01*
X893785Y832321D01*
X894965Y834365D01*
X895647Y836909D01*
Y839542D01*
X894965Y842085D01*
X893785Y844129D01*
X893236Y855287D01*
X893232Y855305D01*
Y905190D01*
X893652Y905610D01*
X894968Y907890D01*
X895650Y910434D01*
Y913067D01*
X894968Y915610D01*
X893851Y917545D01*
X893431Y928623D01*
X893425Y928650D01*
Y928734D01*
X893425Y928738D01*
X893425Y928739D01*
Y929750D01*
X893150Y931838D01*
X892344Y933784D01*
X891061Y935456D01*
X884716Y941801D01*
Y951305D01*
X931783Y998372D01*
X932330Y998225D01*
X934964D01*
X937507Y998907D01*
X939787Y1000223D01*
X941649Y1002085D01*
X942965Y1004365D01*
X943647Y1006909D01*
Y1009542D01*
X943209Y1011176D01*
X944322Y1011722D01*
X945364Y1010364D01*
X985364Y970364D01*
X986722Y969322D01*
X988303Y968667D01*
X990000Y968444D01*
X1029171D01*
X1029657Y967271D01*
X1029298Y966911D01*
X1027784Y964289D01*
X1027000Y961364D01*
Y958336D01*
X1027784Y955411D01*
X1029298Y952789D01*
X1031439Y950648D01*
X1034061Y949134D01*
X1036986Y948350D01*
X1040014D01*
X1042939Y949134D01*
X1045561Y950648D01*
X1047702Y952789D01*
X1049216Y955411D01*
X1050000Y958336D01*
Y960932D01*
X1051203Y961525D01*
X1098444Y914284D01*
Y687000D01*
X1098667Y685303D01*
X1099322Y683722D01*
X1100364Y682364D01*
X1105100Y677629D01*
X1105160Y677537D01*
X1107168Y675498D01*
X1110516Y671901D01*
X1112979Y668954D01*
X1113823Y667809D01*
X1114443Y666855D01*
X1114811Y666173D01*
X1114932Y665865D01*
X1115000Y665503D01*
Y665070D01*
X1115818Y662018D01*
X1117398Y659282D01*
X1119632Y657048D01*
X1122368Y655468D01*
X1125420Y654650D01*
X1128580D01*
X1131632Y655468D01*
X1134368Y657048D01*
X1136602Y659282D01*
X1138182Y662018D01*
X1139000Y665070D01*
Y668230D01*
X1138182Y671282D01*
X1136602Y674018D01*
X1134368Y676252D01*
X1131632Y677832D01*
X1128580Y678650D01*
X1127132D01*
X1127018Y678664D01*
X1126812Y678715D01*
X1126770Y678780D01*
X1127468Y680050D01*
X1128330D01*
X1131382Y680868D01*
X1134118Y682448D01*
X1136352Y684682D01*
X1137932Y687418D01*
X1138750Y690470D01*
Y693630D01*
X1137932Y696682D01*
X1136352Y699418D01*
X1135675Y700096D01*
X1135592Y700254D01*
X1135216Y700724D01*
X1134976Y701162D01*
X1134668Y701950D01*
X1134351Y703066D01*
X1134057Y704487D01*
X1133814Y706119D01*
X1133358Y712967D01*
X1133328Y715695D01*
X1133306Y715799D01*
Y908250D01*
X1133083Y909947D01*
X1132588Y911140D01*
X1133737Y911685D01*
X1140504Y899092D01*
X1147972Y883381D01*
X1154658Y867322D01*
X1157451Y859556D01*
X1157451Y385708D01*
X1153768Y379593D01*
X1145091Y366516D01*
X1135850Y353831D01*
X1126064Y341562D01*
X1115750Y329733D01*
X1104929Y318365D01*
X1093622Y307483D01*
X1081849Y297104D01*
X1069634Y287250D01*
X1057000Y277940D01*
X1043970Y269191D01*
X1030571Y261021D01*
X1024274Y257549D01*
X904618D01*
X904230Y258819D01*
X916706Y271294D01*
X917988Y272966D01*
X918794Y274912D01*
X919069Y277000D01*
Y304250D01*
X918794Y306338D01*
X917988Y308284D01*
X916906Y309695D01*
X916781Y309892D01*
X913249Y313598D01*
X910646Y316702D01*
X909732Y317959D01*
X909029Y319063D01*
X908563Y319947D01*
X908321Y320559D01*
X908260Y320825D01*
X908253Y321259D01*
X908092Y322005D01*
X907943Y322754D01*
X907924Y322782D01*
X907917Y322815D01*
X907483Y323442D01*
X907250Y323791D01*
Y324409D01*
X906262Y328097D01*
X904353Y331403D01*
X901653Y334103D01*
X898347Y336012D01*
X894750Y336976D01*
Y322500D01*
X892750D01*
Y320500D01*
X878274D01*
X879238Y316903D01*
X881147Y313597D01*
X881974Y312770D01*
X881448Y311500D01*
X878407D01*
X874846Y310546D01*
X871654Y308703D01*
X869047Y306096D01*
X867204Y302904D01*
X866250Y299343D01*
Y295657D01*
X866670Y294091D01*
X865486Y293601D01*
X864952Y294526D01*
X864306Y295172D01*
Y311034D01*
X873886Y320614D01*
X874928Y321972D01*
X875583Y323553D01*
X875806Y325250D01*
Y370828D01*
X876452Y371474D01*
X877637Y373526D01*
X878250Y375815D01*
Y378185D01*
X877637Y380474D01*
X876452Y382526D01*
X874776Y384202D01*
X872724Y385387D01*
X870435Y386000D01*
X868065D01*
X865776Y385387D01*
X863724Y384202D01*
X862048Y382526D01*
X861662Y382475D01*
X860735Y383402D01*
X858911Y384455D01*
X857823Y384746D01*
Y377000D01*
Y369254D01*
X858911Y369545D01*
X860735Y370598D01*
X861022Y370885D01*
X862617Y370831D01*
X862694Y370761D01*
Y327966D01*
X856729Y322001D01*
X855556Y322487D01*
Y344250D01*
X855333Y345947D01*
X854678Y347528D01*
X853636Y348886D01*
X817886Y384636D01*
X816528Y385678D01*
X814947Y386333D01*
X813250Y386556D01*
X770966D01*
X722886Y434636D01*
X721528Y435678D01*
X719947Y436333D01*
X718250Y436556D01*
X602716D01*
X596556Y442716D01*
Y457284D01*
X769636Y630364D01*
X770678Y631722D01*
X771333Y633303D01*
X771556Y635000D01*
Y650000D01*
X771333Y651697D01*
X770678Y653278D01*
X769636Y654636D01*
X761479Y662793D01*
X760121Y663835D01*
X758540Y664490D01*
X756843Y664713D01*
X724716D01*
X491556Y897872D01*
Y900028D01*
X492202Y900674D01*
X493387Y902726D01*
X494000Y905015D01*
Y907385D01*
X493387Y909674D01*
X492202Y911726D01*
X490526Y913402D01*
X488474Y914587D01*
X486185Y915200D01*
X484641D01*
X483650Y916398D01*
X483649Y916405D01*
X484000Y917715D01*
Y920085D01*
X483649Y921395D01*
X483650Y921402D01*
X484641Y922600D01*
X486185D01*
X488474Y923213D01*
X490526Y924398D01*
X492202Y926074D01*
X493387Y928126D01*
X494000Y930415D01*
Y932785D01*
X493387Y935074D01*
X492202Y937126D01*
X490526Y938802D01*
X488474Y939987D01*
X486185Y940600D01*
X484641D01*
X483650Y941798D01*
X483649Y941805D01*
X484000Y943115D01*
Y945485D01*
X483387Y947774D01*
X482202Y949826D01*
X480526Y951502D01*
X478474Y952687D01*
X476185Y953300D01*
X473815D01*
X471526Y952687D01*
X469474Y951502D01*
X467798Y949826D01*
X466613Y947774D01*
X466000Y945485D01*
Y943115D01*
X466613Y940826D01*
X466710Y940658D01*
X430064Y904013D01*
X428926Y904670D01*
X429000Y904947D01*
Y907053D01*
X428455Y909088D01*
X427402Y910912D01*
X425912Y912402D01*
X424088Y913455D01*
X423000Y913746D01*
Y906000D01*
X421000D01*
Y904000D01*
X413254D01*
X413545Y902912D01*
X414598Y901088D01*
X416088Y899598D01*
X417912Y898545D01*
X419947Y898000D01*
X422053D01*
X422330Y898074D01*
X422988Y896936D01*
X381698Y855647D01*
X380560Y856304D01*
X380746Y857000D01*
X375000D01*
Y851254D01*
X375696Y851440D01*
X376354Y850302D01*
X344364Y818312D01*
X343322Y816954D01*
X342667Y815373D01*
X342444Y813676D01*
Y679194D01*
X340998Y677748D01*
X339682Y675468D01*
X339000Y672925D01*
Y670292D01*
X339682Y667748D01*
X340998Y665468D01*
X341085Y665381D01*
X340420Y664250D01*
X339980Y664250D01*
X320250D01*
Y645521D01*
X320202Y645281D01*
X320250Y645040D01*
Y641250D01*
X322303D01*
X322359Y640893D01*
X322525Y638620D01*
X322534Y638085D01*
X322468Y635826D01*
X322383Y634852D01*
X322333Y634500D01*
X320500D01*
Y630710D01*
X320452Y630470D01*
X320500Y630229D01*
Y615771D01*
X320452Y615531D01*
X320500Y615290D01*
Y611500D01*
X322662D01*
X322725Y611118D01*
X322900Y608860D01*
X322922Y607464D01*
X322931Y607424D01*
Y605641D01*
X323206Y603553D01*
X324012Y601607D01*
X325294Y599936D01*
X328251Y596979D01*
X328613Y595626D01*
X329798Y593574D01*
X331474Y591898D01*
X333526Y590713D01*
X335815Y590100D01*
X338185D01*
X340474Y590713D01*
X342526Y591898D01*
X344202Y593574D01*
X345387Y595626D01*
X346000Y597915D01*
Y600285D01*
X345387Y602574D01*
X344202Y604626D01*
X342526Y606302D01*
X340691Y607361D01*
X339100Y608953D01*
X339239Y611217D01*
X339277Y611500D01*
X341000Y611500D01*
X342270Y611500D01*
X362000D01*
Y617978D01*
X362668Y617994D01*
X363036Y618076D01*
X364268Y618238D01*
X365849Y618893D01*
X367207Y619935D01*
X373980Y626708D01*
X375250Y626182D01*
Y613439D01*
X375233Y613352D01*
X375250Y613264D01*
Y611907D01*
X375065Y611642D01*
X373713Y610047D01*
X372812Y609114D01*
X372756Y609028D01*
X349364Y585636D01*
X348322Y584278D01*
X347667Y582697D01*
X347444Y581000D01*
Y428051D01*
X347667Y426354D01*
X348322Y424773D01*
X349364Y423415D01*
X364689Y408090D01*
X364750Y407998D01*
X366020Y406713D01*
X368999Y403523D01*
X370212Y402052D01*
X370527Y401613D01*
X370551Y401574D01*
Y401315D01*
X371164Y399026D01*
X372349Y396974D01*
X374025Y395298D01*
X376077Y394113D01*
X378366Y393500D01*
X380736D01*
X383025Y394113D01*
X385077Y395298D01*
X386753Y396974D01*
X387938Y399026D01*
X388393Y400728D01*
X389708D01*
X390164Y399026D01*
X391349Y396974D01*
X393025Y395298D01*
X395077Y394113D01*
X397366Y393500D01*
X399736D01*
X402025Y394113D01*
X404077Y395298D01*
X405753Y396974D01*
X406937Y399026D01*
X407551Y401315D01*
Y403685D01*
X406937Y405974D01*
X405753Y408026D01*
X404077Y409702D01*
X402025Y410887D01*
X399736Y411500D01*
X399517D01*
X394291Y416076D01*
X393053Y417300D01*
X392961Y417362D01*
X368556Y441766D01*
Y559292D01*
X368730Y559409D01*
X370000Y558730D01*
Y475000D01*
X405000D01*
Y450000D01*
X502000D01*
Y488717D01*
X502700Y492236D01*
Y496964D01*
X502000Y500483D01*
Y539517D01*
X502700Y543036D01*
Y547764D01*
X502000Y551283D01*
Y590000D01*
X405000D01*
Y565000D01*
X374931D01*
X374445Y566173D01*
X399716Y591444D01*
X428321D01*
X430018Y591667D01*
X431599Y592322D01*
X432957Y593364D01*
X435886Y596293D01*
X436928Y597651D01*
X437583Y599232D01*
X437806Y600929D01*
Y601582D01*
X437827Y601674D01*
X437849Y602505D01*
X437870Y602750D01*
X442750D01*
Y608879D01*
X443003Y608901D01*
X443827Y608923D01*
X443919Y608944D01*
X466500D01*
X468197Y609167D01*
X469778Y609822D01*
X471136Y610864D01*
X475716Y615444D01*
X478582D01*
X478674Y615423D01*
X479505Y615401D01*
X479750Y615380D01*
Y610500D01*
X500250D01*
Y610500D01*
X501250D01*
Y610500D01*
X521750D01*
X521922Y609301D01*
Y561000D01*
X522232Y558651D01*
X523139Y556461D01*
X524581Y554581D01*
X557557Y521605D01*
X557682Y521140D01*
X558998Y518860D01*
X560860Y516998D01*
X563140Y515681D01*
X565684Y515000D01*
X568316D01*
X570860Y515681D01*
X573140Y516998D01*
X575002Y518860D01*
X576319Y521140D01*
X576847Y523114D01*
X584417Y530994D01*
X584438Y531027D01*
X626323Y572912D01*
X627605Y574583D01*
X628411Y576529D01*
X628686Y578617D01*
Y585313D01*
X629387Y586526D01*
X630000Y588815D01*
Y591185D01*
X629387Y593474D01*
X628202Y595526D01*
X626526Y597202D01*
X624474Y598387D01*
X622185Y599000D01*
X619815D01*
X617526Y598387D01*
X615474Y597202D01*
X613798Y595526D01*
X612613Y593474D01*
X612000Y591185D01*
Y588815D01*
X612548Y586769D01*
Y581960D01*
X572998Y542410D01*
X572961Y542385D01*
X567661Y537177D01*
X540078Y564760D01*
Y609419D01*
X540124Y611167D01*
X540249Y612585D01*
X540440Y613733D01*
X540672Y614593D01*
X540901Y615153D01*
X540923Y615189D01*
X544405Y615413D01*
X546348Y615422D01*
X546457Y615444D01*
X677082D01*
X677174Y615423D01*
X678005Y615401D01*
X678250Y615380D01*
Y610500D01*
X698750D01*
Y610500D01*
X699750D01*
Y610500D01*
X720250D01*
Y615882D01*
X727000D01*
X729341Y616348D01*
X731326Y617674D01*
X741680Y628028D01*
X743411Y629630D01*
X745176Y631082D01*
X745806Y631533D01*
X746296Y631839D01*
X746522Y631954D01*
X746570Y631961D01*
X746681Y632000D01*
X747185D01*
X749474Y632613D01*
X751526Y633798D01*
X753202Y635474D01*
X754387Y637526D01*
X755000Y639815D01*
Y642185D01*
X754387Y644474D01*
X753202Y646526D01*
X751526Y648202D01*
X749474Y649387D01*
X747185Y650000D01*
X744815D01*
X742526Y649387D01*
X740474Y648202D01*
X738798Y646526D01*
X737613Y644474D01*
X737000Y642185D01*
Y641681D01*
X736961Y641570D01*
X736954Y641522D01*
X736840Y641296D01*
X736533Y640806D01*
X736120Y640230D01*
X733020Y636699D01*
X732230Y636870D01*
X731750Y637198D01*
Y651601D01*
X754128D01*
X758444Y647284D01*
Y637716D01*
X696173Y575445D01*
X695000Y575931D01*
Y576053D01*
X694455Y578088D01*
X693402Y579912D01*
X691912Y581402D01*
X690088Y582455D01*
X689000Y582746D01*
Y575000D01*
X687000D01*
Y573000D01*
X679254D01*
X679545Y571912D01*
X680598Y570088D01*
X682088Y568598D01*
X683912Y567545D01*
X685947Y567000D01*
X686069D01*
X686555Y565827D01*
X585364Y464636D01*
X584322Y463278D01*
X583667Y461697D01*
X583444Y460000D01*
Y440000D01*
X583667Y438303D01*
X584322Y436722D01*
X585364Y435364D01*
X595364Y425364D01*
X596722Y424322D01*
X598303Y423667D01*
X600000Y423444D01*
X715534D01*
X763614Y375364D01*
X764972Y374322D01*
X766553Y373667D01*
X768250Y373444D01*
X810534D01*
X842444Y341534D01*
Y314395D01*
X842081Y314158D01*
X841145Y313644D01*
X840110Y313167D01*
X838973Y312731D01*
X837783Y312354D01*
X834887Y311689D01*
X834122Y311570D01*
X833530Y312736D01*
X833526Y312770D01*
X834353Y313597D01*
X836262Y316903D01*
X837226Y320500D01*
X822750D01*
Y322500D01*
X820750D01*
Y336976D01*
X817153Y336012D01*
X813847Y334103D01*
X811662Y331918D01*
X783457Y330923D01*
X783294Y330978D01*
X782909Y331185D01*
X782648Y331398D01*
X782435Y331659D01*
X782228Y332044D01*
X782034Y332625D01*
X781890Y333443D01*
X781823Y334714D01*
X781819Y334729D01*
Y349000D01*
X783000D01*
Y357500D01*
X773750D01*
X764500D01*
Y349000D01*
X765681D01*
Y334676D01*
X765674Y334648D01*
X765626Y333300D01*
X765507Y332324D01*
X765338Y331590D01*
X765157Y331101D01*
X765007Y330834D01*
X764920Y330731D01*
X764882Y330701D01*
X764816Y330669D01*
X764621Y330619D01*
X763930Y330566D01*
X763671Y330494D01*
X762153Y330294D01*
X760207Y329488D01*
X758536Y328206D01*
X756451Y326121D01*
X756426Y326106D01*
X753622Y323495D01*
X752919Y322916D01*
X751473Y321857D01*
X750930Y321517D01*
X750430Y321244D01*
X750025Y321059D01*
X749531Y320882D01*
X749270Y320725D01*
X748538Y320991D01*
X748000Y321490D01*
Y327350D01*
X745798D01*
X745630Y328620D01*
X745860Y328681D01*
X748140Y329998D01*
X750002Y331860D01*
X751319Y334140D01*
X752000Y336684D01*
Y339316D01*
X751319Y341860D01*
X750002Y344140D01*
X748140Y346002D01*
X746879Y346730D01*
X747219Y348000D01*
X763000D01*
Y371000D01*
X744228D01*
X744061Y372270D01*
X745088Y372545D01*
X746912Y373598D01*
X748402Y375088D01*
X749455Y376912D01*
X749746Y378000D01*
X742000D01*
Y380000D01*
X740000D01*
Y387746D01*
X738912Y387455D01*
X737088Y386402D01*
X735598Y384912D01*
X735270Y384343D01*
X734000Y384683D01*
Y390750D01*
X727095D01*
Y391321D01*
X726854Y393148D01*
X726149Y394851D01*
X725288Y395974D01*
X725111Y396253D01*
X722963Y398512D01*
X721428Y400358D01*
X720928Y401054D01*
X720558Y401646D01*
X720342Y402066D01*
X720286Y402215D01*
X720285Y402307D01*
X720250Y402478D01*
Y404316D01*
X719568Y406860D01*
X718252Y409140D01*
X716390Y411002D01*
X714110Y412318D01*
X711566Y413000D01*
X708933D01*
X706390Y412318D01*
X704110Y411002D01*
X702248Y409140D01*
X700931Y406860D01*
X700250Y404316D01*
Y402478D01*
X700215Y402307D01*
X700214Y402215D01*
X700158Y402066D01*
X699941Y401646D01*
X699572Y401054D01*
X699095Y400389D01*
X696526Y397418D01*
X695426Y396291D01*
X695257Y396032D01*
X694351Y394851D01*
X693645Y393148D01*
X693405Y391321D01*
Y390750D01*
X686000D01*
Y371020D01*
X686000Y370250D01*
X686000Y368980D01*
Y366056D01*
X677000D01*
Y371000D01*
X656500D01*
Y348000D01*
X672781D01*
X673121Y346730D01*
X671976Y346069D01*
X638250D01*
X636161Y345794D01*
X634215Y344988D01*
X632544Y343706D01*
X627544Y338706D01*
X626262Y337034D01*
X625456Y335088D01*
X625181Y333000D01*
Y331250D01*
X622500D01*
X622310Y332441D01*
Y341076D01*
X633675Y352440D01*
X636500D01*
Y349000D01*
X643750D01*
Y359500D01*
Y370000D01*
X636500D01*
Y366560D01*
X630750D01*
X628923Y366320D01*
X627220Y365615D01*
X625757Y364492D01*
X610257Y348992D01*
X609136Y347530D01*
X608430Y345827D01*
X608190Y344000D01*
Y315226D01*
X606925Y314887D01*
X604872Y313702D01*
X604731Y313560D01*
X407668D01*
X407526Y313702D01*
X405474Y314887D01*
X404000Y315282D01*
Y306500D01*
Y297718D01*
X405474Y298113D01*
X407526Y299298D01*
X407668Y299440D01*
X604731D01*
X604872Y299298D01*
X606925Y298113D01*
X608398Y297719D01*
Y306500D01*
X612398D01*
Y297719D01*
X613872Y298113D01*
X615924Y299298D01*
X616066Y299440D01*
X623500D01*
Y298750D01*
X631250D01*
Y306500D01*
X635250D01*
Y298750D01*
X643000D01*
Y299440D01*
X654623D01*
X654697Y299423D01*
X655738Y299396D01*
X656504Y299330D01*
X657078Y299237D01*
X657105Y299229D01*
X657162Y298942D01*
X657285Y298759D01*
X657351Y298548D01*
X657724Y298102D01*
X657757Y298053D01*
X657838Y297645D01*
X657873Y297114D01*
X657992Y296872D01*
X658045Y296607D01*
X658341Y296164D01*
X658576Y295686D01*
X658964Y295180D01*
X659231Y294778D01*
X659462Y294371D01*
X659660Y293955D01*
X659827Y293527D01*
X659965Y293084D01*
X660074Y292620D01*
X660154Y292131D01*
X660203Y291614D01*
X660224Y290941D01*
X660244Y290854D01*
Y278347D01*
X660224Y278259D01*
X660203Y277586D01*
X660154Y277069D01*
X660074Y276581D01*
X659965Y276116D01*
X659827Y275673D01*
X659660Y275245D01*
X659462Y274830D01*
X659231Y274422D01*
X658964Y274020D01*
X658576Y273514D01*
X658341Y273036D01*
X658045Y272593D01*
X657992Y272328D01*
X657873Y272086D01*
X657838Y271555D01*
X657734Y271033D01*
X657787Y270768D01*
X657769Y270498D01*
X657941Y269994D01*
X657991Y269741D01*
X657722Y267700D01*
Y266700D01*
X666800D01*
X675878D01*
Y267700D01*
X675609Y269741D01*
X675659Y269994D01*
X675831Y270498D01*
X675813Y270768D01*
X675866Y271033D01*
X675762Y271555D01*
X675727Y272086D01*
X675608Y272328D01*
X675555Y272593D01*
X675259Y273036D01*
X675024Y273514D01*
X674636Y274020D01*
X674369Y274422D01*
X674138Y274829D01*
X673940Y275245D01*
X673773Y275673D01*
X673635Y276116D01*
X673526Y276580D01*
X673447Y277069D01*
X673397Y277586D01*
X673376Y278259D01*
X673356Y278347D01*
Y290854D01*
X673376Y290941D01*
X673397Y291614D01*
X673447Y292131D01*
X673526Y292619D01*
X673635Y293084D01*
X673773Y293527D01*
X673940Y293955D01*
X674138Y294370D01*
X674369Y294778D01*
X674636Y295180D01*
X674846Y295454D01*
X675761Y295690D01*
X676405Y295692D01*
X676648Y295449D01*
X678302Y294494D01*
X680145Y294000D01*
X682055D01*
X683898Y294494D01*
X685552Y295449D01*
X686901Y296798D01*
X687856Y298452D01*
X688350Y300296D01*
Y302204D01*
X688462Y302350D01*
X731538D01*
X731650Y302204D01*
Y300296D01*
X732144Y298452D01*
X733099Y296798D01*
X734448Y295449D01*
X736102Y294494D01*
X737945Y294000D01*
X739855D01*
X741698Y294494D01*
X743352Y295449D01*
X743595Y295692D01*
X744239Y295690D01*
X745154Y295454D01*
X745364Y295180D01*
X745631Y294778D01*
X745862Y294371D01*
X746060Y293955D01*
X746227Y293527D01*
X746365Y293084D01*
X746474Y292620D01*
X746553Y292131D01*
X746603Y291614D01*
X746624Y290941D01*
X746644Y290854D01*
Y278347D01*
X746624Y278259D01*
X746603Y277586D01*
X746553Y277069D01*
X746474Y276581D01*
X746365Y276116D01*
X746227Y275673D01*
X746060Y275245D01*
X745862Y274830D01*
X745631Y274422D01*
X745364Y274020D01*
X744976Y273514D01*
X744740Y273036D01*
X744445Y272593D01*
X744392Y272328D01*
X744273Y272086D01*
X744238Y271555D01*
X744134Y271033D01*
X744187Y270768D01*
X744169Y270498D01*
X744341Y269994D01*
X744391Y269741D01*
X744122Y267700D01*
Y266700D01*
X753200D01*
X762278D01*
Y267700D01*
X762009Y269741D01*
X762059Y269994D01*
X762231Y270498D01*
X762213Y270768D01*
X762266Y271033D01*
X762162Y271555D01*
X762127Y272086D01*
X762008Y272328D01*
X761955Y272593D01*
X761659Y273036D01*
X761424Y273514D01*
X761036Y274020D01*
X760769Y274422D01*
X760538Y274829D01*
X760340Y275245D01*
X760173Y275673D01*
X760035Y276116D01*
X759926Y276580D01*
X759846Y277069D01*
X759797Y277586D01*
X759776Y278259D01*
X759756Y278347D01*
Y290854D01*
X759776Y290941D01*
X759797Y291614D01*
X759846Y292131D01*
X759926Y292619D01*
X760035Y293084D01*
X760173Y293527D01*
X760340Y293955D01*
X760538Y294370D01*
X760769Y294778D01*
X761036Y295180D01*
X761424Y295686D01*
X761659Y296164D01*
X761955Y296607D01*
X762008Y296872D01*
X762127Y297114D01*
X762162Y297645D01*
X762266Y298167D01*
X762213Y298432D01*
X762231Y298702D01*
X762059Y299206D01*
X762009Y299459D01*
X762278Y301500D01*
Y303533D01*
X762355Y303599D01*
X762491Y303862D01*
X762688Y304084D01*
X762853Y304562D01*
X763086Y305012D01*
X763111Y305307D01*
X763208Y305588D01*
X763178Y306093D01*
X763221Y306597D01*
X763131Y306880D01*
X763113Y307176D01*
X762892Y307632D01*
X762755Y308063D01*
X762783Y308173D01*
X763029Y308749D01*
X763497Y309569D01*
X764167Y310540D01*
X764783Y311271D01*
X766086Y310847D01*
X766762Y309216D01*
X768044Y307544D01*
X771388Y304200D01*
X771009Y302784D01*
X769526Y302387D01*
X767474Y301202D01*
X765798Y299526D01*
X764613Y297474D01*
X764000Y295185D01*
Y292815D01*
X764613Y290526D01*
X765798Y288474D01*
X767474Y286798D01*
X769526Y285613D01*
X771815Y285000D01*
X772228D01*
X787000Y270228D01*
Y268815D01*
X787613Y266526D01*
X788798Y264474D01*
X790474Y262798D01*
X792526Y261613D01*
X794815Y261000D01*
X797185D01*
X799474Y261613D01*
X801526Y262798D01*
X803202Y264474D01*
X804387Y266526D01*
X805000Y268815D01*
Y268929D01*
X806173Y269415D01*
X816770Y258819D01*
X816382Y257549D01*
X766250D01*
X765275Y257355D01*
X764448Y256802D01*
X763194Y255549D01*
X761260D01*
X760698Y256688D01*
X761061Y257161D01*
X761968Y259350D01*
X762278Y261700D01*
Y262700D01*
X753200D01*
X744122D01*
Y261700D01*
X744432Y259350D01*
X745339Y257161D01*
X745702Y256688D01*
X745140Y255549D01*
X674860D01*
X674298Y256688D01*
X674661Y257161D01*
X675568Y259350D01*
X675878Y261700D01*
Y262700D01*
X666800D01*
X657722D01*
Y261700D01*
X658032Y259350D01*
X658939Y257161D01*
X659302Y256688D01*
X658740Y255549D01*
X657306D01*
X656052Y256802D01*
X655225Y257355D01*
X654250Y257549D01*
X395727D01*
X389430Y261023D01*
X376032Y269199D01*
X363005Y277953D01*
X350373Y287268D01*
X338160Y297127D01*
X326390Y307510D01*
X315085Y318398D01*
X304267Y329770D01*
X293956Y341604D01*
X284173Y353877D01*
X274936Y366567D01*
X266262Y379648D01*
X262580Y385765D01*
X262549Y859557D01*
X265337Y867326D01*
X272014Y883391D01*
X279476Y899107D01*
X287703Y914436D01*
X296676Y929340D01*
X306374Y943783D01*
X316772Y957731D01*
X327845Y971149D01*
X339567Y984004D01*
X351908Y996266D01*
X364680Y1007760D01*
X365598Y1006912D01*
X364545Y1005088D01*
X364254Y1004000D01*
X370000D01*
Y1009746D01*
X368912Y1009455D01*
X368371Y1009143D01*
X367648Y1010192D01*
X378329Y1018890D01*
X392343Y1029197D01*
X406850Y1038801D01*
X421811Y1047677D01*
X437193Y1055805D01*
X452957Y1063164D01*
X469065Y1069737D01*
X480728Y1073838D01*
X481422Y1072735D01*
X480598Y1071912D01*
X479545Y1070088D01*
X479254Y1069000D01*
X494746D01*
X494455Y1070088D01*
X493402Y1071912D01*
X491912Y1073402D01*
X490088Y1074455D01*
X488146Y1074975D01*
X488084Y1075086D01*
X488339Y1076357D01*
X502154Y1080461D01*
X506452Y1081510D01*
X507451Y1080726D01*
X507451Y1022250D01*
X507645Y1021275D01*
X508198Y1020448D01*
X509025Y1019895D01*
X510000Y1019701D01*
X693500D01*
X694475Y1019895D01*
X695302Y1020448D01*
X695855Y1021275D01*
X696049Y1022250D01*
Y1082451D01*
X909693Y1082451D01*
D02*
G37*
G36*
X943444Y1040284D02*
Y1015000D01*
X943667Y1013303D01*
X942494Y1012902D01*
X941649Y1014365D01*
X939787Y1016227D01*
X937507Y1017544D01*
X934964Y1018225D01*
X932330D01*
X929787Y1017544D01*
X927507Y1016227D01*
X925645Y1014365D01*
X925128Y1013469D01*
X923966Y1012988D01*
X922294Y1011706D01*
X887984Y977395D01*
X887820Y977463D01*
X886809Y978017D01*
X886237Y980154D01*
X885052Y982206D01*
X883376Y983882D01*
X881324Y985067D01*
X879035Y985680D01*
X878816D01*
X873590Y990256D01*
X872353Y991480D01*
X872260Y991542D01*
X829042Y1034760D01*
X827684Y1035802D01*
X826103Y1036457D01*
X824406Y1036680D01*
X801527D01*
X801437Y1036701D01*
X801405Y1036695D01*
X801372Y1036702D01*
X797898Y1036747D01*
X795229Y1036874D01*
X793323Y1037073D01*
X792800Y1037167D01*
X792706Y1037191D01*
X792447Y1037450D01*
X790394Y1038635D01*
X788105Y1039249D01*
X785736D01*
X783447Y1038635D01*
X781687Y1037619D01*
X780907Y1038636D01*
X793716Y1051444D01*
X932284D01*
X943444Y1040284D01*
D02*
G37*
G36*
X950922Y1069715D02*
X967025Y1063136D01*
X982785Y1055771D01*
X998162Y1047639D01*
X1013120Y1038760D01*
X1027624Y1029154D01*
X1041636Y1018846D01*
X1047760Y1013857D01*
X1047169Y1012701D01*
X1047000Y1012746D01*
Y1007000D01*
X1052746D01*
X1052455Y1008088D01*
X1052119Y1008669D01*
X1053102Y1009506D01*
X1055123Y1007861D01*
X1068053Y996224D01*
X1080394Y983964D01*
X1092116Y971111D01*
X1103191Y957697D01*
X1113591Y943753D01*
X1123292Y929314D01*
X1132271Y914415D01*
X1133339Y912427D01*
X1132269Y911736D01*
X1131386Y912886D01*
X1056636Y987636D01*
X1055278Y988678D01*
X1053697Y989333D01*
X1052000Y989556D01*
X1000716D01*
X966556Y1023716D01*
Y1048000D01*
X966333Y1049697D01*
X965678Y1051278D01*
X964636Y1052636D01*
X947754Y1069518D01*
X948430Y1070593D01*
X950922Y1069715D01*
D02*
G37*
G36*
X870810Y987270D02*
X876483Y982301D01*
X877048Y981956D01*
X877505Y981749D01*
X877853Y981680D01*
X872850Y976677D01*
X872781Y977025D01*
X872574Y977482D01*
X872229Y978047D01*
X871745Y978721D01*
X870365Y980394D01*
X867260Y983719D01*
X865949Y985045D01*
X869485Y988581D01*
X870810Y987270D01*
D02*
G37*
G36*
X827341Y984615D02*
X827164Y984146D01*
X827009Y983502D01*
X826874Y982684D01*
X826666Y980525D01*
X826510Y975978D01*
X826500Y974113D01*
X821500D01*
X821490Y975978D01*
X820992Y983502D01*
X820836Y984146D01*
X820659Y984615D01*
X820462Y984910D01*
X827538D01*
X827341Y984615D01*
D02*
G37*
G36*
X862341Y971172D02*
X862164Y970702D01*
X862009Y970059D01*
X861874Y969240D01*
X861666Y967081D01*
X861510Y962534D01*
X861500Y960670D01*
X856500D01*
X856490Y962534D01*
X855992Y970059D01*
X855836Y970702D01*
X855659Y971172D01*
X855462Y971467D01*
X862538D01*
X862341Y971172D01*
D02*
G37*
G36*
X889826Y916058D02*
X881335Y915919D01*
X881356Y927940D01*
X889356Y928469D01*
X889826Y916058D01*
D02*
G37*
G36*
X889778Y842576D02*
X885418Y838225D01*
X889778Y833874D01*
X889163Y821363D01*
X881163Y822238D01*
X881288Y834102D01*
X885418Y838225D01*
X881288Y842348D01*
X881163Y854212D01*
X889163Y855087D01*
X889778Y842576D01*
D02*
G37*
G36*
X1120194Y905534D02*
Y805350D01*
X1118924Y804616D01*
X1118338Y804955D01*
X1117250Y805246D01*
Y797500D01*
Y789754D01*
X1118338Y790045D01*
X1118924Y790384D01*
X1120194Y789650D01*
Y715839D01*
X1120173Y715744D01*
X1120049Y710419D01*
X1119691Y706154D01*
X1119443Y704487D01*
X1119149Y703065D01*
X1118832Y701950D01*
X1118524Y701162D01*
X1118284Y700724D01*
X1117907Y700254D01*
X1117825Y700096D01*
X1117148Y699418D01*
X1115568Y696682D01*
X1114750Y693630D01*
Y690470D01*
X1115206Y688770D01*
X1114270Y687353D01*
X1113992Y687313D01*
X1113892Y687410D01*
X1113805Y687467D01*
X1111556Y689716D01*
Y789031D01*
X1112826Y789867D01*
X1113250Y789754D01*
Y797500D01*
Y805246D01*
X1112826Y805133D01*
X1111556Y805969D01*
Y912513D01*
X1112729Y912999D01*
X1120194Y905534D01*
D02*
G37*
G36*
X889362Y718400D02*
X889320Y717999D01*
X889251Y716491D01*
X889163Y706334D01*
X881163D01*
X880918Y718566D01*
X889408D01*
X889362Y718400D01*
D02*
G37*
G36*
X1129282Y712809D02*
X1129756Y705683D01*
X1130040Y703772D01*
X1130388Y702094D01*
X1130799Y700648D01*
X1131273Y699434D01*
X1131810Y698452D01*
X1132410Y697703D01*
X1121090D01*
X1121690Y698452D01*
X1122227Y699434D01*
X1122701Y700648D01*
X1123112Y702094D01*
X1123460Y703772D01*
X1123744Y705683D01*
X1124124Y710201D01*
X1124250Y715649D01*
X1129250D01*
X1129282Y712809D01*
D02*
G37*
G36*
X476302Y902854D02*
X476679Y902612D01*
X477798Y900674D01*
X478444Y900028D01*
Y895157D01*
X478667Y893460D01*
X479322Y891879D01*
X480364Y890521D01*
X698207Y672678D01*
X697614Y671475D01*
X697000Y671556D01*
X694716D01*
X493536Y872736D01*
X492178Y873778D01*
X491960Y873868D01*
X490526Y875302D01*
X488474Y876487D01*
X486185Y877100D01*
X483815D01*
X481526Y876487D01*
X479474Y875302D01*
X477798Y873626D01*
X476613Y871574D01*
X476000Y869285D01*
Y866915D01*
X476613Y864626D01*
X477798Y862574D01*
X479474Y860898D01*
X481526Y859713D01*
X483815Y859100D01*
X486185D01*
X488112Y859616D01*
X499577Y848151D01*
X498984Y846948D01*
X498000Y847078D01*
X467277D01*
X466860Y847318D01*
X464316Y848000D01*
X461684D01*
X459140Y847318D01*
X456860Y846002D01*
X454998Y844140D01*
X453681Y841860D01*
X453000Y839317D01*
Y836684D01*
X453681Y834140D01*
X454998Y831860D01*
X456860Y829998D01*
X459140Y828681D01*
X461684Y828000D01*
X464316D01*
X466860Y828681D01*
X467277Y828922D01*
X494240D01*
X521922Y801240D01*
Y672818D01*
X520652Y672478D01*
X520402Y672912D01*
X518912Y674402D01*
X517088Y675455D01*
X516000Y675746D01*
Y668000D01*
X514000D01*
Y666000D01*
X506254D01*
X506545Y664912D01*
X507598Y663088D01*
X509088Y661598D01*
X510523Y660770D01*
X510183Y659500D01*
X503063D01*
X502000Y660000D01*
Y698717D01*
X502700Y702236D01*
Y706964D01*
X502000Y710483D01*
Y749517D01*
X502700Y753036D01*
Y757764D01*
X502000Y761283D01*
Y800000D01*
X405000D01*
Y775000D01*
X365000D01*
X364556Y776086D01*
Y792284D01*
X416166Y843894D01*
X417639Y843571D01*
X418372Y842303D01*
X419861Y840813D01*
X421685Y839760D01*
X422773Y839469D01*
Y847215D01*
X424773D01*
Y849215D01*
X432519D01*
X432228Y850303D01*
X431175Y852127D01*
X429685Y853616D01*
X428417Y854349D01*
X428094Y855822D01*
X475374Y903102D01*
X476302Y902854D01*
D02*
G37*
G36*
X1113025Y682568D02*
X1118391Y678062D01*
X1119995Y676974D01*
X1121506Y676093D01*
X1122924Y675419D01*
X1124250Y674953D01*
X1125484Y674693D01*
X1126625Y674641D01*
X1119010Y666245D01*
X1118870Y666995D01*
X1118518Y667893D01*
X1117953Y668939D01*
X1117177Y670132D01*
X1116189Y671474D01*
X1113576Y674600D01*
X1110114Y678318D01*
X1108066Y680399D01*
X1111051Y684484D01*
X1113025Y682568D01*
D02*
G37*
G36*
X423811Y648220D02*
X423763Y648653D01*
X423619Y649041D01*
X423378Y649382D01*
X423041Y649679D01*
X422608Y649930D01*
X422079Y650135D01*
X421454Y650295D01*
X420732Y650409D01*
X419914Y650477D01*
X419000Y650500D01*
Y655500D01*
X419914Y655523D01*
X420732Y655591D01*
X421454Y655705D01*
X422079Y655865D01*
X422608Y656070D01*
X423041Y656321D01*
X423378Y656617D01*
X423619Y656960D01*
X423763Y657347D01*
X423811Y657781D01*
Y648220D01*
D02*
G37*
G36*
X379311Y647750D02*
X379261Y648225D01*
X379110Y648650D01*
X378858Y649025D01*
X378506Y649350D01*
X378053Y649625D01*
X377500Y649850D01*
X376846Y650025D01*
X376091Y650150D01*
X375236Y650225D01*
X374281Y650250D01*
Y655250D01*
X375236Y655275D01*
X376091Y655350D01*
X376846Y655475D01*
X377500Y655650D01*
X378053Y655875D01*
X378506Y656150D01*
X378858Y656475D01*
X379110Y656850D01*
X379261Y657275D01*
X379311Y657750D01*
Y647750D01*
D02*
G37*
G36*
X357739Y657275D02*
X357890Y656850D01*
X358142Y656475D01*
X358494Y656150D01*
X358947Y655875D01*
X359500Y655650D01*
X360154Y655475D01*
X360909Y655350D01*
X361764Y655275D01*
X362719Y655250D01*
Y650250D01*
X361764Y650225D01*
X360909Y650150D01*
X360154Y650025D01*
X359500Y649850D01*
X358947Y649625D01*
X358494Y649350D01*
X358142Y649025D01*
X357890Y648650D01*
X357739Y648225D01*
X357689Y647750D01*
Y657750D01*
X357739Y657275D01*
D02*
G37*
G36*
X527339Y644595D02*
X527071Y644767D01*
X526603Y644921D01*
X525935Y645056D01*
X525068Y645174D01*
X522734Y645355D01*
X515670Y645500D01*
Y650500D01*
X517735Y650509D01*
X526603Y651079D01*
X527071Y651233D01*
X527339Y651405D01*
Y644595D01*
D02*
G37*
G36*
X507770Y652525D02*
X507920Y652100D01*
X508170Y651725D01*
X508520Y651400D01*
X508969Y651125D01*
X509520Y650900D01*
X510169Y650725D01*
X510919Y650600D01*
X511769Y650525D01*
X512719Y650500D01*
Y645500D01*
X511769Y645475D01*
X510919Y645400D01*
X510169Y645275D01*
X509520Y645100D01*
X508969Y644875D01*
X508520Y644600D01*
X508170Y644275D01*
X507920Y643900D01*
X507770Y643475D01*
X507719Y643000D01*
Y653000D01*
X507770Y652525D01*
D02*
G37*
G36*
X699101Y639561D02*
X698727Y639852D01*
X698278Y639999D01*
X697755Y640002D01*
X697159Y639861D01*
X696489Y639577D01*
X695745Y639148D01*
X694927Y638576D01*
X694035Y637859D01*
X692030Y635995D01*
X688745Y639781D01*
X689727Y640797D01*
X691273Y642625D01*
X691839Y643435D01*
X692265Y644176D01*
X692552Y644849D01*
X692700Y645453D01*
X692709Y645988D01*
X692579Y646454D01*
X692311Y646852D01*
X699101Y639561D01*
D02*
G37*
G36*
X336322Y645201D02*
X335965Y644960D01*
X335651Y644560D01*
X335379Y644000D01*
X335149Y643280D01*
X334960Y642401D01*
X334813Y641360D01*
X334709Y640161D01*
X334637Y637693D01*
X334649Y636950D01*
X334836Y634389D01*
X335000Y633349D01*
X335211Y632469D01*
X335469Y631749D01*
X335774Y631189D01*
X336125Y630789D01*
X336524Y630550D01*
X336969Y630470D01*
X324530D01*
X324928Y630550D01*
X325285Y630789D01*
X325599Y631189D01*
X325871Y631749D01*
X326101Y632469D01*
X326290Y633349D01*
X326437Y634389D01*
X326541Y635589D01*
X326613Y638057D01*
X326601Y638801D01*
X326414Y641360D01*
X326250Y642401D01*
X326039Y643280D01*
X325781Y644000D01*
X325476Y644560D01*
X325125Y644960D01*
X324726Y645201D01*
X324281Y645281D01*
X336720D01*
X336322Y645201D01*
D02*
G37*
G36*
X711515Y631894D02*
X711560Y631379D01*
X711635Y630924D01*
X711740Y630530D01*
X711875Y630197D01*
X712040Y629924D01*
X712235Y629712D01*
X712460Y629560D01*
X712715Y629469D01*
X713000Y629439D01*
X707000D01*
X707285Y629469D01*
X707540Y629560D01*
X707765Y629712D01*
X707960Y629924D01*
X708125Y630197D01*
X708260Y630530D01*
X708365Y630924D01*
X708440Y631379D01*
X708485Y631894D01*
X708500Y632469D01*
X711500D01*
X711515Y631894D01*
D02*
G37*
G36*
X691025Y633514D02*
X691100Y632659D01*
X691225Y631904D01*
X691400Y631250D01*
X691625Y630697D01*
X691900Y630244D01*
X692225Y629892D01*
X692600Y629640D01*
X693025Y629489D01*
X693500Y629439D01*
X683500D01*
X683975Y629489D01*
X684400Y629640D01*
X684775Y629892D01*
X685100Y630244D01*
X685375Y630697D01*
X685600Y631250D01*
X685775Y631904D01*
X685900Y632659D01*
X685975Y633514D01*
X686000Y634469D01*
X691000D01*
X691025Y633514D01*
D02*
G37*
G36*
X746003Y636000D02*
X745522Y635933D01*
X744951Y635731D01*
X744288Y635394D01*
X743534Y634923D01*
X742690Y634318D01*
X740728Y632704D01*
X738402Y630552D01*
X737103Y629274D01*
X734274Y632103D01*
X735552Y633402D01*
X739318Y637690D01*
X739923Y638535D01*
X740394Y639288D01*
X740731Y639951D01*
X740932Y640522D01*
X741000Y641003D01*
X746003Y636000D01*
D02*
G37*
G36*
X687364Y660364D02*
X688178Y659740D01*
X688250Y658500D01*
X688250Y658500D01*
X688250Y658500D01*
Y647059D01*
X688235Y646996D01*
X688250Y646905D01*
Y645419D01*
X688037Y645114D01*
X686700Y643534D01*
X685811Y642613D01*
X685756Y642527D01*
X683864Y640636D01*
X682822Y639278D01*
X682167Y637697D01*
X681944Y636000D01*
Y634668D01*
X681923Y634576D01*
X681901Y633745D01*
X681880Y633500D01*
X678250D01*
Y628620D01*
X678005Y628599D01*
X677174Y628577D01*
X677082Y628556D01*
X546511D01*
X546414Y628577D01*
X540998Y628689D01*
X540901Y628847D01*
X540672Y629407D01*
X540440Y630267D01*
X540249Y631415D01*
X540124Y632833D01*
X540078Y634581D01*
Y648000D01*
Y805000D01*
X539948Y805984D01*
X541151Y806578D01*
X687364Y660364D01*
D02*
G37*
G36*
X536050Y632600D02*
X536200Y630900D01*
X536450Y629400D01*
X536800Y628100D01*
X537250Y627000D01*
X537800Y626100D01*
X538450Y625400D01*
X539200Y624900D01*
X539963Y624631D01*
X546330Y624500D01*
Y619500D01*
X544265Y619491D01*
X539426Y619180D01*
X539200Y619100D01*
X538450Y618600D01*
X537800Y617900D01*
X537250Y617000D01*
X536800Y615900D01*
X536450Y614600D01*
X536200Y613100D01*
X536050Y611400D01*
X536000Y609500D01*
X526000D01*
X525950Y611400D01*
X525800Y613100D01*
X525550Y614600D01*
X525200Y615900D01*
X524750Y617000D01*
X524200Y617900D01*
X523550Y618600D01*
X522800Y619100D01*
X522037Y619370D01*
X520879Y619393D01*
X520169Y619275D01*
X519520Y619100D01*
X518969Y618875D01*
X518520Y618600D01*
X518170Y618275D01*
X517920Y617900D01*
X517770Y617475D01*
X517719Y617000D01*
Y619458D01*
X515670Y619500D01*
Y624500D01*
X517719Y624509D01*
Y627000D01*
X517770Y626525D01*
X517920Y626100D01*
X518170Y625725D01*
X518520Y625400D01*
X518969Y625125D01*
X519520Y624900D01*
X520169Y624725D01*
X520427Y624682D01*
X521834Y624773D01*
X522574Y624820D01*
X522800Y624900D01*
X523550Y625400D01*
X524200Y626100D01*
X524750Y627000D01*
X525200Y628100D01*
X525550Y629400D01*
X525800Y630900D01*
X525950Y632600D01*
X526000Y634500D01*
X536000D01*
X536050Y632600D01*
D02*
G37*
G36*
X357985Y628773D02*
X358124Y628416D01*
X358356Y628101D01*
X358680Y627827D01*
X359097Y627596D01*
X359607Y627407D01*
X360209Y627260D01*
X360904Y627155D01*
X361691Y627092D01*
X362571Y627071D01*
Y622071D01*
X361691Y622050D01*
X360904Y621987D01*
X360209Y621882D01*
X359607Y621735D01*
X359097Y621546D01*
X358680Y621315D01*
X358356Y621041D01*
X358124Y620726D01*
X357985Y620369D01*
X357939Y619969D01*
Y629173D01*
X357985Y628773D01*
D02*
G37*
G36*
X716260Y625620D02*
X716379Y625280D01*
X716580Y624980D01*
X716860Y624720D01*
X717219Y624500D01*
X717660Y624320D01*
X718179Y624180D01*
X718780Y624080D01*
X719460Y624020D01*
X720219Y624000D01*
Y620000D01*
X719460Y619980D01*
X718780Y619920D01*
X718179Y619820D01*
X717660Y619680D01*
X717219Y619500D01*
X716860Y619280D01*
X716580Y619020D01*
X716379Y618720D01*
X716260Y618380D01*
X716219Y618000D01*
Y626000D01*
X716260Y625620D01*
D02*
G37*
G36*
X682311Y617000D02*
X682261Y617475D01*
X682110Y617900D01*
X681858Y618275D01*
X681506Y618600D01*
X681053Y618875D01*
X680500Y619100D01*
X679846Y619275D01*
X679091Y619400D01*
X678236Y619475D01*
X677281Y619500D01*
Y624500D01*
X678236Y624525D01*
X679091Y624600D01*
X679846Y624725D01*
X680500Y624900D01*
X681053Y625125D01*
X681506Y625400D01*
X681858Y625725D01*
X682110Y626100D01*
X682261Y626525D01*
X682311Y627000D01*
Y617000D01*
D02*
G37*
G36*
X483811D02*
X483761Y617475D01*
X483610Y617900D01*
X483358Y618275D01*
X483006Y618600D01*
X482553Y618875D01*
X482000Y619100D01*
X481346Y619275D01*
X480591Y619400D01*
X479736Y619475D01*
X478781Y619500D01*
Y624500D01*
X479736Y624525D01*
X480591Y624600D01*
X481346Y624725D01*
X482000Y624900D01*
X482553Y625125D01*
X483006Y625400D01*
X483358Y625725D01*
X483610Y626100D01*
X483761Y626525D01*
X483811Y627000D01*
Y617000D01*
D02*
G37*
G36*
X438769Y620025D02*
X438919Y619600D01*
X439170Y619225D01*
X439520Y618900D01*
X439969Y618625D01*
X440519Y618400D01*
X441170Y618225D01*
X441920Y618100D01*
X442770Y618025D01*
X443719Y618000D01*
Y613000D01*
X442770Y612975D01*
X441920Y612900D01*
X441170Y612775D01*
X440519Y612600D01*
X439969Y612375D01*
X439520Y612100D01*
X439170Y611775D01*
X438919Y611400D01*
X438769Y610975D01*
X438719Y610500D01*
Y620500D01*
X438769Y620025D01*
D02*
G37*
G36*
X394269Y619525D02*
X394420Y619100D01*
X394669Y618725D01*
X395019Y618400D01*
X395470Y618125D01*
X396020Y617900D01*
X396670Y617725D01*
X397420Y617600D01*
X398270Y617525D01*
X399220Y617500D01*
Y612500D01*
X398270Y612475D01*
X397420Y612400D01*
X396670Y612275D01*
X396020Y612100D01*
X395470Y611875D01*
X395019Y611600D01*
X394669Y611275D01*
X394420Y610900D01*
X394269Y610475D01*
X394220Y610000D01*
Y620000D01*
X394269Y619525D01*
D02*
G37*
G36*
X336595Y615451D02*
X336260Y615210D01*
X335965Y614810D01*
X335709Y614250D01*
X335492Y613531D01*
X335315Y612650D01*
X335177Y611610D01*
X335020Y609050D01*
X335000Y607531D01*
X327000D01*
X326975Y609050D01*
X326778Y611610D01*
X326605Y612650D01*
X326383Y613531D01*
X326111Y614250D01*
X325790Y614810D01*
X325420Y615210D01*
X325000Y615451D01*
X324530Y615531D01*
X336969D01*
X336595Y615451D01*
D02*
G37*
G36*
X386352Y606311D02*
X385965Y606591D01*
X385508Y606729D01*
X384979Y606726D01*
X384379Y606582D01*
X383708Y606296D01*
X382965Y605868D01*
X382151Y605300D01*
X381265Y604590D01*
X379281Y602745D01*
X375745Y606281D01*
X376738Y607309D01*
X378300Y609151D01*
X378868Y609965D01*
X379296Y610708D01*
X379582Y611379D01*
X379726Y611979D01*
X379729Y612508D01*
X379591Y612965D01*
X379311Y613352D01*
X386352Y606311D01*
D02*
G37*
G36*
X435775Y606761D02*
X435350Y606610D01*
X434975Y606358D01*
X434650Y606006D01*
X434375Y605553D01*
X434150Y605000D01*
X433975Y604346D01*
X433850Y603591D01*
X433775Y602736D01*
X433750Y601781D01*
X428750D01*
X428725Y602736D01*
X428650Y603591D01*
X428525Y604346D01*
X428350Y605000D01*
X428125Y605553D01*
X427850Y606006D01*
X427525Y606358D01*
X427150Y606610D01*
X426725Y606761D01*
X426250Y606811D01*
X436250D01*
X435775Y606761D01*
D02*
G37*
G36*
X899004Y552806D02*
X893000Y546803D01*
X892915Y546953D01*
X892661Y547267D01*
X891644Y548381D01*
X884524Y555625D01*
X890181Y561282D01*
X899004Y552806D01*
D02*
G37*
G36*
X877961Y539478D02*
X883633Y534510D01*
X884199Y534165D01*
X884655Y533957D01*
X885003Y533888D01*
X880000Y528885D01*
X879931Y529233D01*
X879724Y529690D01*
X879379Y530255D01*
X878895Y530929D01*
X877515Y532603D01*
X874410Y535928D01*
X873099Y537253D01*
X876635Y540789D01*
X877961Y539478D01*
D02*
G37*
G36*
X853960D02*
X859633Y534510D01*
X860199Y534165D01*
X860655Y533957D01*
X861003Y533888D01*
X856000Y528885D01*
X855931Y529233D01*
X855724Y529690D01*
X855378Y530255D01*
X854895Y530929D01*
X853515Y532603D01*
X850410Y535928D01*
X849099Y537253D01*
X852635Y540789D01*
X853960Y539478D01*
D02*
G37*
G36*
X581476Y533819D02*
X573000Y524996D01*
X566996Y531000D01*
X567147Y531085D01*
X567460Y531339D01*
X568574Y532356D01*
X575819Y539476D01*
X581476Y533819D01*
D02*
G37*
G36*
X391511Y413090D02*
X397184Y408121D01*
X397749Y407776D01*
X398206Y407569D01*
X398554Y407500D01*
X393551Y402497D01*
X393482Y402845D01*
X393274Y403302D01*
X392929Y403867D01*
X392446Y404541D01*
X391066Y406214D01*
X387961Y409539D01*
X386650Y410865D01*
X390186Y414401D01*
X391511Y413090D01*
D02*
G37*
G36*
X372511D02*
X378184Y408121D01*
X378749Y407776D01*
X379206Y407569D01*
X379554Y407500D01*
X374551Y402497D01*
X374482Y402845D01*
X374274Y403302D01*
X373929Y403867D01*
X373446Y404541D01*
X372066Y406214D01*
X368961Y409539D01*
X367650Y410865D01*
X371186Y414401D01*
X372511Y413090D01*
D02*
G37*
G36*
X716210Y401729D02*
X716345Y401103D01*
X716612Y400403D01*
X717009Y399629D01*
X717539Y398782D01*
X718199Y397862D01*
X719915Y395799D01*
X722156Y393442D01*
X717913Y389200D01*
X710099Y396339D01*
X710060Y396308D01*
X708609Y395036D01*
X702587Y389200D01*
X698344Y393442D01*
X699530Y394658D01*
X702301Y397862D01*
X702961Y398782D01*
X703491Y399629D01*
X703888Y400403D01*
X704155Y401103D01*
X704290Y401729D01*
X704293Y402281D01*
X710250Y397799D01*
X716207Y402281D01*
X716210Y401729D01*
D02*
G37*
G36*
X674140Y328681D02*
X674370Y328620D01*
X674202Y327350D01*
X672000D01*
Y320360D01*
X670730Y319614D01*
X669149Y320268D01*
X668800Y320314D01*
Y306500D01*
X664800D01*
Y320314D01*
X664451Y320268D01*
X662261Y319361D01*
X660381Y317919D01*
X658939Y316039D01*
X658903Y315953D01*
X658886Y315942D01*
X658372Y315673D01*
X658230Y315504D01*
X658047Y315381D01*
X657724Y314898D01*
X657351Y314452D01*
X657285Y314241D01*
X657162Y314058D01*
X657105Y313771D01*
X657078Y313764D01*
X656504Y313670D01*
X655738Y313604D01*
X654697Y313577D01*
X654623Y313560D01*
X645191D01*
X644000Y313750D01*
Y329931D01*
X671976D01*
X674140Y328681D01*
D02*
G37*
G36*
X777830Y332980D02*
X778070Y331620D01*
X778470Y330420D01*
X779030Y329380D01*
X779750Y328500D01*
X780630Y327780D01*
X781670Y327220D01*
X782866Y326822D01*
X812580Y327869D01*
Y317131D01*
X812062Y317391D01*
X810796Y317624D01*
X808782Y317829D01*
X798254Y318281D01*
X783900Y318409D01*
X782870Y318290D01*
X781670Y318027D01*
X780630Y317660D01*
X779750Y317188D01*
X779030Y316610D01*
X778470Y315928D01*
X778070Y315140D01*
X777830Y314248D01*
X777750Y313250D01*
X769750D01*
X769695Y314248D01*
X769530Y315140D01*
X769254Y315928D01*
X768869Y316610D01*
X768373Y317188D01*
X767767Y317660D01*
X767051Y318027D01*
X766224Y318290D01*
X765288Y318447D01*
X764241Y318500D01*
Y326500D01*
X765288Y326580D01*
X766224Y326820D01*
X767051Y327220D01*
X767767Y327780D01*
X768373Y328500D01*
X768869Y329380D01*
X769254Y330420D01*
X769530Y331620D01*
X769695Y332980D01*
X769750Y334500D01*
X777750D01*
X777830Y332980D01*
D02*
G37*
G36*
X764828Y317430D02*
X763316Y315862D01*
X760922Y313018D01*
X760041Y311743D01*
X759370Y310565D01*
X758909Y309485D01*
X758658Y308503D01*
X758618Y307619D01*
X758788Y306832D01*
X759168Y306143D01*
X750904Y317042D01*
X751562Y317277D01*
X752257Y317595D01*
X752991Y317995D01*
X753763Y318479D01*
X755424Y319695D01*
X756311Y320427D01*
X759205Y323121D01*
X764828Y317430D01*
D02*
G37*
G36*
X904190Y320331D02*
X904415Y319347D01*
X904852Y318241D01*
X905500Y317013D01*
X906360Y315662D01*
X907431Y314190D01*
X910207Y310879D01*
X913828Y307078D01*
X908172Y301422D01*
X906210Y303338D01*
X901060Y307819D01*
X899587Y308890D01*
X898237Y309750D01*
X897009Y310398D01*
X895903Y310835D01*
X894919Y311060D01*
X894057Y311075D01*
X904175Y321193D01*
X904190Y320331D01*
D02*
G37*
G36*
X660930Y300503D02*
X660869Y301072D01*
X660685Y301582D01*
X660379Y302031D01*
X659950Y302421D01*
X659398Y302751D01*
X658724Y303020D01*
X657927Y303230D01*
X657008Y303380D01*
X655966Y303470D01*
X654802Y303500D01*
Y309500D01*
X655966Y309530D01*
X657008Y309620D01*
X657927Y309770D01*
X658724Y309979D01*
X659398Y310249D01*
X659950Y310579D01*
X660379Y310968D01*
X660685Y311418D01*
X660869Y311928D01*
X660930Y312497D01*
Y300503D01*
D02*
G37*
G36*
X850768Y309482D02*
X849917Y308554D01*
X849130Y307537D01*
X848408Y306429D01*
X847751Y305233D01*
X847158Y303947D01*
X846629Y302571D01*
X846166Y301106D01*
X845766Y299552D01*
X845162Y296175D01*
X833924Y307412D01*
X835658Y307682D01*
X838856Y308416D01*
X840321Y308879D01*
X841697Y309408D01*
X842983Y310001D01*
X844179Y310658D01*
X845286Y311380D01*
X846304Y312167D01*
X847232Y313018D01*
X850768Y309482D01*
D02*
G37*
G36*
X757715Y297551D02*
X757292Y296914D01*
X756919Y296255D01*
X756596Y295577D01*
X756322Y294877D01*
X756098Y294157D01*
X755924Y293416D01*
X755799Y292654D01*
X755725Y291871D01*
X755700Y291068D01*
X750700D01*
X750675Y291871D01*
X750601Y292654D01*
X750476Y293416D01*
X750302Y294157D01*
X750078Y294877D01*
X749805Y295577D01*
X749481Y296255D01*
X749108Y296914D01*
X748685Y297551D01*
X748213Y298167D01*
X758187D01*
X757715Y297551D01*
D02*
G37*
G36*
X671315D02*
X670892Y296914D01*
X670519Y296255D01*
X670195Y295577D01*
X669922Y294877D01*
X669698Y294157D01*
X669524Y293416D01*
X669399Y292654D01*
X669325Y291871D01*
X669300Y291068D01*
X664300D01*
X664275Y291871D01*
X664201Y292654D01*
X664076Y293416D01*
X663902Y294157D01*
X663678Y294877D01*
X663404Y295577D01*
X663081Y296255D01*
X662708Y296914D01*
X662285Y297551D01*
X661813Y298167D01*
X671787D01*
X671315Y297551D01*
D02*
G37*
G36*
X755725Y277329D02*
X755799Y276546D01*
X755924Y275784D01*
X756098Y275043D01*
X756322Y274323D01*
X756596Y273623D01*
X756919Y272945D01*
X757292Y272286D01*
X757715Y271649D01*
X758187Y271033D01*
X748213D01*
X748685Y271649D01*
X749108Y272286D01*
X749481Y272945D01*
X749805Y273623D01*
X750078Y274323D01*
X750302Y275043D01*
X750476Y275784D01*
X750601Y276546D01*
X750675Y277329D01*
X750700Y278132D01*
X755700D01*
X755725Y277329D01*
D02*
G37*
G36*
X669325D02*
X669399Y276546D01*
X669524Y275784D01*
X669698Y275043D01*
X669922Y274323D01*
X670195Y273623D01*
X670519Y272945D01*
X670892Y272286D01*
X671315Y271649D01*
X671787Y271033D01*
X661813D01*
X662285Y271649D01*
X662708Y272286D01*
X663081Y272945D01*
X663404Y273623D01*
X663678Y274323D01*
X663902Y275043D01*
X664076Y275784D01*
X664201Y276546D01*
X664275Y277329D01*
X664300Y278132D01*
X669300D01*
X669325Y277329D01*
D02*
G37*
%LPC*%
G36*
X744000Y1079746D02*
Y1074000D01*
X749746D01*
X749455Y1075088D01*
X748402Y1076912D01*
X746912Y1078402D01*
X745088Y1079455D01*
X744000Y1079746D01*
D02*
G37*
G36*
X740000D02*
X738912Y1079455D01*
X737088Y1078402D01*
X735598Y1076912D01*
X734545Y1075088D01*
X734254Y1074000D01*
X740000D01*
Y1079746D01*
D02*
G37*
G36*
X714000D02*
Y1074000D01*
X719746D01*
X719455Y1075088D01*
X718402Y1076912D01*
X716912Y1078402D01*
X715088Y1079455D01*
X714000Y1079746D01*
D02*
G37*
G36*
X710000D02*
X708912Y1079455D01*
X707088Y1078402D01*
X705598Y1076912D01*
X704545Y1075088D01*
X704254Y1074000D01*
X710000D01*
Y1079746D01*
D02*
G37*
G36*
X749746Y1070000D02*
X744000D01*
Y1064254D01*
X745088Y1064545D01*
X746912Y1065598D01*
X748402Y1067088D01*
X749455Y1068912D01*
X749746Y1070000D01*
D02*
G37*
G36*
X740000D02*
X734254D01*
X734545Y1068912D01*
X735598Y1067088D01*
X737088Y1065598D01*
X738912Y1064545D01*
X740000Y1064254D01*
Y1070000D01*
D02*
G37*
G36*
X719746D02*
X714000D01*
Y1064254D01*
X715088Y1064545D01*
X716912Y1065598D01*
X718402Y1067088D01*
X719455Y1068912D01*
X719746Y1070000D01*
D02*
G37*
G36*
X710000D02*
X704254D01*
X704545Y1068912D01*
X705598Y1067088D01*
X707088Y1065598D01*
X708912Y1064545D01*
X710000Y1064254D01*
Y1070000D01*
D02*
G37*
G36*
X494746Y1065000D02*
X489000D01*
Y1059254D01*
X490088Y1059545D01*
X491912Y1060598D01*
X493402Y1062088D01*
X494455Y1063912D01*
X494746Y1065000D01*
D02*
G37*
G36*
X485000D02*
X479254D01*
X479545Y1063912D01*
X480598Y1062088D01*
X482088Y1060598D01*
X483912Y1059545D01*
X485000Y1059254D01*
Y1065000D01*
D02*
G37*
G36*
X714000Y1049746D02*
Y1044000D01*
X719746D01*
X719455Y1045088D01*
X718402Y1046912D01*
X716912Y1048402D01*
X715088Y1049455D01*
X714000Y1049746D01*
D02*
G37*
G36*
X710000D02*
X708912Y1049455D01*
X707088Y1048402D01*
X705598Y1046912D01*
X704545Y1045088D01*
X704254Y1044000D01*
X710000D01*
Y1049746D01*
D02*
G37*
G36*
X719746Y1040000D02*
X714000D01*
Y1034254D01*
X715088Y1034545D01*
X716912Y1035598D01*
X718402Y1037088D01*
X719455Y1038912D01*
X719746Y1040000D01*
D02*
G37*
G36*
X710000D02*
X704254D01*
X704545Y1038912D01*
X705598Y1037088D01*
X707088Y1035598D01*
X708912Y1034545D01*
X710000Y1034254D01*
Y1040000D01*
D02*
G37*
G36*
X411843Y1034000D02*
X408157D01*
X404596Y1033046D01*
X401404Y1031203D01*
X398797Y1028596D01*
X396954Y1025404D01*
X396000Y1021843D01*
Y1018157D01*
X396954Y1014596D01*
X398797Y1011404D01*
X401404Y1008797D01*
X404596Y1006954D01*
X408157Y1006000D01*
X411843D01*
X415404Y1006954D01*
X418596Y1008797D01*
X421203Y1011404D01*
X423046Y1014596D01*
X424000Y1018157D01*
Y1021843D01*
X423046Y1025404D01*
X421203Y1028596D01*
X418596Y1031203D01*
X415404Y1033046D01*
X411843Y1034000D01*
D02*
G37*
G36*
X374000Y1009746D02*
Y1004000D01*
X379746D01*
X379455Y1005088D01*
X378402Y1006912D01*
X376912Y1008402D01*
X375088Y1009455D01*
X374000Y1009746D01*
D02*
G37*
G36*
X379746Y1000000D02*
X374000D01*
Y994254D01*
X375088Y994545D01*
X376912Y995598D01*
X378402Y997088D01*
X379455Y998912D01*
X379746Y1000000D01*
D02*
G37*
G36*
X370000D02*
X364254D01*
X364545Y998912D01*
X365598Y997088D01*
X367088Y995598D01*
X368912Y994545D01*
X370000Y994254D01*
Y1000000D01*
D02*
G37*
G36*
X664618Y997746D02*
Y992000D01*
X670364D01*
X670072Y993088D01*
X669019Y994912D01*
X667530Y996402D01*
X665705Y997455D01*
X664618Y997746D01*
D02*
G37*
G36*
X660618D02*
X659530Y997455D01*
X657706Y996402D01*
X656216Y994912D01*
X655163Y993088D01*
X654871Y992000D01*
X660618D01*
Y997746D01*
D02*
G37*
G36*
X624618D02*
Y992000D01*
X630364D01*
X630072Y993088D01*
X629019Y994912D01*
X627530Y996402D01*
X625705Y997455D01*
X624618Y997746D01*
D02*
G37*
G36*
X620618D02*
X619530Y997455D01*
X617705Y996402D01*
X616216Y994912D01*
X615163Y993088D01*
X614871Y992000D01*
X620618D01*
Y997746D01*
D02*
G37*
G36*
X584618D02*
Y992000D01*
X590364D01*
X590072Y993088D01*
X589019Y994912D01*
X587530Y996402D01*
X585705Y997455D01*
X584618Y997746D01*
D02*
G37*
G36*
X580618D02*
X579530Y997455D01*
X577705Y996402D01*
X576216Y994912D01*
X575163Y993088D01*
X574871Y992000D01*
X580618D01*
Y997746D01*
D02*
G37*
G36*
X544618D02*
Y992000D01*
X550364D01*
X550072Y993088D01*
X549019Y994912D01*
X547530Y996402D01*
X545705Y997455D01*
X544618Y997746D01*
D02*
G37*
G36*
X540618D02*
X539530Y997455D01*
X537705Y996402D01*
X536216Y994912D01*
X535163Y993088D01*
X534871Y992000D01*
X540618D01*
Y997746D01*
D02*
G37*
G36*
X670364Y988000D02*
X664618D01*
Y982254D01*
X665705Y982545D01*
X667530Y983598D01*
X669019Y985088D01*
X670072Y986912D01*
X670364Y988000D01*
D02*
G37*
G36*
X660618D02*
X654871D01*
X655163Y986912D01*
X656216Y985088D01*
X657706Y983598D01*
X659530Y982545D01*
X660618Y982254D01*
Y988000D01*
D02*
G37*
G36*
X630364D02*
X624618D01*
Y982254D01*
X625705Y982545D01*
X627530Y983598D01*
X629019Y985088D01*
X630072Y986912D01*
X630364Y988000D01*
D02*
G37*
G36*
X620618D02*
X614871D01*
X615163Y986912D01*
X616216Y985088D01*
X617705Y983598D01*
X619530Y982545D01*
X620618Y982254D01*
Y988000D01*
D02*
G37*
G36*
X590364D02*
X584618D01*
Y982254D01*
X585705Y982545D01*
X587530Y983598D01*
X589019Y985088D01*
X590072Y986912D01*
X590364Y988000D01*
D02*
G37*
G36*
X580618D02*
X574871D01*
X575163Y986912D01*
X576216Y985088D01*
X577705Y983598D01*
X579530Y982545D01*
X580618Y982254D01*
Y988000D01*
D02*
G37*
G36*
X550364D02*
X544618D01*
Y982254D01*
X545705Y982545D01*
X547530Y983598D01*
X549019Y985088D01*
X550072Y986912D01*
X550364Y988000D01*
D02*
G37*
G36*
X540618D02*
X534871D01*
X535163Y986912D01*
X536216Y985088D01*
X537705Y983598D01*
X539530Y982545D01*
X540618Y982254D01*
Y988000D01*
D02*
G37*
G36*
X487000Y974929D02*
Y969183D01*
X492746D01*
X492455Y970270D01*
X491402Y972095D01*
X489912Y973584D01*
X488088Y974637D01*
X487000Y974929D01*
D02*
G37*
G36*
X483000D02*
X481912Y974637D01*
X480088Y973584D01*
X478598Y972095D01*
X477545Y970270D01*
X477254Y969183D01*
X483000D01*
Y974929D01*
D02*
G37*
G36*
X664618Y972746D02*
Y967000D01*
X670364D01*
X670072Y968088D01*
X669019Y969912D01*
X667530Y971402D01*
X665705Y972455D01*
X664618Y972746D01*
D02*
G37*
G36*
X660618D02*
X659530Y972455D01*
X657706Y971402D01*
X656216Y969912D01*
X655163Y968088D01*
X654871Y967000D01*
X660618D01*
Y972746D01*
D02*
G37*
G36*
X624618D02*
Y967000D01*
X630364D01*
X630072Y968088D01*
X629019Y969912D01*
X627530Y971402D01*
X625705Y972455D01*
X624618Y972746D01*
D02*
G37*
G36*
X620618D02*
X619530Y972455D01*
X617705Y971402D01*
X616216Y969912D01*
X615163Y968088D01*
X614871Y967000D01*
X620618D01*
Y972746D01*
D02*
G37*
G36*
X584618D02*
Y967000D01*
X590364D01*
X590072Y968088D01*
X589019Y969912D01*
X587530Y971402D01*
X585705Y972455D01*
X584618Y972746D01*
D02*
G37*
G36*
X580618D02*
X579530Y972455D01*
X577705Y971402D01*
X576216Y969912D01*
X575163Y968088D01*
X574871Y967000D01*
X580618D01*
Y972746D01*
D02*
G37*
G36*
X544618D02*
Y967000D01*
X550364D01*
X550072Y968088D01*
X549019Y969912D01*
X547530Y971402D01*
X545705Y972455D01*
X544618Y972746D01*
D02*
G37*
G36*
X540618D02*
X539530Y972455D01*
X537705Y971402D01*
X536216Y969912D01*
X535163Y968088D01*
X534871Y967000D01*
X540618D01*
Y972746D01*
D02*
G37*
G36*
X979000Y969746D02*
Y964000D01*
X984746D01*
X984455Y965088D01*
X983402Y966912D01*
X981912Y968402D01*
X980088Y969455D01*
X979000Y969746D01*
D02*
G37*
G36*
X975000D02*
X973912Y969455D01*
X972088Y968402D01*
X970598Y966912D01*
X969545Y965088D01*
X969254Y964000D01*
X975000D01*
Y969746D01*
D02*
G37*
G36*
X844000Y969746D02*
X842912Y969455D01*
X841088Y968402D01*
X839598Y966912D01*
X838545Y965088D01*
X838254Y964000D01*
X844000D01*
Y969746D01*
D02*
G37*
G36*
X492746Y965183D02*
X487000D01*
Y959436D01*
X488088Y959728D01*
X489912Y960781D01*
X491402Y962270D01*
X492455Y964095D01*
X492746Y965183D01*
D02*
G37*
G36*
X483000D02*
X477254D01*
X477545Y964095D01*
X478598Y962270D01*
X480088Y960781D01*
X481912Y959728D01*
X483000Y959436D01*
Y965183D01*
D02*
G37*
G36*
X670364Y963000D02*
X664618D01*
Y957254D01*
X665705Y957545D01*
X667530Y958598D01*
X669019Y960088D01*
X670072Y961912D01*
X670364Y963000D01*
D02*
G37*
G36*
X660618D02*
X654871D01*
X655163Y961912D01*
X656216Y960088D01*
X657706Y958598D01*
X659530Y957545D01*
X660618Y957254D01*
Y963000D01*
D02*
G37*
G36*
X630364D02*
X624618D01*
Y957254D01*
X625705Y957545D01*
X627530Y958598D01*
X629019Y960088D01*
X630072Y961912D01*
X630364Y963000D01*
D02*
G37*
G36*
X620618D02*
X614871D01*
X615163Y961912D01*
X616216Y960088D01*
X617705Y958598D01*
X619530Y957545D01*
X620618Y957254D01*
Y963000D01*
D02*
G37*
G36*
X590364D02*
X584618D01*
Y957254D01*
X585705Y957545D01*
X587530Y958598D01*
X589019Y960088D01*
X590072Y961912D01*
X590364Y963000D01*
D02*
G37*
G36*
X580618D02*
X574871D01*
X575163Y961912D01*
X576216Y960088D01*
X577705Y958598D01*
X579530Y957545D01*
X580618Y957254D01*
Y963000D01*
D02*
G37*
G36*
X550364D02*
X544618D01*
Y957254D01*
X545705Y957545D01*
X547530Y958598D01*
X549019Y960088D01*
X550072Y961912D01*
X550364Y963000D01*
D02*
G37*
G36*
X540618D02*
X534871D01*
X535163Y961912D01*
X536216Y960088D01*
X537705Y958598D01*
X539530Y957545D01*
X540618Y957254D01*
Y963000D01*
D02*
G37*
G36*
X330000Y962746D02*
Y957000D01*
X335746D01*
X335455Y958088D01*
X334402Y959912D01*
X332912Y961402D01*
X331088Y962455D01*
X330000Y962746D01*
D02*
G37*
G36*
X326000D02*
X324912Y962455D01*
X323088Y961402D01*
X321598Y959912D01*
X320545Y958088D01*
X320254Y957000D01*
X326000D01*
Y962746D01*
D02*
G37*
G36*
X395000Y967923D02*
Y957000D01*
X405923D01*
X405114Y960018D01*
X403403Y962982D01*
X400982Y965403D01*
X398018Y967114D01*
X395000Y967923D01*
D02*
G37*
G36*
X391000Y967923D02*
X387982Y967114D01*
X385018Y965403D01*
X382597Y962982D01*
X380886Y960018D01*
X380077Y957000D01*
X391000D01*
Y967923D01*
D02*
G37*
G36*
X984746Y960000D02*
X979000D01*
Y954254D01*
X980088Y954545D01*
X981912Y955598D01*
X983402Y957088D01*
X984455Y958912D01*
X984746Y960000D01*
D02*
G37*
G36*
X975000D02*
X969254D01*
X969545Y958912D01*
X970598Y957088D01*
X972088Y955598D01*
X973912Y954545D01*
X975000Y954254D01*
Y960000D01*
D02*
G37*
G36*
X844000Y960000D02*
X838254D01*
X838545Y958912D01*
X839598Y957088D01*
X841088Y955598D01*
X842912Y954545D01*
X844000Y954254D01*
Y960000D01*
D02*
G37*
G36*
X335746Y953000D02*
X330000D01*
Y947254D01*
X331088Y947545D01*
X332912Y948598D01*
X334402Y950088D01*
X335455Y951912D01*
X335746Y953000D01*
D02*
G37*
G36*
X326000D02*
X320254D01*
X320545Y951912D01*
X321598Y950088D01*
X323088Y948598D01*
X324912Y947545D01*
X326000Y947254D01*
Y953000D01*
D02*
G37*
G36*
X391000Y953000D02*
X380077D01*
X380886Y949982D01*
X382597Y947018D01*
X385018Y944597D01*
X387982Y942886D01*
X391000Y942077D01*
Y953000D01*
D02*
G37*
G36*
X405923D02*
X395000D01*
Y942077D01*
X398018Y942886D01*
X400982Y944597D01*
X403403Y947018D01*
X405114Y949982D01*
X405923Y953000D01*
D02*
G37*
G36*
X664618Y947746D02*
Y942000D01*
X670364D01*
X670072Y943088D01*
X669019Y944912D01*
X667530Y946402D01*
X665705Y947455D01*
X664618Y947746D01*
D02*
G37*
G36*
X660618D02*
X659530Y947455D01*
X657706Y946402D01*
X656216Y944912D01*
X655163Y943088D01*
X654871Y942000D01*
X660618D01*
Y947746D01*
D02*
G37*
G36*
X624618D02*
Y942000D01*
X630364D01*
X630072Y943088D01*
X629019Y944912D01*
X627530Y946402D01*
X625705Y947455D01*
X624618Y947746D01*
D02*
G37*
G36*
X544618D02*
Y942000D01*
X550364D01*
X550072Y943088D01*
X549019Y944912D01*
X547530Y946402D01*
X545705Y947455D01*
X544618Y947746D01*
D02*
G37*
G36*
X540618D02*
X539530Y947455D01*
X537705Y946402D01*
X536216Y944912D01*
X535163Y943088D01*
X534871Y942000D01*
X540618D01*
Y947746D01*
D02*
G37*
G36*
X593200Y954900D02*
X593181D01*
X589220Y954112D01*
X585490Y952567D01*
X582132Y950323D01*
X579277Y947468D01*
X577033Y944110D01*
X575488Y940380D01*
X574700Y936419D01*
Y936400D01*
X593200D01*
Y954900D01*
D02*
G37*
G36*
X670364Y938000D02*
X664618D01*
Y932254D01*
X665705Y932545D01*
X667530Y933598D01*
X669019Y935088D01*
X670072Y936912D01*
X670364Y938000D01*
D02*
G37*
G36*
X660618D02*
X654871D01*
X655163Y936912D01*
X656216Y935088D01*
X657706Y933598D01*
X659530Y932545D01*
X660618Y932254D01*
Y938000D01*
D02*
G37*
G36*
X630364D02*
X624618D01*
Y932254D01*
X625705Y932545D01*
X627530Y933598D01*
X629019Y935088D01*
X630072Y936912D01*
X630364Y938000D01*
D02*
G37*
G36*
X597219Y954900D02*
X597200D01*
Y934400D01*
Y913900D01*
X597219D01*
X601180Y914688D01*
X604910Y916233D01*
X608268Y918477D01*
X611123Y921332D01*
X613367Y924690D01*
X614912Y928420D01*
X615700Y932381D01*
Y933808D01*
X616970Y934334D01*
X617705Y933598D01*
X619530Y932545D01*
X620618Y932254D01*
Y940000D01*
Y947746D01*
X619530Y947455D01*
X617705Y946402D01*
X616216Y944912D01*
X615163Y943088D01*
X615135Y942984D01*
X613868Y942901D01*
X613367Y944110D01*
X611123Y947468D01*
X608268Y950323D01*
X604910Y952567D01*
X601180Y954112D01*
X597219Y954900D01*
D02*
G37*
G36*
X550364Y938000D02*
X544618D01*
Y932254D01*
X545705Y932545D01*
X547530Y933598D01*
X549019Y935088D01*
X550072Y936912D01*
X550364Y938000D01*
D02*
G37*
G36*
X540618D02*
X534871D01*
X535163Y936912D01*
X536216Y935088D01*
X537705Y933598D01*
X539530Y932545D01*
X540618Y932254D01*
Y938000D01*
D02*
G37*
G36*
X722000Y932746D02*
Y927000D01*
X727746D01*
X727455Y928088D01*
X726402Y929912D01*
X724912Y931402D01*
X723088Y932455D01*
X722000Y932746D01*
D02*
G37*
G36*
X718000D02*
X716912Y932455D01*
X715088Y931402D01*
X713598Y929912D01*
X712545Y928088D01*
X712254Y927000D01*
X718000D01*
Y932746D01*
D02*
G37*
G36*
X1040500Y924746D02*
Y919000D01*
X1046246D01*
X1045955Y920088D01*
X1044902Y921912D01*
X1043412Y923402D01*
X1041588Y924455D01*
X1040500Y924746D01*
D02*
G37*
G36*
X1036500D02*
X1035412Y924455D01*
X1033588Y923402D01*
X1032098Y921912D01*
X1031045Y920088D01*
X1030754Y919000D01*
X1036500D01*
Y924746D01*
D02*
G37*
G36*
X727746Y923000D02*
X722000D01*
Y917254D01*
X723088Y917545D01*
X724912Y918598D01*
X726402Y920088D01*
X727455Y921912D01*
X727746Y923000D01*
D02*
G37*
G36*
X718000D02*
X712254D01*
X712545Y921912D01*
X713598Y920088D01*
X715088Y918598D01*
X716912Y917545D01*
X718000Y917254D01*
Y923000D01*
D02*
G37*
G36*
X664618Y922746D02*
Y917000D01*
X670364D01*
X670072Y918088D01*
X669019Y919912D01*
X667530Y921402D01*
X665705Y922455D01*
X664618Y922746D01*
D02*
G37*
G36*
X660618D02*
X659530Y922455D01*
X657706Y921402D01*
X656216Y919912D01*
X655163Y918088D01*
X654871Y917000D01*
X660618D01*
Y922746D01*
D02*
G37*
G36*
X624618D02*
Y917000D01*
X630364D01*
X630072Y918088D01*
X629019Y919912D01*
X627530Y921402D01*
X625705Y922455D01*
X624618Y922746D01*
D02*
G37*
G36*
X620618D02*
X619530Y922455D01*
X617705Y921402D01*
X616216Y919912D01*
X615163Y918088D01*
X614871Y917000D01*
X620618D01*
Y922746D01*
D02*
G37*
G36*
X544618D02*
Y917000D01*
X550364D01*
X550072Y918088D01*
X549019Y919912D01*
X547530Y921402D01*
X545705Y922455D01*
X544618Y922746D01*
D02*
G37*
G36*
X540618D02*
X539530Y922455D01*
X537705Y921402D01*
X536216Y919912D01*
X535163Y918088D01*
X534871Y917000D01*
X540618D01*
Y922746D01*
D02*
G37*
G36*
X593200Y932400D02*
X574700D01*
Y932381D01*
X575488Y928420D01*
X577033Y924690D01*
X579277Y921332D01*
X582132Y918477D01*
X585490Y916233D01*
X589220Y914688D01*
X593181Y913900D01*
X593200D01*
Y932400D01*
D02*
G37*
G36*
X1046246Y915000D02*
X1040500D01*
Y909254D01*
X1041588Y909545D01*
X1043412Y910598D01*
X1044902Y912088D01*
X1045955Y913912D01*
X1046246Y915000D01*
D02*
G37*
G36*
X1036500D02*
X1030754D01*
X1031045Y913912D01*
X1032098Y912088D01*
X1033588Y910598D01*
X1035412Y909545D01*
X1036500Y909254D01*
Y915000D01*
D02*
G37*
G36*
X419000Y913746D02*
X417912Y913455D01*
X416088Y912402D01*
X414598Y910912D01*
X413545Y909088D01*
X413254Y908000D01*
X419000D01*
Y913746D01*
D02*
G37*
G36*
X670364Y913000D02*
X664618D01*
Y907254D01*
X665705Y907545D01*
X667530Y908598D01*
X669019Y910088D01*
X670072Y911912D01*
X670364Y913000D01*
D02*
G37*
G36*
X660618D02*
X654871D01*
X655163Y911912D01*
X656216Y910088D01*
X657706Y908598D01*
X659530Y907545D01*
X660618Y907254D01*
Y913000D01*
D02*
G37*
G36*
X630364D02*
X624618D01*
Y907254D01*
X625705Y907545D01*
X627530Y908598D01*
X629019Y910088D01*
X630072Y911912D01*
X630364Y913000D01*
D02*
G37*
G36*
X620618D02*
X614871D01*
X615163Y911912D01*
X616216Y910088D01*
X617705Y908598D01*
X619530Y907545D01*
X620618Y907254D01*
Y913000D01*
D02*
G37*
G36*
X550364D02*
X544618D01*
Y907254D01*
X545705Y907545D01*
X547530Y908598D01*
X549019Y910088D01*
X550072Y911912D01*
X550364Y913000D01*
D02*
G37*
G36*
X540618D02*
X534871D01*
X535163Y911912D01*
X536216Y910088D01*
X537705Y908598D01*
X539530Y907545D01*
X540618Y907254D01*
Y913000D01*
D02*
G37*
G36*
X776154Y956500D02*
X771746D01*
X767393Y955811D01*
X763202Y954449D01*
X759275Y952448D01*
X755709Y949857D01*
X752593Y946741D01*
X750002Y943175D01*
X748001Y939248D01*
X746639Y935057D01*
X745950Y930704D01*
Y926296D01*
X746639Y921943D01*
X748001Y917752D01*
X750002Y913825D01*
X752593Y910259D01*
X755709Y907143D01*
X759275Y904552D01*
X763202Y902551D01*
X767393Y901189D01*
X771746Y900500D01*
X776154D01*
X780507Y901189D01*
X784698Y902551D01*
X787646Y904053D01*
X788402Y903013D01*
X787598Y902210D01*
X786545Y900385D01*
X786254Y899297D01*
X792000D01*
Y905044D01*
X791148Y904816D01*
X790592Y905981D01*
X792191Y907143D01*
X795307Y910259D01*
X797898Y913825D01*
X799899Y917752D01*
X801261Y921943D01*
X801950Y926296D01*
Y930704D01*
X801261Y935057D01*
X799899Y939248D01*
X797898Y943175D01*
X795307Y946741D01*
X792191Y949857D01*
X788625Y952448D01*
X784698Y954449D01*
X780507Y955811D01*
X776154Y956500D01*
D02*
G37*
G36*
X722000Y902746D02*
Y897000D01*
X727746D01*
X727455Y898088D01*
X726402Y899912D01*
X724912Y901402D01*
X723088Y902455D01*
X722000Y902746D01*
D02*
G37*
G36*
X718000D02*
X716912Y902455D01*
X715088Y901402D01*
X713598Y899912D01*
X712545Y898088D01*
X712254Y897000D01*
X718000D01*
Y902746D01*
D02*
G37*
G36*
X664618Y897746D02*
Y892000D01*
X670364D01*
X670072Y893088D01*
X669019Y894912D01*
X667530Y896402D01*
X665705Y897455D01*
X664618Y897746D01*
D02*
G37*
G36*
X660618D02*
X659530Y897455D01*
X657706Y896402D01*
X656216Y894912D01*
X655163Y893088D01*
X654871Y892000D01*
X660618D01*
Y897746D01*
D02*
G37*
G36*
X624618D02*
Y892000D01*
X630364D01*
X630072Y893088D01*
X629019Y894912D01*
X627530Y896402D01*
X625705Y897455D01*
X624618Y897746D01*
D02*
G37*
G36*
X620618D02*
X619530Y897455D01*
X617705Y896402D01*
X616216Y894912D01*
X615163Y893088D01*
X614871Y892000D01*
X620618D01*
Y897746D01*
D02*
G37*
G36*
X584618D02*
Y892000D01*
X590364D01*
X590072Y893088D01*
X589019Y894912D01*
X587530Y896402D01*
X585705Y897455D01*
X584618Y897746D01*
D02*
G37*
G36*
X580618D02*
X579530Y897455D01*
X577705Y896402D01*
X576216Y894912D01*
X575163Y893088D01*
X574871Y892000D01*
X580618D01*
Y897746D01*
D02*
G37*
G36*
X544618D02*
Y892000D01*
X550364D01*
X550072Y893088D01*
X549019Y894912D01*
X547530Y896402D01*
X545705Y897455D01*
X544618Y897746D01*
D02*
G37*
G36*
X540618D02*
X539530Y897455D01*
X537705Y896402D01*
X536216Y894912D01*
X535163Y893088D01*
X534871Y892000D01*
X540618D01*
Y897746D01*
D02*
G37*
G36*
X394843Y919000D02*
X391157D01*
X387596Y918046D01*
X384404Y916203D01*
X381797Y913596D01*
X379954Y910404D01*
X379000Y906843D01*
Y903157D01*
X379954Y899596D01*
X381797Y896404D01*
X384404Y893797D01*
X387596Y891954D01*
X391157Y891000D01*
X394843D01*
X398404Y891954D01*
X401596Y893797D01*
X404203Y896404D01*
X406046Y899596D01*
X407000Y903157D01*
Y906843D01*
X406046Y910404D01*
X404203Y913596D01*
X401596Y916203D01*
X398404Y918046D01*
X394843Y919000D01*
D02*
G37*
G36*
X792000Y895297D02*
X786254D01*
X786545Y894210D01*
X787598Y892385D01*
X789088Y890896D01*
X790912Y889843D01*
X792000Y889551D01*
Y895297D01*
D02*
G37*
G36*
X727746Y893000D02*
X722000D01*
Y887254D01*
X723088Y887545D01*
X724912Y888598D01*
X726402Y890088D01*
X727455Y891912D01*
X727746Y893000D01*
D02*
G37*
G36*
X718000D02*
X712254D01*
X712545Y891912D01*
X713598Y890088D01*
X715088Y888598D01*
X716912Y887545D01*
X718000Y887254D01*
Y893000D01*
D02*
G37*
G36*
X670364Y888000D02*
X664618D01*
Y882254D01*
X665705Y882545D01*
X667530Y883598D01*
X669019Y885088D01*
X670072Y886912D01*
X670364Y888000D01*
D02*
G37*
G36*
X660618D02*
X654871D01*
X655163Y886912D01*
X656216Y885088D01*
X657706Y883598D01*
X659530Y882545D01*
X660618Y882254D01*
Y888000D01*
D02*
G37*
G36*
X630364D02*
X624618D01*
Y882254D01*
X625705Y882545D01*
X627530Y883598D01*
X629019Y885088D01*
X630072Y886912D01*
X630364Y888000D01*
D02*
G37*
G36*
X620618D02*
X614871D01*
X615163Y886912D01*
X616216Y885088D01*
X617705Y883598D01*
X619530Y882545D01*
X620618Y882254D01*
Y888000D01*
D02*
G37*
G36*
X590364D02*
X584618D01*
Y882254D01*
X585705Y882545D01*
X587530Y883598D01*
X589019Y885088D01*
X590072Y886912D01*
X590364Y888000D01*
D02*
G37*
G36*
X580618D02*
X574871D01*
X575163Y886912D01*
X576216Y885088D01*
X577705Y883598D01*
X579530Y882545D01*
X580618Y882254D01*
Y888000D01*
D02*
G37*
G36*
X550364D02*
X544618D01*
Y882254D01*
X545705Y882545D01*
X547530Y883598D01*
X549019Y885088D01*
X550072Y886912D01*
X550364Y888000D01*
D02*
G37*
G36*
X540618D02*
X534871D01*
X535163Y886912D01*
X536216Y885088D01*
X537705Y883598D01*
X539530Y882545D01*
X540618Y882254D01*
Y888000D01*
D02*
G37*
G36*
X940797Y879514D02*
Y873767D01*
X946543D01*
X946252Y874855D01*
X945198Y876679D01*
X943709Y878169D01*
X941885Y879222D01*
X940797Y879514D01*
D02*
G37*
G36*
X936797D02*
X935709Y879222D01*
X933885Y878169D01*
X932395Y876679D01*
X931342Y874855D01*
X931051Y873767D01*
X936797D01*
Y879514D01*
D02*
G37*
G36*
X1040014Y895150D02*
X1036986D01*
X1034061Y894366D01*
X1031439Y892852D01*
X1029298Y890711D01*
X1027784Y888089D01*
X1027000Y885164D01*
Y882136D01*
X1027784Y879211D01*
X1029298Y876589D01*
X1031439Y874448D01*
X1034061Y872934D01*
X1036986Y872150D01*
X1040014D01*
X1042939Y872934D01*
X1045561Y874448D01*
X1047702Y876589D01*
X1049216Y879211D01*
X1050000Y882136D01*
Y885164D01*
X1049216Y888089D01*
X1047702Y890711D01*
X1045561Y892852D01*
X1042939Y894366D01*
X1040014Y895150D01*
D02*
G37*
G36*
X1085000Y873746D02*
Y868000D01*
X1090746D01*
X1090455Y869088D01*
X1089402Y870912D01*
X1087912Y872402D01*
X1086088Y873455D01*
X1085000Y873746D01*
D02*
G37*
G36*
X1081000D02*
X1079912Y873455D01*
X1078088Y872402D01*
X1076598Y870912D01*
X1075545Y869088D01*
X1075254Y868000D01*
X1081000D01*
Y873746D01*
D02*
G37*
G36*
X664500Y872746D02*
Y867000D01*
X670246D01*
X669955Y868088D01*
X668902Y869912D01*
X667412Y871402D01*
X665588Y872455D01*
X664500Y872746D01*
D02*
G37*
G36*
X660500D02*
X659412Y872455D01*
X657588Y871402D01*
X656098Y869912D01*
X655045Y868088D01*
X654754Y867000D01*
X660500D01*
Y872746D01*
D02*
G37*
G36*
X624500D02*
Y867000D01*
X630246D01*
X629955Y868088D01*
X628902Y869912D01*
X627412Y871402D01*
X625588Y872455D01*
X624500Y872746D01*
D02*
G37*
G36*
X620500D02*
X619412Y872455D01*
X617588Y871402D01*
X616098Y869912D01*
X615045Y868088D01*
X614754Y867000D01*
X620500D01*
Y872746D01*
D02*
G37*
G36*
X584500D02*
Y867000D01*
X590246D01*
X589955Y868088D01*
X588902Y869912D01*
X587412Y871402D01*
X585588Y872455D01*
X584500Y872746D01*
D02*
G37*
G36*
X580500D02*
X579412Y872455D01*
X577588Y871402D01*
X576098Y869912D01*
X575045Y868088D01*
X574754Y867000D01*
X580500D01*
Y872746D01*
D02*
G37*
G36*
X544500D02*
Y867000D01*
X550246D01*
X549955Y868088D01*
X548902Y869912D01*
X547412Y871402D01*
X545588Y872455D01*
X544500Y872746D01*
D02*
G37*
G36*
X540500D02*
X539412Y872455D01*
X537588Y871402D01*
X536098Y869912D01*
X535045Y868088D01*
X534754Y867000D01*
X540500D01*
Y872746D01*
D02*
G37*
G36*
X946543Y869767D02*
X940797D01*
Y864021D01*
X941885Y864313D01*
X943709Y865366D01*
X945198Y866855D01*
X946252Y868679D01*
X946543Y869767D01*
D02*
G37*
G36*
X936797D02*
X931051D01*
X931342Y868679D01*
X932395Y866855D01*
X933885Y865366D01*
X935709Y864313D01*
X936797Y864021D01*
Y869767D01*
D02*
G37*
G36*
X375000Y866746D02*
Y861000D01*
X380746D01*
X380455Y862088D01*
X379402Y863912D01*
X377912Y865402D01*
X376088Y866455D01*
X375000Y866746D01*
D02*
G37*
G36*
X371000D02*
X369912Y866455D01*
X368088Y865402D01*
X366598Y863912D01*
X365545Y862088D01*
X365254Y861000D01*
X371000D01*
Y866746D01*
D02*
G37*
G36*
X1090746Y864000D02*
X1085000D01*
Y858254D01*
X1086088Y858545D01*
X1087912Y859598D01*
X1089402Y861088D01*
X1090455Y862912D01*
X1090746Y864000D01*
D02*
G37*
G36*
X1081000D02*
X1075254D01*
X1075545Y862912D01*
X1076598Y861088D01*
X1078088Y859598D01*
X1079912Y858545D01*
X1081000Y858254D01*
Y864000D01*
D02*
G37*
G36*
X670246Y863000D02*
X664500D01*
Y857254D01*
X665588Y857545D01*
X667412Y858598D01*
X668902Y860088D01*
X669955Y861912D01*
X670246Y863000D01*
D02*
G37*
G36*
X660500D02*
X654754D01*
X655045Y861912D01*
X656098Y860088D01*
X657588Y858598D01*
X659412Y857545D01*
X660500Y857254D01*
Y863000D01*
D02*
G37*
G36*
X630246D02*
X624500D01*
Y857254D01*
X625588Y857545D01*
X627412Y858598D01*
X628902Y860088D01*
X629955Y861912D01*
X630246Y863000D01*
D02*
G37*
G36*
X620500D02*
X614754D01*
X615045Y861912D01*
X616098Y860088D01*
X617588Y858598D01*
X619412Y857545D01*
X620500Y857254D01*
Y863000D01*
D02*
G37*
G36*
X590246D02*
X584500D01*
Y857254D01*
X585588Y857545D01*
X587412Y858598D01*
X588902Y860088D01*
X589955Y861912D01*
X590246Y863000D01*
D02*
G37*
G36*
X580500D02*
X574754D01*
X575045Y861912D01*
X576098Y860088D01*
X577588Y858598D01*
X579412Y857545D01*
X580500Y857254D01*
Y863000D01*
D02*
G37*
G36*
X550246D02*
X544500D01*
Y857254D01*
X545588Y857545D01*
X547412Y858598D01*
X548902Y860088D01*
X549955Y861912D01*
X550246Y863000D01*
D02*
G37*
G36*
X540500D02*
X534754D01*
X535045Y861912D01*
X536098Y860088D01*
X537588Y858598D01*
X539412Y857545D01*
X540500Y857254D01*
Y863000D01*
D02*
G37*
G36*
X371000Y857000D02*
X365254D01*
X365545Y855912D01*
X366598Y854088D01*
X368088Y852598D01*
X369912Y851545D01*
X371000Y851254D01*
Y857000D01*
D02*
G37*
G36*
X954000Y844746D02*
Y839000D01*
X959746D01*
X959455Y840088D01*
X958402Y841912D01*
X956912Y843402D01*
X955088Y844455D01*
X954000Y844746D01*
D02*
G37*
G36*
X950000D02*
X948912Y844455D01*
X947088Y843402D01*
X945598Y841912D01*
X944545Y840088D01*
X944254Y839000D01*
X950000D01*
Y844746D01*
D02*
G37*
G36*
X1082000Y837746D02*
Y832000D01*
X1087746D01*
X1087455Y833088D01*
X1086402Y834912D01*
X1084912Y836402D01*
X1083088Y837455D01*
X1082000Y837746D01*
D02*
G37*
G36*
X1078000D02*
X1076912Y837455D01*
X1075088Y836402D01*
X1073598Y834912D01*
X1072545Y833088D01*
X1072254Y832000D01*
X1078000D01*
Y837746D01*
D02*
G37*
G36*
X277000D02*
Y832000D01*
X282746D01*
X282455Y833088D01*
X281402Y834912D01*
X279912Y836402D01*
X278088Y837455D01*
X277000Y837746D01*
D02*
G37*
G36*
X273000D02*
X271912Y837455D01*
X270088Y836402D01*
X268598Y834912D01*
X267545Y833088D01*
X267254Y832000D01*
X273000D01*
Y837746D01*
D02*
G37*
G36*
X959746Y835000D02*
X954000D01*
Y829254D01*
X955088Y829545D01*
X956912Y830598D01*
X958402Y832088D01*
X959455Y833912D01*
X959746Y835000D01*
D02*
G37*
G36*
X950000D02*
X944254D01*
X944545Y833912D01*
X945598Y832088D01*
X947088Y830598D01*
X948912Y829545D01*
X950000Y829254D01*
Y835000D01*
D02*
G37*
G36*
X1087746Y828000D02*
X1082000D01*
Y822254D01*
X1083088Y822545D01*
X1084912Y823598D01*
X1086402Y825088D01*
X1087455Y826912D01*
X1087746Y828000D01*
D02*
G37*
G36*
X1078000D02*
X1072254D01*
X1072545Y826912D01*
X1073598Y825088D01*
X1075088Y823598D01*
X1076912Y822545D01*
X1078000Y822254D01*
Y828000D01*
D02*
G37*
G36*
X282746D02*
X277000D01*
Y822254D01*
X278088Y822545D01*
X279912Y823598D01*
X281402Y825088D01*
X282455Y826912D01*
X282746Y828000D01*
D02*
G37*
G36*
X273000D02*
X267254D01*
X267545Y826912D01*
X268598Y825088D01*
X270088Y823598D01*
X271912Y822545D01*
X273000Y822254D01*
Y828000D01*
D02*
G37*
G36*
X667000Y814746D02*
Y809000D01*
X672746D01*
X672455Y810088D01*
X671402Y811912D01*
X669912Y813402D01*
X668088Y814455D01*
X667000Y814746D01*
D02*
G37*
G36*
X663000D02*
X661912Y814455D01*
X660088Y813402D01*
X658598Y811912D01*
X657545Y810088D01*
X657254Y809000D01*
X663000D01*
Y814746D01*
D02*
G37*
G36*
X632000D02*
Y809000D01*
X637746D01*
X637455Y810088D01*
X636402Y811912D01*
X634912Y813402D01*
X633088Y814455D01*
X632000Y814746D01*
D02*
G37*
G36*
X628000D02*
X626912Y814455D01*
X625088Y813402D01*
X623598Y811912D01*
X622545Y810088D01*
X622254Y809000D01*
X628000D01*
Y814746D01*
D02*
G37*
G36*
X781499Y806141D02*
Y800394D01*
X787246D01*
X786954Y801482D01*
X785901Y803306D01*
X784411Y804796D01*
X782587Y805849D01*
X781499Y806141D01*
D02*
G37*
G36*
X777499D02*
X776412Y805849D01*
X774587Y804796D01*
X773098Y803306D01*
X772045Y801482D01*
X771753Y800394D01*
X777499D01*
Y806141D01*
D02*
G37*
G36*
X672746Y805000D02*
X667000D01*
Y799254D01*
X668088Y799545D01*
X669912Y800598D01*
X671402Y802088D01*
X672455Y803912D01*
X672746Y805000D01*
D02*
G37*
G36*
X663000D02*
X657254D01*
X657545Y803912D01*
X658598Y802088D01*
X660088Y800598D01*
X661912Y799545D01*
X663000Y799254D01*
Y805000D01*
D02*
G37*
G36*
X637746D02*
X632000D01*
Y799254D01*
X633088Y799545D01*
X634912Y800598D01*
X636402Y802088D01*
X637455Y803912D01*
X637746Y805000D01*
D02*
G37*
G36*
X628000D02*
X622254D01*
X622545Y803912D01*
X623598Y802088D01*
X625088Y800598D01*
X626912Y799545D01*
X628000Y799254D01*
Y805000D01*
D02*
G37*
G36*
X787246Y796394D02*
X781499D01*
Y790648D01*
X782587Y790939D01*
X784411Y791993D01*
X785901Y793482D01*
X786954Y795306D01*
X787246Y796394D01*
D02*
G37*
G36*
X777499D02*
X771753D01*
X772045Y795306D01*
X773098Y793482D01*
X774587Y791993D01*
X776412Y790939D01*
X777499Y790648D01*
Y796394D01*
D02*
G37*
G36*
X1082000Y787746D02*
Y782000D01*
X1087746D01*
X1087455Y783088D01*
X1086402Y784912D01*
X1084912Y786402D01*
X1083088Y787455D01*
X1082000Y787746D01*
D02*
G37*
G36*
X1078000D02*
X1076912Y787455D01*
X1075088Y786402D01*
X1073598Y784912D01*
X1072545Y783088D01*
X1072254Y782000D01*
X1078000D01*
Y787746D01*
D02*
G37*
G36*
X1087746Y778000D02*
X1082000D01*
Y772254D01*
X1083088Y772545D01*
X1084912Y773598D01*
X1086402Y775088D01*
X1087455Y776912D01*
X1087746Y778000D01*
D02*
G37*
G36*
X1078000D02*
X1072254D01*
X1072545Y776912D01*
X1073598Y775088D01*
X1075088Y773598D01*
X1076912Y772545D01*
X1078000Y772254D01*
Y778000D01*
D02*
G37*
G36*
X652000Y767746D02*
Y762000D01*
X657746D01*
X657455Y763088D01*
X656402Y764912D01*
X654912Y766402D01*
X653088Y767455D01*
X652000Y767746D01*
D02*
G37*
G36*
X648000D02*
X646912Y767455D01*
X645088Y766402D01*
X643598Y764912D01*
X642545Y763088D01*
X642254Y762000D01*
X648000D01*
Y767746D01*
D02*
G37*
G36*
X837000Y766996D02*
Y761250D01*
X842746D01*
X842455Y762338D01*
X841402Y764162D01*
X839912Y765652D01*
X838088Y766705D01*
X837000Y766996D01*
D02*
G37*
G36*
X657746Y758000D02*
X652000D01*
Y752254D01*
X653088Y752545D01*
X654912Y753598D01*
X656402Y755088D01*
X657455Y756912D01*
X657746Y758000D01*
D02*
G37*
G36*
X648000D02*
X642254D01*
X642545Y756912D01*
X643598Y755088D01*
X645088Y753598D01*
X646912Y752545D01*
X648000Y752254D01*
Y758000D01*
D02*
G37*
G36*
X747000Y757746D02*
Y752000D01*
X752746D01*
X752455Y753088D01*
X751402Y754912D01*
X749912Y756402D01*
X748088Y757455D01*
X747000Y757746D01*
D02*
G37*
G36*
X743000D02*
X741912Y757455D01*
X740088Y756402D01*
X738598Y754912D01*
X737545Y753088D01*
X737254Y752000D01*
X743000D01*
Y757746D01*
D02*
G37*
G36*
X842746Y757250D02*
X837000D01*
Y751504D01*
X838088Y751795D01*
X839912Y752848D01*
X841402Y754338D01*
X842455Y756162D01*
X842746Y757250D01*
D02*
G37*
G36*
X752746Y748000D02*
X747000D01*
Y742254D01*
X748088Y742545D01*
X749912Y743598D01*
X751402Y745088D01*
X752455Y746912D01*
X752746Y748000D01*
D02*
G37*
G36*
X743000D02*
X737254D01*
X737545Y746912D01*
X738598Y745088D01*
X740088Y743598D01*
X741912Y742545D01*
X743000Y742254D01*
Y748000D01*
D02*
G37*
G36*
X1082000Y737746D02*
Y732000D01*
X1087746D01*
X1087455Y733088D01*
X1086402Y734912D01*
X1084912Y736402D01*
X1083088Y737455D01*
X1082000Y737746D01*
D02*
G37*
G36*
X1078000D02*
X1076912Y737455D01*
X1075088Y736402D01*
X1073598Y734912D01*
X1072545Y733088D01*
X1072254Y732000D01*
X1078000D01*
Y737746D01*
D02*
G37*
G36*
X292000D02*
Y732000D01*
X297746D01*
X297455Y733088D01*
X296402Y734912D01*
X294912Y736402D01*
X293088Y737455D01*
X292000Y737746D01*
D02*
G37*
G36*
X288000D02*
X286912Y737455D01*
X285088Y736402D01*
X283598Y734912D01*
X282545Y733088D01*
X282254Y732000D01*
X288000D01*
Y737746D01*
D02*
G37*
G36*
X801963Y801225D02*
X799330D01*
X796787Y800544D01*
X795972Y800073D01*
X795461Y799861D01*
X795022Y799525D01*
X794507Y799227D01*
X794086Y798806D01*
X793581Y798419D01*
X793194Y797914D01*
X792645Y797365D01*
X792257Y796693D01*
X792139Y796539D01*
X792064Y796359D01*
X791328Y795085D01*
X790647Y792542D01*
Y789909D01*
X790922Y788881D01*
Y775760D01*
X746240Y731078D01*
X711760D01*
X699443Y743394D01*
X699318Y743860D01*
X698002Y746140D01*
X697666Y746476D01*
X697649Y746516D01*
X697606Y746577D01*
X697493Y746977D01*
X697375Y747574D01*
X696862Y755261D01*
X696848Y757351D01*
X696825Y757459D01*
Y774908D01*
X696840Y774962D01*
X696829Y775044D01*
X696846Y775125D01*
X696956Y780053D01*
X697137Y782337D01*
X697242Y783113D01*
X697350Y783670D01*
X697391Y783815D01*
X697740Y784164D01*
X698925Y786216D01*
X699538Y788505D01*
Y790875D01*
X698925Y793164D01*
X697740Y795216D01*
X696065Y796892D01*
X694012Y798077D01*
X691723Y798690D01*
X689353D01*
X687065Y798077D01*
X685012Y796892D01*
X683337Y795216D01*
X682152Y793164D01*
X681538Y790875D01*
Y788505D01*
X682152Y786216D01*
X683225Y784358D01*
X683683Y777263D01*
X683691Y775509D01*
X683713Y775400D01*
Y757840D01*
X683696Y757771D01*
X683708Y757688D01*
X683691Y757606D01*
X683672Y755492D01*
X683524Y751893D01*
X683239Y749127D01*
X683072Y748169D01*
X682895Y747439D01*
X682751Y747021D01*
X682724Y746966D01*
X682606Y746815D01*
X682537Y746679D01*
X681998Y746140D01*
X680682Y743860D01*
X680000Y741317D01*
Y738683D01*
X680682Y736140D01*
X681998Y733860D01*
X683860Y731998D01*
X686140Y730682D01*
X686606Y730557D01*
X701581Y715581D01*
X701581Y715581D01*
X703461Y714138D01*
X705650Y713232D01*
X708000Y712922D01*
X750000D01*
X752349Y713232D01*
X754539Y714138D01*
X756419Y715581D01*
X806419Y765581D01*
X807861Y767461D01*
X808768Y769650D01*
X809078Y772000D01*
Y785828D01*
X809965Y787365D01*
X810647Y789909D01*
Y792542D01*
X809965Y795085D01*
X808649Y797365D01*
X806787Y799227D01*
X804507Y800544D01*
X801963Y801225D01*
D02*
G37*
G36*
X867163Y735588D02*
Y728806D01*
X873945D01*
X873550Y730280D01*
X872365Y732332D01*
X870689Y734008D01*
X868637Y735193D01*
X867163Y735588D01*
D02*
G37*
G36*
X863163D02*
X861689Y735193D01*
X859637Y734008D01*
X857961Y732332D01*
X856777Y730280D01*
X856382Y728806D01*
X863163D01*
Y735588D01*
D02*
G37*
G36*
X1087746Y728000D02*
X1082000D01*
Y722254D01*
X1083088Y722545D01*
X1084912Y723598D01*
X1086402Y725088D01*
X1087455Y726912D01*
X1087746Y728000D01*
D02*
G37*
G36*
X1078000D02*
X1072254D01*
X1072545Y726912D01*
X1073598Y725088D01*
X1075088Y723598D01*
X1076912Y722545D01*
X1078000Y722254D01*
Y728000D01*
D02*
G37*
G36*
X297746D02*
X292000D01*
Y722254D01*
X293088Y722545D01*
X294912Y723598D01*
X296402Y725088D01*
X297455Y726912D01*
X297746Y728000D01*
D02*
G37*
G36*
X288000D02*
X282254D01*
X282545Y726912D01*
X283598Y725088D01*
X285088Y723598D01*
X286912Y722545D01*
X288000Y722254D01*
Y728000D01*
D02*
G37*
G36*
X873945Y724806D02*
X867163D01*
Y718025D01*
X868637Y718420D01*
X870689Y719605D01*
X872365Y721280D01*
X873550Y723333D01*
X873945Y724806D01*
D02*
G37*
G36*
X863163D02*
X856382D01*
X856777Y723333D01*
X857961Y721280D01*
X859637Y719605D01*
X861689Y718420D01*
X863163Y718025D01*
Y724806D01*
D02*
G37*
G36*
X759000Y705746D02*
Y700000D01*
X764746D01*
X764455Y701088D01*
X763402Y702912D01*
X761912Y704402D01*
X760088Y705455D01*
X759000Y705746D01*
D02*
G37*
G36*
X755000D02*
X753912Y705455D01*
X752088Y704402D01*
X750598Y702912D01*
X749545Y701088D01*
X749254Y700000D01*
X755000D01*
Y705746D01*
D02*
G37*
G36*
X764746Y696000D02*
X759000D01*
Y690254D01*
X760088Y690545D01*
X761912Y691598D01*
X763402Y693088D01*
X764455Y694912D01*
X764746Y696000D01*
D02*
G37*
G36*
X755000D02*
X749254D01*
X749545Y694912D01*
X750598Y693088D01*
X752088Y691598D01*
X753912Y690545D01*
X755000Y690254D01*
Y696000D01*
D02*
G37*
G36*
X1082000Y687746D02*
Y682000D01*
X1087746D01*
X1087455Y683088D01*
X1086402Y684912D01*
X1084912Y686402D01*
X1083088Y687455D01*
X1082000Y687746D01*
D02*
G37*
G36*
X1078000D02*
X1076912Y687455D01*
X1075088Y686402D01*
X1073598Y684912D01*
X1072545Y683088D01*
X1072254Y682000D01*
X1078000D01*
Y687746D01*
D02*
G37*
G36*
X292000D02*
Y682000D01*
X297746D01*
X297455Y683088D01*
X296402Y684912D01*
X294912Y686402D01*
X293088Y687455D01*
X292000Y687746D01*
D02*
G37*
G36*
X288000D02*
X286912Y687455D01*
X285088Y686402D01*
X283598Y684912D01*
X282545Y683088D01*
X282254Y682000D01*
X288000D01*
Y687746D01*
D02*
G37*
G36*
X759000Y683746D02*
Y678000D01*
X764746D01*
X764455Y679088D01*
X763402Y680912D01*
X761912Y682402D01*
X760088Y683455D01*
X759000Y683746D01*
D02*
G37*
G36*
X755000D02*
X753912Y683455D01*
X752088Y682402D01*
X750598Y680912D01*
X749545Y679088D01*
X749254Y678000D01*
X755000D01*
Y683746D01*
D02*
G37*
G36*
X297746Y678000D02*
X292000D01*
Y672254D01*
X293088Y672545D01*
X294912Y673598D01*
X296402Y675088D01*
X297455Y676912D01*
X297746Y678000D01*
D02*
G37*
G36*
X288000D02*
X282254D01*
X282545Y676912D01*
X283598Y675088D01*
X285088Y673598D01*
X286912Y672545D01*
X288000Y672254D01*
Y678000D01*
D02*
G37*
G36*
X1087746D02*
X1082000D01*
Y672254D01*
X1083088Y672545D01*
X1084912Y673598D01*
X1086402Y675088D01*
X1087455Y676912D01*
X1087746Y678000D01*
D02*
G37*
G36*
X1078000D02*
X1072254D01*
X1072545Y676912D01*
X1073598Y675088D01*
X1075088Y673598D01*
X1076912Y672545D01*
X1078000Y672254D01*
Y678000D01*
D02*
G37*
G36*
X764746Y674000D02*
X759000D01*
Y668254D01*
X760088Y668545D01*
X761912Y669598D01*
X763402Y671088D01*
X764455Y672912D01*
X764746Y674000D01*
D02*
G37*
G36*
X755000D02*
X749254D01*
X749545Y672912D01*
X750598Y671088D01*
X752088Y669598D01*
X753912Y668545D01*
X755000Y668254D01*
Y674000D01*
D02*
G37*
G36*
X867000Y647746D02*
Y642000D01*
X872746D01*
X872455Y643088D01*
X871402Y644912D01*
X869912Y646402D01*
X868088Y647455D01*
X867000Y647746D01*
D02*
G37*
G36*
X863000D02*
X861912Y647455D01*
X860088Y646402D01*
X858598Y644912D01*
X857545Y643088D01*
X857254Y642000D01*
X863000D01*
Y647746D01*
D02*
G37*
G36*
X872746Y638000D02*
X867000D01*
Y632254D01*
X868088Y632545D01*
X869912Y633598D01*
X871402Y635088D01*
X872455Y636912D01*
X872746Y638000D01*
D02*
G37*
G36*
X863000D02*
X857254D01*
X857545Y636912D01*
X858598Y635088D01*
X860088Y633598D01*
X861912Y632545D01*
X863000Y632254D01*
Y638000D01*
D02*
G37*
G36*
X292000Y637746D02*
Y632000D01*
X297746D01*
X297455Y633088D01*
X296402Y634912D01*
X294912Y636402D01*
X293088Y637455D01*
X292000Y637746D01*
D02*
G37*
G36*
X288000D02*
X286912Y637455D01*
X285088Y636402D01*
X283598Y634912D01*
X282545Y633088D01*
X282254Y632000D01*
X288000D01*
Y637746D01*
D02*
G37*
G36*
X1128580Y653250D02*
X1125420D01*
X1122368Y652432D01*
X1119632Y650852D01*
X1117398Y648618D01*
X1115818Y645882D01*
X1115000Y642830D01*
Y639670D01*
X1115818Y636618D01*
X1117398Y633882D01*
X1119632Y631648D01*
X1122368Y630068D01*
X1125420Y629250D01*
X1128580D01*
X1131632Y630068D01*
X1134368Y631648D01*
X1136602Y633882D01*
X1138182Y636618D01*
X1139000Y639670D01*
Y642830D01*
X1138182Y645882D01*
X1136602Y648618D01*
X1134368Y650852D01*
X1131632Y652432D01*
X1128580Y653250D01*
D02*
G37*
G36*
X297746Y628000D02*
X292000D01*
Y622254D01*
X293088Y622545D01*
X294912Y623598D01*
X296402Y625088D01*
X297455Y626912D01*
X297746Y628000D01*
D02*
G37*
G36*
X288000D02*
X282254D01*
X282545Y626912D01*
X283598Y625088D01*
X285088Y623598D01*
X286912Y622545D01*
X288000Y622254D01*
Y628000D01*
D02*
G37*
G36*
X802000Y627746D02*
Y622000D01*
X807746D01*
X807455Y623088D01*
X806402Y624912D01*
X804912Y626402D01*
X803088Y627455D01*
X802000Y627746D01*
D02*
G37*
G36*
X798000D02*
X796912Y627455D01*
X795088Y626402D01*
X793598Y624912D01*
X792545Y623088D01*
X792254Y622000D01*
X798000D01*
Y627746D01*
D02*
G37*
G36*
X807746Y618000D02*
X802000D01*
Y612254D01*
X803088Y612545D01*
X804912Y613598D01*
X806402Y615088D01*
X807455Y616912D01*
X807746Y618000D01*
D02*
G37*
G36*
X798000D02*
X792254D01*
X792545Y616912D01*
X793598Y615088D01*
X795088Y613598D01*
X796912Y612545D01*
X798000Y612254D01*
Y618000D01*
D02*
G37*
G36*
X912000Y617746D02*
Y612000D01*
X917746D01*
X917455Y613088D01*
X916402Y614912D01*
X914912Y616402D01*
X913088Y617455D01*
X912000Y617746D01*
D02*
G37*
G36*
X908000D02*
X906912Y617455D01*
X905088Y616402D01*
X903598Y614912D01*
X902545Y613088D01*
X902254Y612000D01*
X908000D01*
Y617746D01*
D02*
G37*
G36*
X609000Y611746D02*
Y606000D01*
X614746D01*
X614455Y607088D01*
X613402Y608912D01*
X611912Y610402D01*
X610088Y611455D01*
X609000Y611746D01*
D02*
G37*
G36*
X605000D02*
X603912Y611455D01*
X602088Y610402D01*
X600598Y608912D01*
X599545Y607088D01*
X599254Y606000D01*
X605000D01*
Y611746D01*
D02*
G37*
G36*
X1128580Y627850D02*
X1125420D01*
X1122368Y627032D01*
X1119632Y625452D01*
X1117398Y623218D01*
X1115818Y620482D01*
X1115000Y617430D01*
Y614270D01*
X1115818Y611218D01*
X1117398Y608482D01*
X1119632Y606248D01*
X1122368Y604668D01*
X1125420Y603850D01*
X1128580D01*
X1131632Y604668D01*
X1134368Y606248D01*
X1136602Y608482D01*
X1138182Y611218D01*
X1139000Y614270D01*
Y617430D01*
X1138182Y620482D01*
X1136602Y623218D01*
X1134368Y625452D01*
X1131632Y627032D01*
X1128580Y627850D01*
D02*
G37*
G36*
X917746Y608000D02*
X912000D01*
Y602254D01*
X913088Y602545D01*
X914912Y603598D01*
X916402Y605088D01*
X917455Y606912D01*
X917746Y608000D01*
D02*
G37*
G36*
X908000D02*
X902254D01*
X902545Y606912D01*
X903598Y605088D01*
X905088Y603598D01*
X906912Y602545D01*
X908000Y602254D01*
Y608000D01*
D02*
G37*
G36*
X562000Y607746D02*
Y602000D01*
X567746D01*
X567455Y603088D01*
X566402Y604912D01*
X564912Y606402D01*
X563088Y607455D01*
X562000Y607746D01*
D02*
G37*
G36*
X558000D02*
X556912Y607455D01*
X555088Y606402D01*
X553598Y604912D01*
X552545Y603088D01*
X552254Y602000D01*
X558000D01*
Y607746D01*
D02*
G37*
G36*
X1070000Y603746D02*
Y598000D01*
X1075746D01*
X1075455Y599088D01*
X1074402Y600912D01*
X1072912Y602402D01*
X1071088Y603455D01*
X1070000Y603746D01*
D02*
G37*
G36*
X1066000D02*
X1064912Y603455D01*
X1063088Y602402D01*
X1061598Y600912D01*
X1060545Y599088D01*
X1060254Y598000D01*
X1066000D01*
Y603746D01*
D02*
G37*
G36*
X614746Y602000D02*
X609000D01*
Y596254D01*
X610088Y596545D01*
X611912Y597598D01*
X613402Y599088D01*
X614455Y600912D01*
X614746Y602000D01*
D02*
G37*
G36*
X605000D02*
X599254D01*
X599545Y600912D01*
X600598Y599088D01*
X602088Y597598D01*
X603912Y596545D01*
X605000Y596254D01*
Y602000D01*
D02*
G37*
G36*
X1129000Y601302D02*
Y592450D01*
X1137852D01*
X1137250Y594696D01*
X1135802Y597204D01*
X1133754Y599252D01*
X1131246Y600700D01*
X1129000Y601302D01*
D02*
G37*
G36*
X1125000Y601302D02*
X1122754Y600700D01*
X1120246Y599252D01*
X1118198Y597204D01*
X1116750Y594696D01*
X1116148Y592450D01*
X1125000D01*
Y601302D01*
D02*
G37*
G36*
X567746Y598000D02*
X562000D01*
Y592254D01*
X563088Y592545D01*
X564912Y593598D01*
X566402Y595088D01*
X567455Y596912D01*
X567746Y598000D01*
D02*
G37*
G36*
X558000D02*
X552254D01*
X552545Y596912D01*
X553598Y595088D01*
X555088Y593598D01*
X556912Y592545D01*
X558000Y592254D01*
Y598000D01*
D02*
G37*
G36*
X867000Y597746D02*
Y592000D01*
X872746D01*
X872455Y593088D01*
X871402Y594912D01*
X869912Y596402D01*
X868088Y597455D01*
X867000Y597746D01*
D02*
G37*
G36*
X863000D02*
X861912Y597455D01*
X860088Y596402D01*
X858598Y594912D01*
X857545Y593088D01*
X857254Y592000D01*
X863000D01*
Y597746D01*
D02*
G37*
G36*
X1075746Y594000D02*
X1070000D01*
Y588254D01*
X1071088Y588545D01*
X1072912Y589598D01*
X1074402Y591088D01*
X1075455Y592912D01*
X1075746Y594000D01*
D02*
G37*
G36*
X1066000D02*
X1060254D01*
X1060545Y592912D01*
X1061598Y591088D01*
X1063088Y589598D01*
X1064912Y588545D01*
X1066000Y588254D01*
Y594000D01*
D02*
G37*
G36*
X802000Y592746D02*
Y587000D01*
X807746D01*
X807455Y588088D01*
X806402Y589912D01*
X804912Y591402D01*
X803088Y592455D01*
X802000Y592746D01*
D02*
G37*
G36*
X798000D02*
X796912Y592455D01*
X795088Y591402D01*
X793598Y589912D01*
X792545Y588088D01*
X792254Y587000D01*
X798000D01*
Y592746D01*
D02*
G37*
G36*
X779000D02*
Y587000D01*
X784746D01*
X784455Y588088D01*
X783402Y589912D01*
X781912Y591402D01*
X780088Y592455D01*
X779000Y592746D01*
D02*
G37*
G36*
X775000D02*
X773912Y592455D01*
X772088Y591402D01*
X770598Y589912D01*
X769545Y588088D01*
X769254Y587000D01*
X775000D01*
Y592746D01*
D02*
G37*
G36*
X872746Y588000D02*
X867000D01*
Y582254D01*
X868088Y582545D01*
X869912Y583598D01*
X871402Y585088D01*
X872455Y586912D01*
X872746Y588000D01*
D02*
G37*
G36*
X863000D02*
X857254D01*
X857545Y586912D01*
X858598Y585088D01*
X860088Y583598D01*
X861912Y582545D01*
X863000Y582254D01*
Y588000D01*
D02*
G37*
G36*
X807746Y583000D02*
X802000D01*
Y577254D01*
X803088Y577545D01*
X804912Y578598D01*
X806402Y580088D01*
X807455Y581912D01*
X807746Y583000D01*
D02*
G37*
G36*
X798000D02*
X792254D01*
X792545Y581912D01*
X793598Y580088D01*
X795088Y578598D01*
X796912Y577545D01*
X798000Y577254D01*
Y583000D01*
D02*
G37*
G36*
X784746D02*
X779000D01*
Y577254D01*
X780088Y577545D01*
X781912Y578598D01*
X783402Y580088D01*
X784455Y581912D01*
X784746Y583000D01*
D02*
G37*
G36*
X775000D02*
X769254D01*
X769545Y581912D01*
X770598Y580088D01*
X772088Y578598D01*
X773912Y577545D01*
X775000Y577254D01*
Y583000D01*
D02*
G37*
G36*
X685000Y582746D02*
X683912Y582455D01*
X682088Y581402D01*
X680598Y579912D01*
X679545Y578088D01*
X679254Y577000D01*
X685000D01*
Y582746D01*
D02*
G37*
G36*
X562000Y567746D02*
Y562000D01*
X567746D01*
X567455Y563088D01*
X566402Y564912D01*
X564912Y566402D01*
X563088Y567455D01*
X562000Y567746D01*
D02*
G37*
G36*
X558000D02*
X556912Y567455D01*
X555088Y566402D01*
X553598Y564912D01*
X552545Y563088D01*
X552254Y562000D01*
X558000D01*
Y567746D01*
D02*
G37*
G36*
X670685Y576640D02*
X668315D01*
X666026Y576026D01*
X663974Y574841D01*
X663767Y574634D01*
X663652Y574577D01*
X663492Y574452D01*
X663476Y574442D01*
X663357Y574388D01*
X663132Y574309D01*
X662801Y574220D01*
X662369Y574134D01*
X661885Y574066D01*
X660479Y573965D01*
X659669Y573952D01*
X659359Y573885D01*
X657907Y573694D01*
X656205Y572989D01*
X654742Y571867D01*
X629515Y546639D01*
X629446Y546595D01*
X624074Y541411D01*
X623116Y540586D01*
X621026Y540026D01*
X618974Y538841D01*
X617298Y537166D01*
X616113Y535113D01*
X615500Y532825D01*
Y530455D01*
X616113Y528166D01*
X617298Y526114D01*
X618974Y524438D01*
X621026Y523253D01*
X623315Y522640D01*
X625685D01*
X627974Y523253D01*
X630026Y524438D01*
X631702Y526114D01*
X632887Y528166D01*
X633320Y529782D01*
X639549Y536686D01*
X639575Y536730D01*
X662603Y559758D01*
X664439Y559695D01*
X665378Y559612D01*
X665413Y559607D01*
X666026Y559253D01*
X668315Y558640D01*
X670685D01*
X672974Y559253D01*
X675026Y560438D01*
X676702Y562113D01*
X677887Y564166D01*
X678500Y566455D01*
Y568825D01*
X677887Y571114D01*
X676702Y573166D01*
X675026Y574841D01*
X672974Y576026D01*
X670685Y576640D01*
D02*
G37*
G36*
X567746Y558000D02*
X562000D01*
Y552254D01*
X563088Y552545D01*
X564912Y553598D01*
X566402Y555088D01*
X567455Y556912D01*
X567746Y558000D01*
D02*
G37*
G36*
X558000D02*
X552254D01*
X552545Y556912D01*
X553598Y555088D01*
X555088Y553598D01*
X556912Y552545D01*
X558000Y552254D01*
Y558000D01*
D02*
G37*
G36*
X779000Y552746D02*
Y547000D01*
X784746D01*
X784455Y548088D01*
X783402Y549912D01*
X781912Y551402D01*
X780088Y552455D01*
X779000Y552746D01*
D02*
G37*
G36*
X775000D02*
X773912Y552455D01*
X772088Y551402D01*
X770598Y549912D01*
X769545Y548088D01*
X769254Y547000D01*
X775000D01*
Y552746D01*
D02*
G37*
G36*
X784746Y543000D02*
X779000D01*
Y537254D01*
X780088Y537545D01*
X781912Y538598D01*
X783402Y540088D01*
X784455Y541912D01*
X784746Y543000D01*
D02*
G37*
G36*
X775000D02*
X769254D01*
X769545Y541912D01*
X770598Y540088D01*
X772088Y538598D01*
X773912Y537545D01*
X775000Y537254D01*
Y543000D01*
D02*
G37*
G36*
X832000Y537746D02*
Y532000D01*
X837746D01*
X837455Y533088D01*
X836402Y534912D01*
X834912Y536402D01*
X833088Y537455D01*
X832000Y537746D01*
D02*
G37*
G36*
X828000D02*
X826912Y537455D01*
X825088Y536402D01*
X823598Y534912D01*
X822545Y533088D01*
X822254Y532000D01*
X828000D01*
Y537746D01*
D02*
G37*
G36*
X1153876Y537003D02*
X1147094D01*
Y530222D01*
X1148568Y530617D01*
X1150620Y531801D01*
X1152296Y533477D01*
X1153481Y535529D01*
X1153876Y537003D01*
D02*
G37*
G36*
X1137852Y588450D02*
X1127000D01*
X1116148D01*
X1116750Y586204D01*
X1117338Y585185D01*
X1117261Y584797D01*
X1117340Y584403D01*
X1117340Y584001D01*
X1117493Y583630D01*
X1117572Y583236D01*
X1117795Y582902D01*
X1117949Y582530D01*
X1118003Y582449D01*
X1118032Y582373D01*
X1118140Y581925D01*
X1118906Y570359D01*
X1118922Y567499D01*
X1118931Y567454D01*
Y557098D01*
X1119206Y555009D01*
X1120012Y553063D01*
X1121294Y551392D01*
X1136543Y536143D01*
X1136708Y535529D01*
X1137893Y533477D01*
X1139568Y531801D01*
X1141621Y530617D01*
X1143094Y530222D01*
Y539003D01*
X1145094D01*
Y541003D01*
X1153876D01*
X1153481Y542477D01*
X1152296Y544529D01*
X1150620Y546205D01*
X1148568Y547390D01*
X1147955Y547554D01*
X1135069Y560440D01*
Y567454D01*
X1135078Y567499D01*
X1135095Y570424D01*
X1135337Y577514D01*
X1135644Y580707D01*
X1135813Y581732D01*
X1135968Y582373D01*
X1135997Y582449D01*
X1136051Y582530D01*
X1136205Y582902D01*
X1136428Y583236D01*
X1136507Y583630D01*
X1136660Y584001D01*
X1136660Y584403D01*
X1136739Y584797D01*
X1136662Y585185D01*
X1137250Y586204D01*
X1137852Y588450D01*
D02*
G37*
G36*
X837746Y528000D02*
X832000D01*
Y522254D01*
X833088Y522545D01*
X834912Y523598D01*
X836402Y525088D01*
X837455Y526912D01*
X837746Y528000D01*
D02*
G37*
G36*
X828000D02*
X822254D01*
X822545Y526912D01*
X823598Y525088D01*
X825088Y523598D01*
X826912Y522545D01*
X828000Y522254D01*
Y528000D01*
D02*
G37*
G36*
X812000Y527746D02*
Y522000D01*
X817746D01*
X817455Y523088D01*
X816402Y524912D01*
X814912Y526402D01*
X813088Y527455D01*
X812000Y527746D01*
D02*
G37*
G36*
X808000D02*
X806912Y527455D01*
X805088Y526402D01*
X803598Y524912D01*
X802545Y523088D01*
X802254Y522000D01*
X808000D01*
Y527746D01*
D02*
G37*
G36*
X755500Y522746D02*
Y517000D01*
X761246D01*
X760955Y518088D01*
X759902Y519912D01*
X758412Y521402D01*
X756588Y522455D01*
X755500Y522746D01*
D02*
G37*
G36*
X751500D02*
X750412Y522455D01*
X748588Y521402D01*
X747098Y519912D01*
X746045Y518088D01*
X745754Y517000D01*
X751500D01*
Y522746D01*
D02*
G37*
G36*
X817746Y518000D02*
X812000D01*
Y512254D01*
X813088Y512545D01*
X814912Y513598D01*
X816402Y515088D01*
X817455Y516912D01*
X817746Y518000D01*
D02*
G37*
G36*
X808000D02*
X802254D01*
X802545Y516912D01*
X803598Y515088D01*
X805088Y513598D01*
X806912Y512545D01*
X808000Y512254D01*
Y518000D01*
D02*
G37*
G36*
X1015000Y800000D02*
X918000D01*
Y762650D01*
X917300Y759131D01*
Y754403D01*
X918000Y750884D01*
Y711850D01*
X917300Y708331D01*
Y703603D01*
X918000Y700084D01*
Y660000D01*
X927179D01*
Y590000D01*
X918000D01*
Y552650D01*
X917300Y549131D01*
Y544403D01*
X918000Y540884D01*
Y513745D01*
X917996Y513742D01*
X917956Y513735D01*
X917327Y513314D01*
X916689Y512905D01*
X915201Y511474D01*
X913801Y510285D01*
X912408Y509255D01*
X911022Y508380D01*
X910016Y507849D01*
X906619Y507328D01*
X889128Y506125D01*
X882884Y506053D01*
X755926D01*
X755759Y507323D01*
X756588Y507545D01*
X758412Y508598D01*
X759902Y510088D01*
X760955Y511912D01*
X761246Y513000D01*
X745754D01*
X746045Y511912D01*
X747098Y510088D01*
X748588Y508598D01*
X750412Y507545D01*
X751241Y507323D01*
X751074Y506053D01*
X651967D01*
X649356Y505709D01*
X646924Y504702D01*
X644835Y503099D01*
X603868Y462132D01*
X603465Y461608D01*
X602998Y461140D01*
X602668Y460568D01*
X602265Y460043D01*
X602012Y459432D01*
X601682Y458860D01*
X601510Y458221D01*
X601257Y457611D01*
X601171Y456955D01*
X601000Y456316D01*
Y455655D01*
X600914Y455000D01*
X601000Y454345D01*
Y453683D01*
X601171Y453045D01*
X601257Y452389D01*
X601510Y451779D01*
X601682Y451140D01*
X602012Y450568D01*
X602265Y449957D01*
X602668Y449432D01*
X602998Y448860D01*
X603465Y448392D01*
X603868Y447868D01*
X604393Y447465D01*
X604860Y446998D01*
X605432Y446668D01*
X605957Y446265D01*
X606568Y446012D01*
X607140Y445681D01*
X607779Y445510D01*
X608390Y445257D01*
X609045Y445171D01*
X609683Y445000D01*
X610345D01*
X611000Y444914D01*
X611655Y445000D01*
X612317D01*
X612955Y445171D01*
X613610Y445257D01*
X614221Y445510D01*
X614860Y445681D01*
X615432Y446012D01*
X616043Y446265D01*
X616568Y446668D01*
X617140Y446998D01*
X617607Y447465D01*
X618132Y447868D01*
X656145Y485881D01*
X882501D01*
X895565Y485567D01*
X906583Y484611D01*
X910016Y484084D01*
X911022Y483554D01*
X912408Y482678D01*
X913801Y481649D01*
X915201Y480460D01*
X916689Y479028D01*
X917327Y478620D01*
X917956Y478199D01*
X917995Y478191D01*
X918000Y478188D01*
Y450000D01*
X1015000D01*
Y475000D01*
X1048940D01*
Y444801D01*
X1047140Y444319D01*
X1044991Y443078D01*
X858729D01*
X829606Y472201D01*
X829482Y472666D01*
X828165Y474946D01*
X826303Y476808D01*
X824023Y478125D01*
X821480Y478806D01*
X818847D01*
X816303Y478125D01*
X814023Y476808D01*
X812161Y474946D01*
X810845Y472666D01*
X810163Y470123D01*
Y467490D01*
X810845Y464947D01*
X812161Y462666D01*
X814023Y460804D01*
X816303Y459488D01*
X816768Y459363D01*
X848550Y427581D01*
X848551Y427581D01*
X850431Y426138D01*
X852620Y425232D01*
X854969Y424922D01*
X977380D01*
X978052Y423652D01*
X976655Y421417D01*
X975693Y418270D01*
X975578Y414981D01*
X976319Y411774D01*
X976459Y411509D01*
X975498Y410613D01*
X974805Y411045D01*
X971657Y412008D01*
X968368Y412123D01*
X965161Y411382D01*
X962579Y410009D01*
X971039Y400937D01*
X979499Y391864D01*
X981049Y394344D01*
X982011Y397492D01*
X982126Y400781D01*
X981386Y403988D01*
X981245Y404253D01*
X982207Y405149D01*
X982900Y404716D01*
X986047Y403754D01*
X989336Y403639D01*
X992543Y404380D01*
X995450Y405925D01*
X997857Y408169D01*
X999601Y410961D01*
X1000563Y414108D01*
X1000678Y417397D01*
X999938Y420604D01*
X998392Y423510D01*
X998162Y423758D01*
X998668Y424922D01*
X1047172D01*
X1049050Y425170D01*
X1049683Y425000D01*
X1052317D01*
X1054860Y425681D01*
X1057140Y426998D01*
X1059002Y428860D01*
X1060319Y431140D01*
X1061000Y433684D01*
Y436316D01*
X1060955Y436485D01*
X1060992Y436522D01*
X1062114Y437985D01*
X1062820Y439687D01*
X1063060Y441515D01*
Y515698D01*
X1064330Y516039D01*
X1065298Y514362D01*
X1066974Y512687D01*
X1069026Y511502D01*
X1071315Y510888D01*
X1073685D01*
X1075974Y511502D01*
X1078026Y512687D01*
X1079702Y514362D01*
X1080887Y516414D01*
X1081500Y518703D01*
Y521073D01*
X1080887Y523362D01*
X1079702Y525414D01*
X1079211Y525905D01*
X1079142Y526126D01*
X1079057Y526513D01*
X1078591Y532799D01*
X1078578Y534502D01*
X1078556Y534609D01*
Y568000D01*
X1078333Y569697D01*
X1077678Y571278D01*
X1076636Y572636D01*
X1064862Y584410D01*
X1064800Y584502D01*
X1063531Y585786D01*
X1060551Y588977D01*
X1059339Y590448D01*
X1059024Y590887D01*
X1059000Y590926D01*
Y591185D01*
X1058387Y593474D01*
X1057202Y595526D01*
X1055526Y597202D01*
X1053474Y598387D01*
X1051185Y599000D01*
X1048815D01*
X1046526Y598387D01*
X1044474Y597202D01*
X1042798Y595526D01*
X1041613Y593474D01*
X1041000Y591185D01*
Y589781D01*
X1039730Y589255D01*
X1014993Y613993D01*
X1013530Y615115D01*
X1011827Y615820D01*
X1010000Y616060D01*
X991152D01*
X991072Y616078D01*
X983608Y616210D01*
X982348Y616305D01*
X980474Y617387D01*
X978185Y618000D01*
X975815D01*
X973526Y617387D01*
X971474Y616202D01*
X969798Y614526D01*
X968613Y612474D01*
X968000Y610185D01*
Y607815D01*
X968613Y605526D01*
X969798Y603474D01*
X971474Y601798D01*
X973526Y600613D01*
X975815Y600000D01*
X978185D01*
X980474Y600613D01*
X981923Y601450D01*
X991209Y601927D01*
X991259Y601940D01*
X1007076D01*
X1042842Y566173D01*
X1042356Y565000D01*
X1015000D01*
Y590000D01*
X955421D01*
Y660000D01*
X1015000D01*
Y685000D01*
X1050000D01*
Y775000D01*
X1015000D01*
Y800000D01*
D02*
G37*
G36*
X292000Y487746D02*
Y482000D01*
X297746D01*
X297455Y483088D01*
X296402Y484912D01*
X294912Y486402D01*
X293088Y487455D01*
X292000Y487746D01*
D02*
G37*
G36*
X288000D02*
X286912Y487455D01*
X285088Y486402D01*
X283598Y484912D01*
X282545Y483088D01*
X282254Y482000D01*
X288000D01*
Y487746D01*
D02*
G37*
G36*
X297746Y478000D02*
X292000D01*
Y472254D01*
X293088Y472545D01*
X294912Y473598D01*
X296402Y475088D01*
X297455Y476912D01*
X297746Y478000D01*
D02*
G37*
G36*
X288000D02*
X282254D01*
X282545Y476912D01*
X283598Y475088D01*
X285088Y473598D01*
X286912Y472545D01*
X288000Y472254D01*
Y478000D01*
D02*
G37*
G36*
X1127000Y472746D02*
Y467000D01*
X1132746D01*
X1132455Y468088D01*
X1131402Y469912D01*
X1129912Y471402D01*
X1128088Y472455D01*
X1127000Y472746D01*
D02*
G37*
G36*
X1123000D02*
X1121912Y472455D01*
X1120088Y471402D01*
X1118598Y469912D01*
X1117545Y468088D01*
X1117254Y467000D01*
X1123000D01*
Y472746D01*
D02*
G37*
G36*
X1132746Y463000D02*
X1127000D01*
Y457254D01*
X1128088Y457545D01*
X1129912Y458598D01*
X1131402Y460088D01*
X1132455Y461912D01*
X1132746Y463000D01*
D02*
G37*
G36*
X1123000D02*
X1117254D01*
X1117545Y461912D01*
X1118598Y460088D01*
X1120088Y458598D01*
X1121912Y457545D01*
X1123000Y457254D01*
Y463000D01*
D02*
G37*
G36*
X641000Y458746D02*
Y453000D01*
X646746D01*
X646455Y454088D01*
X645402Y455912D01*
X643912Y457402D01*
X642088Y458455D01*
X641000Y458746D01*
D02*
G37*
G36*
X637000D02*
X635912Y458455D01*
X634088Y457402D01*
X632598Y455912D01*
X631545Y454088D01*
X631254Y453000D01*
X637000D01*
Y458746D01*
D02*
G37*
G36*
X646746Y449000D02*
X641000D01*
Y443254D01*
X642088Y443545D01*
X643912Y444598D01*
X645402Y446088D01*
X646455Y447912D01*
X646746Y449000D01*
D02*
G37*
G36*
X637000D02*
X631254D01*
X631545Y447912D01*
X632598Y446088D01*
X634088Y444598D01*
X635912Y443545D01*
X637000Y443254D01*
Y449000D01*
D02*
G37*
G36*
X387000Y446746D02*
Y441000D01*
X392746D01*
X392455Y442088D01*
X391402Y443912D01*
X389912Y445402D01*
X388088Y446455D01*
X387000Y446746D01*
D02*
G37*
G36*
X383000D02*
X381912Y446455D01*
X380088Y445402D01*
X378598Y443912D01*
X377545Y442088D01*
X377254Y441000D01*
X383000D01*
Y446746D01*
D02*
G37*
G36*
X292000Y437746D02*
Y432000D01*
X297746D01*
X297455Y433088D01*
X296402Y434912D01*
X294912Y436402D01*
X293088Y437455D01*
X292000Y437746D01*
D02*
G37*
G36*
X288000D02*
X286912Y437455D01*
X285088Y436402D01*
X283598Y434912D01*
X282545Y433088D01*
X282254Y432000D01*
X288000D01*
Y437746D01*
D02*
G37*
G36*
X392746Y437000D02*
X387000D01*
Y431254D01*
X388088Y431545D01*
X389912Y432598D01*
X391402Y434088D01*
X392455Y435912D01*
X392746Y437000D01*
D02*
G37*
G36*
X383000D02*
X377254D01*
X377545Y435912D01*
X378598Y434088D01*
X380088Y432598D01*
X381912Y431545D01*
X383000Y431254D01*
Y437000D01*
D02*
G37*
G36*
X1127000Y432746D02*
Y427000D01*
X1132746D01*
X1132455Y428088D01*
X1131402Y429912D01*
X1129912Y431402D01*
X1128088Y432455D01*
X1127000Y432746D01*
D02*
G37*
G36*
X1123000D02*
X1121912Y432455D01*
X1120088Y431402D01*
X1118598Y429912D01*
X1117545Y428088D01*
X1117254Y427000D01*
X1123000D01*
Y432746D01*
D02*
G37*
G36*
X297746Y428000D02*
X292000D01*
Y422254D01*
X293088Y422545D01*
X294912Y423598D01*
X296402Y425088D01*
X297455Y426912D01*
X297746Y428000D01*
D02*
G37*
G36*
X288000D02*
X282254D01*
X282545Y426912D01*
X283598Y425088D01*
X285088Y423598D01*
X286912Y422545D01*
X288000Y422254D01*
Y428000D01*
D02*
G37*
G36*
X1132746Y423000D02*
X1127000D01*
Y417254D01*
X1128088Y417545D01*
X1129912Y418598D01*
X1131402Y420088D01*
X1132455Y421912D01*
X1132746Y423000D01*
D02*
G37*
G36*
X1123000D02*
X1117254D01*
X1117545Y421912D01*
X1118598Y420088D01*
X1120088Y418598D01*
X1121912Y417545D01*
X1123000Y417254D01*
Y423000D01*
D02*
G37*
G36*
X846000Y420746D02*
Y415000D01*
X851746D01*
X851455Y416088D01*
X850402Y417912D01*
X848912Y419402D01*
X847088Y420455D01*
X846000Y420746D01*
D02*
G37*
G36*
X842000D02*
X840912Y420455D01*
X839088Y419402D01*
X837598Y417912D01*
X836545Y416088D01*
X836254Y415000D01*
X842000D01*
Y420746D01*
D02*
G37*
G36*
X1078500Y419246D02*
Y413500D01*
X1084246D01*
X1083955Y414588D01*
X1082902Y416412D01*
X1081412Y417902D01*
X1079588Y418955D01*
X1078500Y419246D01*
D02*
G37*
G36*
X1074500D02*
X1073412Y418955D01*
X1071588Y417902D01*
X1070098Y416412D01*
X1069045Y414588D01*
X1068754Y413500D01*
X1074500D01*
Y419246D01*
D02*
G37*
G36*
X851746Y411000D02*
X836254D01*
X836545Y409912D01*
X837598Y408088D01*
X838069Y407617D01*
X837689Y406201D01*
X836327Y405836D01*
X834275Y404651D01*
X833404Y403781D01*
X785197D01*
X784776Y404202D01*
X782724Y405387D01*
X780435Y406000D01*
X778065D01*
X775776Y405387D01*
X773724Y404202D01*
X772048Y402526D01*
X770863Y400474D01*
X770250Y398185D01*
Y395815D01*
X770863Y393526D01*
X772048Y391474D01*
X773724Y389798D01*
X775776Y388613D01*
X778065Y388000D01*
X780435D01*
X782724Y388613D01*
X784776Y389798D01*
X785646Y390669D01*
X833854D01*
X834275Y390248D01*
X836327Y389063D01*
X838616Y388449D01*
X840986D01*
X843275Y389063D01*
X845327Y390248D01*
X847003Y391923D01*
X848187Y393975D01*
X848801Y396264D01*
Y398634D01*
X848187Y400923D01*
X847003Y402975D01*
X846031Y403947D01*
X846410Y405364D01*
X847088Y405545D01*
X848912Y406598D01*
X850402Y408088D01*
X851455Y409912D01*
X851746Y411000D01*
D02*
G37*
G36*
X1084246Y409500D02*
X1078500D01*
Y403754D01*
X1079588Y404045D01*
X1081412Y405098D01*
X1082902Y406588D01*
X1083955Y408412D01*
X1084246Y409500D01*
D02*
G37*
G36*
X1074500D02*
X1068754D01*
X1069045Y408412D01*
X1070098Y406588D01*
X1071588Y405098D01*
X1073412Y404045D01*
X1074500Y403754D01*
Y409500D01*
D02*
G37*
G36*
X482000Y407746D02*
Y402000D01*
X487746D01*
X487455Y403088D01*
X486402Y404912D01*
X484912Y406402D01*
X483088Y407455D01*
X482000Y407746D01*
D02*
G37*
G36*
X478000D02*
X476912Y407455D01*
X475088Y406402D01*
X473598Y404912D01*
X472545Y403088D01*
X472254Y402000D01*
X478000D01*
Y407746D01*
D02*
G37*
G36*
X672000Y401746D02*
Y396000D01*
X677746D01*
X677455Y397088D01*
X676402Y398912D01*
X674912Y400402D01*
X673088Y401455D01*
X672000Y401746D01*
D02*
G37*
G36*
X668000D02*
X666912Y401455D01*
X665088Y400402D01*
X663598Y398912D01*
X662545Y397088D01*
X662254Y396000D01*
X668000D01*
Y401746D01*
D02*
G37*
G36*
X640000Y401501D02*
Y395755D01*
X645746D01*
X645455Y396843D01*
X644402Y398667D01*
X642912Y400156D01*
X641088Y401210D01*
X640000Y401501D01*
D02*
G37*
G36*
X636000D02*
X634912Y401210D01*
X633088Y400156D01*
X631598Y398667D01*
X630545Y396843D01*
X630254Y395755D01*
X636000D01*
Y401501D01*
D02*
G37*
G36*
X487746Y398000D02*
X482000D01*
Y392254D01*
X483088Y392545D01*
X484912Y393598D01*
X486402Y395088D01*
X487455Y396912D01*
X487746Y398000D01*
D02*
G37*
G36*
X478000D02*
X472254D01*
X472545Y396912D01*
X473598Y395088D01*
X475088Y393598D01*
X476912Y392545D01*
X478000Y392254D01*
Y398000D01*
D02*
G37*
G36*
X945185Y413000D02*
X942815D01*
X940526Y412387D01*
X938474Y411202D01*
X936798Y409526D01*
X935613Y407474D01*
X935000Y405185D01*
Y404272D01*
X918880Y388152D01*
X918474Y388387D01*
X916185Y389000D01*
X913815D01*
X911526Y388387D01*
X909474Y387202D01*
X907798Y385526D01*
X906613Y383474D01*
X906000Y381185D01*
Y378815D01*
X906613Y376526D01*
X907798Y374474D01*
X909474Y372798D01*
X911526Y371613D01*
X913815Y371000D01*
X916185D01*
X918474Y371613D01*
X919586Y372256D01*
X920496Y371314D01*
X920033Y370574D01*
X918994Y367175D01*
X918870Y363622D01*
X919669Y360159D01*
X921338Y357020D01*
X923763Y354421D01*
X926777Y352537D01*
X930176Y351498D01*
X933729Y351374D01*
X937192Y352173D01*
X940331Y353842D01*
X942930Y356266D01*
X944814Y359281D01*
X945853Y362680D01*
X945977Y366232D01*
X945454Y368501D01*
X946526Y369501D01*
X948753Y368820D01*
X952305Y368696D01*
X955769Y369496D01*
X958907Y371165D01*
X961507Y373589D01*
X963391Y376603D01*
X964430Y380003D01*
X964554Y383555D01*
X963756Y387010D01*
X963915Y387302D01*
X964670Y388002D01*
X967495Y387138D01*
X970785Y387023D01*
X973992Y387763D01*
X976574Y389136D01*
X968114Y398209D01*
X959653Y407281D01*
X958104Y404801D01*
X957141Y401654D01*
X957027Y398364D01*
X957691Y395485D01*
X956941Y394781D01*
X956638Y394643D01*
X953247Y395680D01*
X950228Y395785D01*
X950104Y395963D01*
X949799Y397071D01*
X951202Y398474D01*
X952387Y400526D01*
X953000Y402815D01*
Y405185D01*
X952387Y407474D01*
X951202Y409526D01*
X949526Y411202D01*
X947474Y412387D01*
X945185Y413000D01*
D02*
G37*
G36*
X677746Y392000D02*
X672000D01*
Y386254D01*
X673088Y386545D01*
X674912Y387598D01*
X676402Y389088D01*
X677455Y390912D01*
X677746Y392000D01*
D02*
G37*
G36*
X668000D02*
X662254D01*
X662545Y390912D01*
X663598Y389088D01*
X665088Y387598D01*
X666912Y386545D01*
X668000Y386254D01*
Y392000D01*
D02*
G37*
G36*
X645746Y391755D02*
X640000D01*
Y386008D01*
X641088Y386300D01*
X642912Y387353D01*
X644402Y388843D01*
X645455Y390667D01*
X645746Y391755D01*
D02*
G37*
G36*
X636000D02*
X630254D01*
X630545Y390667D01*
X631598Y388843D01*
X633088Y387353D01*
X634912Y386300D01*
X636000Y386008D01*
Y391755D01*
D02*
G37*
G36*
X744000Y387746D02*
Y382000D01*
X749746D01*
X749455Y383088D01*
X748402Y384912D01*
X746912Y386402D01*
X745088Y387455D01*
X744000Y387746D01*
D02*
G37*
G36*
X853823Y384746D02*
X852735Y384455D01*
X850911Y383402D01*
X849421Y381912D01*
X848368Y380088D01*
X848077Y379000D01*
X853823D01*
Y384746D01*
D02*
G37*
G36*
X1078500Y382246D02*
Y376500D01*
X1084246D01*
X1083955Y377588D01*
X1082902Y379412D01*
X1081412Y380902D01*
X1079588Y381955D01*
X1078500Y382246D01*
D02*
G37*
G36*
X1074500D02*
X1073412Y381955D01*
X1071588Y380902D01*
X1070098Y379412D01*
X1069045Y377588D01*
X1068754Y376500D01*
X1074500D01*
Y382246D01*
D02*
G37*
G36*
X1111843Y404000D02*
X1108157D01*
X1104596Y403046D01*
X1101404Y401203D01*
X1098797Y398596D01*
X1096954Y395404D01*
X1096000Y391843D01*
Y388157D01*
X1096954Y384596D01*
X1098797Y381404D01*
X1101404Y378797D01*
X1104596Y376954D01*
X1108157Y376000D01*
X1111843D01*
X1115404Y376954D01*
X1118596Y378797D01*
X1121203Y381404D01*
X1123046Y384596D01*
X1124000Y388157D01*
Y391843D01*
X1123046Y395404D01*
X1121203Y398596D01*
X1118596Y401203D01*
X1115404Y403046D01*
X1111843Y404000D01*
D02*
G37*
G36*
X311843D02*
X308157D01*
X304596Y403046D01*
X301404Y401203D01*
X298797Y398596D01*
X296954Y395404D01*
X296000Y391843D01*
Y388157D01*
X296954Y384596D01*
X298797Y381404D01*
X301404Y378797D01*
X304596Y376954D01*
X308157Y376000D01*
X311843D01*
X315404Y376954D01*
X318596Y378797D01*
X321203Y381404D01*
X323046Y384596D01*
X324000Y388157D01*
Y391843D01*
X323046Y395404D01*
X321203Y398596D01*
X318596Y401203D01*
X315404Y403046D01*
X311843Y404000D01*
D02*
G37*
G36*
X411000Y383817D02*
Y376000D01*
X418817D01*
X418318Y377860D01*
X417002Y380140D01*
X415140Y382002D01*
X412860Y383318D01*
X411000Y383817D01*
D02*
G37*
G36*
X407000D02*
X405140Y383318D01*
X402860Y382002D01*
X400998Y380140D01*
X399682Y377860D01*
X399183Y376000D01*
X407000D01*
Y383817D01*
D02*
G37*
G36*
X853823Y375000D02*
X848077D01*
X848368Y373912D01*
X849421Y372088D01*
X850911Y370598D01*
X852735Y369545D01*
X853823Y369254D01*
Y375000D01*
D02*
G37*
G36*
X1084246Y372500D02*
X1078500D01*
Y366754D01*
X1079588Y367045D01*
X1081412Y368098D01*
X1082902Y369588D01*
X1083955Y371412D01*
X1084246Y372500D01*
D02*
G37*
G36*
X1074500D02*
X1068754D01*
X1069045Y371412D01*
X1070098Y369588D01*
X1071588Y368098D01*
X1073412Y367045D01*
X1074500Y366754D01*
Y372500D01*
D02*
G37*
G36*
X418817Y372000D02*
X411000D01*
Y364183D01*
X412860Y364682D01*
X415140Y365998D01*
X417002Y367860D01*
X418318Y370140D01*
X418817Y372000D01*
D02*
G37*
G36*
X407000D02*
X399183D01*
X399682Y370140D01*
X400998Y367860D01*
X402860Y365998D01*
X405140Y364682D01*
X407000Y364183D01*
Y372000D01*
D02*
G37*
G36*
X655000Y370000D02*
X647750D01*
Y361500D01*
X655000D01*
Y370000D01*
D02*
G37*
G36*
X783000D02*
X775750D01*
Y361500D01*
X783000D01*
Y370000D01*
D02*
G37*
G36*
X771750D02*
X764500D01*
Y361500D01*
X771750D01*
Y370000D01*
D02*
G37*
G36*
X611316Y413000D02*
X608684D01*
X606140Y412318D01*
X603860Y411002D01*
X601998Y409140D01*
X600681Y406860D01*
X600000Y404317D01*
Y401684D01*
X600681Y399140D01*
X601998Y396860D01*
X603444Y395414D01*
Y366032D01*
X594971Y357714D01*
X594183Y357000D01*
X592999D01*
X590826Y356418D01*
X589556Y357043D01*
Y388000D01*
X589333Y389697D01*
X588678Y391278D01*
X587636Y392636D01*
X572636Y407636D01*
X571278Y408678D01*
X569697Y409333D01*
X568000Y409556D01*
X555586D01*
X554140Y411002D01*
X551860Y412318D01*
X549316Y413000D01*
X546684D01*
X544140Y412318D01*
X541860Y411002D01*
X539998Y409140D01*
X538681Y406860D01*
X538000Y404317D01*
Y401684D01*
X538681Y399140D01*
X539998Y396860D01*
X541860Y394998D01*
X544140Y393681D01*
X546684Y393000D01*
X549316D01*
X551860Y393681D01*
X554140Y394998D01*
X555586Y396444D01*
X565284D01*
X576444Y385284D01*
Y371544D01*
X575174Y370918D01*
X573001Y371500D01*
X570499D01*
X568083Y370853D01*
X565917Y369602D01*
X564148Y367833D01*
X562897Y365667D01*
X562422Y363894D01*
X561108D01*
X560603Y365779D01*
X559352Y367945D01*
X557583Y369714D01*
X555417Y370965D01*
X553001Y371612D01*
X550499D01*
X548083Y370965D01*
X545917Y369714D01*
X544148Y367945D01*
X542897Y365779D01*
X542250Y363363D01*
Y360861D01*
X542897Y358445D01*
X544148Y356279D01*
X545917Y354510D01*
X548083Y353260D01*
X550499Y352612D01*
X553001D01*
X555417Y353260D01*
X557583Y354510D01*
X559352Y356279D01*
X560603Y358445D01*
X561078Y360218D01*
X562392D01*
X562897Y358333D01*
X564148Y356167D01*
X565917Y354398D01*
X568083Y353148D01*
X570499Y352500D01*
X573001D01*
X575174Y353082D01*
X576444Y352457D01*
Y338750D01*
X576667Y337053D01*
X577322Y335472D01*
X578364Y334114D01*
X584750Y327728D01*
Y326249D01*
X585397Y323833D01*
X586648Y321667D01*
X588417Y319898D01*
X590583Y318647D01*
X592999Y318000D01*
X595501D01*
X597917Y318647D01*
X600083Y319898D01*
X601852Y321667D01*
X603103Y323833D01*
X603750Y326249D01*
Y328751D01*
X603103Y331167D01*
X601852Y333333D01*
X600083Y335102D01*
X597917Y336353D01*
X596088Y336843D01*
Y338157D01*
X597917Y338647D01*
X600083Y339898D01*
X601852Y341667D01*
X603103Y343833D01*
X603750Y346249D01*
Y347220D01*
X614712Y358661D01*
X614914Y358977D01*
X615678Y359972D01*
X616333Y361553D01*
X616556Y363250D01*
Y395414D01*
X618002Y396860D01*
X619319Y399140D01*
X620000Y401684D01*
Y404317D01*
X619319Y406860D01*
X618002Y409140D01*
X616140Y411002D01*
X613860Y412318D01*
X611316Y413000D01*
D02*
G37*
G36*
X655000Y357500D02*
X647750D01*
Y349000D01*
X655000D01*
Y357500D01*
D02*
G37*
G36*
X530501Y357000D02*
X527999D01*
X525583Y356353D01*
X523417Y355102D01*
X521648Y353333D01*
X520397Y351167D01*
X519750Y348751D01*
Y348302D01*
X518577Y347815D01*
X518390Y348002D01*
X516110Y349319D01*
X513567Y350000D01*
X510933D01*
X508390Y349319D01*
X507973Y349078D01*
X372277D01*
X371860Y349319D01*
X369316Y350000D01*
X366684D01*
X364140Y349319D01*
X361860Y348002D01*
X359998Y346140D01*
X358681Y343860D01*
X358000Y341317D01*
Y338684D01*
X358681Y336140D01*
X359998Y333860D01*
X361860Y331998D01*
X364140Y330681D01*
X366684Y330000D01*
X369316D01*
X371860Y330681D01*
X372277Y330922D01*
X507973D01*
X508390Y330681D01*
X510933Y330000D01*
X513567D01*
X516110Y330681D01*
X518390Y331998D01*
X520252Y333860D01*
X521568Y336140D01*
X522250Y338684D01*
Y339415D01*
X522794Y339640D01*
X523520Y339839D01*
X525583Y338647D01*
X527412Y338157D01*
Y336843D01*
X525583Y336353D01*
X523417Y335102D01*
X521648Y333333D01*
X520397Y331167D01*
X519750Y328751D01*
Y326249D01*
X520397Y323833D01*
X521648Y321667D01*
X523417Y319898D01*
X525583Y318647D01*
X527999Y318000D01*
X530501D01*
X532917Y318647D01*
X535083Y319898D01*
X536852Y321667D01*
X538103Y323833D01*
X538750Y326249D01*
Y328751D01*
X538103Y331167D01*
X536852Y333333D01*
X535083Y335102D01*
X532917Y336353D01*
X531088Y336843D01*
Y338157D01*
X532917Y338647D01*
X535083Y339898D01*
X536852Y341667D01*
X538103Y343833D01*
X538750Y346249D01*
Y348751D01*
X538103Y351167D01*
X536852Y353333D01*
X535083Y355102D01*
X532917Y356353D01*
X530501Y357000D01*
D02*
G37*
G36*
X890750Y336976D02*
X887153Y336012D01*
X883847Y334103D01*
X881147Y331403D01*
X879238Y328097D01*
X878274Y324500D01*
X890750D01*
Y336976D01*
D02*
G37*
G36*
X824750D02*
Y324500D01*
X837226D01*
X836262Y328097D01*
X834353Y331403D01*
X831653Y334103D01*
X828347Y336012D01*
X824750Y336976D01*
D02*
G37*
G36*
X400000Y315282D02*
X398526Y314887D01*
X396474Y313702D01*
X394798Y312026D01*
X393613Y309974D01*
X393218Y308500D01*
X400000D01*
Y315282D01*
D02*
G37*
G36*
Y304500D02*
X393218D01*
X393613Y303026D01*
X394798Y300974D01*
X396474Y299298D01*
X398526Y298113D01*
X400000Y297718D01*
Y304500D01*
D02*
G37*
G36*
X484000Y282746D02*
Y277000D01*
X489746D01*
X489455Y278088D01*
X488402Y279912D01*
X486912Y281402D01*
X485088Y282455D01*
X484000Y282746D01*
D02*
G37*
G36*
X480000D02*
X478912Y282455D01*
X477088Y281402D01*
X475598Y279912D01*
X474545Y278088D01*
X474254Y277000D01*
X480000D01*
Y282746D01*
D02*
G37*
G36*
X489746Y273000D02*
X484000D01*
Y267254D01*
X485088Y267545D01*
X486912Y268598D01*
X488402Y270088D01*
X489455Y271912D01*
X489746Y273000D01*
D02*
G37*
G36*
X480000D02*
X474254D01*
X474545Y271912D01*
X475598Y270088D01*
X477088Y268598D01*
X478912Y267545D01*
X480000Y267254D01*
Y273000D01*
D02*
G37*
%LPD*%
G36*
X694013Y786095D02*
X693776Y785770D01*
X693565Y785275D01*
X693379Y784611D01*
X693217Y783777D01*
X693080Y782774D01*
X692881Y780259D01*
X692769Y775216D01*
X687769Y775527D01*
X687761Y777404D01*
X687237Y785518D01*
X687095Y785959D01*
X686937Y786222D01*
X694013Y786095D01*
D02*
G37*
G36*
X692769Y757323D02*
X692785Y755111D01*
X693323Y747042D01*
X693524Y746026D01*
X693755Y745210D01*
X694016Y744593D01*
X694309Y744175D01*
X685818Y744303D01*
X686189Y744777D01*
X686520Y745440D01*
X686813Y746293D01*
X687067Y747336D01*
X687281Y748568D01*
X687594Y751600D01*
X687750Y755390D01*
X687769Y757570D01*
X692769Y757323D01*
D02*
G37*
G36*
X666780Y563444D02*
X666590Y563526D01*
X666286Y563599D01*
X665867Y563663D01*
X664687Y563767D01*
X662059Y563857D01*
X659735Y563874D01*
Y569874D01*
X660658Y569889D01*
X662316Y570008D01*
X663052Y570112D01*
X663726Y570246D01*
X664337Y570409D01*
X664886Y570602D01*
X665373Y570825D01*
X665798Y571078D01*
X666160Y571360D01*
X666780Y563444D01*
D02*
G37*
G36*
X636521Y539418D02*
X629500Y531637D01*
X624497Y536640D01*
X624712Y536710D01*
X625052Y536921D01*
X625517Y537272D01*
X626823Y538395D01*
X632278Y543661D01*
X636521Y539418D01*
D02*
G37*
G36*
X1132345Y584325D02*
X1132063Y583574D01*
X1131814Y582544D01*
X1131598Y581235D01*
X1131266Y577780D01*
X1131017Y570505D01*
X1131000Y567522D01*
X1123000D01*
X1122983Y570505D01*
X1122186Y582544D01*
X1121937Y583574D01*
X1121655Y584325D01*
X1121340Y584797D01*
X1132660D01*
X1132345Y584325D01*
D02*
G37*
G36*
X980735Y612436D02*
X981124Y612344D01*
X981702Y612263D01*
X983419Y612135D01*
X991000Y612000D01*
Y606000D01*
X980533Y605462D01*
Y612538D01*
X980735Y612436D01*
D02*
G37*
G36*
X1055069Y589655D02*
X1055276Y589198D01*
X1055621Y588633D01*
X1056105Y587959D01*
X1057485Y586286D01*
X1060590Y582961D01*
X1061901Y581635D01*
X1058365Y578099D01*
X1057039Y579410D01*
X1051367Y584379D01*
X1050801Y584724D01*
X1050345Y584931D01*
X1049997Y585000D01*
X1055000Y590003D01*
X1055069Y589655D01*
D02*
G37*
G36*
X1074514Y532633D02*
X1075011Y525924D01*
X1075196Y525079D01*
X1075409Y524399D01*
X1075650Y523885D01*
X1075920Y523536D01*
X1068844Y523299D01*
X1068969Y523532D01*
X1069080Y523948D01*
X1069179Y524548D01*
X1069264Y525331D01*
X1069441Y528783D01*
X1069500Y533888D01*
X1074500Y534471D01*
X1074514Y532633D01*
D02*
G37*
G36*
X927167Y481816D02*
X925248Y483364D01*
X922757Y484750D01*
X919694Y485973D01*
X919517Y486024D01*
Y481967D01*
X917938Y483487D01*
X916336Y484847D01*
X914712Y486047D01*
X913066Y487087D01*
X911397Y487967D01*
X911281Y488016D01*
X907069Y488663D01*
X895790Y489641D01*
X882221Y489967D01*
Y501967D01*
X889292Y502048D01*
X907069Y503271D01*
X911281Y503917D01*
X911397Y503967D01*
X913066Y504847D01*
X914712Y505887D01*
X916336Y507087D01*
X917938Y508447D01*
X919517Y509967D01*
Y505909D01*
X919694Y505961D01*
X922757Y507183D01*
X925248Y508569D01*
X927167Y510118D01*
Y481816D01*
D02*
G37*
G36*
X611768Y361482D02*
X599599Y348782D01*
X595532Y352849D01*
X595736Y352952D01*
X596177Y353302D01*
X597770Y354746D01*
X608232Y365018D01*
X611768Y361482D01*
D02*
G37*
%LPC*%
G36*
X935977Y1041147D02*
Y1035401D01*
X941724D01*
X941432Y1036488D01*
X940379Y1038313D01*
X938889Y1039802D01*
X937065Y1040855D01*
X935977Y1041147D01*
D02*
G37*
G36*
X931977D02*
X930890Y1040855D01*
X929065Y1039802D01*
X927576Y1038313D01*
X926523Y1036488D01*
X926231Y1035401D01*
X931977D01*
Y1041147D01*
D02*
G37*
G36*
X941724Y1031401D02*
X935977D01*
Y1025654D01*
X937065Y1025946D01*
X938889Y1026999D01*
X940379Y1028488D01*
X941432Y1030313D01*
X941724Y1031401D01*
D02*
G37*
G36*
X931977D02*
X926231D01*
X926523Y1030313D01*
X927576Y1028488D01*
X929065Y1026999D01*
X930890Y1025946D01*
X931977Y1025654D01*
Y1031401D01*
D02*
G37*
G36*
X984000Y1049746D02*
Y1044000D01*
X989746D01*
X989455Y1045088D01*
X988402Y1046912D01*
X986912Y1048402D01*
X985088Y1049455D01*
X984000Y1049746D01*
D02*
G37*
G36*
X980000D02*
X978912Y1049455D01*
X977088Y1048402D01*
X975598Y1046912D01*
X974545Y1045088D01*
X974254Y1044000D01*
X980000D01*
Y1049746D01*
D02*
G37*
G36*
X989746Y1040000D02*
X984000D01*
Y1034254D01*
X985088Y1034545D01*
X986912Y1035598D01*
X988402Y1037088D01*
X989455Y1038912D01*
X989746Y1040000D01*
D02*
G37*
G36*
X980000D02*
X974254D01*
X974545Y1038912D01*
X975598Y1037088D01*
X977088Y1035598D01*
X978912Y1034545D01*
X980000Y1034254D01*
Y1040000D01*
D02*
G37*
G36*
X1043000Y1012746D02*
X1041912Y1012455D01*
X1040088Y1011402D01*
X1038598Y1009912D01*
X1037545Y1008088D01*
X1037254Y1007000D01*
X1043000D01*
Y1012746D01*
D02*
G37*
G36*
X1011843Y1034000D02*
X1008157D01*
X1004596Y1033046D01*
X1001404Y1031203D01*
X998797Y1028596D01*
X996954Y1025404D01*
X996000Y1021843D01*
Y1018157D01*
X996954Y1014596D01*
X998797Y1011404D01*
X1001404Y1008797D01*
X1004596Y1006954D01*
X1008157Y1006000D01*
X1011843D01*
X1015404Y1006954D01*
X1018596Y1008797D01*
X1021203Y1011404D01*
X1023046Y1014596D01*
X1024000Y1018157D01*
Y1021843D01*
X1023046Y1025404D01*
X1021203Y1028596D01*
X1018596Y1031203D01*
X1015404Y1033046D01*
X1011843Y1034000D01*
D02*
G37*
G36*
X1052746Y1003000D02*
X1047000D01*
Y997254D01*
X1048088Y997545D01*
X1049912Y998598D01*
X1051402Y1000088D01*
X1052455Y1001912D01*
X1052746Y1003000D01*
D02*
G37*
G36*
X1043000D02*
X1037254D01*
X1037545Y1001912D01*
X1038598Y1000088D01*
X1040088Y998598D01*
X1041912Y997545D01*
X1043000Y997254D01*
Y1003000D01*
D02*
G37*
G36*
X432519Y845215D02*
X426773D01*
Y839469D01*
X427861Y839760D01*
X429685Y840813D01*
X431175Y842303D01*
X432228Y844127D01*
X432519Y845215D01*
D02*
G37*
G36*
X512000Y675746D02*
X510912Y675455D01*
X509088Y674402D01*
X507598Y672912D01*
X506545Y671088D01*
X506254Y670000D01*
X512000D01*
Y675746D01*
D02*
G37*
G36*
X562000Y717746D02*
Y712000D01*
X567746D01*
X567455Y713088D01*
X566402Y714912D01*
X564912Y716402D01*
X563088Y717455D01*
X562000Y717746D01*
D02*
G37*
G36*
X558000D02*
X556912Y717455D01*
X555088Y716402D01*
X553598Y714912D01*
X552545Y713088D01*
X552254Y712000D01*
X558000D01*
Y717746D01*
D02*
G37*
G36*
X567746Y708000D02*
X562000D01*
Y702254D01*
X563088Y702545D01*
X564912Y703598D01*
X566402Y705088D01*
X567455Y706912D01*
X567746Y708000D01*
D02*
G37*
G36*
X558000D02*
X552254D01*
X552545Y706912D01*
X553598Y705088D01*
X555088Y703598D01*
X556912Y702545D01*
X558000Y702254D01*
Y708000D01*
D02*
G37*
G36*
X562000Y667746D02*
Y662000D01*
X567746D01*
X567455Y663088D01*
X566402Y664912D01*
X564912Y666402D01*
X563088Y667455D01*
X562000Y667746D01*
D02*
G37*
G36*
X558000D02*
X556912Y667455D01*
X555088Y666402D01*
X553598Y664912D01*
X552545Y663088D01*
X552254Y662000D01*
X558000D01*
Y667746D01*
D02*
G37*
G36*
X567746Y658000D02*
X562000D01*
Y652254D01*
X563088Y652545D01*
X564912Y653598D01*
X566402Y655088D01*
X567455Y656912D01*
X567746Y658000D01*
D02*
G37*
G36*
X558000D02*
X552254D01*
X552545Y656912D01*
X553598Y655088D01*
X555088Y653598D01*
X556912Y652545D01*
X558000Y652254D01*
Y658000D01*
D02*
G37*
G36*
X672000Y645746D02*
Y640000D01*
X677746D01*
X677455Y641088D01*
X676402Y642912D01*
X674912Y644402D01*
X673088Y645455D01*
X672000Y645746D01*
D02*
G37*
G36*
X668000D02*
X666912Y645455D01*
X665088Y644402D01*
X663598Y642912D01*
X662545Y641088D01*
X662254Y640000D01*
X668000D01*
Y645746D01*
D02*
G37*
G36*
X677746Y636000D02*
X672000D01*
Y630254D01*
X673088Y630545D01*
X674912Y631598D01*
X676402Y633088D01*
X677455Y634912D01*
X677746Y636000D01*
D02*
G37*
G36*
X668000D02*
X662254D01*
X662545Y634912D01*
X663598Y633088D01*
X665088Y631598D01*
X666912Y630545D01*
X668000Y630254D01*
Y636000D01*
D02*
G37*
%LPD*%
D10*
X697500Y315350D02*
Y331500D01*
Y312250D02*
Y315350D01*
X722500D02*
Y331500D01*
Y312250D02*
Y315350D01*
D71*
X594250Y347500D02*
X610000Y363250D01*
X857750Y289000D02*
Y313750D01*
X869250Y325250D01*
Y377000D01*
X835250Y297500D02*
X849000Y311250D01*
X813250Y380000D02*
X849000Y344250D01*
Y311250D02*
Y344250D01*
X824000Y565888D02*
Y831926D01*
X808250Y847676D02*
Y901250D01*
Y847676D02*
X824000Y831926D01*
X756250Y852750D02*
X795000D01*
X859000Y829000D02*
X874250Y844250D01*
X859000Y750974D02*
Y829000D01*
X874250Y844250D02*
Y901750D01*
X449500Y643000D02*
X454500Y648000D01*
X440500Y634000D02*
X449500Y643000D01*
X359761Y684339D02*
X361100Y683000D01*
X359761Y684339D02*
Y689239D01*
X358000Y691000D02*
X359761Y689239D01*
X358000Y691000D02*
Y795000D01*
X349000Y671608D02*
Y813676D01*
X920957Y380957D02*
X944000Y404000D01*
X915957Y380957D02*
X920957D01*
X915000Y380000D02*
X915957Y380957D01*
X1105000Y687000D02*
X1126175Y665825D01*
X718289Y957000D02*
Y1002289D01*
X731000Y868100D02*
X740900D01*
X719000Y754400D02*
Y855400D01*
X454500Y648000D02*
X479500D01*
X475000Y939676D02*
Y944300D01*
X474611Y911611D02*
Y918511D01*
X358000Y795000D02*
X474611Y911611D01*
Y918511D02*
X475000Y918900D01*
X485000Y895157D02*
Y906200D01*
Y868100D02*
X488900D01*
X583000Y338750D02*
Y388000D01*
Y338750D02*
X594250Y327500D01*
X568000Y403000D02*
X583000Y388000D01*
X610000Y363250D02*
Y403000D01*
X548000D02*
X568000D01*
X590000Y440000D02*
X600000Y430000D01*
X718250D01*
X590000Y440000D02*
Y460000D01*
X718250Y430000D02*
X768250Y380000D01*
X590000Y460000D02*
X765000Y635000D01*
X773000Y293500D02*
X796000Y270500D01*
Y270000D02*
Y270500D01*
X773000Y293500D02*
Y294000D01*
X835250Y297500D02*
Y299179D01*
X734000Y315350D02*
Y328106D01*
Y312250D02*
Y315350D01*
X686000D02*
Y328106D01*
Y312250D02*
Y315350D01*
X990000Y975000D02*
X1047000D01*
X1105000Y687000D02*
Y917000D01*
X1047000Y975000D02*
X1105000Y917000D01*
X950000Y1015000D02*
X990000Y975000D01*
X362000Y563000D02*
X397000Y598000D01*
X362000Y439051D02*
Y563000D01*
X397000Y598000D02*
X428321D01*
X431250Y600929D01*
Y615500D01*
X466500D01*
X362000Y439051D02*
X398551Y402500D01*
X488900Y868100D02*
X692000Y665000D01*
X697000D01*
X722000Y658157D02*
X722000D01*
X485000Y895157D02*
X722000Y658157D01*
X349000Y813676D02*
X475000Y939676D01*
X666800Y264700D02*
Y306500D01*
X669110Y309375D02*
X677500D01*
X742500D02*
X750890D01*
X753200Y264700D02*
Y306500D01*
X722500Y331500D02*
Y359500D01*
X697500Y331500D02*
Y359500D01*
X768250Y380000D02*
X813250D01*
X859000Y917000D02*
X874250Y901750D01*
X808250Y901250D02*
X824000Y917000D01*
Y988444D01*
X846000Y567888D02*
Y737974D01*
X859000Y750974D01*
X846000Y567888D02*
X885000Y528888D01*
X859000Y917000D02*
Y975000D01*
X740900Y868100D02*
X756250Y852750D01*
X633250Y306500D02*
X633250Y306500D01*
X500500Y648000D02*
X531000D01*
X720500Y647000D02*
X722000Y648500D01*
X791000Y1058000D02*
X935000D01*
X730000Y969700D02*
Y997000D01*
X791000Y1058000D01*
X935000D02*
X950000Y1043000D01*
Y1015000D02*
Y1043000D01*
X718289Y1002289D02*
X784000Y1068000D01*
X722000Y648500D02*
Y658157D01*
X756843D01*
X353321Y624571D02*
X362571D01*
X351750Y623000D02*
X353321Y624571D01*
X362571D02*
X372000Y634000D01*
X473000Y622000D02*
X490000D01*
X466500Y615500D02*
X473000Y622000D01*
X824406Y1030124D02*
X877850Y976680D01*
X787045Y1030124D02*
X824406D01*
X786921Y1030249D02*
X787045Y1030124D01*
X1072000Y520388D02*
Y568000D01*
X1050000Y590000D02*
X1072000Y568000D01*
Y520388D02*
X1072500Y519888D01*
X779475Y397225D02*
X839576D01*
X765000Y635000D02*
Y650000D01*
X756843Y658157D02*
X765000Y650000D01*
X697500Y380500D02*
X700465Y383465D01*
X720035Y382965D02*
X722500Y380500D01*
X678000Y336106D02*
X686000Y328106D01*
X734000Y328106D02*
X742000Y336106D01*
Y338000D01*
X690269Y740269D02*
Y789421D01*
X1052000Y983000D02*
X1126750Y908250D01*
X998000Y983000D02*
X1052000D01*
X1126750Y692050D02*
Y908250D01*
X940000Y1068000D02*
X960000Y1048000D01*
Y1021000D02*
Y1048000D01*
X784000Y1068000D02*
X940000D01*
X960000Y1021000D02*
X998000Y983000D01*
X531000Y622000D02*
X688500D01*
X511500D02*
X531000D01*
X824000Y565888D02*
X861000Y528888D01*
X699500Y646750D02*
Y647000D01*
X688500Y622000D02*
Y636000D01*
X694500Y642000D01*
X694750D01*
X699500Y646750D01*
X422625Y634000D02*
X440500D01*
X386750Y615000D02*
X403625D01*
X422625Y634000D01*
X354000Y428051D02*
Y581000D01*
X381250Y608250D01*
X354000Y428051D02*
X379551Y402500D01*
X419000Y653000D02*
X431250D01*
X400000Y634000D02*
X419000Y653000D01*
X372000Y634000D02*
X400000D01*
X351500Y652750D02*
X386500D01*
X722500Y359500D02*
X752750D01*
X710250Y401106D02*
Y403000D01*
X666750Y359500D02*
X697500D01*
X678000Y336106D02*
Y338000D01*
X677500Y309375D02*
X678000Y309875D01*
Y312250D01*
X742000Y309875D02*
X742500Y309375D01*
D72*
X839576Y397225D02*
X839801Y397449D01*
X779250Y397000D02*
X779475Y397225D01*
X727000Y622000D02*
X746000Y641000D01*
X690269Y789421D02*
X690538Y789690D01*
X690000Y740000D02*
X690269Y740269D01*
X710000Y622000D02*
X727000D01*
X381250Y608250D02*
Y609500D01*
X386750Y615000D01*
D83*
X633250Y322500D02*
D03*
Y306500D02*
D03*
D84*
X722500Y359500D02*
D03*
Y380500D02*
D03*
X697500D02*
D03*
Y359500D02*
D03*
D97*
X678000Y315350D02*
D03*
X742000D02*
D03*
X734000D02*
D03*
X686000D02*
D03*
D100*
X478500Y648000D02*
D03*
X501500D02*
D03*
X752750Y359500D02*
D03*
X773750D02*
D03*
X351500Y652750D02*
D03*
X330500D02*
D03*
X351750Y623000D02*
D03*
X330750D02*
D03*
X511500Y622000D02*
D03*
X490000D02*
D03*
X710000D02*
D03*
X688500D02*
D03*
X698500Y647000D02*
D03*
X721500D02*
D03*
X666750Y359500D02*
D03*
X645750D02*
D03*
D111*
X402500Y520000D02*
X403500Y521000D01*
X941300Y546767D02*
Y705967D01*
D112*
X615250Y306500D02*
X633250D01*
X402000D02*
X615250D01*
X977000Y609000D02*
X1010000D01*
X1056000Y441515D02*
Y563000D01*
X1010000Y609000D02*
X1056000Y563000D01*
X1051000Y435000D02*
Y436515D01*
X1056000Y441515D01*
X659735Y566874D02*
X668735D01*
X624500Y531640D02*
X659735Y566874D01*
X668735D02*
X669500Y567640D01*
X633250Y306500D02*
X666800D01*
X700465Y383465D02*
Y391321D01*
X710250Y401106D01*
X720035Y382965D02*
Y391321D01*
X710250Y401106D02*
X720035Y391321D01*
X615250Y306500D02*
Y344000D01*
X630750Y359500D02*
X645750D01*
X615250Y344000D02*
X630750Y359500D01*
D113*
X697000Y665000D02*
X701000D01*
X710000Y656000D01*
Y622000D02*
Y656000D01*
D115*
X885356Y912479D02*
X886085Y911750D01*
X885320Y910985D02*
X886085Y911750D01*
X885163Y722806D02*
Y911750D01*
X822750Y264250D02*
X898250D01*
X911000Y277000D01*
Y304250D01*
X892750Y322500D02*
X911000Y304250D01*
X773750Y313250D02*
X822750Y264250D01*
X773750Y313250D02*
Y322500D01*
X822750D01*
X620617Y578617D02*
Y589617D01*
X621000Y590000D01*
X567000Y525000D02*
X620617Y578617D01*
X876647Y938459D02*
Y954647D01*
X885356Y912479D02*
Y929750D01*
X876647Y954647D02*
X928000Y1006000D01*
X876647Y938459D02*
X885356Y929750D01*
X885163Y560643D02*
Y722806D01*
Y560643D02*
X899000Y546806D01*
Y546806D02*
Y546806D01*
X337000Y599100D02*
Y599641D01*
X330750Y623000D02*
X331000Y622750D01*
Y605641D02*
Y622750D01*
Y605641D02*
X337000Y599641D01*
X638250Y338000D02*
X678000D01*
X633250Y333000D02*
X638250Y338000D01*
X633250Y322500D02*
Y333000D01*
X1127000Y557098D02*
X1145094Y539003D01*
X1127000Y557098D02*
Y590450D01*
X764241Y322500D02*
X773750D01*
X753200Y311459D02*
X764241Y322500D01*
X753200Y306500D02*
Y311459D01*
X330625Y623125D02*
X330750Y623000D01*
X330625Y623125D02*
Y652625D01*
X773750Y322500D02*
Y359500D01*
D116*
X800000Y772000D02*
Y792000D01*
X368000Y340000D02*
X512250D01*
X531000Y648000D02*
Y805000D01*
X498000Y838000D02*
X531000Y805000D01*
X463000Y838000D02*
X498000D01*
X531000Y561000D02*
X567000Y525000D01*
X531000Y622000D02*
Y648000D01*
X750000Y722000D02*
X800000Y772000D01*
X708000Y722000D02*
X750000D01*
X690000Y740000D02*
X708000Y722000D01*
X820163Y468806D02*
X854969Y434000D01*
X1047172D01*
X531000Y561000D02*
Y622000D01*
D118*
X611000Y455000D02*
X651967Y495967D01*
X941300D01*
D121*
X1038500Y883650D02*
D03*
Y959850D02*
D03*
D122*
X1126750Y692050D02*
D03*
X1127000Y641250D02*
D03*
Y666650D02*
D03*
Y615850D02*
D03*
Y590450D02*
D03*
D123*
X932424Y364927D02*
D03*
X951000Y382250D02*
D03*
X969576Y399573D02*
D03*
D124*
X988128Y416189D02*
D03*
D125*
X822750Y322500D02*
D03*
X892750D02*
D03*
D126*
X835250Y297500D02*
D03*
X880250D02*
D03*
X393000Y905000D02*
D03*
Y955000D02*
D03*
D127*
X402500Y730000D02*
D03*
Y520000D02*
D03*
X478700Y494600D02*
D03*
Y545400D02*
D03*
Y704600D02*
D03*
Y755400D02*
D03*
X1017500Y520000D02*
D03*
X941300Y546767D02*
D03*
Y495967D02*
D03*
Y705967D02*
D03*
Y756767D02*
D03*
X1017500Y730000D02*
D03*
D128*
X841500Y860950D02*
D03*
X773950Y928500D02*
D03*
D129*
X666800Y306500D02*
D03*
X753200D02*
D03*
D130*
X666800Y264700D02*
D03*
X753200D02*
D03*
D131*
X1010000Y1020000D02*
D03*
X410000D02*
D03*
X1110000Y390000D02*
D03*
X310000D02*
D03*
D132*
X794000Y897298D02*
D03*
X915000Y380000D02*
D03*
X944000Y404000D02*
D03*
X670000Y394000D02*
D03*
X638000Y393755D02*
D03*
X742000Y380000D02*
D03*
X485000Y967182D02*
D03*
X857750Y289000D02*
D03*
X796000Y270000D02*
D03*
X773000Y294000D02*
D03*
X855823Y377000D02*
D03*
X424773Y847215D02*
D03*
X421000Y906000D02*
D03*
X487000Y1067000D02*
D03*
X398551Y402500D02*
D03*
X485000Y906200D02*
D03*
Y931600D02*
D03*
Y868100D02*
D03*
X861000Y528888D02*
D03*
X859000Y975000D02*
D03*
X824000Y988444D02*
D03*
X885000Y528888D02*
D03*
X1050000Y590000D02*
D03*
X1072500Y519888D02*
D03*
X720000Y957000D02*
D03*
X730000Y969700D02*
D03*
X731000Y868100D02*
D03*
X719000Y855400D02*
D03*
X877850Y976680D02*
D03*
X786921Y1030249D02*
D03*
X475000Y944300D02*
D03*
Y918900D02*
D03*
X690538Y789690D02*
D03*
X779250Y397000D02*
D03*
X337000Y599100D02*
D03*
X719000Y754400D02*
D03*
X977000Y609000D02*
D03*
X669500Y567640D02*
D03*
X839801Y397449D02*
D03*
X379551Y402500D02*
D03*
X621000Y590000D02*
D03*
X624500Y531640D02*
D03*
X746000Y641000D02*
D03*
X753500Y515000D02*
D03*
X869250Y377000D02*
D03*
X846000Y962000D02*
D03*
X779499Y798394D02*
D03*
X933977Y1033401D02*
D03*
X938797Y871767D02*
D03*
X607000Y604000D02*
D03*
X639000Y451000D02*
D03*
X1115250Y797500D02*
D03*
X514000Y668000D02*
D03*
X835000Y759250D02*
D03*
X745000Y750000D02*
D03*
X844000Y413000D02*
D03*
X482000Y275000D02*
D03*
X1068000Y596000D02*
D03*
X1080000Y730000D02*
D03*
Y780000D02*
D03*
Y830000D02*
D03*
Y680000D02*
D03*
X952000Y837000D02*
D03*
X977000Y962000D02*
D03*
X720000Y895000D02*
D03*
X757000Y676000D02*
D03*
X757000Y698000D02*
D03*
X800000Y620000D02*
D03*
Y585000D02*
D03*
X777000Y545000D02*
D03*
Y585000D02*
D03*
X810000Y520000D02*
D03*
X830000Y530000D02*
D03*
X865000Y590000D02*
D03*
Y640000D02*
D03*
X910000Y610000D02*
D03*
X1076500Y411500D02*
D03*
Y374500D02*
D03*
X1125000Y425000D02*
D03*
Y465000D02*
D03*
X720000Y925000D02*
D03*
X712000Y1042000D02*
D03*
Y1072000D02*
D03*
X742000D02*
D03*
X982000Y1042000D02*
D03*
X1045000Y1005000D02*
D03*
X1083000Y866000D02*
D03*
X1038500Y917000D02*
D03*
X290000Y430000D02*
D03*
Y480000D02*
D03*
Y630000D02*
D03*
Y680000D02*
D03*
Y730000D02*
D03*
X373000Y859000D02*
D03*
X385000Y439000D02*
D03*
X372000Y1002000D02*
D03*
X275000Y830000D02*
D03*
X328000Y955000D02*
D03*
X480000Y400000D02*
D03*
X560000Y600000D02*
D03*
Y560000D02*
D03*
X687000Y575000D02*
D03*
X670000Y638000D02*
D03*
X560000Y660000D02*
D03*
Y710000D02*
D03*
X650000Y760000D02*
D03*
X622500Y865000D02*
D03*
X665000Y807000D02*
D03*
X630000D02*
D03*
X542618Y990000D02*
D03*
X582618D02*
D03*
X622618D02*
D03*
X662618D02*
D03*
X542618Y965000D02*
D03*
X582618D02*
D03*
X622618D02*
D03*
X662618D02*
D03*
X542618Y940000D02*
D03*
X622618D02*
D03*
X662618D02*
D03*
X542618Y915000D02*
D03*
X622618D02*
D03*
X662618D02*
D03*
X542618Y890000D02*
D03*
X582618D02*
D03*
X622618D02*
D03*
X662618D02*
D03*
X662500Y865000D02*
D03*
X582500D02*
D03*
X542500D02*
D03*
D133*
X457100Y620000D02*
D03*
X361100Y683000D02*
D03*
X349000Y671608D02*
D03*
X548000Y403000D02*
D03*
X610000D02*
D03*
X611000Y455000D02*
D03*
X610398Y306500D02*
D03*
X512250Y340000D02*
D03*
X885163Y722806D02*
D03*
X899000Y546806D02*
D03*
X567000Y525000D02*
D03*
X820163Y468806D02*
D03*
X1051000Y435000D02*
D03*
X885650Y911750D02*
D03*
X800647Y791225D02*
D03*
X690000Y740000D02*
D03*
X885647Y838225D02*
D03*
X933647Y1008225D02*
D03*
X678000Y338000D02*
D03*
X742000D02*
D03*
X710250Y403000D02*
D03*
X368000Y340000D02*
D03*
X463000Y838000D02*
D03*
X1145094Y539003D02*
D03*
X865163Y726806D02*
D03*
X402000Y306500D02*
D03*
D134*
X795000Y852500D02*
D03*
D135*
X409000Y374000D02*
D03*
D136*
X595200Y934400D02*
D03*
D137*
X707500Y315350D02*
D03*
X727500D02*
D03*
X692500D02*
D03*
X722500D02*
D03*
X697500D02*
D03*
X717500D02*
D03*
X702500D02*
D03*
X712500D02*
D03*
D138*
X386750Y652500D02*
D03*
Y615000D02*
D03*
X431250Y615500D02*
D03*
D139*
Y651000D02*
D03*
D140*
X551750Y362112D02*
D03*
X571750Y362000D02*
D03*
X529250Y347500D02*
D03*
Y327500D02*
D03*
X594250D02*
D03*
Y347500D02*
D03*
D141*
X449500Y643000D02*
D03*
M02*
