G04*
G04 #@! TF.GenerationSoftware,Altium Limited,Altium Designer,21.6.4 (81)*
G04*
G04 Layer_Color=32896*
%FSLAX44Y44*%
%MOMM*%
G71*
G04*
G04 #@! TF.SameCoordinates,1D25D15E-8086-452C-9D9C-5104EB157640*
G04*
G04*
G04 #@! TF.FilePolarity,Positive*
G04*
G01*
G75*
%ADD11C,0.2000*%
%ADD12C,0.2540*%
%ADD14C,0.1000*%
G36*
X381750Y627750D02*
X382750Y630250D01*
X383750Y632750D01*
X379750D01*
X380750Y630250D01*
X381750Y627750D01*
D02*
G37*
G36*
X426250Y628250D02*
X427250Y630750D01*
X428250Y633250D01*
X424250D01*
X425250Y630750D01*
X426250Y628250D01*
D02*
G37*
G36*
X1146750Y591400D02*
X1152000Y589650D01*
X1156750Y588400D01*
Y594400D01*
X1152000Y593150D01*
X1146750Y591400D01*
D02*
G37*
G36*
X944980Y337833D02*
X945136Y337788D01*
X945290Y337704D01*
X945407Y337661D01*
X945482Y337580D01*
X945501Y337559D01*
X945577Y337478D01*
X945632Y337378D01*
X945650Y337318D01*
X945669Y337298D01*
X948143Y330533D01*
X957417Y330033D01*
X957651Y329985D01*
X957824Y329881D01*
X957939Y329798D01*
X957958Y329778D01*
X957977Y329758D01*
X958127Y329556D01*
X958199Y329357D01*
X958173Y329181D01*
X958147Y329005D01*
X958083Y328870D01*
X958001Y328755D01*
X957920Y328679D01*
X957718Y328529D01*
X957539Y328477D01*
X957381Y328443D01*
X957342Y328444D01*
X948735Y328922D01*
X950958Y322833D01*
X951011Y322655D01*
X950985Y322479D01*
X950961Y322342D01*
X950897Y322207D01*
X950835Y322111D01*
X950793Y322034D01*
X950732Y321977D01*
X950530Y321827D01*
X950331Y321755D01*
X950135Y321762D01*
X949959Y321788D01*
X949824Y321851D01*
X949709Y321934D01*
X949652Y321995D01*
X949633Y322015D01*
X949558Y322096D01*
X949502Y322197D01*
X949485Y322256D01*
X949466Y322276D01*
X947010Y329021D01*
X937697Y329523D01*
X937484Y329589D01*
X937329Y329673D01*
X937215Y329756D01*
X937177Y329797D01*
X937008Y330019D01*
X936936Y330218D01*
X936943Y330414D01*
X936988Y330569D01*
X937032Y330725D01*
X937115Y330840D01*
X937196Y330915D01*
X937396Y331026D01*
X937595Y331098D01*
X937733Y331113D01*
X937812Y331110D01*
X946418Y330633D01*
X944176Y336741D01*
X944124Y336920D01*
X944149Y337096D01*
X944155Y337253D01*
X944198Y337369D01*
X944281Y337484D01*
X944323Y337561D01*
X944384Y337618D01*
X944585Y337768D01*
X944784Y337840D01*
X944980Y337833D01*
D02*
G37*
G36*
X940491Y328042D02*
X940686Y327959D01*
X940825Y327820D01*
X940936Y327682D01*
X940991Y327543D01*
X941019Y327404D01*
Y327293D01*
X940991Y327126D01*
X940936Y326960D01*
X940880Y326849D01*
X940852Y326821D01*
X939253Y324744D01*
X947025Y319887D01*
X947159Y319784D01*
X947197Y319743D01*
X947216Y319723D01*
X947347Y319541D01*
X947400Y319363D01*
X947414Y319225D01*
X947413Y319186D01*
X947366Y318951D01*
X947262Y318778D01*
X947179Y318663D01*
X947138Y318626D01*
X946977Y318513D01*
X946817Y318440D01*
X946640Y318427D01*
X946504Y318451D01*
X946270Y318499D01*
X946211Y318520D01*
X946192Y318541D01*
X941175Y321682D01*
X938780Y319448D01*
X938354Y319089D01*
X937951Y318789D01*
X937549Y318528D01*
X937169Y318325D01*
X936829Y318160D01*
X936590Y318051D01*
X936430Y317978D01*
X936370Y317960D01*
X935855Y317821D01*
X935361Y317740D01*
X934868Y317699D01*
X934398Y317715D01*
X933927Y317731D01*
X933477Y317806D01*
X933088Y317898D01*
X932679Y318011D01*
X932330Y318141D01*
X932000Y318251D01*
X931730Y318378D01*
X931497Y318465D01*
X931285Y318570D01*
X931149Y318634D01*
X931053Y318696D01*
X931034Y318717D01*
X930823Y318861D01*
X930593Y319027D01*
X930537Y319087D01*
X930480Y319148D01*
X930442Y319189D01*
X930423Y319209D01*
X930197Y319492D01*
X930011Y319774D01*
X929844Y320074D01*
X929716Y320334D01*
X929627Y320592D01*
X929574Y320771D01*
X929520Y320910D01*
X929521Y320950D01*
X929437Y321365D01*
X929393Y321779D01*
X929407Y322172D01*
X929438Y322504D01*
X929490Y322856D01*
X929559Y323148D01*
X929667Y323439D01*
X929770Y323681D01*
X926249Y322740D01*
X926083Y322684D01*
X926027D01*
X926000D01*
X925778Y322712D01*
X925611Y322823D01*
X925500Y322906D01*
X925472Y322934D01*
X925333Y323129D01*
X925278Y323295D01*
X925250Y323434D01*
Y323489D01*
X925278Y323684D01*
X925333Y323850D01*
X925444Y323989D01*
X925555Y324072D01*
X925750Y324211D01*
X925805Y324239D01*
X925833D01*
X931697Y325826D01*
X933421Y327433D01*
X933643Y327602D01*
X933882Y327712D01*
X934099Y327724D01*
X934295Y327717D01*
X934490Y327671D01*
X934606Y327627D01*
X934723Y327584D01*
X934742Y327564D01*
X935762Y326926D01*
X939992Y328070D01*
X940075D01*
X940158D01*
X940214D01*
X940242D01*
X940491Y328042D01*
D02*
G37*
G36*
X925321Y317679D02*
X925773Y317682D01*
X926164Y317629D01*
X926458Y317600D01*
X926673Y317572D01*
X926732Y317590D01*
X926751Y317570D01*
X926946Y317523D01*
X927101Y317439D01*
X927197Y317377D01*
X927234Y317337D01*
X927365Y317155D01*
X927437Y316956D01*
X927452Y316818D01*
X927469Y316759D01*
X927422Y316525D01*
X927338Y316371D01*
X927255Y316256D01*
X927215Y316218D01*
X927094Y316143D01*
X926994Y316088D01*
X926797Y316056D01*
X926753Y316046D01*
X940269Y314994D01*
X940519Y314939D01*
X940714Y314855D01*
X940825Y314717D01*
X940936Y314578D01*
X940991Y314439D01*
X941019Y314328D01*
Y314217D01*
X940991Y314050D01*
X940963Y313939D01*
X940825Y313717D01*
X940686Y313606D01*
X940658Y313551D01*
X940630D01*
X936668Y311116D01*
X937132Y311078D01*
X937327Y311033D01*
X937481Y310949D01*
X937596Y310866D01*
X937615Y310846D01*
X937634Y310825D01*
X937784Y310624D01*
X937856Y310425D01*
X937849Y310229D01*
X937804Y310073D01*
X937740Y309938D01*
X937677Y309802D01*
X932824Y305277D01*
X932602Y305108D01*
X932403Y305037D01*
X932207Y305043D01*
X932051Y305088D01*
X931896Y305133D01*
X931781Y305215D01*
X931724Y305276D01*
X931705Y305297D01*
X931536Y305519D01*
X931464Y305718D01*
X931471Y305914D01*
X931516Y306069D01*
X931581Y306244D01*
X931643Y306340D01*
X935196Y309653D01*
X934394Y309718D01*
X926444Y304833D01*
X926305Y304778D01*
X926166Y304750D01*
X926055Y304722D01*
X926027D01*
X925805Y304750D01*
X925639Y304833D01*
X925500Y304916D01*
X925472Y304944D01*
X925333Y305139D01*
X925278Y305333D01*
X925250Y305472D01*
Y305527D01*
X925278Y305666D01*
X925305Y305805D01*
X925444Y306027D01*
X925555Y306138D01*
X925583Y306194D01*
X925611D01*
X929192Y308359D01*
Y310139D01*
X924521Y310517D01*
X924130Y310570D01*
X923779Y310622D01*
X923447Y310692D01*
X923136Y310782D01*
X922574Y311017D01*
X922131Y311249D01*
X921786Y311497D01*
X921652Y311600D01*
X921537Y311682D01*
X921441Y311744D01*
X921384Y311805D01*
X921346Y311846D01*
X921327Y311866D01*
X921139Y312108D01*
X920951Y312351D01*
X920823Y312611D01*
X920732Y312830D01*
X920661Y313029D01*
X920607Y313168D01*
X920572Y313287D01*
X920573Y313326D01*
X920505Y313643D01*
X920497Y313977D01*
X920507Y314252D01*
X920556Y314525D01*
X920691Y315031D01*
X920884Y315476D01*
X921092Y315823D01*
X921278Y316071D01*
X921360Y316186D01*
X921482Y316300D01*
X921907Y316658D01*
X922329Y316938D01*
X922750Y317179D01*
X923129Y317342D01*
X923467Y317468D01*
X923726Y317557D01*
X923884Y317591D01*
X923944Y317609D01*
X924378Y317672D01*
X924850Y317695D01*
X925321Y317679D01*
D02*
G37*
G36*
X539706Y389621D02*
X540150Y389593D01*
X540538Y389510D01*
X540927Y389398D01*
X541594Y389149D01*
X541899Y388982D01*
X542149Y388843D01*
X542399Y388704D01*
X542621Y388538D01*
X542787Y388399D01*
X542926Y388288D01*
X543037Y388177D01*
X543148Y388121D01*
X543176Y388066D01*
X543204Y388038D01*
X543426Y387761D01*
X543620Y387483D01*
X543953Y386955D01*
X544175Y386428D01*
X544314Y385956D01*
X544425Y385540D01*
X544453Y385373D01*
Y385206D01*
X544481Y385095D01*
Y385012D01*
Y384957D01*
Y384929D01*
X544453Y384651D01*
X544425Y384374D01*
X544370Y384124D01*
X544286Y383902D01*
X544231Y383707D01*
X544175Y383568D01*
X544148Y383457D01*
X544120Y383430D01*
X543953Y383180D01*
X543787Y382930D01*
X543620Y382763D01*
X543454Y382597D01*
X543315Y382486D01*
X543204Y382375D01*
X543120Y382347D01*
X543093Y382319D01*
X539123Y380043D01*
X538817Y379848D01*
X538595Y379599D01*
X538456Y379376D01*
X538345Y379154D01*
X538290Y378932D01*
X538234Y378766D01*
Y378655D01*
Y378627D01*
X538262Y378266D01*
X538318Y377933D01*
X538401Y377627D01*
X538484Y377378D01*
X538595Y377155D01*
X538679Y377017D01*
X538734Y376906D01*
X538762Y376878D01*
X538956Y376628D01*
X539178Y376406D01*
X539400Y376212D01*
X539622Y376045D01*
X540067Y375795D01*
X540511Y375629D01*
X540872Y375517D01*
X541177Y375462D01*
X541288Y375434D01*
X541455D01*
X541871Y375462D01*
X542260Y375490D01*
X543037Y375656D01*
X543759Y375878D01*
X544398Y376156D01*
X544675Y376267D01*
X544925Y376406D01*
X545147Y376517D01*
X545314Y376628D01*
X545480Y376711D01*
X545591Y376795D01*
X545647Y376822D01*
X545675Y376850D01*
X545841Y376933D01*
X545980Y376961D01*
X546091Y376989D01*
X546119D01*
X546341Y376961D01*
X546535Y376878D01*
X546646Y376795D01*
X546702Y376767D01*
X546841Y376600D01*
X546896Y376406D01*
X546924Y376267D01*
Y376239D01*
Y376212D01*
X546896Y376073D01*
X546868Y375962D01*
X546757Y375767D01*
X546674Y375656D01*
X546618Y375601D01*
X546008Y375184D01*
X545730Y374990D01*
X545508Y374851D01*
X545314Y374740D01*
X545175Y374657D01*
X545064Y374601D01*
X545036Y374574D01*
X544481Y374324D01*
X543953Y374157D01*
X543398Y374018D01*
X542926Y373935D01*
X542510Y373879D01*
X542315D01*
X542177Y373852D01*
X541871D01*
X541371Y373879D01*
X540900Y373935D01*
X540455Y374018D01*
X540039Y374129D01*
X539650Y374268D01*
X539317Y374435D01*
X539012Y374601D01*
X538734Y374768D01*
X538484Y374934D01*
X538290Y375101D01*
X538096Y375268D01*
X537957Y375406D01*
X537846Y375517D01*
X537762Y375601D01*
X537735Y375656D01*
X537707Y375684D01*
X537346Y376239D01*
X537068Y376767D01*
X536874Y377266D01*
X536763Y377711D01*
X536680Y378099D01*
X536652Y378405D01*
X536624Y378516D01*
Y378599D01*
Y378627D01*
Y378655D01*
X536652Y378960D01*
X536680Y379265D01*
X536846Y379793D01*
X537068Y380237D01*
X537318Y380598D01*
X537596Y380876D01*
X537818Y381070D01*
X537984Y381181D01*
X538012Y381209D01*
X538040D01*
X542038Y383485D01*
X542315Y383680D01*
X542510Y383929D01*
X542676Y384151D01*
X542760Y384401D01*
X542815Y384596D01*
X542843Y384762D01*
X542871Y384901D01*
Y384929D01*
X542843Y385262D01*
X542787Y385567D01*
X542732Y385817D01*
X542621Y386067D01*
X542537Y386261D01*
X542482Y386400D01*
X542426Y386511D01*
X542399Y386539D01*
X542204Y386817D01*
X541982Y387039D01*
X541760Y387261D01*
X541538Y387427D01*
X541094Y387705D01*
X540650Y387872D01*
X540261Y387983D01*
X539955Y388038D01*
X539845Y388066D01*
X539678D01*
X538873Y388038D01*
X538151Y387955D01*
X537513Y387844D01*
X536985Y387705D01*
X536735Y387649D01*
X536541Y387566D01*
X536374Y387511D01*
X536235Y387455D01*
X536097Y387400D01*
X536013Y387372D01*
X535985Y387344D01*
X535958D01*
X535819Y387289D01*
X535708Y387261D01*
X535597D01*
X535375Y387289D01*
X535208Y387372D01*
X535097Y387455D01*
X535069Y387483D01*
X534931Y387677D01*
X534847Y387872D01*
X534819Y388010D01*
Y388038D01*
Y388066D01*
X534847Y388232D01*
X534875Y388371D01*
X535014Y388593D01*
X535180Y388732D01*
X535208Y388760D01*
X535236D01*
X535625Y388927D01*
X536013Y389065D01*
X536152Y389121D01*
X536263Y389176D01*
X536347Y389204D01*
X536374D01*
X536902Y389343D01*
X537401Y389454D01*
X537873Y389537D01*
X538318Y389593D01*
X538706Y389621D01*
X539012Y389648D01*
X539262D01*
X539706Y389621D01*
D02*
G37*
G36*
X529933D02*
X530128Y389537D01*
X530266Y389398D01*
X530350Y389260D01*
X530405Y389093D01*
X530461Y388982D01*
Y388871D01*
Y388843D01*
X530433Y388593D01*
X530350Y388399D01*
X530211Y388260D01*
X530072Y388177D01*
X529933Y388121D01*
X529795Y388066D01*
X526602D01*
X526269Y388038D01*
X525963Y387983D01*
X525714Y387899D01*
X525491Y387816D01*
X525297Y387677D01*
X525158Y387538D01*
X525019Y387372D01*
X524936Y387233D01*
X524797Y386900D01*
X524714Y386650D01*
X524686Y386539D01*
Y386456D01*
Y386400D01*
Y386372D01*
X524714Y386150D01*
X524742Y385928D01*
X524770Y385762D01*
X524797Y385706D01*
Y385678D01*
X524853Y385456D01*
X524964Y385234D01*
X525047Y385012D01*
X525158Y384846D01*
X525269Y384707D01*
X525353Y384596D01*
X525408Y384512D01*
X525436Y384485D01*
X525825Y384096D01*
X526241Y383818D01*
X526657Y383596D01*
X527046Y383457D01*
X527379Y383374D01*
X527629Y383346D01*
X527740Y383319D01*
X529739D01*
X529989Y383291D01*
X530183Y383208D01*
X530322Y383069D01*
X530405Y382930D01*
X530461Y382763D01*
X530516Y382652D01*
Y382541D01*
Y382514D01*
X530489Y382264D01*
X530405Y382069D01*
X530266Y381931D01*
X530128Y381847D01*
X529989Y381792D01*
X529850Y381736D01*
X528295D01*
X527962Y381708D01*
X527657Y381681D01*
X527407Y381597D01*
X527157Y381514D01*
X526991Y381403D01*
X526824Y381264D01*
X526685Y381125D01*
X526602Y381014D01*
X526463Y380737D01*
X526380Y380487D01*
X526352Y380320D01*
Y380293D01*
Y380265D01*
X526380Y379959D01*
X526408Y379654D01*
X526435Y379543D01*
X526463Y379432D01*
X526491Y379376D01*
Y379349D01*
X526907Y377794D01*
X527018Y377433D01*
X527185Y377100D01*
X527379Y376822D01*
X527574Y376572D01*
X527768Y376378D01*
X527934Y376239D01*
X528046Y376128D01*
X528073Y376100D01*
X528406Y375878D01*
X528767Y375712D01*
X529100Y375601D01*
X529378Y375517D01*
X529656Y375462D01*
X529850Y375434D01*
X533459D01*
X533737Y375406D01*
X533931Y375323D01*
X534070Y375184D01*
X534153Y375046D01*
X534209Y374879D01*
X534264Y374768D01*
Y374657D01*
Y374629D01*
X534236Y374379D01*
X534126Y374185D01*
X534014Y374046D01*
X533848Y373963D01*
X533709Y373907D01*
X533570Y373852D01*
X530433D01*
X529933Y373879D01*
X529489Y373907D01*
X529073Y373991D01*
X528740Y374074D01*
X528434Y374129D01*
X528240Y374213D01*
X528101Y374240D01*
X528046Y374268D01*
X527657Y374462D01*
X527324Y374684D01*
X527018Y374934D01*
X526741Y375184D01*
X526491Y375490D01*
X526241Y375767D01*
X525880Y376378D01*
X525602Y376906D01*
X525491Y377155D01*
X525408Y377378D01*
X525353Y377544D01*
X525297Y377683D01*
X525269Y377766D01*
Y377794D01*
X524853Y379349D01*
X524797Y379682D01*
X524742Y379987D01*
Y380098D01*
Y380182D01*
Y380237D01*
Y380265D01*
Y380570D01*
X524770Y380820D01*
X524881Y381292D01*
X525047Y381653D01*
X525214Y381931D01*
X525408Y382125D01*
X525547Y382264D01*
X525658Y382319D01*
X525714Y382347D01*
X525380Y382514D01*
X525047Y382708D01*
X524770Y382930D01*
X524520Y383180D01*
X524076Y383735D01*
X523715Y384290D01*
X523465Y384818D01*
X523382Y385068D01*
X523298Y385262D01*
X523243Y385429D01*
X523187Y385567D01*
X523159Y385651D01*
Y385678D01*
X523104Y385956D01*
X523076Y386178D01*
Y386372D01*
Y386400D01*
Y386428D01*
X523104Y386733D01*
X523132Y387011D01*
X523187Y387261D01*
X523270Y387511D01*
X523354Y387705D01*
X523409Y387844D01*
X523437Y387955D01*
X523465Y387983D01*
X523631Y388288D01*
X523826Y388538D01*
X524048Y388760D01*
X524242Y388954D01*
X524464Y389121D01*
X524714Y389232D01*
X525158Y389454D01*
X525547Y389565D01*
X525880Y389621D01*
X526019Y389648D01*
X529683D01*
X529933Y389621D01*
D02*
G37*
G36*
X962342Y1001593D02*
X962509Y1001537D01*
X962620Y1001482D01*
X962647Y1001454D01*
X966756Y998289D01*
X966923Y998123D01*
X967006Y997956D01*
X967062Y997817D01*
Y997789D01*
Y997762D01*
Y997540D01*
X967006Y997345D01*
X966951Y997234D01*
X966923Y997179D01*
X966756Y997040D01*
X966590Y996929D01*
X966451Y996873D01*
X966395D01*
X966145Y996901D01*
X965951Y996957D01*
X965840Y997012D01*
X965785Y997040D01*
X963536Y998789D01*
X966729Y986851D01*
X966784Y986685D01*
Y986629D01*
Y986601D01*
X966756Y986379D01*
X966645Y986213D01*
X966562Y986102D01*
X966534Y986074D01*
X966340Y985935D01*
X966173Y985880D01*
X966034Y985852D01*
X965979D01*
X965785Y985880D01*
X965618Y985935D01*
X965479Y986046D01*
X965396Y986157D01*
X965257Y986351D01*
X965229Y986407D01*
Y986435D01*
X961398Y1000593D01*
Y1000677D01*
Y1000760D01*
Y1000816D01*
Y1000843D01*
X961426Y1001093D01*
X961509Y1001288D01*
X961648Y1001426D01*
X961787Y1001537D01*
X961926Y1001593D01*
X962065Y1001621D01*
X962176D01*
X962342Y1001593D01*
D02*
G37*
G36*
X990160D02*
X990326Y1001537D01*
X990465Y1001426D01*
X990548Y1001315D01*
X990632Y1001204D01*
X990687Y1001093D01*
X990715Y1001038D01*
Y1001010D01*
X994574Y986629D01*
X994602Y986407D01*
X994574Y986240D01*
X994546Y986102D01*
X994519Y986074D01*
X994352Y985935D01*
X994158Y985880D01*
X994019Y985852D01*
X987217D01*
X986967Y985880D01*
X986773Y985963D01*
X986634Y986102D01*
X986523Y986240D01*
X986468Y986379D01*
X986440Y986518D01*
Y986601D01*
Y986629D01*
X986468Y986907D01*
X986551Y987101D01*
X986690Y987240D01*
X986828Y987323D01*
X986967Y987406D01*
X987106Y987434D01*
X992714D01*
X989188Y1000593D01*
X989160Y1000677D01*
Y1000760D01*
Y1000816D01*
Y1000843D01*
X989188Y1001093D01*
X989271Y1001288D01*
X989410Y1001426D01*
X989549Y1001537D01*
X989716Y1001593D01*
X989827Y1001621D01*
X989966D01*
X990160Y1001593D01*
D02*
G37*
G36*
X975474Y1001621D02*
X975918Y1001593D01*
X976307Y1001510D01*
X976695Y1001398D01*
X977362Y1001149D01*
X977667Y1000982D01*
X977917Y1000843D01*
X978167Y1000704D01*
X978389Y1000538D01*
X978555Y1000399D01*
X978694Y1000288D01*
X978805Y1000177D01*
X978916Y1000122D01*
X978944Y1000066D01*
X978972Y1000038D01*
X979194Y999761D01*
X979388Y999483D01*
X979721Y998956D01*
X979943Y998428D01*
X980082Y997956D01*
X980193Y997540D01*
X980221Y997373D01*
Y997206D01*
X980249Y997095D01*
Y997012D01*
Y996957D01*
Y996929D01*
X980221Y996651D01*
X980193Y996374D01*
X980138Y996124D01*
X980054Y995902D01*
X979999Y995707D01*
X979943Y995568D01*
X979916Y995457D01*
X979888Y995430D01*
X979721Y995180D01*
X979555Y994930D01*
X979388Y994763D01*
X979221Y994597D01*
X979083Y994486D01*
X978972Y994375D01*
X978888Y994347D01*
X978861Y994319D01*
X974891Y992043D01*
X974585Y991848D01*
X974363Y991599D01*
X974224Y991376D01*
X974113Y991154D01*
X974058Y990932D01*
X974002Y990766D01*
Y990655D01*
Y990627D01*
X974030Y990266D01*
X974085Y989933D01*
X974169Y989627D01*
X974252Y989378D01*
X974363Y989155D01*
X974446Y989017D01*
X974502Y988905D01*
X974530Y988878D01*
X974724Y988628D01*
X974946Y988406D01*
X975168Y988212D01*
X975390Y988045D01*
X975835Y987795D01*
X976279Y987628D01*
X976640Y987517D01*
X976945Y987462D01*
X977056Y987434D01*
X977223D01*
X977639Y987462D01*
X978028Y987490D01*
X978805Y987656D01*
X979527Y987878D01*
X980165Y988156D01*
X980443Y988267D01*
X980693Y988406D01*
X980915Y988517D01*
X981082Y988628D01*
X981248Y988711D01*
X981359Y988794D01*
X981415Y988822D01*
X981442Y988850D01*
X981609Y988933D01*
X981748Y988961D01*
X981859Y988989D01*
X981887D01*
X982109Y988961D01*
X982303Y988878D01*
X982414Y988794D01*
X982470Y988767D01*
X982608Y988600D01*
X982664Y988406D01*
X982692Y988267D01*
Y988239D01*
Y988212D01*
X982664Y988073D01*
X982636Y987962D01*
X982525Y987767D01*
X982442Y987656D01*
X982386Y987601D01*
X981776Y987184D01*
X981498Y986990D01*
X981276Y986851D01*
X981082Y986740D01*
X980943Y986657D01*
X980832Y986601D01*
X980804Y986573D01*
X980249Y986324D01*
X979721Y986157D01*
X979166Y986018D01*
X978694Y985935D01*
X978278Y985880D01*
X978083D01*
X977944Y985852D01*
X977639D01*
X977139Y985880D01*
X976667Y985935D01*
X976223Y986018D01*
X975807Y986129D01*
X975418Y986268D01*
X975085Y986435D01*
X974780Y986601D01*
X974502Y986768D01*
X974252Y986934D01*
X974058Y987101D01*
X973863Y987268D01*
X973725Y987406D01*
X973614Y987517D01*
X973530Y987601D01*
X973503Y987656D01*
X973475Y987684D01*
X973114Y988239D01*
X972836Y988767D01*
X972642Y989266D01*
X972531Y989711D01*
X972448Y990099D01*
X972420Y990405D01*
X972392Y990516D01*
Y990599D01*
Y990627D01*
Y990655D01*
X972420Y990960D01*
X972448Y991265D01*
X972614Y991793D01*
X972836Y992237D01*
X973086Y992598D01*
X973364Y992876D01*
X973586Y993070D01*
X973752Y993181D01*
X973780Y993209D01*
X973808D01*
X977806Y995485D01*
X978083Y995679D01*
X978278Y995929D01*
X978444Y996152D01*
X978528Y996401D01*
X978583Y996596D01*
X978611Y996762D01*
X978639Y996901D01*
Y996929D01*
X978611Y997262D01*
X978555Y997567D01*
X978500Y997817D01*
X978389Y998067D01*
X978305Y998261D01*
X978250Y998400D01*
X978194Y998511D01*
X978167Y998539D01*
X977972Y998817D01*
X977750Y999039D01*
X977528Y999261D01*
X977306Y999427D01*
X976862Y999705D01*
X976418Y999872D01*
X976029Y999983D01*
X975723Y1000038D01*
X975612Y1000066D01*
X975446D01*
X974641Y1000038D01*
X973919Y999955D01*
X973280Y999844D01*
X972753Y999705D01*
X972503Y999650D01*
X972309Y999566D01*
X972142Y999511D01*
X972003Y999455D01*
X971865Y999400D01*
X971781Y999372D01*
X971753Y999344D01*
X971726D01*
X971587Y999289D01*
X971476Y999261D01*
X971365D01*
X971143Y999289D01*
X970976Y999372D01*
X970865Y999455D01*
X970837Y999483D01*
X970698Y999677D01*
X970615Y999872D01*
X970587Y1000010D01*
Y1000038D01*
Y1000066D01*
X970615Y1000232D01*
X970643Y1000371D01*
X970782Y1000593D01*
X970948Y1000732D01*
X970976Y1000760D01*
X971004D01*
X971393Y1000927D01*
X971781Y1001065D01*
X971920Y1001121D01*
X972031Y1001176D01*
X972114Y1001204D01*
X972142D01*
X972670Y1001343D01*
X973169Y1001454D01*
X973641Y1001537D01*
X974085Y1001593D01*
X974474Y1001621D01*
X974780Y1001648D01*
X975029D01*
X975474Y1001621D01*
D02*
G37*
G36*
X917624Y1045480D02*
X917790Y1045425D01*
X917901Y1045369D01*
X917929Y1045342D01*
X922038Y1042177D01*
X922204Y1042010D01*
X922288Y1041844D01*
X922343Y1041705D01*
Y1041677D01*
Y1041649D01*
Y1041427D01*
X922288Y1041233D01*
X922232Y1041122D01*
X922204Y1041066D01*
X922038Y1040927D01*
X921871Y1040816D01*
X921732Y1040761D01*
X921677D01*
X921427Y1040789D01*
X921233Y1040844D01*
X921122Y1040900D01*
X921066Y1040927D01*
X918817Y1042676D01*
X922010Y1030739D01*
X922066Y1030572D01*
Y1030517D01*
Y1030489D01*
X922038Y1030267D01*
X921927Y1030100D01*
X921843Y1029989D01*
X921816Y1029961D01*
X921621Y1029823D01*
X921455Y1029767D01*
X921316Y1029739D01*
X921260D01*
X921066Y1029767D01*
X920900Y1029823D01*
X920761Y1029934D01*
X920677Y1030045D01*
X920538Y1030239D01*
X920511Y1030294D01*
Y1030322D01*
X916680Y1044481D01*
Y1044564D01*
Y1044648D01*
Y1044703D01*
Y1044731D01*
X916707Y1044981D01*
X916791Y1045175D01*
X916929Y1045314D01*
X917068Y1045425D01*
X917207Y1045480D01*
X917346Y1045508D01*
X917457D01*
X917624Y1045480D01*
D02*
G37*
G36*
X894747D02*
X894914Y1045425D01*
X895025Y1045369D01*
X895053Y1045342D01*
X899162Y1042177D01*
X899328Y1042010D01*
X899411Y1041844D01*
X899467Y1041705D01*
Y1041677D01*
Y1041649D01*
Y1041427D01*
X899411Y1041233D01*
X899356Y1041122D01*
X899328Y1041066D01*
X899162Y1040927D01*
X898995Y1040816D01*
X898856Y1040761D01*
X898801D01*
X898551Y1040789D01*
X898356Y1040844D01*
X898245Y1040900D01*
X898190Y1040927D01*
X895941Y1042676D01*
X899134Y1030739D01*
X899189Y1030572D01*
Y1030517D01*
Y1030489D01*
X899162Y1030267D01*
X899051Y1030100D01*
X898967Y1029989D01*
X898940Y1029961D01*
X898745Y1029823D01*
X898579Y1029767D01*
X898440Y1029739D01*
X898384D01*
X898190Y1029767D01*
X898023Y1029823D01*
X897885Y1029934D01*
X897801Y1030045D01*
X897663Y1030239D01*
X897635Y1030294D01*
Y1030322D01*
X893803Y1044481D01*
Y1044564D01*
Y1044648D01*
Y1044703D01*
Y1044731D01*
X893831Y1044981D01*
X893915Y1045175D01*
X894053Y1045314D01*
X894192Y1045425D01*
X894331Y1045480D01*
X894470Y1045508D01*
X894581D01*
X894747Y1045480D01*
D02*
G37*
G36*
X935613D02*
X935808Y1045397D01*
X935919Y1045314D01*
X935974Y1045286D01*
X936113Y1045119D01*
X936169Y1044925D01*
X936196Y1044786D01*
Y1044759D01*
Y1044731D01*
X935114Y1030461D01*
X935058Y1030211D01*
X934975Y1030045D01*
X934836Y1029906D01*
X934697Y1029823D01*
X934558Y1029767D01*
X934420Y1029739D01*
X934309D01*
X934170Y1029767D01*
X934031Y1029795D01*
X933809Y1029934D01*
X933698Y1030045D01*
X933642Y1030072D01*
Y1030100D01*
X924953Y1044287D01*
X924897Y1044426D01*
X924842Y1044564D01*
Y1044675D01*
Y1044703D01*
X924869Y1044981D01*
X924953Y1045175D01*
X925091Y1045314D01*
X925230Y1045397D01*
X925369Y1045480D01*
X925508Y1045508D01*
X925619D01*
X925786Y1045480D01*
X925897Y1045453D01*
X926119Y1045314D01*
X926230Y1045175D01*
X926285Y1045147D01*
Y1045119D01*
X933726Y1032987D01*
X934642Y1044759D01*
X934697Y1045008D01*
X934781Y1045203D01*
X934892Y1045314D01*
X935030Y1045425D01*
X935169Y1045480D01*
X935280Y1045508D01*
X935391D01*
X935613Y1045480D01*
D02*
G37*
G36*
X921954Y1026547D02*
X922149Y1026463D01*
X922288Y1026324D01*
X922371Y1026186D01*
X922426Y1026047D01*
X922482Y1025908D01*
Y1025825D01*
Y1025797D01*
X922454Y1025519D01*
X922371Y1025325D01*
X922232Y1025186D01*
X922093Y1025103D01*
X921954Y1025048D01*
X921816Y1024992D01*
X903742D01*
X903493Y1025020D01*
X903298Y1025131D01*
X903159Y1025242D01*
X903048Y1025408D01*
X902993Y1025547D01*
X902965Y1025686D01*
Y1025769D01*
Y1025797D01*
X902993Y1026047D01*
X903076Y1026241D01*
X903215Y1026380D01*
X903354Y1026491D01*
X903493Y1026547D01*
X903631Y1026574D01*
X921705D01*
X921954Y1026547D01*
D02*
G37*
G36*
X697593Y427003D02*
X697787Y426920D01*
X697926Y426781D01*
X698037Y426642D01*
X698093Y426503D01*
X698121Y426365D01*
Y426254D01*
X698093Y426087D01*
X698037Y425920D01*
X697982Y425810D01*
X697954Y425782D01*
X694789Y421673D01*
X694622Y421506D01*
X694456Y421423D01*
X694317Y421367D01*
X694289D01*
X694262D01*
X694040D01*
X693845Y421423D01*
X693734Y421479D01*
X693679Y421506D01*
X693540Y421673D01*
X693429Y421839D01*
X693373Y421978D01*
Y422034D01*
X693401Y422284D01*
X693456Y422478D01*
X693512Y422589D01*
X693540Y422645D01*
X695289Y424893D01*
X683351Y421701D01*
X683185Y421645D01*
X683129D01*
X683101D01*
X682879Y421673D01*
X682713Y421784D01*
X682601Y421867D01*
X682574Y421895D01*
X682435Y422089D01*
X682379Y422256D01*
X682352Y422395D01*
Y422450D01*
X682379Y422645D01*
X682435Y422811D01*
X682546Y422950D01*
X682657Y423033D01*
X682851Y423172D01*
X682907Y423200D01*
X682935D01*
X697093Y427031D01*
X697177D01*
X697260D01*
X697316D01*
X697343D01*
X697593Y427003D01*
D02*
G37*
G36*
X684184Y415232D02*
X684378Y415149D01*
X684517Y415010D01*
X684628Y414871D01*
X684684Y414732D01*
X684711Y414594D01*
Y414482D01*
X684684Y414288D01*
X684628Y414122D01*
X684517Y413983D01*
X684406Y413872D01*
X684295Y413816D01*
X684184Y413761D01*
X684128Y413733D01*
X684101D01*
X683351Y413511D01*
X683268Y413483D01*
X683185D01*
X683129D01*
X683101D01*
X682851Y413511D01*
X682657Y413622D01*
X682546Y413733D01*
X682435Y413899D01*
X682379Y414038D01*
X682352Y414177D01*
Y414288D01*
X682379Y414482D01*
X682435Y414649D01*
X682546Y414788D01*
X682657Y414871D01*
X682851Y415010D01*
X682907Y415038D01*
X682935D01*
X683684Y415232D01*
X683767Y415260D01*
X683851D01*
X683906D01*
X683934D01*
X684184Y415232D01*
D02*
G37*
G36*
X695233Y413205D02*
X695511Y413178D01*
X695761Y413122D01*
X696011Y413039D01*
X696205Y412956D01*
X696344Y412900D01*
X696455Y412872D01*
X696483Y412845D01*
X696788Y412678D01*
X697038Y412484D01*
X697260Y412262D01*
X697454Y412067D01*
X697621Y411845D01*
X697732Y411595D01*
X697954Y411151D01*
X698065Y410762D01*
X698121Y410429D01*
X698148Y410290D01*
Y406626D01*
X698121Y406376D01*
X698037Y406182D01*
X697898Y406043D01*
X697760Y405960D01*
X697593Y405904D01*
X697482Y405848D01*
X697371D01*
X697343D01*
X697093Y405876D01*
X696899Y405960D01*
X696760Y406098D01*
X696677Y406237D01*
X696621Y406376D01*
X696566Y406515D01*
Y409707D01*
X696538Y410041D01*
X696483Y410346D01*
X696399Y410596D01*
X696316Y410818D01*
X696177Y411012D01*
X696038Y411151D01*
X695872Y411290D01*
X695733Y411373D01*
X695400Y411512D01*
X695150Y411595D01*
X695039Y411623D01*
X694956D01*
X694900D01*
X694872D01*
X694650Y411595D01*
X694428Y411567D01*
X694262Y411540D01*
X694206Y411512D01*
X694178D01*
X693956Y411456D01*
X693734Y411345D01*
X693512Y411262D01*
X693345Y411151D01*
X693207Y411040D01*
X693096Y410957D01*
X693012Y410901D01*
X692985Y410873D01*
X692596Y410485D01*
X692318Y410068D01*
X692096Y409652D01*
X691957Y409263D01*
X691874Y408930D01*
X691846Y408680D01*
X691819Y408569D01*
Y406570D01*
X691791Y406320D01*
X691708Y406126D01*
X691569Y405987D01*
X691430Y405904D01*
X691263Y405848D01*
X691152Y405793D01*
X691041D01*
X691013D01*
X690764Y405821D01*
X690569Y405904D01*
X690430Y406043D01*
X690347Y406182D01*
X690292Y406320D01*
X690236Y406459D01*
Y408014D01*
X690208Y408347D01*
X690181Y408652D01*
X690097Y408902D01*
X690014Y409152D01*
X689903Y409319D01*
X689764Y409485D01*
X689625Y409624D01*
X689514Y409707D01*
X689237Y409846D01*
X688987Y409930D01*
X688820Y409957D01*
X688792D01*
X688765D01*
X688459Y409930D01*
X688154Y409902D01*
X688043Y409874D01*
X687932Y409846D01*
X687876Y409818D01*
X687849D01*
X686294Y409402D01*
X685933Y409291D01*
X685600Y409124D01*
X685322Y408930D01*
X685072Y408736D01*
X684878Y408541D01*
X684739Y408375D01*
X684628Y408264D01*
X684600Y408236D01*
X684378Y407903D01*
X684212Y407542D01*
X684101Y407209D01*
X684017Y406931D01*
X683962Y406654D01*
X683934Y406459D01*
Y402850D01*
X683906Y402573D01*
X683823Y402378D01*
X683684Y402239D01*
X683545Y402156D01*
X683379Y402100D01*
X683268Y402045D01*
X683157D01*
X683129D01*
X682879Y402073D01*
X682685Y402184D01*
X682546Y402295D01*
X682463Y402462D01*
X682407Y402600D01*
X682352Y402739D01*
Y405876D01*
X682379Y406376D01*
X682407Y406820D01*
X682490Y407237D01*
X682574Y407570D01*
X682629Y407875D01*
X682713Y408069D01*
X682740Y408208D01*
X682768Y408264D01*
X682962Y408652D01*
X683185Y408986D01*
X683434Y409291D01*
X683684Y409569D01*
X683990Y409818D01*
X684267Y410068D01*
X684878Y410429D01*
X685406Y410707D01*
X685655Y410818D01*
X685877Y410901D01*
X686044Y410957D01*
X686183Y411012D01*
X686266Y411040D01*
X686294D01*
X687849Y411456D01*
X688182Y411512D01*
X688487Y411567D01*
X688598D01*
X688681D01*
X688737D01*
X688765D01*
X689070D01*
X689320Y411540D01*
X689792Y411429D01*
X690153Y411262D01*
X690430Y411096D01*
X690625Y410901D01*
X690764Y410762D01*
X690819Y410651D01*
X690847Y410596D01*
X691013Y410929D01*
X691208Y411262D01*
X691430Y411540D01*
X691680Y411790D01*
X692235Y412234D01*
X692790Y412595D01*
X693318Y412845D01*
X693568Y412928D01*
X693762Y413011D01*
X693929Y413067D01*
X694067Y413122D01*
X694151Y413150D01*
X694178D01*
X694456Y413205D01*
X694678Y413233D01*
X694872D01*
X694900D01*
X694928D01*
X695233Y413205D01*
D02*
G37*
G36*
X694539Y401573D02*
X694872Y401517D01*
X695206Y401434D01*
X695483Y401351D01*
X695733Y401240D01*
X695900Y401157D01*
X696038Y401101D01*
X696066Y401073D01*
X696427Y400851D01*
X696760Y400601D01*
X697038Y400324D01*
X697260Y400074D01*
X697482Y399796D01*
X697649Y399546D01*
X697787Y399269D01*
X697898Y399019D01*
X698037Y398575D01*
X698093Y398380D01*
X698121Y398214D01*
X698148Y398075D01*
Y393800D01*
X698121Y393522D01*
X698037Y393272D01*
X697898Y393106D01*
X697760Y392967D01*
X697593Y392856D01*
X697482Y392800D01*
X697371Y392745D01*
X697343D01*
X683351Y388997D01*
X683185Y388969D01*
X683129D01*
X683101D01*
X682879Y388997D01*
X682713Y389080D01*
X682601Y389163D01*
X682574Y389191D01*
X682435Y389385D01*
X682379Y389580D01*
X682352Y389719D01*
Y389774D01*
X682379Y389968D01*
X682435Y390135D01*
X682546Y390274D01*
X682657Y390357D01*
X682851Y390496D01*
X682907Y390524D01*
X682935D01*
X688654Y392051D01*
Y395715D01*
X682935Y397159D01*
X682740Y397242D01*
X682601Y397325D01*
X682490Y397464D01*
X682435Y397575D01*
X682379Y397714D01*
X682352Y397825D01*
Y397908D01*
X682379Y398186D01*
X682463Y398380D01*
X682601Y398519D01*
X682740Y398602D01*
X682879Y398686D01*
X683018Y398714D01*
X683101D01*
X683129D01*
X683268D01*
X683296Y398686D01*
X683323D01*
X688931Y397270D01*
X689070Y397659D01*
X689209Y398019D01*
X689376Y398325D01*
X689514Y398602D01*
X689653Y398852D01*
X689764Y399019D01*
X689847Y399130D01*
X689875Y399158D01*
X690375Y399741D01*
X690958Y400241D01*
X691541Y400657D01*
X692096Y400962D01*
X692624Y401212D01*
X692846Y401295D01*
X693040Y401379D01*
X693179Y401434D01*
X693290Y401462D01*
X693373Y401490D01*
X693401D01*
X693651Y401545D01*
X693929Y401601D01*
X694012D01*
X694095D01*
X694151D01*
X694178D01*
X694539Y401573D01*
D02*
G37*
G36*
X651681Y389871D02*
X652181Y389787D01*
X652653Y389676D01*
X653042Y389537D01*
X653375Y389399D01*
X653625Y389288D01*
X653764Y389204D01*
X653819Y389176D01*
X654180Y388927D01*
X654541Y388621D01*
X654874Y388288D01*
X655207Y387983D01*
X655457Y387677D01*
X655651Y387455D01*
X655790Y387289D01*
X655846Y387261D01*
Y387233D01*
X655957Y387067D01*
X656012Y386900D01*
X656040Y386789D01*
Y386734D01*
X656012Y386511D01*
X655929Y386317D01*
X655846Y386206D01*
X655818Y386151D01*
X655624Y386012D01*
X655457Y385956D01*
X655318Y385928D01*
X655263D01*
X655124Y385956D01*
X655013Y385984D01*
X654846Y386095D01*
X654707Y386178D01*
X654680Y386234D01*
X654347Y386622D01*
X654013Y386928D01*
X653902Y387039D01*
X653791Y387122D01*
X653736Y387178D01*
X653708Y387205D01*
X653264Y387566D01*
X652847Y387844D01*
X652486Y388038D01*
X652181Y388177D01*
X651904Y388260D01*
X651737Y388288D01*
X651598Y388316D01*
X651570D01*
X651209Y388288D01*
X650904Y388260D01*
X650654Y388177D01*
X650404Y388066D01*
X650210Y387955D01*
X650071Y387816D01*
X649932Y387677D01*
X649821Y387539D01*
X649682Y387233D01*
X649599Y386983D01*
X649572Y386872D01*
Y386789D01*
Y386761D01*
Y386734D01*
X649599Y386373D01*
X649710Y386012D01*
X649877Y385651D01*
X650043Y385345D01*
X650238Y385068D01*
X650377Y384873D01*
X650488Y384735D01*
X650543Y384679D01*
X659011Y375406D01*
X659122Y375240D01*
X659177Y375073D01*
X659205Y374935D01*
Y374907D01*
Y374879D01*
X659177Y374629D01*
X659094Y374435D01*
X658955Y374296D01*
X658816Y374213D01*
X658678Y374157D01*
X658539Y374102D01*
X651904D01*
X651626Y374129D01*
X651432Y374213D01*
X651293Y374352D01*
X651209Y374490D01*
X651126Y374629D01*
X651098Y374768D01*
Y374851D01*
Y374879D01*
X651126Y375157D01*
X651209Y375351D01*
X651348Y375490D01*
X651487Y375573D01*
X651654Y375656D01*
X651765Y375684D01*
X656623D01*
X649405Y383596D01*
X649155Y383902D01*
X648933Y384179D01*
X648739Y384457D01*
X648572Y384735D01*
X648322Y385290D01*
X648156Y385762D01*
X648072Y386178D01*
X648045Y386345D01*
X648017Y386484D01*
X647989Y386595D01*
Y386678D01*
Y386734D01*
Y386761D01*
X648017Y387067D01*
X648045Y387372D01*
X648128Y387650D01*
X648211Y387872D01*
X648294Y388066D01*
X648350Y388205D01*
X648406Y388316D01*
X648433Y388344D01*
X648600Y388621D01*
X648822Y388871D01*
X649016Y389066D01*
X649238Y389232D01*
X649682Y389510D01*
X650127Y389704D01*
X650515Y389815D01*
X650821Y389871D01*
X650960Y389898D01*
X651126D01*
X651681Y389871D01*
D02*
G37*
G36*
X635163Y389843D02*
X635330Y389787D01*
X635440Y389732D01*
X635468Y389704D01*
X639577Y386539D01*
X639744Y386373D01*
X639827Y386206D01*
X639883Y386067D01*
Y386039D01*
Y386012D01*
Y385790D01*
X639827Y385595D01*
X639771Y385484D01*
X639744Y385429D01*
X639577Y385290D01*
X639411Y385179D01*
X639272Y385123D01*
X639216D01*
X638966Y385151D01*
X638772Y385206D01*
X638661Y385262D01*
X638605Y385290D01*
X636357Y387039D01*
X639549Y375101D01*
X639605Y374935D01*
Y374879D01*
Y374851D01*
X639577Y374629D01*
X639466Y374463D01*
X639383Y374352D01*
X639355Y374324D01*
X639161Y374185D01*
X638994Y374129D01*
X638855Y374102D01*
X638800D01*
X638605Y374129D01*
X638439Y374185D01*
X638300Y374296D01*
X638217Y374407D01*
X638078Y374601D01*
X638050Y374657D01*
Y374685D01*
X634219Y388843D01*
Y388927D01*
Y389010D01*
Y389066D01*
Y389093D01*
X634247Y389343D01*
X634330Y389537D01*
X634469Y389676D01*
X634608Y389787D01*
X634747Y389843D01*
X634885Y389871D01*
X634996D01*
X635163Y389843D01*
D02*
G37*
G36*
X667728Y389871D02*
X667978Y389787D01*
X668144Y389649D01*
X668283Y389510D01*
X668394Y389343D01*
X668450Y389232D01*
X668505Y389121D01*
Y389093D01*
X672253Y375101D01*
X672281Y374935D01*
Y374879D01*
Y374851D01*
X672253Y374629D01*
X672170Y374463D01*
X672087Y374352D01*
X672059Y374324D01*
X671864Y374185D01*
X671670Y374129D01*
X671531Y374102D01*
X671476D01*
X671282Y374129D01*
X671115Y374185D01*
X670976Y374296D01*
X670893Y374407D01*
X670754Y374601D01*
X670726Y374657D01*
Y374685D01*
X669199Y380404D01*
X665535D01*
X664091Y374685D01*
X664008Y374490D01*
X663924Y374352D01*
X663786Y374240D01*
X663675Y374185D01*
X663536Y374129D01*
X663425Y374102D01*
X663342D01*
X663064Y374129D01*
X662870Y374213D01*
X662731Y374352D01*
X662647Y374490D01*
X662564Y374629D01*
X662536Y374768D01*
Y374851D01*
Y374879D01*
Y375018D01*
X662564Y375046D01*
Y375073D01*
X663980Y380681D01*
X663591Y380820D01*
X663231Y380959D01*
X662925Y381125D01*
X662647Y381264D01*
X662398Y381403D01*
X662231Y381514D01*
X662120Y381598D01*
X662092Y381625D01*
X661509Y382125D01*
X661010Y382708D01*
X660593Y383291D01*
X660288Y383846D01*
X660038Y384374D01*
X659955Y384596D01*
X659871Y384790D01*
X659816Y384929D01*
X659788Y385040D01*
X659760Y385123D01*
Y385151D01*
X659705Y385401D01*
X659649Y385678D01*
Y385762D01*
Y385845D01*
Y385901D01*
Y385928D01*
X659677Y386289D01*
X659732Y386622D01*
X659816Y386956D01*
X659899Y387233D01*
X660010Y387483D01*
X660093Y387650D01*
X660149Y387788D01*
X660177Y387816D01*
X660399Y388177D01*
X660649Y388510D01*
X660926Y388788D01*
X661176Y389010D01*
X661454Y389232D01*
X661704Y389399D01*
X661981Y389537D01*
X662231Y389649D01*
X662675Y389787D01*
X662870Y389843D01*
X663036Y389871D01*
X663175Y389898D01*
X667450D01*
X667728Y389871D01*
D02*
G37*
G36*
X646962Y376434D02*
X647128Y376378D01*
X647267Y376267D01*
X647378Y376156D01*
X647434Y376045D01*
X647489Y375934D01*
X647517Y375878D01*
Y375851D01*
X647739Y375101D01*
X647767Y375018D01*
Y374935D01*
Y374879D01*
Y374851D01*
X647739Y374601D01*
X647628Y374407D01*
X647517Y374296D01*
X647350Y374185D01*
X647212Y374129D01*
X647073Y374102D01*
X646962D01*
X646768Y374129D01*
X646601Y374185D01*
X646462Y374296D01*
X646379Y374407D01*
X646240Y374601D01*
X646212Y374657D01*
Y374685D01*
X646018Y375434D01*
X645990Y375518D01*
Y375601D01*
Y375656D01*
Y375684D01*
X646018Y375934D01*
X646101Y376128D01*
X646240Y376267D01*
X646379Y376378D01*
X646518Y376434D01*
X646656Y376461D01*
X646768D01*
X646962Y376434D01*
D02*
G37*
G36*
X700404Y338537D02*
X700543Y338491D01*
X700636Y338444D01*
X700659Y338421D01*
X704083Y335783D01*
X704222Y335644D01*
X704292Y335506D01*
X704338Y335390D01*
Y335367D01*
Y335344D01*
Y335159D01*
X704292Y334997D01*
X704245Y334904D01*
X704222Y334858D01*
X704083Y334742D01*
X703944Y334650D01*
X703829Y334603D01*
X703783D01*
X703574Y334626D01*
X703412Y334673D01*
X703320Y334719D01*
X703273Y334742D01*
X701399Y336200D01*
X704060Y326250D01*
X704106Y326111D01*
Y326065D01*
Y326042D01*
X704083Y325857D01*
X703991Y325718D01*
X703921Y325625D01*
X703898Y325602D01*
X703736Y325486D01*
X703597Y325440D01*
X703482Y325417D01*
X703435D01*
X703273Y325440D01*
X703135Y325486D01*
X703019Y325579D01*
X702950Y325671D01*
X702834Y325833D01*
X702811Y325880D01*
Y325903D01*
X699617Y337704D01*
Y337773D01*
Y337843D01*
Y337889D01*
Y337912D01*
X699641Y338120D01*
X699710Y338282D01*
X699826Y338398D01*
X699941Y338491D01*
X700057Y338537D01*
X700173Y338560D01*
X700265D01*
X700404Y338537D01*
D02*
G37*
G36*
X726367D02*
X726528Y338467D01*
X726644Y338352D01*
X726714Y338236D01*
X726760Y338097D01*
X726806Y338005D01*
Y337912D01*
Y337889D01*
Y337796D01*
X726783Y337704D01*
X726760Y337658D01*
Y337635D01*
X724423Y332104D01*
X729791Y326527D01*
X729907Y326366D01*
X729953Y326204D01*
X729976Y326088D01*
Y326065D01*
Y326042D01*
X729953Y325833D01*
X729884Y325671D01*
X729768Y325579D01*
X729652Y325486D01*
X729537Y325440D01*
X729421Y325417D01*
X729328D01*
X729120Y325440D01*
X728981Y325509D01*
X728866Y325579D01*
X728842Y325602D01*
X723867Y330785D01*
X721762Y325810D01*
X721692Y325671D01*
X721577Y325579D01*
X721484Y325509D01*
X721368Y325463D01*
X721276Y325440D01*
X721207Y325417D01*
X721137D01*
X720929Y325440D01*
X720767Y325509D01*
X720651Y325625D01*
X720559Y325741D01*
X720512Y325857D01*
X720489Y325972D01*
Y326042D01*
Y326065D01*
Y326157D01*
X720512Y326250D01*
X720535Y326296D01*
Y326319D01*
X722872Y331827D01*
X717481Y337426D01*
X717389Y337588D01*
X717342Y337727D01*
X717319Y337843D01*
Y337889D01*
X717342Y338120D01*
X717412Y338282D01*
X717527Y338398D01*
X717643Y338467D01*
X717759Y338537D01*
X717874Y338560D01*
X717967D01*
X718152Y338514D01*
X718314Y338444D01*
X718407Y338375D01*
X718453Y338329D01*
X723428Y333145D01*
X725534Y338144D01*
X725603Y338282D01*
X725719Y338375D01*
X725811Y338467D01*
X725904Y338514D01*
X726020Y338537D01*
X726089Y338560D01*
X726158D01*
X726367Y338537D01*
D02*
G37*
G36*
X711349Y338560D02*
X711719Y338537D01*
X712043Y338467D01*
X712367Y338375D01*
X712923Y338167D01*
X713177Y338028D01*
X713385Y337912D01*
X713594Y337796D01*
X713779Y337658D01*
X713917Y337542D01*
X714033Y337449D01*
X714126Y337357D01*
X714218Y337310D01*
X714241Y337264D01*
X714265Y337241D01*
X714450Y337010D01*
X714612Y336778D01*
X714889Y336339D01*
X715074Y335899D01*
X715190Y335506D01*
X715283Y335159D01*
X715306Y335020D01*
Y334881D01*
X715329Y334788D01*
Y334719D01*
Y334673D01*
Y334650D01*
X715306Y334418D01*
X715283Y334187D01*
X715237Y333978D01*
X715167Y333793D01*
X715121Y333631D01*
X715074Y333516D01*
X715051Y333423D01*
X715028Y333400D01*
X714889Y333192D01*
X714751Y332983D01*
X714612Y332845D01*
X714473Y332706D01*
X714357Y332613D01*
X714265Y332521D01*
X714195Y332497D01*
X714172Y332474D01*
X710863Y330577D01*
X710609Y330415D01*
X710424Y330207D01*
X710308Y330022D01*
X710215Y329837D01*
X710169Y329651D01*
X710123Y329512D01*
Y329420D01*
Y329397D01*
X710146Y329096D01*
X710192Y328818D01*
X710262Y328564D01*
X710331Y328356D01*
X710424Y328170D01*
X710493Y328055D01*
X710539Y327962D01*
X710562Y327939D01*
X710724Y327731D01*
X710909Y327546D01*
X711095Y327384D01*
X711280Y327245D01*
X711650Y327037D01*
X712020Y326898D01*
X712321Y326805D01*
X712576Y326759D01*
X712668Y326736D01*
X712807D01*
X713154Y326759D01*
X713478Y326782D01*
X714126Y326921D01*
X714727Y327106D01*
X715260Y327337D01*
X715491Y327430D01*
X715699Y327546D01*
X715884Y327638D01*
X716023Y327731D01*
X716162Y327800D01*
X716255Y327870D01*
X716301Y327893D01*
X716324Y327916D01*
X716463Y327985D01*
X716579Y328008D01*
X716671Y328032D01*
X716694D01*
X716879Y328008D01*
X717041Y327939D01*
X717134Y327870D01*
X717180Y327846D01*
X717296Y327708D01*
X717342Y327546D01*
X717365Y327430D01*
Y327407D01*
Y327384D01*
X717342Y327268D01*
X717319Y327175D01*
X717226Y327014D01*
X717157Y326921D01*
X717111Y326875D01*
X716602Y326527D01*
X716370Y326366D01*
X716185Y326250D01*
X716023Y326157D01*
X715908Y326088D01*
X715815Y326042D01*
X715792Y326018D01*
X715329Y325810D01*
X714889Y325671D01*
X714427Y325556D01*
X714033Y325486D01*
X713686Y325440D01*
X713524D01*
X713409Y325417D01*
X713154D01*
X712737Y325440D01*
X712344Y325486D01*
X711974Y325556D01*
X711627Y325648D01*
X711303Y325764D01*
X711025Y325903D01*
X710771Y326042D01*
X710539Y326180D01*
X710331Y326319D01*
X710169Y326458D01*
X710007Y326597D01*
X709891Y326713D01*
X709799Y326805D01*
X709729Y326875D01*
X709706Y326921D01*
X709683Y326944D01*
X709382Y327407D01*
X709151Y327846D01*
X708989Y328263D01*
X708896Y328633D01*
X708827Y328957D01*
X708804Y329212D01*
X708781Y329304D01*
Y329374D01*
Y329397D01*
Y329420D01*
X708804Y329674D01*
X708827Y329929D01*
X708966Y330369D01*
X709151Y330739D01*
X709359Y331040D01*
X709591Y331271D01*
X709776Y331433D01*
X709914Y331526D01*
X709938Y331549D01*
X709961D01*
X713293Y333446D01*
X713524Y333608D01*
X713686Y333816D01*
X713825Y334002D01*
X713894Y334210D01*
X713941Y334372D01*
X713964Y334511D01*
X713987Y334626D01*
Y334650D01*
X713964Y334927D01*
X713917Y335182D01*
X713871Y335390D01*
X713779Y335598D01*
X713709Y335760D01*
X713663Y335876D01*
X713617Y335968D01*
X713594Y335992D01*
X713432Y336223D01*
X713247Y336408D01*
X713061Y336593D01*
X712876Y336732D01*
X712506Y336963D01*
X712136Y337102D01*
X711812Y337195D01*
X711557Y337241D01*
X711465Y337264D01*
X711326D01*
X710655Y337241D01*
X710053Y337172D01*
X709521Y337079D01*
X709081Y336963D01*
X708873Y336917D01*
X708711Y336848D01*
X708572Y336801D01*
X708457Y336755D01*
X708341Y336709D01*
X708271Y336686D01*
X708248Y336663D01*
X708225D01*
X708110Y336616D01*
X708017Y336593D01*
X707924D01*
X707739Y336616D01*
X707600Y336686D01*
X707508Y336755D01*
X707485Y336778D01*
X707369Y336940D01*
X707300Y337102D01*
X707277Y337218D01*
Y337241D01*
Y337264D01*
X707300Y337403D01*
X707323Y337519D01*
X707439Y337704D01*
X707577Y337820D01*
X707600Y337843D01*
X707624D01*
X707948Y337981D01*
X708271Y338097D01*
X708387Y338144D01*
X708480Y338190D01*
X708549Y338213D01*
X708572D01*
X709012Y338329D01*
X709428Y338421D01*
X709822Y338491D01*
X710192Y338537D01*
X710516Y338560D01*
X710771Y338583D01*
X710979D01*
X711349Y338560D01*
D02*
G37*
G36*
X692236Y338537D02*
X692328Y338514D01*
X692514Y338398D01*
X692606Y338282D01*
X692652Y338259D01*
Y338236D01*
X699918Y326412D01*
X699965Y326296D01*
X699988Y326180D01*
X700011Y326088D01*
Y326065D01*
X699988Y325880D01*
X699918Y325741D01*
X699849Y325625D01*
X699826Y325602D01*
X699664Y325486D01*
X699502Y325440D01*
X699386Y325417D01*
X699340D01*
X699224Y325440D01*
X699108Y325463D01*
X698923Y325579D01*
X698831Y325671D01*
X698784Y325695D01*
Y325718D01*
X696980Y328703D01*
X692051D01*
X691843Y326018D01*
X691796Y325810D01*
X691727Y325671D01*
X691611Y325556D01*
X691496Y325486D01*
X691380Y325440D01*
X691287Y325417D01*
X691195D01*
X690963Y325440D01*
X690801Y325509D01*
X690686Y325625D01*
X690616Y325741D01*
X690547Y325833D01*
X690524Y325949D01*
Y326018D01*
Y326042D01*
X691449Y337935D01*
X691496Y338144D01*
X691565Y338306D01*
X691681Y338398D01*
X691796Y338491D01*
X691912Y338537D01*
X692004Y338560D01*
X692097D01*
X692236Y338537D01*
D02*
G37*
G36*
X1110520Y731843D02*
X1110686Y731787D01*
X1110798Y731732D01*
X1110825Y731704D01*
X1114934Y728539D01*
X1115101Y728373D01*
X1115184Y728206D01*
X1115239Y728067D01*
Y728039D01*
Y728012D01*
Y727790D01*
X1115184Y727595D01*
X1115128Y727484D01*
X1115101Y727429D01*
X1114934Y727290D01*
X1114768Y727179D01*
X1114629Y727123D01*
X1114573D01*
X1114323Y727151D01*
X1114129Y727206D01*
X1114018Y727262D01*
X1113962Y727290D01*
X1111714Y729039D01*
X1114906Y717101D01*
X1114962Y716935D01*
Y716879D01*
Y716851D01*
X1114934Y716629D01*
X1114823Y716463D01*
X1114740Y716351D01*
X1114712Y716324D01*
X1114518Y716185D01*
X1114351Y716129D01*
X1114212Y716102D01*
X1114157D01*
X1113962Y716129D01*
X1113796Y716185D01*
X1113657Y716296D01*
X1113574Y716407D01*
X1113435Y716601D01*
X1113407Y716657D01*
Y716685D01*
X1109576Y730843D01*
Y730927D01*
Y731010D01*
Y731066D01*
Y731093D01*
X1109604Y731343D01*
X1109687Y731537D01*
X1109826Y731676D01*
X1109965Y731787D01*
X1110104Y731843D01*
X1110242Y731871D01*
X1110353D01*
X1110520Y731843D01*
D02*
G37*
G36*
X1141669D02*
X1141863Y731759D01*
X1142002Y731621D01*
X1142085Y731482D01*
X1142141Y731315D01*
X1142197Y731204D01*
Y731093D01*
Y731066D01*
Y730954D01*
X1142169Y730843D01*
X1142141Y730788D01*
Y730760D01*
X1139337Y724125D01*
X1145778Y717434D01*
X1145917Y717240D01*
X1145972Y717046D01*
X1146000Y716907D01*
Y716879D01*
Y716851D01*
X1145972Y716601D01*
X1145889Y716407D01*
X1145750Y716296D01*
X1145611Y716185D01*
X1145472Y716129D01*
X1145334Y716102D01*
X1145223D01*
X1144973Y716129D01*
X1144806Y716213D01*
X1144667Y716296D01*
X1144640Y716324D01*
X1138671Y722542D01*
X1136144Y716574D01*
X1136061Y716407D01*
X1135922Y716296D01*
X1135811Y716213D01*
X1135673Y716157D01*
X1135561Y716129D01*
X1135478Y716102D01*
X1135395D01*
X1135145Y716129D01*
X1134951Y716213D01*
X1134812Y716351D01*
X1134701Y716490D01*
X1134645Y716629D01*
X1134617Y716768D01*
Y716851D01*
Y716879D01*
Y716990D01*
X1134645Y717101D01*
X1134673Y717157D01*
Y717184D01*
X1137477Y723792D01*
X1131008Y730510D01*
X1130897Y730705D01*
X1130842Y730871D01*
X1130814Y731010D01*
Y731066D01*
X1130842Y731343D01*
X1130925Y731537D01*
X1131064Y731676D01*
X1131203Y731759D01*
X1131342Y731843D01*
X1131480Y731871D01*
X1131591D01*
X1131814Y731815D01*
X1132008Y731732D01*
X1132119Y731648D01*
X1132174Y731593D01*
X1138143Y725374D01*
X1140670Y731371D01*
X1140753Y731537D01*
X1140892Y731648D01*
X1141003Y731759D01*
X1141114Y731815D01*
X1141253Y731843D01*
X1141336Y731871D01*
X1141419D01*
X1141669Y731843D01*
D02*
G37*
G36*
X1126733Y731871D02*
X1126983Y731787D01*
X1127150Y731648D01*
X1127288Y731510D01*
X1127399Y731343D01*
X1127455Y731232D01*
X1127510Y731121D01*
Y731093D01*
X1131258Y717101D01*
X1131286Y716935D01*
Y716879D01*
Y716851D01*
X1131258Y716629D01*
X1131175Y716463D01*
X1131092Y716351D01*
X1131064Y716324D01*
X1130870Y716185D01*
X1130675Y716129D01*
X1130536Y716102D01*
X1130481D01*
X1130287Y716129D01*
X1130120Y716185D01*
X1129981Y716296D01*
X1129898Y716407D01*
X1129759Y716601D01*
X1129731Y716657D01*
Y716685D01*
X1128204Y722404D01*
X1124929D01*
X1124373Y722431D01*
X1123874Y722487D01*
X1123402Y722570D01*
X1122985Y722681D01*
X1122624Y722792D01*
X1122374Y722876D01*
X1122208Y722931D01*
X1122152Y722959D01*
X1121680Y723209D01*
X1121264Y723486D01*
X1120875Y723792D01*
X1120542Y724125D01*
X1120209Y724458D01*
X1119931Y724819D01*
X1119709Y725152D01*
X1119487Y725513D01*
X1119321Y725846D01*
X1119154Y726152D01*
X1119043Y726429D01*
X1118932Y726651D01*
X1118849Y726873D01*
X1118793Y727012D01*
X1118765Y727123D01*
Y727151D01*
X1118710Y727401D01*
X1118654Y727679D01*
Y727762D01*
Y727845D01*
Y727901D01*
Y727928D01*
X1118682Y728289D01*
X1118737Y728622D01*
X1118821Y728956D01*
X1118904Y729233D01*
X1119015Y729483D01*
X1119098Y729650D01*
X1119154Y729788D01*
X1119182Y729816D01*
X1119404Y730177D01*
X1119654Y730510D01*
X1119931Y730788D01*
X1120181Y731010D01*
X1120459Y731232D01*
X1120709Y731399D01*
X1120986Y731537D01*
X1121236Y731648D01*
X1121680Y731787D01*
X1121875Y731843D01*
X1122041Y731871D01*
X1122180Y731898D01*
X1126455D01*
X1126733Y731871D01*
D02*
G37*
G36*
X372343Y942621D02*
X372537Y942538D01*
X372676Y942399D01*
X372760Y942260D01*
X372843Y942121D01*
X372871Y941982D01*
Y941649D01*
X372732Y941094D01*
X372565Y940594D01*
X372371Y940094D01*
X372149Y939650D01*
X371927Y939206D01*
X371705Y938817D01*
X371483Y938456D01*
X371260Y938123D01*
X371038Y937818D01*
X370844Y937568D01*
X370650Y937346D01*
X370511Y937152D01*
X370372Y937013D01*
X370261Y936902D01*
X370205Y936846D01*
X370178Y936818D01*
X369484Y936235D01*
X368762Y935736D01*
X368012Y935347D01*
X367318Y935014D01*
X366985Y934875D01*
X366707Y934764D01*
X366430Y934681D01*
X366208Y934597D01*
X366013Y934542D01*
X365874Y934486D01*
X365791Y934459D01*
X365764D01*
X361016Y933182D01*
X360794Y933126D01*
X360572Y933098D01*
X360433D01*
X360405D01*
X360378D01*
X360100Y933126D01*
X359795Y933182D01*
X359545Y933237D01*
X359323Y933320D01*
X359101Y933404D01*
X358962Y933487D01*
X358851Y933515D01*
X358823Y933542D01*
X358517Y933737D01*
X358268Y933931D01*
X358018Y934153D01*
X357823Y934375D01*
X357657Y934597D01*
X357518Y934820D01*
X357324Y935264D01*
X357185Y935625D01*
X357129Y935930D01*
X357102Y936041D01*
Y936208D01*
X357129Y936735D01*
X357157Y937235D01*
X357213Y937651D01*
X357296Y938012D01*
X357379Y938290D01*
X357435Y938512D01*
X357463Y938623D01*
X357490Y938679D01*
X357657Y939012D01*
X357879Y939345D01*
X358101Y939650D01*
X358379Y939900D01*
X358962Y940372D01*
X359572Y940733D01*
X360128Y941038D01*
X360378Y941122D01*
X360600Y941233D01*
X360794Y941288D01*
X360933Y941344D01*
X361016Y941371D01*
X361044D01*
X362599Y941788D01*
X362904Y941843D01*
X363182Y941899D01*
X363293D01*
X363376D01*
X363432D01*
X363459D01*
X363959Y941871D01*
X364403Y941760D01*
X364792Y941621D01*
X365097Y941455D01*
X365375Y941288D01*
X365541Y941149D01*
X365680Y941038D01*
X365708Y941011D01*
X365986Y940650D01*
X366208Y940289D01*
X366347Y939900D01*
X366457Y939567D01*
X366513Y939234D01*
X366569Y938984D01*
Y936402D01*
X366985Y936541D01*
X367401Y936735D01*
X367762Y936929D01*
X368123Y937179D01*
X368790Y937679D01*
X369317Y938207D01*
X369567Y938456D01*
X369761Y938679D01*
X369928Y938901D01*
X370067Y939095D01*
X370205Y939261D01*
X370289Y939373D01*
X370317Y939456D01*
X370344Y939484D01*
X370622Y939983D01*
X370844Y940455D01*
X371011Y940900D01*
X371122Y941316D01*
X371233Y941649D01*
X371288Y941899D01*
X371316Y942066D01*
Y942121D01*
X371371Y942288D01*
X371483Y942426D01*
X371594Y942510D01*
X371732Y942593D01*
X371843Y942621D01*
X371954Y942648D01*
X372038D01*
X372066D01*
X372343Y942621D01*
D02*
G37*
G36*
X370067Y932127D02*
X370372Y932099D01*
X370650Y932016D01*
X370872Y931932D01*
X371066Y931849D01*
X371205Y931794D01*
X371316Y931738D01*
X371344Y931710D01*
X371621Y931544D01*
X371871Y931321D01*
X372066Y931127D01*
X372232Y930905D01*
X372510Y930461D01*
X372704Y930017D01*
X372815Y929628D01*
X372871Y929323D01*
X372898Y929184D01*
Y929017D01*
X372871Y928462D01*
X372787Y927962D01*
X372676Y927490D01*
X372537Y927102D01*
X372399Y926768D01*
X372288Y926519D01*
X372204Y926380D01*
X372177Y926324D01*
X371927Y925963D01*
X371621Y925602D01*
X371288Y925269D01*
X370983Y924936D01*
X370677Y924686D01*
X370455Y924492D01*
X370289Y924353D01*
X370261Y924298D01*
X370233D01*
X370067Y924187D01*
X369900Y924131D01*
X369789Y924103D01*
X369734D01*
X369511Y924131D01*
X369317Y924214D01*
X369206Y924298D01*
X369151Y924325D01*
X369012Y924520D01*
X368956Y924686D01*
X368928Y924825D01*
Y924881D01*
X368956Y925020D01*
X368984Y925131D01*
X369095Y925297D01*
X369178Y925436D01*
X369234Y925464D01*
X369622Y925797D01*
X369928Y926130D01*
X370039Y926241D01*
X370122Y926352D01*
X370178Y926408D01*
X370205Y926435D01*
X370566Y926880D01*
X370844Y927296D01*
X371038Y927657D01*
X371177Y927962D01*
X371260Y928240D01*
X371288Y928407D01*
X371316Y928545D01*
Y928573D01*
X371288Y928934D01*
X371260Y929239D01*
X371177Y929489D01*
X371066Y929739D01*
X370955Y929933D01*
X370816Y930072D01*
X370677Y930211D01*
X370539Y930322D01*
X370233Y930461D01*
X369983Y930544D01*
X369872Y930572D01*
X369789D01*
X369761D01*
X369734D01*
X369373Y930544D01*
X369012Y930433D01*
X368651Y930267D01*
X368345Y930100D01*
X368068Y929906D01*
X367873Y929767D01*
X367735Y929656D01*
X367679Y929600D01*
X358406Y921133D01*
X358240Y921022D01*
X358073Y920966D01*
X357934Y920938D01*
X357907D01*
X357879D01*
X357629Y920966D01*
X357435Y921049D01*
X357296Y921188D01*
X357213Y921327D01*
X357157Y921466D01*
X357102Y921605D01*
Y928240D01*
X357129Y928518D01*
X357213Y928712D01*
X357351Y928851D01*
X357490Y928934D01*
X357629Y929017D01*
X357768Y929045D01*
X357851D01*
X357879D01*
X358157Y929017D01*
X358351Y928934D01*
X358490Y928795D01*
X358573Y928656D01*
X358656Y928490D01*
X358684Y928379D01*
Y923520D01*
X366596Y930739D01*
X366902Y930988D01*
X367179Y931210D01*
X367457Y931405D01*
X367735Y931571D01*
X368290Y931821D01*
X368762Y931988D01*
X369178Y932071D01*
X369345Y932099D01*
X369484Y932127D01*
X369595Y932154D01*
X369678D01*
X369734D01*
X369761D01*
X370067Y932127D01*
D02*
G37*
G36*
X372371Y921383D02*
X372565Y921299D01*
X372704Y921161D01*
X372787Y921022D01*
X372871Y920883D01*
X372898Y920744D01*
Y917579D01*
X372843Y916857D01*
X372732Y916191D01*
X372537Y915580D01*
X372288Y915053D01*
X371982Y914581D01*
X371649Y914165D01*
X371288Y913804D01*
X370927Y913470D01*
X370539Y913221D01*
X370178Y912999D01*
X369845Y912804D01*
X369539Y912665D01*
X369289Y912582D01*
X369095Y912499D01*
X368984Y912443D01*
X368928D01*
X361044Y910333D01*
X360822Y910278D01*
X360600Y910250D01*
X360461D01*
X360433D01*
X360405D01*
X359961Y910278D01*
X359545Y910389D01*
X359156Y910555D01*
X358823Y910722D01*
X358517Y910889D01*
X358323Y911055D01*
X358184Y911166D01*
X358129Y911194D01*
X357796Y911555D01*
X357546Y911916D01*
X357351Y912277D01*
X357240Y912610D01*
X357157Y912915D01*
X357129Y913137D01*
X357102Y913276D01*
Y916830D01*
X357129Y917079D01*
X357213Y917274D01*
X357351Y917413D01*
X357490Y917524D01*
X357629Y917579D01*
X357768Y917607D01*
X357851D01*
X357879D01*
X358157Y917579D01*
X358351Y917496D01*
X358490Y917357D01*
X358573Y917218D01*
X358656Y917079D01*
X358684Y916941D01*
Y913776D01*
X358712Y913498D01*
X358767Y913221D01*
X358823Y912999D01*
X358934Y912804D01*
X359017Y912638D01*
X359073Y912526D01*
X359128Y912443D01*
X359156Y912415D01*
X359350Y912221D01*
X359572Y912082D01*
X359795Y911999D01*
X359989Y911944D01*
X360183Y911888D01*
X360322Y911860D01*
X360433D01*
X360461D01*
X360683Y911888D01*
X360850Y911916D01*
X360988Y911944D01*
X361044D01*
X368928Y914081D01*
X369289Y914192D01*
X369622Y914359D01*
X369900Y914553D01*
X370150Y914747D01*
X370344Y914914D01*
X370511Y915081D01*
X370594Y915192D01*
X370622Y915219D01*
X370844Y915580D01*
X371011Y915913D01*
X371149Y916247D01*
X371233Y916524D01*
X371288Y916802D01*
X371316Y916996D01*
Y920633D01*
X371344Y920883D01*
X371427Y921077D01*
X371566Y921216D01*
X371705Y921327D01*
X371843Y921383D01*
X371982Y921410D01*
X372066D01*
X372093D01*
X372371Y921383D01*
D02*
G37*
G36*
X864317Y362871D02*
X864817Y362787D01*
X865288Y362676D01*
X865677Y362537D01*
X866010Y362399D01*
X866260Y362288D01*
X866399Y362204D01*
X866455Y362177D01*
X866815Y361927D01*
X867176Y361621D01*
X867510Y361288D01*
X867843Y360983D01*
X868092Y360677D01*
X868287Y360455D01*
X868426Y360289D01*
X868481Y360261D01*
Y360233D01*
X868592Y360067D01*
X868648Y359900D01*
X868676Y359789D01*
Y359733D01*
X868648Y359511D01*
X868565Y359317D01*
X868481Y359206D01*
X868453Y359150D01*
X868259Y359012D01*
X868092Y358956D01*
X867954Y358928D01*
X867898D01*
X867759Y358956D01*
X867648Y358984D01*
X867482Y359095D01*
X867343Y359178D01*
X867315Y359234D01*
X866982Y359622D01*
X866649Y359928D01*
X866538Y360039D01*
X866427Y360122D01*
X866371Y360178D01*
X866344Y360205D01*
X865899Y360566D01*
X865483Y360844D01*
X865122Y361038D01*
X864817Y361177D01*
X864539Y361260D01*
X864372Y361288D01*
X864234Y361316D01*
X864206D01*
X863845Y361288D01*
X863540Y361260D01*
X863290Y361177D01*
X863040Y361066D01*
X862846Y360955D01*
X862707Y360816D01*
X862568Y360677D01*
X862457Y360538D01*
X862318Y360233D01*
X862235Y359983D01*
X862207Y359872D01*
Y359789D01*
Y359761D01*
Y359733D01*
X862235Y359372D01*
X862346Y359012D01*
X862512Y358651D01*
X862679Y358345D01*
X862873Y358068D01*
X863012Y357873D01*
X863123Y357735D01*
X863179Y357679D01*
X871646Y348406D01*
X871757Y348240D01*
X871813Y348073D01*
X871840Y347934D01*
Y347907D01*
Y347879D01*
X871813Y347629D01*
X871729Y347435D01*
X871591Y347296D01*
X871452Y347213D01*
X871313Y347157D01*
X871174Y347102D01*
X864539D01*
X864261Y347129D01*
X864067Y347213D01*
X863928Y347351D01*
X863845Y347490D01*
X863762Y347629D01*
X863734Y347768D01*
Y347851D01*
Y347879D01*
X863762Y348157D01*
X863845Y348351D01*
X863984Y348490D01*
X864122Y348573D01*
X864289Y348656D01*
X864400Y348684D01*
X869258D01*
X862040Y356596D01*
X861790Y356902D01*
X861568Y357179D01*
X861374Y357457D01*
X861208Y357735D01*
X860958Y358290D01*
X860791Y358762D01*
X860708Y359178D01*
X860680Y359345D01*
X860652Y359484D01*
X860624Y359595D01*
Y359678D01*
Y359733D01*
Y359761D01*
X860652Y360067D01*
X860680Y360372D01*
X860763Y360650D01*
X860847Y360872D01*
X860930Y361066D01*
X860985Y361205D01*
X861041Y361316D01*
X861069Y361344D01*
X861235Y361621D01*
X861457Y361871D01*
X861652Y362066D01*
X861874Y362232D01*
X862318Y362510D01*
X862762Y362704D01*
X863151Y362815D01*
X863456Y362871D01*
X863595Y362898D01*
X863762D01*
X864317Y362871D01*
D02*
G37*
G36*
X877282D02*
X877726Y362843D01*
X878115Y362760D01*
X878503Y362649D01*
X879170Y362399D01*
X879475Y362232D01*
X879725Y362093D01*
X879975Y361954D01*
X880197Y361788D01*
X880363Y361649D01*
X880502Y361538D01*
X880613Y361427D01*
X880724Y361371D01*
X880752Y361316D01*
X880780Y361288D01*
X881002Y361011D01*
X881196Y360733D01*
X881529Y360205D01*
X881751Y359678D01*
X881890Y359206D01*
X882001Y358789D01*
X882029Y358623D01*
Y358456D01*
X882057Y358345D01*
Y358262D01*
Y358206D01*
Y358179D01*
X882029Y357901D01*
X882001Y357623D01*
X881946Y357374D01*
X881863Y357152D01*
X881807Y356957D01*
X881751Y356818D01*
X881724Y356707D01*
X881696Y356680D01*
X881529Y356430D01*
X881363Y356180D01*
X881196Y356013D01*
X881030Y355847D01*
X880891Y355736D01*
X880780Y355625D01*
X880697Y355597D01*
X880669Y355569D01*
X876699Y353293D01*
X876393Y353098D01*
X876171Y352848D01*
X876032Y352626D01*
X875921Y352404D01*
X875866Y352182D01*
X875810Y352016D01*
Y351904D01*
Y351877D01*
X875838Y351516D01*
X875894Y351183D01*
X875977Y350877D01*
X876060Y350627D01*
X876171Y350405D01*
X876255Y350266D01*
X876310Y350155D01*
X876338Y350128D01*
X876532Y349878D01*
X876754Y349656D01*
X876976Y349461D01*
X877198Y349295D01*
X877643Y349045D01*
X878087Y348878D01*
X878448Y348767D01*
X878753Y348712D01*
X878864Y348684D01*
X879031D01*
X879447Y348712D01*
X879836Y348740D01*
X880613Y348906D01*
X881335Y349128D01*
X881974Y349406D01*
X882251Y349517D01*
X882501Y349656D01*
X882723Y349767D01*
X882890Y349878D01*
X883056Y349961D01*
X883167Y350044D01*
X883223Y350072D01*
X883251Y350100D01*
X883417Y350183D01*
X883556Y350211D01*
X883667Y350239D01*
X883695D01*
X883917Y350211D01*
X884111Y350128D01*
X884222Y350044D01*
X884278Y350017D01*
X884417Y349850D01*
X884472Y349656D01*
X884500Y349517D01*
Y349489D01*
Y349461D01*
X884472Y349323D01*
X884445Y349212D01*
X884333Y349017D01*
X884250Y348906D01*
X884195Y348851D01*
X883584Y348434D01*
X883306Y348240D01*
X883084Y348101D01*
X882890Y347990D01*
X882751Y347907D01*
X882640Y347851D01*
X882612Y347823D01*
X882057Y347574D01*
X881529Y347407D01*
X880974Y347268D01*
X880502Y347185D01*
X880086Y347129D01*
X879892D01*
X879753Y347102D01*
X879447D01*
X878948Y347129D01*
X878476Y347185D01*
X878031Y347268D01*
X877615Y347379D01*
X877226Y347518D01*
X876893Y347685D01*
X876588Y347851D01*
X876310Y348018D01*
X876060Y348184D01*
X875866Y348351D01*
X875672Y348517D01*
X875533Y348656D01*
X875422Y348767D01*
X875339Y348851D01*
X875311Y348906D01*
X875283Y348934D01*
X874922Y349489D01*
X874644Y350017D01*
X874450Y350516D01*
X874339Y350961D01*
X874256Y351349D01*
X874228Y351655D01*
X874200Y351766D01*
Y351849D01*
Y351877D01*
Y351904D01*
X874228Y352210D01*
X874256Y352515D01*
X874422Y353043D01*
X874644Y353487D01*
X874894Y353848D01*
X875172Y354126D01*
X875394Y354320D01*
X875561Y354431D01*
X875588Y354459D01*
X875616D01*
X879614Y356735D01*
X879892Y356930D01*
X880086Y357179D01*
X880252Y357401D01*
X880336Y357651D01*
X880391Y357846D01*
X880419Y358012D01*
X880447Y358151D01*
Y358179D01*
X880419Y358512D01*
X880363Y358817D01*
X880308Y359067D01*
X880197Y359317D01*
X880114Y359511D01*
X880058Y359650D01*
X880003Y359761D01*
X879975Y359789D01*
X879780Y360067D01*
X879558Y360289D01*
X879336Y360511D01*
X879114Y360677D01*
X878670Y360955D01*
X878226Y361122D01*
X877837Y361233D01*
X877532Y361288D01*
X877421Y361316D01*
X877254D01*
X876449Y361288D01*
X875727Y361205D01*
X875089Y361094D01*
X874561Y360955D01*
X874311Y360900D01*
X874117Y360816D01*
X873950Y360761D01*
X873811Y360705D01*
X873673Y360650D01*
X873589Y360622D01*
X873562Y360594D01*
X873534D01*
X873395Y360538D01*
X873284Y360511D01*
X873173D01*
X872951Y360538D01*
X872784Y360622D01*
X872673Y360705D01*
X872645Y360733D01*
X872507Y360927D01*
X872423Y361122D01*
X872396Y361260D01*
Y361288D01*
Y361316D01*
X872423Y361483D01*
X872451Y361621D01*
X872590Y361843D01*
X872757Y361982D01*
X872784Y362010D01*
X872812D01*
X873201Y362177D01*
X873589Y362315D01*
X873728Y362371D01*
X873839Y362426D01*
X873923Y362454D01*
X873950D01*
X874478Y362593D01*
X874977Y362704D01*
X875450Y362787D01*
X875894Y362843D01*
X876282Y362871D01*
X876588Y362898D01*
X876838D01*
X877282Y362871D01*
D02*
G37*
G36*
X652400Y630871D02*
X652900Y630787D01*
X653372Y630676D01*
X653761Y630537D01*
X654094Y630399D01*
X654344Y630288D01*
X654483Y630204D01*
X654538Y630177D01*
X654899Y629927D01*
X655260Y629621D01*
X655593Y629288D01*
X655926Y628983D01*
X656176Y628677D01*
X656370Y628455D01*
X656509Y628289D01*
X656565Y628261D01*
Y628233D01*
X656676Y628067D01*
X656731Y627900D01*
X656759Y627789D01*
Y627733D01*
X656731Y627511D01*
X656648Y627317D01*
X656565Y627206D01*
X656537Y627150D01*
X656343Y627012D01*
X656176Y626956D01*
X656037Y626928D01*
X655982D01*
X655843Y626956D01*
X655732Y626984D01*
X655565Y627095D01*
X655426Y627178D01*
X655399Y627234D01*
X655066Y627622D01*
X654733Y627928D01*
X654621Y628039D01*
X654510Y628122D01*
X654455Y628178D01*
X654427Y628205D01*
X653983Y628566D01*
X653567Y628844D01*
X653206Y629038D01*
X652900Y629177D01*
X652623Y629260D01*
X652456Y629288D01*
X652317Y629316D01*
X652289D01*
X651928Y629288D01*
X651623Y629260D01*
X651373Y629177D01*
X651123Y629066D01*
X650929Y628955D01*
X650790Y628816D01*
X650651Y628677D01*
X650540Y628539D01*
X650402Y628233D01*
X650318Y627983D01*
X650291Y627872D01*
Y627789D01*
Y627761D01*
Y627733D01*
X650318Y627373D01*
X650429Y627012D01*
X650596Y626651D01*
X650762Y626345D01*
X650957Y626068D01*
X651096Y625873D01*
X651207Y625735D01*
X651262Y625679D01*
X659730Y616407D01*
X659841Y616240D01*
X659896Y616073D01*
X659924Y615934D01*
Y615907D01*
Y615879D01*
X659896Y615629D01*
X659813Y615435D01*
X659674Y615296D01*
X659535Y615213D01*
X659397Y615157D01*
X659258Y615102D01*
X652623D01*
X652345Y615129D01*
X652151Y615213D01*
X652012Y615351D01*
X651928Y615490D01*
X651845Y615629D01*
X651817Y615768D01*
Y615851D01*
Y615879D01*
X651845Y616157D01*
X651928Y616351D01*
X652067Y616490D01*
X652206Y616573D01*
X652373Y616656D01*
X652484Y616684D01*
X657342D01*
X650124Y624596D01*
X649874Y624902D01*
X649652Y625179D01*
X649458Y625457D01*
X649291Y625735D01*
X649041Y626290D01*
X648875Y626762D01*
X648791Y627178D01*
X648764Y627345D01*
X648736Y627484D01*
X648708Y627595D01*
Y627678D01*
Y627733D01*
Y627761D01*
X648736Y628067D01*
X648764Y628372D01*
X648847Y628650D01*
X648930Y628872D01*
X649014Y629066D01*
X649069Y629205D01*
X649125Y629316D01*
X649152Y629344D01*
X649319Y629621D01*
X649541Y629871D01*
X649735Y630065D01*
X649957Y630232D01*
X650402Y630510D01*
X650846Y630704D01*
X651234Y630815D01*
X651540Y630871D01*
X651679Y630898D01*
X651845D01*
X652400Y630871D01*
D02*
G37*
G36*
X668447D02*
X668697Y630787D01*
X668863Y630648D01*
X669002Y630510D01*
X669113Y630343D01*
X669169Y630232D01*
X669224Y630121D01*
Y630093D01*
X672972Y616101D01*
X673000Y615934D01*
Y615879D01*
Y615851D01*
X672972Y615629D01*
X672889Y615463D01*
X672806Y615351D01*
X672778Y615324D01*
X672584Y615185D01*
X672389Y615129D01*
X672250Y615102D01*
X672195D01*
X672001Y615129D01*
X671834Y615185D01*
X671695Y615296D01*
X671612Y615407D01*
X671473Y615601D01*
X671445Y615657D01*
Y615685D01*
X669918Y621404D01*
X666254D01*
X664810Y615685D01*
X664727Y615490D01*
X664644Y615351D01*
X664505Y615241D01*
X664394Y615185D01*
X664255Y615129D01*
X664144Y615102D01*
X664061D01*
X663783Y615129D01*
X663589Y615213D01*
X663450Y615351D01*
X663366Y615490D01*
X663283Y615629D01*
X663255Y615768D01*
Y615851D01*
Y615879D01*
Y616018D01*
X663283Y616046D01*
Y616073D01*
X664699Y621681D01*
X664310Y621820D01*
X663950Y621959D01*
X663644Y622126D01*
X663366Y622264D01*
X663117Y622403D01*
X662950Y622514D01*
X662839Y622598D01*
X662811Y622625D01*
X662228Y623125D01*
X661729Y623708D01*
X661312Y624291D01*
X661007Y624846D01*
X660757Y625374D01*
X660674Y625596D01*
X660590Y625790D01*
X660535Y625929D01*
X660507Y626040D01*
X660479Y626123D01*
Y626151D01*
X660424Y626401D01*
X660368Y626679D01*
Y626762D01*
Y626845D01*
Y626901D01*
Y626928D01*
X660396Y627289D01*
X660452Y627622D01*
X660535Y627956D01*
X660618Y628233D01*
X660729Y628483D01*
X660812Y628650D01*
X660868Y628788D01*
X660896Y628816D01*
X661118Y629177D01*
X661368Y629510D01*
X661645Y629788D01*
X661895Y630010D01*
X662173Y630232D01*
X662423Y630399D01*
X662700Y630537D01*
X662950Y630648D01*
X663394Y630787D01*
X663589Y630843D01*
X663755Y630871D01*
X663894Y630898D01*
X668169D01*
X668447Y630871D01*
D02*
G37*
G36*
X644155D02*
X644349Y630787D01*
X644488Y630648D01*
X644572Y630510D01*
X644627Y630343D01*
X644683Y630232D01*
Y630121D01*
Y630093D01*
X644655Y629843D01*
X644572Y629649D01*
X644433Y629510D01*
X644294Y629427D01*
X644155Y629371D01*
X644016Y629316D01*
X640824D01*
X640490Y629288D01*
X640185Y629233D01*
X639935Y629149D01*
X639713Y629066D01*
X639519Y628927D01*
X639380Y628788D01*
X639241Y628622D01*
X639158Y628483D01*
X639019Y628150D01*
X638936Y627900D01*
X638908Y627789D01*
Y627706D01*
Y627650D01*
Y627622D01*
X638936Y627400D01*
X638964Y627178D01*
X638991Y627012D01*
X639019Y626956D01*
Y626928D01*
X639075Y626706D01*
X639186Y626484D01*
X639269Y626262D01*
X639380Y626096D01*
X639491Y625957D01*
X639574Y625846D01*
X639630Y625762D01*
X639658Y625735D01*
X640046Y625346D01*
X640463Y625068D01*
X640879Y624846D01*
X641268Y624707D01*
X641601Y624624D01*
X641851Y624596D01*
X641962Y624569D01*
X643961D01*
X644211Y624541D01*
X644405Y624458D01*
X644544Y624319D01*
X644627Y624180D01*
X644683Y624013D01*
X644738Y623902D01*
Y623791D01*
Y623764D01*
X644710Y623514D01*
X644627Y623319D01*
X644488Y623181D01*
X644349Y623097D01*
X644211Y623042D01*
X644072Y622986D01*
X642517D01*
X642184Y622958D01*
X641879Y622931D01*
X641629Y622847D01*
X641379Y622764D01*
X641212Y622653D01*
X641046Y622514D01*
X640907Y622375D01*
X640824Y622264D01*
X640685Y621987D01*
X640602Y621737D01*
X640574Y621570D01*
Y621543D01*
Y621515D01*
X640602Y621209D01*
X640629Y620904D01*
X640657Y620793D01*
X640685Y620682D01*
X640713Y620626D01*
Y620599D01*
X641129Y619044D01*
X641240Y618683D01*
X641407Y618350D01*
X641601Y618072D01*
X641795Y617822D01*
X641990Y617628D01*
X642156Y617489D01*
X642267Y617378D01*
X642295Y617350D01*
X642628Y617128D01*
X642989Y616962D01*
X643322Y616851D01*
X643600Y616767D01*
X643877Y616712D01*
X644072Y616684D01*
X647681D01*
X647959Y616656D01*
X648153Y616573D01*
X648292Y616434D01*
X648375Y616295D01*
X648430Y616129D01*
X648486Y616018D01*
Y615907D01*
Y615879D01*
X648458Y615629D01*
X648347Y615435D01*
X648236Y615296D01*
X648070Y615213D01*
X647931Y615157D01*
X647792Y615102D01*
X644655D01*
X644155Y615129D01*
X643711Y615157D01*
X643294Y615241D01*
X642961Y615324D01*
X642656Y615379D01*
X642462Y615463D01*
X642323Y615490D01*
X642267Y615518D01*
X641879Y615712D01*
X641545Y615934D01*
X641240Y616184D01*
X640962Y616434D01*
X640713Y616740D01*
X640463Y617017D01*
X640102Y617628D01*
X639824Y618156D01*
X639713Y618405D01*
X639630Y618628D01*
X639574Y618794D01*
X639519Y618933D01*
X639491Y619016D01*
Y619044D01*
X639075Y620599D01*
X639019Y620932D01*
X638964Y621237D01*
Y621348D01*
Y621431D01*
Y621487D01*
Y621515D01*
Y621820D01*
X638991Y622070D01*
X639102Y622542D01*
X639269Y622903D01*
X639436Y623181D01*
X639630Y623375D01*
X639769Y623514D01*
X639880Y623569D01*
X639935Y623597D01*
X639602Y623764D01*
X639269Y623958D01*
X638991Y624180D01*
X638741Y624430D01*
X638297Y624985D01*
X637936Y625540D01*
X637687Y626068D01*
X637603Y626318D01*
X637520Y626512D01*
X637464Y626679D01*
X637409Y626817D01*
X637381Y626901D01*
Y626928D01*
X637326Y627206D01*
X637298Y627428D01*
Y627622D01*
Y627650D01*
Y627678D01*
X637326Y627983D01*
X637353Y628261D01*
X637409Y628511D01*
X637492Y628761D01*
X637575Y628955D01*
X637631Y629094D01*
X637659Y629205D01*
X637687Y629233D01*
X637853Y629538D01*
X638047Y629788D01*
X638270Y630010D01*
X638464Y630204D01*
X638686Y630371D01*
X638936Y630482D01*
X639380Y630704D01*
X639769Y630815D01*
X640102Y630871D01*
X640241Y630898D01*
X643905D01*
X644155Y630871D01*
D02*
G37*
G36*
X662401Y658871D02*
X662900Y658787D01*
X663372Y658676D01*
X663761Y658538D01*
X664094Y658399D01*
X664344Y658288D01*
X664483Y658204D01*
X664538Y658177D01*
X664899Y657927D01*
X665260Y657621D01*
X665593Y657288D01*
X665926Y656983D01*
X666176Y656677D01*
X666370Y656455D01*
X666509Y656289D01*
X666565Y656261D01*
Y656233D01*
X666676Y656067D01*
X666731Y655900D01*
X666759Y655789D01*
Y655733D01*
X666731Y655511D01*
X666648Y655317D01*
X666565Y655206D01*
X666537Y655151D01*
X666343Y655012D01*
X666176Y654956D01*
X666037Y654928D01*
X665982D01*
X665843Y654956D01*
X665732Y654984D01*
X665565Y655095D01*
X665426Y655178D01*
X665399Y655234D01*
X665066Y655622D01*
X664733Y655928D01*
X664621Y656039D01*
X664510Y656122D01*
X664455Y656178D01*
X664427Y656205D01*
X663983Y656566D01*
X663567Y656844D01*
X663206Y657038D01*
X662900Y657177D01*
X662623Y657260D01*
X662456Y657288D01*
X662317Y657316D01*
X662289D01*
X661928Y657288D01*
X661623Y657260D01*
X661373Y657177D01*
X661123Y657066D01*
X660929Y656955D01*
X660790Y656816D01*
X660651Y656677D01*
X660540Y656539D01*
X660402Y656233D01*
X660318Y655983D01*
X660291Y655872D01*
Y655789D01*
Y655761D01*
Y655733D01*
X660318Y655373D01*
X660429Y655012D01*
X660596Y654651D01*
X660762Y654345D01*
X660957Y654068D01*
X661096Y653873D01*
X661207Y653735D01*
X661262Y653679D01*
X669730Y644407D01*
X669841Y644240D01*
X669896Y644073D01*
X669924Y643935D01*
Y643907D01*
Y643879D01*
X669896Y643629D01*
X669813Y643435D01*
X669674Y643296D01*
X669535Y643213D01*
X669397Y643157D01*
X669258Y643102D01*
X662623D01*
X662345Y643129D01*
X662151Y643213D01*
X662012Y643352D01*
X661928Y643490D01*
X661845Y643629D01*
X661817Y643768D01*
Y643851D01*
Y643879D01*
X661845Y644157D01*
X661928Y644351D01*
X662067Y644490D01*
X662206Y644573D01*
X662373Y644656D01*
X662484Y644684D01*
X667342D01*
X660124Y652596D01*
X659874Y652902D01*
X659652Y653179D01*
X659458Y653457D01*
X659291Y653735D01*
X659041Y654290D01*
X658875Y654762D01*
X658791Y655178D01*
X658764Y655345D01*
X658736Y655484D01*
X658708Y655595D01*
Y655678D01*
Y655733D01*
Y655761D01*
X658736Y656067D01*
X658764Y656372D01*
X658847Y656650D01*
X658930Y656872D01*
X659014Y657066D01*
X659069Y657205D01*
X659125Y657316D01*
X659152Y657344D01*
X659319Y657621D01*
X659541Y657871D01*
X659735Y658065D01*
X659957Y658232D01*
X660402Y658510D01*
X660846Y658704D01*
X661234Y658815D01*
X661540Y658871D01*
X661679Y658898D01*
X661845D01*
X662401Y658871D01*
D02*
G37*
G36*
X650962D02*
X651462Y658787D01*
X651934Y658676D01*
X652323Y658538D01*
X652656Y658399D01*
X652906Y658288D01*
X653045Y658204D01*
X653100Y658177D01*
X653461Y657927D01*
X653822Y657621D01*
X654155Y657288D01*
X654488Y656983D01*
X654738Y656677D01*
X654932Y656455D01*
X655071Y656289D01*
X655127Y656261D01*
Y656233D01*
X655238Y656067D01*
X655293Y655900D01*
X655321Y655789D01*
Y655733D01*
X655293Y655511D01*
X655210Y655317D01*
X655127Y655206D01*
X655099Y655151D01*
X654905Y655012D01*
X654738Y654956D01*
X654599Y654928D01*
X654544D01*
X654405Y654956D01*
X654294Y654984D01*
X654127Y655095D01*
X653988Y655178D01*
X653961Y655234D01*
X653628Y655622D01*
X653295Y655928D01*
X653183Y656039D01*
X653072Y656122D01*
X653017Y656178D01*
X652989Y656205D01*
X652545Y656566D01*
X652128Y656844D01*
X651768Y657038D01*
X651462Y657177D01*
X651184Y657260D01*
X651018Y657288D01*
X650879Y657316D01*
X650851D01*
X650490Y657288D01*
X650185Y657260D01*
X649935Y657177D01*
X649685Y657066D01*
X649491Y656955D01*
X649352Y656816D01*
X649213Y656677D01*
X649102Y656539D01*
X648963Y656233D01*
X648880Y655983D01*
X648852Y655872D01*
Y655789D01*
Y655761D01*
Y655733D01*
X648880Y655373D01*
X648991Y655012D01*
X649158Y654651D01*
X649324Y654345D01*
X649519Y654068D01*
X649658Y653873D01*
X649769Y653735D01*
X649824Y653679D01*
X658292Y644407D01*
X658403Y644240D01*
X658458Y644073D01*
X658486Y643935D01*
Y643907D01*
Y643879D01*
X658458Y643629D01*
X658375Y643435D01*
X658236Y643296D01*
X658097Y643213D01*
X657959Y643157D01*
X657820Y643102D01*
X651184D01*
X650907Y643129D01*
X650713Y643213D01*
X650574Y643352D01*
X650490Y643490D01*
X650407Y643629D01*
X650379Y643768D01*
Y643851D01*
Y643879D01*
X650407Y644157D01*
X650490Y644351D01*
X650629Y644490D01*
X650768Y644573D01*
X650935Y644656D01*
X651046Y644684D01*
X655904D01*
X648686Y652596D01*
X648436Y652902D01*
X648214Y653179D01*
X648020Y653457D01*
X647853Y653735D01*
X647603Y654290D01*
X647437Y654762D01*
X647353Y655178D01*
X647326Y655345D01*
X647298Y655484D01*
X647270Y655595D01*
Y655678D01*
Y655733D01*
Y655761D01*
X647298Y656067D01*
X647326Y656372D01*
X647409Y656650D01*
X647492Y656872D01*
X647575Y657066D01*
X647631Y657205D01*
X647686Y657316D01*
X647714Y657344D01*
X647881Y657621D01*
X648103Y657871D01*
X648297Y658065D01*
X648519Y658232D01*
X648963Y658510D01*
X649408Y658704D01*
X649796Y658815D01*
X650102Y658871D01*
X650241Y658898D01*
X650407D01*
X650962Y658871D01*
D02*
G37*
G36*
X678447D02*
X678697Y658787D01*
X678863Y658649D01*
X679002Y658510D01*
X679113Y658343D01*
X679169Y658232D01*
X679224Y658121D01*
Y658093D01*
X682972Y644101D01*
X683000Y643935D01*
Y643879D01*
Y643851D01*
X682972Y643629D01*
X682889Y643463D01*
X682806Y643352D01*
X682778Y643324D01*
X682584Y643185D01*
X682389Y643129D01*
X682250Y643102D01*
X682195D01*
X682001Y643129D01*
X681834Y643185D01*
X681695Y643296D01*
X681612Y643407D01*
X681473Y643601D01*
X681445Y643657D01*
Y643685D01*
X679918Y649404D01*
X676254D01*
X674810Y643685D01*
X674727Y643490D01*
X674644Y643352D01*
X674505Y643241D01*
X674394Y643185D01*
X674255Y643129D01*
X674144Y643102D01*
X674061D01*
X673783Y643129D01*
X673589Y643213D01*
X673450Y643352D01*
X673366Y643490D01*
X673283Y643629D01*
X673255Y643768D01*
Y643851D01*
Y643879D01*
Y644018D01*
X673283Y644046D01*
Y644073D01*
X674699Y649681D01*
X674310Y649820D01*
X673950Y649959D01*
X673644Y650126D01*
X673366Y650264D01*
X673117Y650403D01*
X672950Y650514D01*
X672839Y650598D01*
X672811Y650625D01*
X672228Y651125D01*
X671729Y651708D01*
X671312Y652291D01*
X671007Y652846D01*
X670757Y653374D01*
X670674Y653596D01*
X670590Y653790D01*
X670535Y653929D01*
X670507Y654040D01*
X670479Y654123D01*
Y654151D01*
X670424Y654401D01*
X670368Y654678D01*
Y654762D01*
Y654845D01*
Y654901D01*
Y654928D01*
X670396Y655289D01*
X670452Y655622D01*
X670535Y655956D01*
X670618Y656233D01*
X670729Y656483D01*
X670812Y656650D01*
X670868Y656788D01*
X670896Y656816D01*
X671118Y657177D01*
X671368Y657510D01*
X671645Y657788D01*
X671895Y658010D01*
X672173Y658232D01*
X672423Y658399D01*
X672700Y658538D01*
X672950Y658649D01*
X673394Y658787D01*
X673589Y658843D01*
X673755Y658871D01*
X673894Y658898D01*
X678169D01*
X678447Y658871D01*
D02*
G37*
G36*
X297234Y622843D02*
X297400Y622787D01*
X297512Y622732D01*
X297539Y622704D01*
X301648Y619539D01*
X301815Y619373D01*
X301898Y619206D01*
X301953Y619067D01*
Y619039D01*
Y619012D01*
Y618790D01*
X301898Y618595D01*
X301842Y618484D01*
X301815Y618429D01*
X301648Y618290D01*
X301481Y618179D01*
X301343Y618123D01*
X301287D01*
X301037Y618151D01*
X300843Y618207D01*
X300732Y618262D01*
X300676Y618290D01*
X298428Y620039D01*
X301620Y608101D01*
X301676Y607934D01*
Y607879D01*
Y607851D01*
X301648Y607629D01*
X301537Y607463D01*
X301454Y607351D01*
X301426Y607324D01*
X301232Y607185D01*
X301065Y607129D01*
X300926Y607102D01*
X300871D01*
X300676Y607129D01*
X300510Y607185D01*
X300371Y607296D01*
X300288Y607407D01*
X300149Y607601D01*
X300121Y607657D01*
Y607685D01*
X296290Y621843D01*
Y621927D01*
Y622010D01*
Y622066D01*
Y622093D01*
X296318Y622343D01*
X296401Y622537D01*
X296540Y622676D01*
X296679Y622787D01*
X296817Y622843D01*
X296956Y622871D01*
X297067D01*
X297234Y622843D01*
D02*
G37*
G36*
X289072D02*
X289238Y622787D01*
X289349Y622732D01*
X289377Y622704D01*
X293486Y619539D01*
X293652Y619373D01*
X293736Y619206D01*
X293791Y619067D01*
Y619039D01*
Y619012D01*
Y618790D01*
X293736Y618595D01*
X293680Y618484D01*
X293652Y618429D01*
X293486Y618290D01*
X293319Y618179D01*
X293181Y618123D01*
X293125D01*
X292875Y618151D01*
X292681Y618207D01*
X292570Y618262D01*
X292514Y618290D01*
X290266Y620039D01*
X293458Y608101D01*
X293514Y607934D01*
Y607879D01*
Y607851D01*
X293486Y607629D01*
X293375Y607463D01*
X293292Y607351D01*
X293264Y607324D01*
X293069Y607185D01*
X292903Y607129D01*
X292764Y607102D01*
X292709D01*
X292514Y607129D01*
X292348Y607185D01*
X292209Y607296D01*
X292126Y607407D01*
X291987Y607601D01*
X291959Y607657D01*
Y607685D01*
X288128Y621843D01*
Y621927D01*
Y622010D01*
Y622066D01*
Y622093D01*
X288156Y622343D01*
X288239Y622537D01*
X288378Y622676D01*
X288517Y622787D01*
X288655Y622843D01*
X288794Y622871D01*
X288905D01*
X289072Y622843D01*
D02*
G37*
G36*
X313447Y622871D02*
X313697Y622787D01*
X313863Y622649D01*
X314002Y622510D01*
X314113Y622343D01*
X314169Y622232D01*
X314224Y622121D01*
Y622093D01*
X317972Y608101D01*
X318000Y607934D01*
Y607879D01*
Y607851D01*
X317972Y607629D01*
X317889Y607463D01*
X317806Y607351D01*
X317778Y607324D01*
X317584Y607185D01*
X317389Y607129D01*
X317250Y607102D01*
X317195D01*
X317001Y607129D01*
X316834Y607185D01*
X316695Y607296D01*
X316612Y607407D01*
X316473Y607601D01*
X316445Y607657D01*
Y607685D01*
X314918Y613404D01*
X311254D01*
X309810Y607685D01*
X309727Y607490D01*
X309644Y607351D01*
X309505Y607240D01*
X309394Y607185D01*
X309255Y607129D01*
X309144Y607102D01*
X309061D01*
X308783Y607129D01*
X308589Y607213D01*
X308450Y607351D01*
X308367Y607490D01*
X308283Y607629D01*
X308256Y607768D01*
Y607851D01*
Y607879D01*
Y608018D01*
X308283Y608046D01*
Y608073D01*
X309699Y613681D01*
X309310Y613820D01*
X308950Y613959D01*
X308644Y614126D01*
X308367Y614264D01*
X308117Y614403D01*
X307950Y614514D01*
X307839Y614598D01*
X307811Y614625D01*
X307228Y615125D01*
X306728Y615708D01*
X306312Y616291D01*
X306007Y616846D01*
X305757Y617374D01*
X305674Y617596D01*
X305590Y617790D01*
X305535Y617929D01*
X305507Y618040D01*
X305479Y618123D01*
Y618151D01*
X305424Y618401D01*
X305368Y618679D01*
Y618762D01*
Y618845D01*
Y618901D01*
Y618928D01*
X305396Y619289D01*
X305452Y619622D01*
X305535Y619956D01*
X305618Y620233D01*
X305729Y620483D01*
X305812Y620650D01*
X305868Y620788D01*
X305896Y620816D01*
X306118Y621177D01*
X306368Y621510D01*
X306645Y621788D01*
X306895Y622010D01*
X307173Y622232D01*
X307423Y622399D01*
X307700Y622537D01*
X307950Y622649D01*
X308394Y622787D01*
X308589Y622843D01*
X308755Y622871D01*
X308894Y622898D01*
X313169D01*
X313447Y622871D01*
D02*
G37*
G36*
X297234Y660593D02*
X297400Y660537D01*
X297512Y660482D01*
X297539Y660454D01*
X301648Y657289D01*
X301815Y657122D01*
X301898Y656956D01*
X301953Y656817D01*
Y656789D01*
Y656762D01*
Y656540D01*
X301898Y656345D01*
X301842Y656234D01*
X301815Y656179D01*
X301648Y656040D01*
X301481Y655929D01*
X301343Y655873D01*
X301287D01*
X301037Y655901D01*
X300843Y655956D01*
X300732Y656012D01*
X300676Y656040D01*
X298428Y657789D01*
X301620Y645851D01*
X301676Y645685D01*
Y645629D01*
Y645601D01*
X301648Y645379D01*
X301537Y645213D01*
X301454Y645101D01*
X301426Y645074D01*
X301232Y644935D01*
X301065Y644879D01*
X300926Y644852D01*
X300871D01*
X300676Y644879D01*
X300510Y644935D01*
X300371Y645046D01*
X300288Y645157D01*
X300149Y645351D01*
X300121Y645407D01*
Y645435D01*
X296290Y659593D01*
Y659677D01*
Y659760D01*
Y659816D01*
Y659843D01*
X296318Y660093D01*
X296401Y660287D01*
X296540Y660426D01*
X296679Y660537D01*
X296817Y660593D01*
X296956Y660621D01*
X297067D01*
X297234Y660593D01*
D02*
G37*
G36*
X313447Y660621D02*
X313697Y660537D01*
X313863Y660398D01*
X314002Y660260D01*
X314113Y660093D01*
X314169Y659982D01*
X314224Y659871D01*
Y659843D01*
X317972Y645851D01*
X318000Y645685D01*
Y645629D01*
Y645601D01*
X317972Y645379D01*
X317889Y645213D01*
X317806Y645101D01*
X317778Y645074D01*
X317584Y644935D01*
X317389Y644879D01*
X317250Y644852D01*
X317195D01*
X317001Y644879D01*
X316834Y644935D01*
X316695Y645046D01*
X316612Y645157D01*
X316473Y645351D01*
X316445Y645407D01*
Y645435D01*
X314918Y651154D01*
X311254D01*
X309810Y645435D01*
X309727Y645240D01*
X309644Y645101D01*
X309505Y644990D01*
X309394Y644935D01*
X309255Y644879D01*
X309144Y644852D01*
X309061D01*
X308783Y644879D01*
X308589Y644963D01*
X308450Y645101D01*
X308367Y645240D01*
X308283Y645379D01*
X308256Y645518D01*
Y645601D01*
Y645629D01*
Y645768D01*
X308283Y645796D01*
Y645823D01*
X309699Y651431D01*
X309310Y651570D01*
X308950Y651709D01*
X308644Y651876D01*
X308367Y652014D01*
X308117Y652153D01*
X307950Y652264D01*
X307839Y652347D01*
X307811Y652375D01*
X307228Y652875D01*
X306728Y653458D01*
X306312Y654041D01*
X306007Y654596D01*
X305757Y655124D01*
X305674Y655346D01*
X305590Y655540D01*
X305535Y655679D01*
X305507Y655790D01*
X305479Y655873D01*
Y655901D01*
X305424Y656151D01*
X305368Y656429D01*
Y656512D01*
Y656595D01*
Y656651D01*
Y656678D01*
X305396Y657039D01*
X305452Y657372D01*
X305535Y657706D01*
X305618Y657983D01*
X305729Y658233D01*
X305812Y658400D01*
X305868Y658538D01*
X305896Y658566D01*
X306118Y658927D01*
X306368Y659260D01*
X306645Y659538D01*
X306895Y659760D01*
X307173Y659982D01*
X307423Y660149D01*
X307700Y660287D01*
X307950Y660398D01*
X308394Y660537D01*
X308589Y660593D01*
X308755Y660621D01*
X308894Y660648D01*
X313169D01*
X313447Y660621D01*
D02*
G37*
G36*
X289211Y660593D02*
X289738Y660482D01*
X290210Y660287D01*
X290682Y660010D01*
X291098Y659704D01*
X291487Y659371D01*
X291848Y659010D01*
X292181Y658622D01*
X292486Y658233D01*
X292736Y657872D01*
X292959Y657539D01*
X293153Y657234D01*
X293292Y656984D01*
X293403Y656762D01*
X293458Y656651D01*
X293486Y656595D01*
X293847Y655790D01*
X294152Y655040D01*
X294402Y654263D01*
X294652Y653541D01*
X294846Y652847D01*
X294985Y652209D01*
X295124Y651598D01*
X295235Y651015D01*
X295318Y650515D01*
X295374Y650043D01*
X295429Y649627D01*
X295457Y649294D01*
Y649016D01*
X295485Y648822D01*
Y648711D01*
Y648655D01*
X295457Y647989D01*
X295374Y647406D01*
X295235Y646906D01*
X295096Y646462D01*
X294902Y646101D01*
X294680Y645768D01*
X294458Y645518D01*
X294208Y645324D01*
X293958Y645185D01*
X293736Y645046D01*
X293514Y644963D01*
X293319Y644907D01*
X293153Y644879D01*
X293042Y644852D01*
X292931D01*
X292403Y644907D01*
X291876Y645018D01*
X291404Y645213D01*
X290932Y645490D01*
X290515Y645768D01*
X290099Y646129D01*
X289738Y646490D01*
X289405Y646851D01*
X289127Y647211D01*
X288850Y647572D01*
X288628Y647933D01*
X288433Y648239D01*
X288294Y648488D01*
X288183Y648683D01*
X288128Y648794D01*
X288100Y648849D01*
X287739Y649654D01*
X287434Y650432D01*
X287184Y651181D01*
X286934Y651903D01*
X286740Y652597D01*
X286601Y653236D01*
X286462Y653847D01*
X286351Y654430D01*
X286268Y654929D01*
X286212Y655401D01*
X286157Y655818D01*
X286129Y656151D01*
X286101Y656429D01*
Y656623D01*
Y656762D01*
Y656789D01*
X286129Y657456D01*
X286212Y658066D01*
X286351Y658566D01*
X286490Y659010D01*
X286712Y659399D01*
X286906Y659704D01*
X287156Y659954D01*
X287378Y660176D01*
X287628Y660315D01*
X287878Y660454D01*
X288072Y660537D01*
X288267Y660593D01*
X288433Y660621D01*
X288572Y660648D01*
X288683D01*
X289211Y660593D01*
D02*
G37*
G36*
X556447Y654871D02*
X556697Y654787D01*
X556863Y654649D01*
X557002Y654510D01*
X557113Y654343D01*
X557169Y654232D01*
X557224Y654121D01*
Y654093D01*
X560972Y640101D01*
X561000Y639935D01*
Y639879D01*
Y639851D01*
X560972Y639629D01*
X560889Y639463D01*
X560806Y639352D01*
X560778Y639324D01*
X560584Y639185D01*
X560389Y639129D01*
X560250Y639102D01*
X560195D01*
X560001Y639129D01*
X559834Y639185D01*
X559695Y639296D01*
X559612Y639407D01*
X559473Y639601D01*
X559445Y639657D01*
Y639685D01*
X557918Y645404D01*
X554254D01*
X552810Y639685D01*
X552727Y639490D01*
X552644Y639352D01*
X552505Y639240D01*
X552394Y639185D01*
X552255Y639129D01*
X552144Y639102D01*
X552061D01*
X551783Y639129D01*
X551589Y639213D01*
X551450Y639352D01*
X551367Y639490D01*
X551283Y639629D01*
X551255Y639768D01*
Y639851D01*
Y639879D01*
Y640018D01*
X551283Y640046D01*
Y640073D01*
X552699Y645681D01*
X552310Y645820D01*
X551950Y645959D01*
X551644Y646125D01*
X551367Y646264D01*
X551117Y646403D01*
X550950Y646514D01*
X550839Y646597D01*
X550811Y646625D01*
X550228Y647125D01*
X549729Y647708D01*
X549312Y648291D01*
X549007Y648846D01*
X548757Y649374D01*
X548674Y649596D01*
X548590Y649790D01*
X548535Y649929D01*
X548507Y650040D01*
X548479Y650123D01*
Y650151D01*
X548424Y650401D01*
X548368Y650678D01*
Y650762D01*
Y650845D01*
Y650901D01*
Y650928D01*
X548396Y651289D01*
X548451Y651622D01*
X548535Y651955D01*
X548618Y652233D01*
X548729Y652483D01*
X548812Y652650D01*
X548868Y652788D01*
X548896Y652816D01*
X549118Y653177D01*
X549368Y653510D01*
X549645Y653788D01*
X549895Y654010D01*
X550173Y654232D01*
X550423Y654399D01*
X550700Y654537D01*
X550950Y654649D01*
X551394Y654787D01*
X551589Y654843D01*
X551755Y654871D01*
X551894Y654898D01*
X556169D01*
X556447Y654871D01*
D02*
G37*
G36*
X540373D02*
X540845Y654815D01*
X541289Y654732D01*
X541705Y654649D01*
X542066Y654510D01*
X542399Y654371D01*
X542705Y654204D01*
X542982Y654065D01*
X543204Y653899D01*
X543399Y653732D01*
X543565Y653594D01*
X543704Y653483D01*
X543815Y653371D01*
X543899Y653288D01*
X543926Y653233D01*
X543954Y653205D01*
X544176Y652872D01*
X544398Y652483D01*
X544565Y652094D01*
X544704Y651733D01*
X544842Y651428D01*
X544926Y651150D01*
X544953Y650984D01*
X544981Y650956D01*
Y650928D01*
X545425Y649346D01*
X545481Y649041D01*
X545509Y648763D01*
X545536Y648652D01*
Y648569D01*
Y648513D01*
Y648485D01*
X545509Y648013D01*
X545398Y647569D01*
X545259Y647208D01*
X545092Y646875D01*
X544926Y646625D01*
X544787Y646431D01*
X544676Y646320D01*
X544648Y646264D01*
X544287Y645987D01*
X543926Y645765D01*
X543538Y645626D01*
X543177Y645515D01*
X542844Y645459D01*
X542594Y645431D01*
X542427Y645404D01*
X540039D01*
X540178Y644987D01*
X540373Y644571D01*
X540817Y643821D01*
X541289Y643183D01*
X541816Y642627D01*
X542066Y642405D01*
X542288Y642183D01*
X542510Y642017D01*
X542677Y641878D01*
X542844Y641739D01*
X542955Y641656D01*
X543038Y641628D01*
X543066Y641600D01*
X543538Y641323D01*
X544037Y641100D01*
X544482Y640934D01*
X544898Y640823D01*
X545231Y640712D01*
X545509Y640656D01*
X545620D01*
X545703Y640629D01*
X545759D01*
X545925Y640573D01*
X546064Y640490D01*
X546147Y640351D01*
X546231Y640212D01*
X546258Y640101D01*
X546286Y639990D01*
Y639907D01*
Y639879D01*
X546258Y639657D01*
X546175Y639490D01*
X546092Y639379D01*
X546064Y639324D01*
X545870Y639185D01*
X545675Y639129D01*
X545536Y639102D01*
X545481D01*
X545342Y639129D01*
X545287D01*
X544259Y639435D01*
X543343Y639796D01*
X542510Y640268D01*
X541761Y640795D01*
X541122Y641350D01*
X540512Y641933D01*
X540012Y642544D01*
X539568Y643155D01*
X539179Y643738D01*
X538873Y644321D01*
X538624Y644821D01*
X538429Y645293D01*
X538263Y645681D01*
X538180Y645959D01*
X538124Y646070D01*
Y646153D01*
X538096Y646181D01*
Y646209D01*
X536819Y650956D01*
X536764Y651178D01*
X536736Y651400D01*
Y651539D01*
Y651567D01*
Y651595D01*
X536764Y652039D01*
X536875Y652455D01*
X537041Y652844D01*
X537208Y653177D01*
X537374Y653455D01*
X537541Y653677D01*
X537652Y653788D01*
X537680Y653843D01*
X538041Y654204D01*
X538402Y654454D01*
X538790Y654649D01*
X539123Y654760D01*
X539401Y654843D01*
X539651Y654871D01*
X539790Y654898D01*
X539845D01*
X540373Y654871D01*
D02*
G37*
G36*
X556447Y631871D02*
X556697Y631787D01*
X556863Y631648D01*
X557002Y631510D01*
X557113Y631343D01*
X557169Y631232D01*
X557224Y631121D01*
Y631093D01*
X560972Y617101D01*
X561000Y616935D01*
Y616879D01*
Y616851D01*
X560972Y616629D01*
X560889Y616463D01*
X560806Y616352D01*
X560778Y616324D01*
X560584Y616185D01*
X560389Y616129D01*
X560250Y616102D01*
X560195D01*
X560001Y616129D01*
X559834Y616185D01*
X559695Y616296D01*
X559612Y616407D01*
X559473Y616601D01*
X559445Y616657D01*
Y616685D01*
X557918Y622404D01*
X554254D01*
X552810Y616685D01*
X552727Y616490D01*
X552644Y616352D01*
X552505Y616241D01*
X552394Y616185D01*
X552255Y616129D01*
X552144Y616102D01*
X552061D01*
X551783Y616129D01*
X551589Y616213D01*
X551450Y616352D01*
X551367Y616490D01*
X551283Y616629D01*
X551255Y616768D01*
Y616851D01*
Y616879D01*
Y617018D01*
X551283Y617046D01*
Y617073D01*
X552699Y622681D01*
X552310Y622820D01*
X551950Y622959D01*
X551644Y623125D01*
X551367Y623264D01*
X551117Y623403D01*
X550950Y623514D01*
X550839Y623597D01*
X550811Y623625D01*
X550228Y624125D01*
X549729Y624708D01*
X549312Y625291D01*
X549007Y625846D01*
X548757Y626374D01*
X548674Y626596D01*
X548590Y626790D01*
X548535Y626929D01*
X548507Y627040D01*
X548479Y627123D01*
Y627151D01*
X548424Y627401D01*
X548368Y627678D01*
Y627762D01*
Y627845D01*
Y627901D01*
Y627928D01*
X548396Y628289D01*
X548451Y628622D01*
X548535Y628956D01*
X548618Y629233D01*
X548729Y629483D01*
X548812Y629650D01*
X548868Y629788D01*
X548896Y629816D01*
X549118Y630177D01*
X549368Y630510D01*
X549645Y630788D01*
X549895Y631010D01*
X550173Y631232D01*
X550423Y631399D01*
X550700Y631537D01*
X550950Y631648D01*
X551394Y631787D01*
X551589Y631843D01*
X551755Y631871D01*
X551894Y631898D01*
X556169D01*
X556447Y631871D01*
D02*
G37*
G36*
X540650D02*
X541317Y631759D01*
X541900Y631593D01*
X542372Y631426D01*
X542733Y631260D01*
X543010Y631093D01*
X543177Y630982D01*
X543204Y630954D01*
X543232D01*
X543454Y630760D01*
X543649Y630566D01*
X544010Y630094D01*
X544287Y629594D01*
X544537Y629094D01*
X544731Y628650D01*
X544815Y628456D01*
X544870Y628261D01*
X544926Y628123D01*
X544953Y628012D01*
X544981Y627956D01*
Y627928D01*
X545037Y627651D01*
X545065Y627373D01*
X545092Y627234D01*
Y627151D01*
Y627095D01*
Y627068D01*
X545065Y626623D01*
X544981Y626207D01*
X544842Y625846D01*
X544704Y625541D01*
X544565Y625291D01*
X544426Y625124D01*
X544343Y624986D01*
X544315Y624958D01*
X544620Y624791D01*
X544898Y624597D01*
X545148Y624347D01*
X545398Y624097D01*
X545786Y623542D01*
X546119Y622987D01*
X546369Y622459D01*
X546453Y622209D01*
X546536Y622015D01*
X546591Y621848D01*
X546647Y621710D01*
X546675Y621626D01*
Y621599D01*
X547119Y620044D01*
X547174Y619739D01*
X547202Y619461D01*
Y619350D01*
Y619267D01*
Y619211D01*
Y619183D01*
X547174Y618711D01*
X547063Y618267D01*
X546925Y617906D01*
X546758Y617573D01*
X546591Y617323D01*
X546453Y617129D01*
X546342Y617018D01*
X546314Y616962D01*
X545953Y616685D01*
X545592Y616463D01*
X545203Y616324D01*
X544842Y616213D01*
X544537Y616157D01*
X544287Y616129D01*
X544121Y616102D01*
X544065D01*
X543316Y616129D01*
X542649Y616241D01*
X542066Y616379D01*
X541594Y616546D01*
X541233Y616712D01*
X540956Y616851D01*
X540789Y616962D01*
X540734Y616990D01*
X540512Y617184D01*
X540317Y617379D01*
X539929Y617851D01*
X539623Y618350D01*
X539373Y618850D01*
X539179Y619322D01*
X539096Y619516D01*
X539040Y619683D01*
X538985Y619850D01*
X538957Y619961D01*
X538929Y620016D01*
Y620044D01*
X538513Y621599D01*
X538457Y621904D01*
X538402Y622182D01*
Y622293D01*
Y622376D01*
Y622431D01*
Y622459D01*
X538429Y622903D01*
X538513Y623320D01*
X538651Y623681D01*
X538790Y623986D01*
X538929Y624208D01*
X539068Y624403D01*
X539151Y624514D01*
X539179Y624541D01*
X538873Y624736D01*
X538596Y624930D01*
X538124Y625430D01*
X537707Y625985D01*
X537374Y626568D01*
X537124Y627095D01*
X537041Y627318D01*
X536958Y627512D01*
X536902Y627678D01*
X536847Y627817D01*
X536819Y627901D01*
Y627928D01*
X536764Y628234D01*
X536708Y628511D01*
Y628622D01*
Y628706D01*
Y628761D01*
Y628789D01*
X536736Y629289D01*
X536847Y629705D01*
X536986Y630094D01*
X537152Y630399D01*
X537347Y630677D01*
X537485Y630843D01*
X537597Y630982D01*
X537624Y631010D01*
X537985Y631315D01*
X538346Y631537D01*
X538735Y631676D01*
X539068Y631787D01*
X539401Y631843D01*
X539651Y631898D01*
X539873D01*
X540650Y631871D01*
D02*
G37*
G36*
X737233Y415236D02*
X737511Y415209D01*
X737761Y415153D01*
X738011Y415070D01*
X738205Y414986D01*
X738344Y414931D01*
X738455Y414903D01*
X738483Y414875D01*
X738788Y414709D01*
X739038Y414515D01*
X739260Y414292D01*
X739454Y414098D01*
X739621Y413876D01*
X739732Y413626D01*
X739954Y413182D01*
X740065Y412793D01*
X740121Y412460D01*
X740148Y412321D01*
Y408657D01*
X740121Y408407D01*
X740037Y408213D01*
X739899Y408074D01*
X739760Y407990D01*
X739593Y407935D01*
X739482Y407879D01*
X739371D01*
X739343D01*
X739093Y407907D01*
X738899Y407990D01*
X738760Y408129D01*
X738677Y408268D01*
X738621Y408407D01*
X738566Y408546D01*
Y411738D01*
X738538Y412071D01*
X738483Y412377D01*
X738399Y412627D01*
X738316Y412849D01*
X738177Y413043D01*
X738038Y413182D01*
X737872Y413321D01*
X737733Y413404D01*
X737400Y413543D01*
X737150Y413626D01*
X737039Y413654D01*
X736956D01*
X736900D01*
X736872D01*
X736650Y413626D01*
X736428Y413598D01*
X736262Y413571D01*
X736206Y413543D01*
X736178D01*
X735956Y413487D01*
X735734Y413376D01*
X735512Y413293D01*
X735346Y413182D01*
X735207Y413071D01*
X735096Y412988D01*
X735012Y412932D01*
X734985Y412904D01*
X734596Y412516D01*
X734318Y412099D01*
X734096Y411683D01*
X733957Y411294D01*
X733874Y410961D01*
X733846Y410711D01*
X733819Y410600D01*
Y408601D01*
X733791Y408351D01*
X733708Y408157D01*
X733569Y408018D01*
X733430Y407935D01*
X733263Y407879D01*
X733152Y407824D01*
X733041D01*
X733013D01*
X732764Y407852D01*
X732569Y407935D01*
X732430Y408074D01*
X732347Y408213D01*
X732292Y408351D01*
X732236Y408490D01*
Y410045D01*
X732208Y410378D01*
X732181Y410683D01*
X732097Y410933D01*
X732014Y411183D01*
X731903Y411350D01*
X731764Y411516D01*
X731625Y411655D01*
X731514Y411738D01*
X731237Y411877D01*
X730987Y411960D01*
X730820Y411988D01*
X730792D01*
X730765D01*
X730459Y411960D01*
X730154Y411933D01*
X730043Y411905D01*
X729932Y411877D01*
X729876Y411849D01*
X729849D01*
X728294Y411433D01*
X727933Y411322D01*
X727600Y411155D01*
X727322Y410961D01*
X727072Y410767D01*
X726878Y410572D01*
X726739Y410406D01*
X726628Y410295D01*
X726600Y410267D01*
X726378Y409934D01*
X726212Y409573D01*
X726101Y409240D01*
X726017Y408962D01*
X725962Y408685D01*
X725934Y408490D01*
Y404881D01*
X725906Y404604D01*
X725823Y404409D01*
X725684Y404270D01*
X725545Y404187D01*
X725379Y404132D01*
X725268Y404076D01*
X725157D01*
X725129D01*
X724879Y404104D01*
X724685Y404215D01*
X724546Y404326D01*
X724463Y404492D01*
X724407Y404631D01*
X724352Y404770D01*
Y407907D01*
X724379Y408407D01*
X724407Y408851D01*
X724490Y409268D01*
X724574Y409601D01*
X724629Y409906D01*
X724713Y410100D01*
X724740Y410239D01*
X724768Y410295D01*
X724962Y410683D01*
X725184Y411017D01*
X725434Y411322D01*
X725684Y411600D01*
X725990Y411849D01*
X726267Y412099D01*
X726878Y412460D01*
X727405Y412738D01*
X727655Y412849D01*
X727877Y412932D01*
X728044Y412988D01*
X728183Y413043D01*
X728266Y413071D01*
X728294D01*
X729849Y413487D01*
X730182Y413543D01*
X730487Y413598D01*
X730598D01*
X730681D01*
X730737D01*
X730765D01*
X731070D01*
X731320Y413571D01*
X731792Y413460D01*
X732153Y413293D01*
X732430Y413126D01*
X732625Y412932D01*
X732764Y412793D01*
X732819Y412682D01*
X732847Y412627D01*
X733013Y412960D01*
X733208Y413293D01*
X733430Y413571D01*
X733680Y413820D01*
X734235Y414265D01*
X734790Y414626D01*
X735318Y414875D01*
X735568Y414959D01*
X735762Y415042D01*
X735928Y415098D01*
X736067Y415153D01*
X736151Y415181D01*
X736178D01*
X736456Y415236D01*
X736678Y415264D01*
X736872D01*
X736900D01*
X736928D01*
X737233Y415236D01*
D02*
G37*
G36*
X736539Y403604D02*
X736872Y403549D01*
X737206Y403465D01*
X737483Y403382D01*
X737733Y403271D01*
X737900Y403188D01*
X738038Y403132D01*
X738066Y403104D01*
X738427Y402882D01*
X738760Y402632D01*
X739038Y402355D01*
X739260Y402105D01*
X739482Y401827D01*
X739649Y401577D01*
X739787Y401300D01*
X739899Y401050D01*
X740037Y400606D01*
X740093Y400411D01*
X740121Y400245D01*
X740148Y400106D01*
Y395831D01*
X740121Y395553D01*
X740037Y395303D01*
X739899Y395136D01*
X739760Y394998D01*
X739593Y394887D01*
X739482Y394831D01*
X739371Y394776D01*
X739343D01*
X725351Y391028D01*
X725184Y391000D01*
X725129D01*
X725101D01*
X724879Y391028D01*
X724713Y391111D01*
X724602Y391194D01*
X724574Y391222D01*
X724435Y391416D01*
X724379Y391611D01*
X724352Y391750D01*
Y391805D01*
X724379Y391999D01*
X724435Y392166D01*
X724546Y392305D01*
X724657Y392388D01*
X724851Y392527D01*
X724907Y392555D01*
X724935D01*
X730654Y394082D01*
Y397746D01*
X724935Y399190D01*
X724740Y399273D01*
X724602Y399356D01*
X724490Y399495D01*
X724435Y399606D01*
X724379Y399745D01*
X724352Y399856D01*
Y399939D01*
X724379Y400217D01*
X724463Y400411D01*
X724602Y400550D01*
X724740Y400634D01*
X724879Y400717D01*
X725018Y400745D01*
X725101D01*
X725129D01*
X725268D01*
X725296Y400717D01*
X725323D01*
X730931Y399301D01*
X731070Y399689D01*
X731209Y400051D01*
X731376Y400356D01*
X731514Y400634D01*
X731653Y400883D01*
X731764Y401050D01*
X731847Y401161D01*
X731875Y401189D01*
X732375Y401772D01*
X732958Y402271D01*
X733541Y402688D01*
X734096Y402993D01*
X734624Y403243D01*
X734846Y403326D01*
X735040Y403410D01*
X735179Y403465D01*
X735290Y403493D01*
X735373Y403521D01*
X735401D01*
X735651Y403576D01*
X735928Y403632D01*
X736012D01*
X736095D01*
X736151D01*
X736178D01*
X736539Y403604D01*
D02*
G37*
G36*
X751650Y389871D02*
X752150Y389787D01*
X752622Y389676D01*
X753011Y389537D01*
X753344Y389399D01*
X753594Y389288D01*
X753733Y389204D01*
X753788Y389176D01*
X754149Y388927D01*
X754510Y388621D01*
X754843Y388288D01*
X755176Y387983D01*
X755426Y387677D01*
X755620Y387455D01*
X755759Y387289D01*
X755815Y387261D01*
Y387233D01*
X755926Y387067D01*
X755981Y386900D01*
X756009Y386789D01*
Y386734D01*
X755981Y386511D01*
X755898Y386317D01*
X755815Y386206D01*
X755787Y386151D01*
X755593Y386012D01*
X755426Y385956D01*
X755287Y385928D01*
X755232D01*
X755093Y385956D01*
X754982Y385984D01*
X754815Y386095D01*
X754677Y386178D01*
X754649Y386234D01*
X754316Y386622D01*
X753982Y386928D01*
X753871Y387039D01*
X753760Y387122D01*
X753705Y387178D01*
X753677Y387205D01*
X753233Y387566D01*
X752816Y387844D01*
X752456Y388038D01*
X752150Y388177D01*
X751872Y388260D01*
X751706Y388288D01*
X751567Y388316D01*
X751539D01*
X751179Y388288D01*
X750873Y388260D01*
X750623Y388177D01*
X750373Y388066D01*
X750179Y387955D01*
X750040Y387816D01*
X749901Y387677D01*
X749790Y387539D01*
X749651Y387233D01*
X749568Y386983D01*
X749540Y386872D01*
Y386789D01*
Y386761D01*
Y386734D01*
X749568Y386373D01*
X749679Y386012D01*
X749846Y385651D01*
X750012Y385345D01*
X750207Y385068D01*
X750346Y384873D01*
X750457Y384735D01*
X750512Y384679D01*
X758980Y375406D01*
X759091Y375240D01*
X759146Y375073D01*
X759174Y374935D01*
Y374907D01*
Y374879D01*
X759146Y374629D01*
X759063Y374435D01*
X758924Y374296D01*
X758785Y374213D01*
X758646Y374157D01*
X758508Y374102D01*
X751872D01*
X751595Y374129D01*
X751401Y374213D01*
X751262Y374352D01*
X751179Y374490D01*
X751095Y374629D01*
X751067Y374768D01*
Y374851D01*
Y374879D01*
X751095Y375157D01*
X751179Y375351D01*
X751317Y375490D01*
X751456Y375573D01*
X751623Y375656D01*
X751734Y375684D01*
X756592D01*
X749374Y383596D01*
X749124Y383902D01*
X748902Y384179D01*
X748708Y384457D01*
X748541Y384735D01*
X748291Y385290D01*
X748125Y385762D01*
X748041Y386178D01*
X748014Y386345D01*
X747986Y386484D01*
X747958Y386595D01*
Y386678D01*
Y386734D01*
Y386761D01*
X747986Y387067D01*
X748014Y387372D01*
X748097Y387650D01*
X748180Y387872D01*
X748263Y388066D01*
X748319Y388205D01*
X748374Y388316D01*
X748402Y388344D01*
X748569Y388621D01*
X748791Y388871D01*
X748985Y389066D01*
X749207Y389232D01*
X749651Y389510D01*
X750096Y389704D01*
X750484Y389815D01*
X750790Y389871D01*
X750929Y389898D01*
X751095D01*
X751650Y389871D01*
D02*
G37*
G36*
X767697D02*
X767947Y389787D01*
X768113Y389649D01*
X768252Y389510D01*
X768363Y389343D01*
X768419Y389232D01*
X768474Y389121D01*
Y389093D01*
X772222Y375101D01*
X772250Y374935D01*
Y374879D01*
Y374851D01*
X772222Y374629D01*
X772139Y374463D01*
X772056Y374352D01*
X772028Y374324D01*
X771833Y374185D01*
X771639Y374129D01*
X771500Y374102D01*
X771445D01*
X771251Y374129D01*
X771084Y374185D01*
X770945Y374296D01*
X770862Y374407D01*
X770723Y374601D01*
X770695Y374657D01*
Y374685D01*
X769168Y380404D01*
X765504D01*
X764060Y374685D01*
X763977Y374490D01*
X763894Y374352D01*
X763755Y374240D01*
X763644Y374185D01*
X763505Y374129D01*
X763394Y374102D01*
X763310D01*
X763033Y374129D01*
X762839Y374213D01*
X762700Y374352D01*
X762617Y374490D01*
X762533Y374629D01*
X762505Y374768D01*
Y374851D01*
Y374879D01*
Y375018D01*
X762533Y375046D01*
Y375073D01*
X763949Y380681D01*
X763560Y380820D01*
X763199Y380959D01*
X762894Y381125D01*
X762617Y381264D01*
X762367Y381403D01*
X762200Y381514D01*
X762089Y381598D01*
X762061Y381625D01*
X761478Y382125D01*
X760978Y382708D01*
X760562Y383291D01*
X760257Y383846D01*
X760007Y384374D01*
X759923Y384596D01*
X759840Y384790D01*
X759785Y384929D01*
X759757Y385040D01*
X759729Y385123D01*
Y385151D01*
X759674Y385401D01*
X759618Y385678D01*
Y385762D01*
Y385845D01*
Y385901D01*
Y385928D01*
X759646Y386289D01*
X759702Y386622D01*
X759785Y386956D01*
X759868Y387233D01*
X759979Y387483D01*
X760062Y387650D01*
X760118Y387788D01*
X760146Y387816D01*
X760368Y388177D01*
X760618Y388510D01*
X760895Y388788D01*
X761145Y389010D01*
X761423Y389232D01*
X761673Y389399D01*
X761950Y389537D01*
X762200Y389649D01*
X762644Y389787D01*
X762839Y389843D01*
X763005Y389871D01*
X763144Y389898D01*
X767419D01*
X767697Y389871D01*
D02*
G37*
G36*
X413067Y652702D02*
X413372Y652674D01*
X413650Y652591D01*
X413872Y652508D01*
X414066Y652425D01*
X414205Y652369D01*
X414316Y652314D01*
X414344Y652286D01*
X414621Y652119D01*
X414871Y651897D01*
X415065Y651703D01*
X415232Y651481D01*
X415510Y651036D01*
X415704Y650592D01*
X415815Y650204D01*
X415871Y649898D01*
X415898Y649759D01*
Y649593D01*
X415871Y649038D01*
X415787Y648538D01*
X415676Y648066D01*
X415537Y647677D01*
X415399Y647344D01*
X415288Y647094D01*
X415204Y646955D01*
X415177Y646900D01*
X414927Y646539D01*
X414621Y646178D01*
X414288Y645845D01*
X413983Y645512D01*
X413677Y645262D01*
X413455Y645068D01*
X413289Y644929D01*
X413261Y644873D01*
X413233D01*
X413067Y644762D01*
X412900Y644707D01*
X412789Y644679D01*
X412733D01*
X412511Y644707D01*
X412317Y644790D01*
X412206Y644873D01*
X412150Y644901D01*
X412012Y645095D01*
X411956Y645262D01*
X411928Y645401D01*
Y645456D01*
X411956Y645595D01*
X411984Y645706D01*
X412095Y645873D01*
X412178Y646012D01*
X412234Y646039D01*
X412622Y646372D01*
X412928Y646705D01*
X413039Y646817D01*
X413122Y646928D01*
X413178Y646983D01*
X413205Y647011D01*
X413566Y647455D01*
X413844Y647872D01*
X414038Y648232D01*
X414177Y648538D01*
X414260Y648816D01*
X414288Y648982D01*
X414316Y649121D01*
Y649149D01*
X414288Y649510D01*
X414260Y649815D01*
X414177Y650065D01*
X414066Y650315D01*
X413955Y650509D01*
X413816Y650648D01*
X413677Y650787D01*
X413539Y650898D01*
X413233Y651036D01*
X412983Y651120D01*
X412872Y651148D01*
X412789D01*
X412761D01*
X412733D01*
X412373Y651120D01*
X412012Y651009D01*
X411651Y650842D01*
X411345Y650676D01*
X411068Y650481D01*
X410873Y650342D01*
X410735Y650231D01*
X410679Y650176D01*
X401407Y641708D01*
X401240Y641597D01*
X401073Y641542D01*
X400934Y641514D01*
X400907D01*
X400879D01*
X400629Y641542D01*
X400435Y641625D01*
X400296Y641764D01*
X400213Y641903D01*
X400157Y642041D01*
X400102Y642180D01*
Y648816D01*
X400129Y649093D01*
X400213Y649287D01*
X400351Y649426D01*
X400490Y649510D01*
X400629Y649593D01*
X400768Y649621D01*
X400851D01*
X400879D01*
X401157Y649593D01*
X401351Y649510D01*
X401490Y649371D01*
X401573Y649232D01*
X401656Y649065D01*
X401684Y648954D01*
Y644096D01*
X409596Y651314D01*
X409902Y651564D01*
X410179Y651786D01*
X410457Y651980D01*
X410735Y652147D01*
X411290Y652397D01*
X411762Y652563D01*
X412178Y652647D01*
X412345Y652674D01*
X412484Y652702D01*
X412595Y652730D01*
X412678D01*
X412733D01*
X412761D01*
X413067Y652702D01*
D02*
G37*
G36*
X401157Y638155D02*
X401351Y638072D01*
X401490Y637933D01*
X401573Y637794D01*
X401656Y637655D01*
X401684Y637516D01*
Y631908D01*
X414843Y635434D01*
X414927Y635462D01*
X415010D01*
X415065D01*
X415093D01*
X415343Y635434D01*
X415537Y635351D01*
X415676Y635212D01*
X415787Y635073D01*
X415843Y634907D01*
X415871Y634796D01*
Y634657D01*
X415843Y634462D01*
X415787Y634296D01*
X415676Y634157D01*
X415565Y634074D01*
X415454Y633991D01*
X415343Y633935D01*
X415288Y633907D01*
X415260D01*
X400879Y630048D01*
X400657Y630020D01*
X400490Y630048D01*
X400351Y630076D01*
X400324Y630104D01*
X400185Y630270D01*
X400129Y630465D01*
X400102Y630603D01*
Y637405D01*
X400129Y637655D01*
X400213Y637849D01*
X400351Y637988D01*
X400490Y638099D01*
X400629Y638155D01*
X400768Y638182D01*
X400851D01*
X400879D01*
X401157Y638155D01*
D02*
G37*
G36*
X415343Y630520D02*
X415537Y630437D01*
X415676Y630298D01*
X415787Y630159D01*
X415843Y630020D01*
X415871Y629882D01*
Y629771D01*
X415843Y629576D01*
X415787Y629410D01*
X415676Y629271D01*
X415565Y629160D01*
X415454Y629104D01*
X415343Y629049D01*
X415288Y629021D01*
X415260D01*
X409569Y627466D01*
Y620942D01*
X414843Y622358D01*
X415010D01*
X415065D01*
X415093D01*
X415343Y622330D01*
X415537Y622247D01*
X415676Y622108D01*
X415787Y621969D01*
X415843Y621831D01*
X415871Y621692D01*
Y621581D01*
X415843Y621386D01*
X415787Y621220D01*
X415676Y621081D01*
X415565Y620998D01*
X415454Y620914D01*
X415343Y620859D01*
X415288Y620831D01*
X415260D01*
X401101Y617028D01*
X400934Y617000D01*
X400879D01*
X400851D01*
X400629Y617028D01*
X400463Y617111D01*
X400351Y617194D01*
X400324Y617222D01*
X400185Y617416D01*
X400129Y617611D01*
X400102Y617750D01*
Y617805D01*
X400129Y617999D01*
X400185Y618166D01*
X400296Y618305D01*
X400407Y618388D01*
X400601Y618527D01*
X400657Y618555D01*
X400685D01*
X407986Y620498D01*
Y627050D01*
X401101Y625218D01*
X400934Y625162D01*
X400879D01*
X400851D01*
X400629Y625190D01*
X400463Y625301D01*
X400351Y625384D01*
X400324Y625412D01*
X400185Y625606D01*
X400129Y625773D01*
X400102Y625912D01*
Y625967D01*
X400129Y626189D01*
X400185Y626356D01*
X400296Y626467D01*
X400407Y626578D01*
X400490Y626633D01*
X400601Y626689D01*
X400657Y626717D01*
X400685D01*
X414843Y630520D01*
X414927Y630548D01*
X415010D01*
X415065D01*
X415093D01*
X415343Y630520D01*
D02*
G37*
G36*
X459357Y652120D02*
X459551Y652037D01*
X459690Y651898D01*
X459801Y651759D01*
X459857Y651620D01*
X459884Y651482D01*
Y651371D01*
X459857Y651204D01*
X459801Y651038D01*
X459746Y650927D01*
X459718Y650899D01*
X456553Y646790D01*
X456386Y646623D01*
X456220Y646540D01*
X456081Y646485D01*
X456053D01*
X456026D01*
X455803D01*
X455609Y646540D01*
X455498Y646596D01*
X455443Y646623D01*
X455304Y646790D01*
X455193Y646956D01*
X455137Y647095D01*
Y647151D01*
X455165Y647401D01*
X455220Y647595D01*
X455276Y647706D01*
X455304Y647762D01*
X457053Y650010D01*
X445115Y646818D01*
X444948Y646762D01*
X444893D01*
X444865D01*
X444643Y646790D01*
X444477Y646901D01*
X444365Y646984D01*
X444338Y647012D01*
X444199Y647206D01*
X444143Y647373D01*
X444115Y647512D01*
Y647567D01*
X444143Y647762D01*
X444199Y647928D01*
X444310Y648067D01*
X444421Y648150D01*
X444615Y648289D01*
X444671Y648317D01*
X444699D01*
X458857Y652148D01*
X458941D01*
X459024D01*
X459079D01*
X459107D01*
X459357Y652120D01*
D02*
G37*
G36*
X445171Y640155D02*
X445365Y640071D01*
X445504Y639933D01*
X445587Y639794D01*
X445670Y639655D01*
X445698Y639516D01*
Y633908D01*
X458857Y637434D01*
X458941Y637462D01*
X459024D01*
X459079D01*
X459107D01*
X459357Y637434D01*
X459551Y637351D01*
X459690Y637212D01*
X459801Y637073D01*
X459857Y636907D01*
X459884Y636796D01*
Y636657D01*
X459857Y636462D01*
X459801Y636296D01*
X459690Y636157D01*
X459579Y636074D01*
X459468Y635990D01*
X459357Y635935D01*
X459301Y635907D01*
X459274D01*
X444893Y632048D01*
X444671Y632020D01*
X444504Y632048D01*
X444365Y632076D01*
X444338Y632104D01*
X444199Y632270D01*
X444143Y632465D01*
X444115Y632603D01*
Y639405D01*
X444143Y639655D01*
X444227Y639849D01*
X444365Y639988D01*
X444504Y640099D01*
X444643Y640155D01*
X444782Y640182D01*
X444865D01*
X444893D01*
X445171Y640155D01*
D02*
G37*
G36*
X459357Y632520D02*
X459551Y632437D01*
X459690Y632298D01*
X459801Y632159D01*
X459857Y632020D01*
X459884Y631882D01*
Y631771D01*
X459857Y631576D01*
X459801Y631410D01*
X459690Y631271D01*
X459579Y631160D01*
X459468Y631104D01*
X459357Y631049D01*
X459301Y631021D01*
X459274D01*
X453582Y629466D01*
Y622942D01*
X458857Y624358D01*
X459024D01*
X459079D01*
X459107D01*
X459357Y624330D01*
X459551Y624247D01*
X459690Y624108D01*
X459801Y623969D01*
X459857Y623831D01*
X459884Y623692D01*
Y623581D01*
X459857Y623386D01*
X459801Y623220D01*
X459690Y623081D01*
X459579Y622998D01*
X459468Y622914D01*
X459357Y622859D01*
X459301Y622831D01*
X459274D01*
X445115Y619028D01*
X444948Y619000D01*
X444893D01*
X444865D01*
X444643Y619028D01*
X444477Y619111D01*
X444365Y619194D01*
X444338Y619222D01*
X444199Y619416D01*
X444143Y619611D01*
X444115Y619749D01*
Y619805D01*
X444143Y619999D01*
X444199Y620166D01*
X444310Y620305D01*
X444421Y620388D01*
X444615Y620527D01*
X444671Y620555D01*
X444699D01*
X452000Y622498D01*
Y629050D01*
X445115Y627218D01*
X444948Y627162D01*
X444893D01*
X444865D01*
X444643Y627190D01*
X444477Y627301D01*
X444365Y627384D01*
X444338Y627412D01*
X444199Y627606D01*
X444143Y627773D01*
X444115Y627912D01*
Y627967D01*
X444143Y628189D01*
X444199Y628356D01*
X444310Y628467D01*
X444421Y628578D01*
X444504Y628633D01*
X444615Y628689D01*
X444671Y628717D01*
X444699D01*
X458857Y632520D01*
X458941Y632548D01*
X459024D01*
X459079D01*
X459107D01*
X459357Y632520D01*
D02*
G37*
G36*
X604038Y328871D02*
X604538Y328787D01*
X605010Y328676D01*
X605398Y328537D01*
X605732Y328399D01*
X605981Y328288D01*
X606120Y328204D01*
X606176Y328176D01*
X606537Y327927D01*
X606898Y327621D01*
X607231Y327288D01*
X607564Y326983D01*
X607814Y326677D01*
X608008Y326455D01*
X608147Y326289D01*
X608202Y326261D01*
Y326233D01*
X608313Y326067D01*
X608369Y325900D01*
X608397Y325789D01*
Y325733D01*
X608369Y325511D01*
X608286Y325317D01*
X608202Y325206D01*
X608175Y325150D01*
X607980Y325012D01*
X607814Y324956D01*
X607675Y324928D01*
X607619D01*
X607481Y324956D01*
X607369Y324984D01*
X607203Y325095D01*
X607064Y325178D01*
X607036Y325234D01*
X606703Y325622D01*
X606370Y325928D01*
X606259Y326039D01*
X606148Y326122D01*
X606092Y326178D01*
X606065Y326205D01*
X605620Y326566D01*
X605204Y326844D01*
X604843Y327038D01*
X604538Y327177D01*
X604260Y327260D01*
X604094Y327288D01*
X603955Y327316D01*
X603927D01*
X603566Y327288D01*
X603261Y327260D01*
X603011Y327177D01*
X602761Y327066D01*
X602567Y326955D01*
X602428Y326816D01*
X602289Y326677D01*
X602178Y326539D01*
X602039Y326233D01*
X601956Y325983D01*
X601928Y325872D01*
Y325789D01*
Y325761D01*
Y325733D01*
X601956Y325373D01*
X602067Y325012D01*
X602233Y324651D01*
X602400Y324345D01*
X602594Y324068D01*
X602733Y323873D01*
X602844Y323735D01*
X602900Y323679D01*
X611367Y314407D01*
X611478Y314240D01*
X611534Y314073D01*
X611562Y313934D01*
Y313907D01*
Y313879D01*
X611534Y313629D01*
X611451Y313435D01*
X611312Y313296D01*
X611173Y313213D01*
X611034Y313157D01*
X610895Y313102D01*
X604260D01*
X603983Y313129D01*
X603788Y313213D01*
X603649Y313351D01*
X603566Y313490D01*
X603483Y313629D01*
X603455Y313768D01*
Y313851D01*
Y313879D01*
X603483Y314157D01*
X603566Y314351D01*
X603705Y314490D01*
X603844Y314573D01*
X604010Y314656D01*
X604121Y314684D01*
X608980D01*
X601762Y322596D01*
X601512Y322902D01*
X601289Y323179D01*
X601095Y323457D01*
X600929Y323735D01*
X600679Y324290D01*
X600512Y324762D01*
X600429Y325178D01*
X600401Y325345D01*
X600373Y325484D01*
X600346Y325595D01*
Y325678D01*
Y325733D01*
Y325761D01*
X600373Y326067D01*
X600401Y326372D01*
X600484Y326650D01*
X600568Y326872D01*
X600651Y327066D01*
X600706Y327205D01*
X600762Y327316D01*
X600790Y327344D01*
X600956Y327621D01*
X601179Y327871D01*
X601373Y328065D01*
X601595Y328232D01*
X602039Y328510D01*
X602483Y328704D01*
X602872Y328815D01*
X603177Y328871D01*
X603316Y328898D01*
X603483D01*
X604038Y328871D01*
D02*
G37*
G36*
X615643Y328843D02*
X616309Y328732D01*
X616920Y328537D01*
X617447Y328288D01*
X617919Y327982D01*
X618335Y327649D01*
X618696Y327288D01*
X619030Y326927D01*
X619279Y326539D01*
X619501Y326178D01*
X619696Y325844D01*
X619835Y325539D01*
X619918Y325289D01*
X620001Y325095D01*
X620057Y324984D01*
Y324928D01*
X622167Y317044D01*
X622222Y316822D01*
X622250Y316600D01*
Y316461D01*
Y316433D01*
Y316405D01*
X622222Y315961D01*
X622111Y315545D01*
X621945Y315156D01*
X621778Y314823D01*
X621612Y314517D01*
X621445Y314323D01*
X621334Y314184D01*
X621306Y314129D01*
X620945Y313796D01*
X620584Y313546D01*
X620223Y313351D01*
X619890Y313241D01*
X619585Y313157D01*
X619363Y313129D01*
X619224Y313102D01*
X615670D01*
X615420Y313129D01*
X615226Y313213D01*
X615087Y313351D01*
X614976Y313490D01*
X614921Y313629D01*
X614893Y313768D01*
Y313851D01*
Y313879D01*
X614921Y314157D01*
X615004Y314351D01*
X615143Y314490D01*
X615282Y314573D01*
X615420Y314656D01*
X615559Y314684D01*
X618724D01*
X619002Y314712D01*
X619279Y314767D01*
X619501Y314823D01*
X619696Y314934D01*
X619862Y315017D01*
X619973Y315073D01*
X620057Y315128D01*
X620084Y315156D01*
X620279Y315350D01*
X620418Y315572D01*
X620501Y315795D01*
X620556Y315989D01*
X620612Y316183D01*
X620640Y316322D01*
Y316433D01*
Y316461D01*
X620612Y316683D01*
X620584Y316850D01*
X620556Y316988D01*
Y317044D01*
X618419Y324928D01*
X618308Y325289D01*
X618141Y325622D01*
X617947Y325900D01*
X617752Y326150D01*
X617586Y326344D01*
X617419Y326511D01*
X617308Y326594D01*
X617281Y326622D01*
X616920Y326844D01*
X616586Y327010D01*
X616253Y327149D01*
X615976Y327233D01*
X615698Y327288D01*
X615504Y327316D01*
X611867D01*
X611617Y327344D01*
X611423Y327427D01*
X611284Y327566D01*
X611173Y327705D01*
X611117Y327843D01*
X611090Y327982D01*
Y328065D01*
Y328093D01*
X611117Y328371D01*
X611201Y328565D01*
X611339Y328704D01*
X611478Y328787D01*
X611617Y328871D01*
X611756Y328898D01*
X614921D01*
X615643Y328843D01*
D02*
G37*
G36*
X1075067Y703558D02*
X1075372Y703530D01*
X1075650Y703447D01*
X1075872Y703363D01*
X1076066Y703280D01*
X1076205Y703225D01*
X1076316Y703169D01*
X1076344Y703141D01*
X1076621Y702975D01*
X1076871Y702753D01*
X1077066Y702558D01*
X1077232Y702336D01*
X1077510Y701892D01*
X1077704Y701448D01*
X1077815Y701059D01*
X1077871Y700754D01*
X1077898Y700615D01*
Y700448D01*
X1077871Y699893D01*
X1077787Y699393D01*
X1077676Y698922D01*
X1077537Y698533D01*
X1077399Y698200D01*
X1077288Y697950D01*
X1077204Y697811D01*
X1077177Y697755D01*
X1076927Y697394D01*
X1076621Y697034D01*
X1076288Y696701D01*
X1075983Y696367D01*
X1075677Y696117D01*
X1075455Y695923D01*
X1075289Y695784D01*
X1075261Y695729D01*
X1075233D01*
X1075067Y695618D01*
X1074900Y695562D01*
X1074789Y695535D01*
X1074733D01*
X1074511Y695562D01*
X1074317Y695646D01*
X1074206Y695729D01*
X1074150Y695757D01*
X1074012Y695951D01*
X1073956Y696117D01*
X1073928Y696256D01*
Y696312D01*
X1073956Y696451D01*
X1073984Y696562D01*
X1074095Y696728D01*
X1074178Y696867D01*
X1074234Y696895D01*
X1074622Y697228D01*
X1074928Y697561D01*
X1075039Y697672D01*
X1075122Y697783D01*
X1075178Y697839D01*
X1075205Y697867D01*
X1075566Y698311D01*
X1075844Y698727D01*
X1076038Y699088D01*
X1076177Y699393D01*
X1076260Y699671D01*
X1076288Y699838D01*
X1076316Y699976D01*
Y700004D01*
X1076288Y700365D01*
X1076260Y700670D01*
X1076177Y700920D01*
X1076066Y701170D01*
X1075955Y701365D01*
X1075816Y701503D01*
X1075677Y701642D01*
X1075538Y701753D01*
X1075233Y701892D01*
X1074983Y701975D01*
X1074872Y702003D01*
X1074789D01*
X1074761D01*
X1074733D01*
X1074372Y701975D01*
X1074012Y701864D01*
X1073651Y701698D01*
X1073345Y701531D01*
X1073068Y701337D01*
X1072873Y701198D01*
X1072735Y701087D01*
X1072679Y701031D01*
X1063407Y692564D01*
X1063240Y692453D01*
X1063073Y692397D01*
X1062934Y692370D01*
X1062907D01*
X1062879D01*
X1062629Y692397D01*
X1062435Y692481D01*
X1062296Y692619D01*
X1062213Y692758D01*
X1062157Y692897D01*
X1062102Y693036D01*
Y699671D01*
X1062129Y699949D01*
X1062213Y700143D01*
X1062352Y700282D01*
X1062490Y700365D01*
X1062629Y700448D01*
X1062768Y700476D01*
X1062851D01*
X1062879D01*
X1063157Y700448D01*
X1063351Y700365D01*
X1063490Y700226D01*
X1063573Y700088D01*
X1063656Y699921D01*
X1063684Y699810D01*
Y694951D01*
X1071596Y702170D01*
X1071902Y702420D01*
X1072179Y702642D01*
X1072457Y702836D01*
X1072735Y703002D01*
X1073290Y703252D01*
X1073762Y703419D01*
X1074178Y703502D01*
X1074345Y703530D01*
X1074484Y703558D01*
X1074595Y703586D01*
X1074678D01*
X1074733D01*
X1074761D01*
X1075067Y703558D01*
D02*
G37*
G36*
X1072624Y691564D02*
X1072818Y691481D01*
X1072957Y691342D01*
X1073040Y691204D01*
X1073123Y691037D01*
X1073151Y690926D01*
Y688538D01*
X1076843Y689566D01*
X1076927D01*
X1077010D01*
X1077066D01*
X1077093D01*
X1077343Y689538D01*
X1077537Y689455D01*
X1077676Y689316D01*
X1077787Y689177D01*
X1077843Y689038D01*
X1077871Y688899D01*
Y688788D01*
X1077843Y688594D01*
X1077787Y688427D01*
X1077676Y688288D01*
X1077565Y688205D01*
X1077454Y688122D01*
X1077343Y688066D01*
X1077288Y688039D01*
X1077260D01*
X1073151Y686928D01*
Y685901D01*
X1073123Y685623D01*
X1073040Y685429D01*
X1072901Y685290D01*
X1072762Y685207D01*
X1072596Y685151D01*
X1072485Y685096D01*
X1072374D01*
X1072346D01*
X1072096Y685124D01*
X1071902Y685235D01*
X1071763Y685346D01*
X1071680Y685512D01*
X1071624Y685651D01*
X1071569Y685790D01*
Y686512D01*
X1063101Y684235D01*
X1062934Y684208D01*
X1062879D01*
X1062851D01*
X1062629Y684235D01*
X1062462Y684318D01*
X1062352Y684402D01*
X1062324Y684430D01*
X1062185Y684624D01*
X1062129Y684818D01*
X1062102Y684957D01*
Y685013D01*
X1062129Y685207D01*
X1062185Y685374D01*
X1062296Y685512D01*
X1062407Y685596D01*
X1062601Y685734D01*
X1062657Y685762D01*
X1062685D01*
X1071569Y688122D01*
Y690787D01*
X1071596Y691065D01*
X1071680Y691259D01*
X1071818Y691398D01*
X1071957Y691481D01*
X1072096Y691564D01*
X1072235Y691592D01*
X1072318D01*
X1072346D01*
X1072624Y691564D01*
D02*
G37*
G36*
X1071013Y681237D02*
X1071346Y681154D01*
X1071652Y681043D01*
X1071902Y680904D01*
X1072124Y680765D01*
X1072263Y680654D01*
X1072374Y680571D01*
X1072401Y680543D01*
X1072651Y680265D01*
X1072846Y679960D01*
X1072957Y679654D01*
X1073068Y679377D01*
X1073123Y679127D01*
X1073151Y678933D01*
Y675268D01*
X1073123Y675018D01*
X1073040Y674824D01*
X1072901Y674685D01*
X1072762Y674602D01*
X1072596Y674546D01*
X1072485Y674491D01*
X1072374D01*
X1072346D01*
X1072096Y674519D01*
X1071902Y674602D01*
X1071763Y674741D01*
X1071680Y674879D01*
X1071624Y675018D01*
X1071569Y675157D01*
Y678572D01*
X1071513Y678766D01*
X1071402Y679099D01*
X1071235Y679321D01*
X1071069Y679460D01*
X1070874Y679571D01*
X1070708Y679599D01*
X1070597Y679627D01*
X1070541D01*
X1070347D01*
X1070180Y679599D01*
X1070042Y679571D01*
X1070014Y679543D01*
X1069986D01*
X1068404Y679127D01*
Y675851D01*
X1068376Y675185D01*
X1068265Y674602D01*
X1068098Y674102D01*
X1067932Y673658D01*
X1067737Y673325D01*
X1067599Y673075D01*
X1067487Y672936D01*
X1067432Y672880D01*
X1067238Y672658D01*
X1067016Y672492D01*
X1066571Y672187D01*
X1066099Y671992D01*
X1065655Y671826D01*
X1065239Y671742D01*
X1064906Y671714D01*
X1064767Y671687D01*
X1064684D01*
X1064628D01*
X1064600D01*
X1064239Y671714D01*
X1063878Y671798D01*
X1063601Y671909D01*
X1063323Y672048D01*
X1063129Y672187D01*
X1062962Y672298D01*
X1062851Y672381D01*
X1062823Y672409D01*
X1062574Y672686D01*
X1062407Y672992D01*
X1062268Y673269D01*
X1062185Y673547D01*
X1062129Y673797D01*
X1062102Y673991D01*
Y678461D01*
X1062129Y678655D01*
X1062185Y678822D01*
X1062296Y678960D01*
X1062407Y679044D01*
X1062601Y679183D01*
X1062657Y679210D01*
X1062685D01*
X1069986Y681181D01*
X1070208Y681237D01*
X1070430Y681265D01*
X1070569D01*
X1070597D01*
X1070625D01*
X1071013Y681237D01*
D02*
G37*
G36*
X1075178Y670049D02*
X1075622Y669938D01*
X1075983Y669799D01*
X1076316Y669632D01*
X1076593Y669466D01*
X1076788Y669327D01*
X1076899Y669216D01*
X1076954Y669188D01*
X1077260Y668827D01*
X1077510Y668466D01*
X1077676Y668105D01*
X1077787Y667745D01*
X1077843Y667439D01*
X1077898Y667189D01*
Y662886D01*
X1077871Y662608D01*
X1077787Y662386D01*
X1077648Y662192D01*
X1077510Y662053D01*
X1077343Y661970D01*
X1077232Y661914D01*
X1077121Y661859D01*
X1077093D01*
X1062879Y658028D01*
X1062740Y658000D01*
X1062712D01*
X1062685D01*
X1062490Y658028D01*
X1062352Y658111D01*
X1062240Y658194D01*
X1062185Y658333D01*
X1062129Y658444D01*
X1062102Y658528D01*
Y662747D01*
X1062157Y663608D01*
X1062296Y664413D01*
X1062546Y665135D01*
X1062851Y665773D01*
X1063184Y666329D01*
X1063601Y666828D01*
X1064017Y667273D01*
X1064461Y667661D01*
X1064906Y667967D01*
X1065322Y668244D01*
X1065739Y668466D01*
X1066072Y668633D01*
X1066377Y668772D01*
X1066627Y668855D01*
X1066766Y668883D01*
X1066821Y668911D01*
X1067182Y668994D01*
X1067487Y669022D01*
X1067599Y669049D01*
X1067710D01*
X1067765D01*
X1067793D01*
X1068126Y669022D01*
X1068459Y668994D01*
X1069042Y668800D01*
X1069570Y668550D01*
X1069986Y668272D01*
X1070319Y667994D01*
X1070569Y667745D01*
X1070708Y667550D01*
X1070763Y667522D01*
Y667495D01*
X1070902Y667828D01*
X1071097Y668133D01*
X1071291Y668383D01*
X1071541Y668661D01*
X1072040Y669077D01*
X1072596Y669410D01*
X1073095Y669688D01*
X1073318Y669771D01*
X1073512Y669854D01*
X1073679Y669910D01*
X1073817Y669966D01*
X1073901Y669993D01*
X1073928D01*
X1074206Y670049D01*
X1074456Y670077D01*
X1074567D01*
X1074622D01*
X1074678D01*
X1074706D01*
X1075178Y670049D01*
D02*
G37*
G36*
X1077343Y499976D02*
X1077537Y499893D01*
X1077676Y499754D01*
X1077787Y499615D01*
X1077843Y499476D01*
X1077871Y499337D01*
Y499226D01*
X1077843Y499060D01*
X1077787Y498893D01*
X1077732Y498782D01*
X1077704Y498754D01*
X1074539Y494646D01*
X1074373Y494479D01*
X1074206Y494396D01*
X1074067Y494340D01*
X1074039D01*
X1074012D01*
X1073790D01*
X1073595Y494396D01*
X1073484Y494451D01*
X1073429Y494479D01*
X1073290Y494646D01*
X1073179Y494812D01*
X1073123Y494951D01*
Y495006D01*
X1073151Y495256D01*
X1073206Y495451D01*
X1073262Y495562D01*
X1073290Y495617D01*
X1075039Y497866D01*
X1063101Y494673D01*
X1062934Y494618D01*
X1062879D01*
X1062851D01*
X1062629Y494646D01*
X1062463Y494757D01*
X1062352Y494840D01*
X1062324Y494868D01*
X1062185Y495062D01*
X1062129Y495229D01*
X1062102Y495367D01*
Y495423D01*
X1062129Y495617D01*
X1062185Y495784D01*
X1062296Y495923D01*
X1062407Y496006D01*
X1062601Y496145D01*
X1062657Y496172D01*
X1062685D01*
X1076843Y500004D01*
X1076927D01*
X1077010D01*
X1077066D01*
X1077093D01*
X1077343Y499976D01*
D02*
G37*
G36*
X1072624Y490564D02*
X1072818Y490481D01*
X1072957Y490342D01*
X1073040Y490204D01*
X1073123Y490037D01*
X1073151Y489926D01*
Y487538D01*
X1076843Y488566D01*
X1076927D01*
X1077010D01*
X1077066D01*
X1077093D01*
X1077343Y488538D01*
X1077537Y488455D01*
X1077676Y488316D01*
X1077787Y488177D01*
X1077843Y488038D01*
X1077871Y487899D01*
Y487788D01*
X1077843Y487594D01*
X1077787Y487427D01*
X1077676Y487289D01*
X1077565Y487205D01*
X1077454Y487122D01*
X1077343Y487066D01*
X1077288Y487039D01*
X1077260D01*
X1073151Y485928D01*
Y484901D01*
X1073123Y484623D01*
X1073040Y484429D01*
X1072901Y484290D01*
X1072762Y484207D01*
X1072596Y484151D01*
X1072485Y484096D01*
X1072374D01*
X1072346D01*
X1072096Y484124D01*
X1071902Y484235D01*
X1071763Y484346D01*
X1071680Y484512D01*
X1071624Y484651D01*
X1071569Y484790D01*
Y485512D01*
X1063101Y483235D01*
X1062934Y483208D01*
X1062879D01*
X1062851D01*
X1062629Y483235D01*
X1062463Y483319D01*
X1062352Y483402D01*
X1062324Y483430D01*
X1062185Y483624D01*
X1062129Y483818D01*
X1062102Y483957D01*
Y484013D01*
X1062129Y484207D01*
X1062185Y484374D01*
X1062296Y484512D01*
X1062407Y484596D01*
X1062601Y484734D01*
X1062657Y484762D01*
X1062685D01*
X1071569Y487122D01*
Y489787D01*
X1071596Y490065D01*
X1071680Y490259D01*
X1071818Y490398D01*
X1071957Y490481D01*
X1072096Y490564D01*
X1072235Y490592D01*
X1072318D01*
X1072346D01*
X1072624Y490564D01*
D02*
G37*
G36*
X1071013Y480237D02*
X1071347Y480154D01*
X1071652Y480043D01*
X1071902Y479904D01*
X1072124Y479765D01*
X1072263Y479654D01*
X1072374Y479571D01*
X1072401Y479543D01*
X1072651Y479265D01*
X1072846Y478960D01*
X1072957Y478655D01*
X1073068Y478377D01*
X1073123Y478127D01*
X1073151Y477933D01*
Y474268D01*
X1073123Y474018D01*
X1073040Y473824D01*
X1072901Y473685D01*
X1072762Y473602D01*
X1072596Y473546D01*
X1072485Y473491D01*
X1072374D01*
X1072346D01*
X1072096Y473518D01*
X1071902Y473602D01*
X1071763Y473741D01*
X1071680Y473879D01*
X1071624Y474018D01*
X1071569Y474157D01*
Y477572D01*
X1071513Y477766D01*
X1071402Y478099D01*
X1071235Y478321D01*
X1071069Y478460D01*
X1070874Y478571D01*
X1070708Y478599D01*
X1070597Y478627D01*
X1070541D01*
X1070347D01*
X1070181Y478599D01*
X1070042Y478571D01*
X1070014Y478544D01*
X1069986D01*
X1068404Y478127D01*
Y474851D01*
X1068376Y474185D01*
X1068265Y473602D01*
X1068098Y473102D01*
X1067932Y472658D01*
X1067737Y472325D01*
X1067599Y472075D01*
X1067487Y471936D01*
X1067432Y471880D01*
X1067238Y471658D01*
X1067016Y471492D01*
X1066571Y471186D01*
X1066099Y470992D01*
X1065655Y470826D01*
X1065239Y470742D01*
X1064906Y470714D01*
X1064767Y470687D01*
X1064684D01*
X1064628D01*
X1064600D01*
X1064239Y470714D01*
X1063878Y470798D01*
X1063601Y470909D01*
X1063323Y471048D01*
X1063129Y471186D01*
X1062962Y471297D01*
X1062851Y471381D01*
X1062823Y471409D01*
X1062574Y471686D01*
X1062407Y471992D01*
X1062268Y472269D01*
X1062185Y472547D01*
X1062129Y472797D01*
X1062102Y472991D01*
Y477461D01*
X1062129Y477655D01*
X1062185Y477822D01*
X1062296Y477961D01*
X1062407Y478044D01*
X1062601Y478183D01*
X1062657Y478210D01*
X1062685D01*
X1069986Y480181D01*
X1070208Y480237D01*
X1070430Y480265D01*
X1070569D01*
X1070597D01*
X1070625D01*
X1071013Y480237D01*
D02*
G37*
G36*
X1075178Y469049D02*
X1075622Y468938D01*
X1075983Y468799D01*
X1076316Y468632D01*
X1076593Y468466D01*
X1076788Y468327D01*
X1076899Y468216D01*
X1076954Y468188D01*
X1077260Y467827D01*
X1077510Y467466D01*
X1077676Y467105D01*
X1077787Y466744D01*
X1077843Y466439D01*
X1077898Y466189D01*
Y461886D01*
X1077871Y461609D01*
X1077787Y461386D01*
X1077648Y461192D01*
X1077510Y461053D01*
X1077343Y460970D01*
X1077232Y460914D01*
X1077121Y460859D01*
X1077093D01*
X1062879Y457028D01*
X1062740Y457000D01*
X1062712D01*
X1062685D01*
X1062490Y457028D01*
X1062352Y457111D01*
X1062241Y457194D01*
X1062185Y457333D01*
X1062129Y457444D01*
X1062102Y457528D01*
Y461747D01*
X1062157Y462608D01*
X1062296Y463413D01*
X1062546Y464135D01*
X1062851Y464773D01*
X1063184Y465329D01*
X1063601Y465828D01*
X1064017Y466273D01*
X1064461Y466661D01*
X1064906Y466967D01*
X1065322Y467244D01*
X1065739Y467466D01*
X1066072Y467633D01*
X1066377Y467772D01*
X1066627Y467855D01*
X1066766Y467883D01*
X1066821Y467910D01*
X1067182Y467994D01*
X1067487Y468022D01*
X1067599Y468049D01*
X1067710D01*
X1067765D01*
X1067793D01*
X1068126Y468022D01*
X1068459Y467994D01*
X1069042Y467799D01*
X1069570Y467550D01*
X1069986Y467272D01*
X1070319Y466994D01*
X1070569Y466744D01*
X1070708Y466550D01*
X1070763Y466522D01*
Y466495D01*
X1070902Y466828D01*
X1071097Y467133D01*
X1071291Y467383D01*
X1071541Y467661D01*
X1072040Y468077D01*
X1072596Y468410D01*
X1073095Y468688D01*
X1073318Y468771D01*
X1073512Y468854D01*
X1073679Y468910D01*
X1073817Y468965D01*
X1073901Y468993D01*
X1073928D01*
X1074206Y469049D01*
X1074456Y469077D01*
X1074567D01*
X1074622D01*
X1074678D01*
X1074706D01*
X1075178Y469049D01*
D02*
G37*
%LPC*%
G36*
X938187Y325933D02*
X937602Y325776D01*
X937914Y325581D01*
X938187Y325933D01*
D02*
G37*
G36*
X935528Y325221D02*
X932501Y324412D01*
X931657Y323625D01*
X931513Y323414D01*
X931388Y323222D01*
X931284Y323049D01*
X931200Y322895D01*
X931156Y322778D01*
X931115Y322701D01*
X931113Y322662D01*
X931045Y322409D01*
X930998Y322175D01*
X931022Y321742D01*
X931087Y321347D01*
X931192Y320989D01*
X931340Y320709D01*
X931490Y320508D01*
X931583Y320367D01*
X931602Y320347D01*
X931621Y320326D01*
X931944Y320020D01*
X932328Y319771D01*
X932715Y319601D01*
X933083Y319450D01*
X933434Y319359D01*
X933687Y319292D01*
X933862Y319266D01*
X933941Y319263D01*
X934333Y319249D01*
X934686Y319237D01*
X935022Y319284D01*
X935358Y319332D01*
X935655Y319419D01*
X935953Y319507D01*
X936451Y319706D01*
X936852Y319928D01*
X937013Y320040D01*
X937153Y320133D01*
X937254Y320189D01*
X939792Y322555D01*
X938290Y323494D01*
X937688Y322712D01*
X937521Y322546D01*
X937354Y322462D01*
X937215Y322407D01*
X937188D01*
X937160D01*
X936938D01*
X936743Y322462D01*
X936633Y322518D01*
X936577Y322546D01*
X936438Y322712D01*
X936327Y322879D01*
X936272Y323018D01*
Y323073D01*
X936299Y323323D01*
X936355Y323517D01*
X936410Y323628D01*
X936438Y323684D01*
X936945Y324336D01*
X935528Y325221D01*
D02*
G37*
G36*
X926072Y316101D02*
X926056Y316100D01*
X926112Y316096D01*
X926072Y316101D01*
D02*
G37*
G36*
X925463Y316102D02*
X925325Y316087D01*
X925246Y316090D01*
X925207Y316091D01*
X924636Y316052D01*
X924142Y315972D01*
X923746Y315867D01*
X923428Y315761D01*
X923168Y315632D01*
X923027Y315539D01*
X922906Y315465D01*
X922886Y315446D01*
X922641Y315179D01*
X922437Y314951D01*
X922311Y314719D01*
X922204Y314468D01*
X922137Y314254D01*
X922131Y314058D01*
X922124Y313862D01*
X922137Y313684D01*
X922244Y313366D01*
X922354Y313127D01*
X922409Y313027D01*
X922466Y312966D01*
X922485Y312945D01*
X922504Y312925D01*
X922770Y312680D01*
X923097Y312492D01*
X923465Y312341D01*
X923795Y312232D01*
X924127Y312161D01*
X924361Y312114D01*
X924537Y312088D01*
X924615Y312085D01*
X929192Y311717D01*
Y314272D01*
X925972Y314522D01*
X925722Y314578D01*
X925555Y314661D01*
X925417Y314800D01*
X925333Y314939D01*
X925278Y315077D01*
X925250Y315189D01*
Y315300D01*
X925278Y315577D01*
X925361Y315772D01*
X925500Y315910D01*
X925639Y315994D01*
X925750Y316077D01*
X925858Y316099D01*
X925620Y316097D01*
X925463Y316102D01*
D02*
G37*
G36*
X930775Y314161D02*
Y311590D01*
X934011Y311329D01*
X937743Y313634D01*
X930775Y314161D01*
D02*
G37*
G36*
Y310011D02*
Y309331D01*
X931749Y309932D01*
X930775Y310011D01*
D02*
G37*
G36*
X694234Y399963D02*
X694206D01*
X694178D01*
X693734Y399935D01*
X693290Y399824D01*
X692901Y399658D01*
X692540Y399491D01*
X692235Y399297D01*
X692013Y399158D01*
X691874Y399047D01*
X691819Y398991D01*
X691541Y398714D01*
X691291Y398464D01*
X691097Y398186D01*
X690902Y397908D01*
X690764Y397631D01*
X690625Y397353D01*
X690430Y396853D01*
X690319Y396409D01*
X690292Y396215D01*
X690264Y396048D01*
X690236Y395937D01*
Y392467D01*
X696566Y394161D01*
Y397686D01*
X696510Y397936D01*
X696455Y398158D01*
X696399Y398353D01*
X696344Y398519D01*
X696288Y398630D01*
X696261Y398714D01*
X696233Y398741D01*
X696094Y398963D01*
X695955Y399158D01*
X695622Y399435D01*
X695289Y399658D01*
X694956Y399824D01*
X694650Y399907D01*
X694400Y399935D01*
X694234Y399963D01*
D02*
G37*
G36*
X667089Y388316D02*
X663564D01*
X663314Y388260D01*
X663092Y388205D01*
X662897Y388149D01*
X662731Y388094D01*
X662620Y388038D01*
X662536Y388010D01*
X662509Y387983D01*
X662287Y387844D01*
X662092Y387705D01*
X661815Y387372D01*
X661592Y387039D01*
X661426Y386706D01*
X661343Y386400D01*
X661315Y386151D01*
X661287Y385984D01*
Y385956D01*
Y385928D01*
X661315Y385484D01*
X661426Y385040D01*
X661592Y384651D01*
X661759Y384290D01*
X661953Y383985D01*
X662092Y383763D01*
X662203Y383624D01*
X662259Y383569D01*
X662536Y383291D01*
X662786Y383041D01*
X663064Y382847D01*
X663342Y382652D01*
X663619Y382514D01*
X663897Y382375D01*
X664397Y382180D01*
X664841Y382069D01*
X665035Y382042D01*
X665202Y382014D01*
X665313Y381986D01*
X668783D01*
X667089Y388316D01*
D02*
G37*
G36*
X692583Y335830D02*
X692143Y330022D01*
X696170D01*
X692583Y335830D01*
D02*
G37*
G36*
X1126095Y730316D02*
X1122569D01*
X1122319Y730260D01*
X1122097Y730205D01*
X1121902Y730149D01*
X1121736Y730094D01*
X1121625Y730038D01*
X1121542Y730011D01*
X1121514Y729983D01*
X1121292Y729844D01*
X1121097Y729705D01*
X1120820Y729372D01*
X1120598Y729039D01*
X1120431Y728706D01*
X1120348Y728400D01*
X1120320Y728150D01*
X1120292Y727984D01*
Y727956D01*
Y727928D01*
X1120320Y727484D01*
X1120431Y727040D01*
X1120598Y726651D01*
X1120764Y726290D01*
X1120958Y725985D01*
X1121097Y725763D01*
X1121208Y725624D01*
X1121264Y725569D01*
X1121542Y725291D01*
X1121791Y725041D01*
X1122069Y724847D01*
X1122347Y724652D01*
X1122624Y724514D01*
X1122902Y724375D01*
X1123402Y724181D01*
X1123846Y724069D01*
X1124040Y724042D01*
X1124207Y724014D01*
X1124318Y723986D01*
X1127788D01*
X1126095Y730316D01*
D02*
G37*
G36*
X363543Y940289D02*
X363515D01*
X363487D01*
X363182Y940261D01*
X362904Y940233D01*
X362765Y940205D01*
X362682Y940178D01*
X362626Y940150D01*
X362599D01*
X361044Y939734D01*
X360628Y939595D01*
X360267Y939400D01*
X359961Y939206D01*
X359684Y938956D01*
X359462Y938706D01*
X359267Y938456D01*
X359101Y938207D01*
X358989Y937929D01*
X358823Y937429D01*
X358767Y937207D01*
X358712Y937013D01*
Y936846D01*
X358684Y936735D01*
Y936624D01*
X358712Y936347D01*
X358767Y936069D01*
X358823Y935847D01*
X358934Y935652D01*
X359017Y935486D01*
X359073Y935375D01*
X359128Y935292D01*
X359156Y935264D01*
X359350Y935097D01*
X359572Y934958D01*
X359795Y934875D01*
X359989Y934792D01*
X360183Y934764D01*
X360322Y934736D01*
X360433D01*
X360461D01*
X360655Y934764D01*
X360850Y934792D01*
X360988Y934820D01*
X361016D01*
X361044D01*
X364986Y935874D01*
Y938318D01*
X364958Y938679D01*
X364931Y938956D01*
X364847Y939234D01*
X364764Y939456D01*
X364653Y939650D01*
X364514Y939817D01*
X364375Y939928D01*
X364237Y940039D01*
X363959Y940178D01*
X363709Y940261D01*
X363543Y940289D01*
D02*
G37*
G36*
X667809Y629316D02*
X664283D01*
X664033Y629260D01*
X663811Y629205D01*
X663616Y629149D01*
X663450Y629094D01*
X663339Y629038D01*
X663255Y629011D01*
X663228Y628983D01*
X663006Y628844D01*
X662811Y628705D01*
X662534Y628372D01*
X662312Y628039D01*
X662145Y627706D01*
X662062Y627400D01*
X662034Y627150D01*
X662006Y626984D01*
Y626956D01*
Y626928D01*
X662034Y626484D01*
X662145Y626040D01*
X662312Y625651D01*
X662478Y625290D01*
X662673Y624985D01*
X662811Y624763D01*
X662922Y624624D01*
X662978Y624569D01*
X663255Y624291D01*
X663505Y624041D01*
X663783Y623847D01*
X664061Y623652D01*
X664338Y623514D01*
X664616Y623375D01*
X665116Y623181D01*
X665560Y623069D01*
X665754Y623042D01*
X665921Y623014D01*
X666032Y622986D01*
X669502D01*
X667809Y629316D01*
D02*
G37*
G36*
X677809Y657316D02*
X674283D01*
X674033Y657260D01*
X673811Y657205D01*
X673616Y657149D01*
X673450Y657094D01*
X673339Y657038D01*
X673255Y657010D01*
X673228Y656983D01*
X673006Y656844D01*
X672811Y656705D01*
X672534Y656372D01*
X672312Y656039D01*
X672145Y655706D01*
X672062Y655400D01*
X672034Y655151D01*
X672006Y654984D01*
Y654956D01*
Y654928D01*
X672034Y654484D01*
X672145Y654040D01*
X672312Y653651D01*
X672478Y653290D01*
X672673Y652985D01*
X672811Y652763D01*
X672922Y652624D01*
X672978Y652569D01*
X673255Y652291D01*
X673505Y652041D01*
X673783Y651847D01*
X674061Y651652D01*
X674338Y651514D01*
X674616Y651375D01*
X675116Y651180D01*
X675560Y651069D01*
X675754Y651042D01*
X675921Y651014D01*
X676032Y650986D01*
X679502D01*
X677809Y657316D01*
D02*
G37*
G36*
X312808Y621316D02*
X309283D01*
X309033Y621260D01*
X308811Y621205D01*
X308616Y621149D01*
X308450Y621094D01*
X308339Y621038D01*
X308256Y621011D01*
X308228Y620983D01*
X308006Y620844D01*
X307811Y620705D01*
X307534Y620372D01*
X307312Y620039D01*
X307145Y619706D01*
X307062Y619400D01*
X307034Y619151D01*
X307006Y618984D01*
Y618956D01*
Y618928D01*
X307034Y618484D01*
X307145Y618040D01*
X307312Y617651D01*
X307478Y617290D01*
X307673Y616985D01*
X307811Y616763D01*
X307922Y616624D01*
X307978Y616569D01*
X308256Y616291D01*
X308505Y616041D01*
X308783Y615847D01*
X309061Y615652D01*
X309338Y615514D01*
X309616Y615375D01*
X310116Y615181D01*
X310560Y615069D01*
X310754Y615042D01*
X310921Y615014D01*
X311032Y614986D01*
X314502D01*
X312808Y621316D01*
D02*
G37*
G36*
Y659066D02*
X309283D01*
X309033Y659010D01*
X308811Y658955D01*
X308616Y658899D01*
X308450Y658844D01*
X308339Y658788D01*
X308256Y658761D01*
X308228Y658733D01*
X308006Y658594D01*
X307811Y658455D01*
X307534Y658122D01*
X307312Y657789D01*
X307145Y657456D01*
X307062Y657150D01*
X307034Y656900D01*
X307006Y656734D01*
Y656706D01*
Y656678D01*
X307034Y656234D01*
X307145Y655790D01*
X307312Y655401D01*
X307478Y655040D01*
X307673Y654735D01*
X307811Y654513D01*
X307922Y654374D01*
X307978Y654319D01*
X308256Y654041D01*
X308505Y653791D01*
X308783Y653597D01*
X309061Y653402D01*
X309338Y653264D01*
X309616Y653125D01*
X310116Y652930D01*
X310560Y652819D01*
X310754Y652792D01*
X310921Y652764D01*
X311032Y652736D01*
X314502D01*
X312808Y659066D01*
D02*
G37*
G36*
X289155D02*
X289100D01*
X288850Y659038D01*
X288628Y658983D01*
X288433Y658844D01*
X288267Y658705D01*
X288017Y658344D01*
X287850Y657928D01*
X287767Y657511D01*
X287711Y657150D01*
X287684Y657011D01*
Y656900D01*
Y656817D01*
Y656789D01*
X287711Y656151D01*
X287795Y655485D01*
X287906Y654790D01*
X288017Y654152D01*
X288072Y653874D01*
X288128Y653597D01*
X288183Y653347D01*
X288239Y653152D01*
X288294Y652986D01*
X288322Y652847D01*
X288350Y652764D01*
Y652736D01*
X288489Y652264D01*
X288655Y651792D01*
X288822Y651348D01*
X288961Y650932D01*
X289127Y650571D01*
X289238Y650293D01*
X289294Y650182D01*
X289322Y650099D01*
X289349Y650071D01*
Y650043D01*
X289655Y649405D01*
X289960Y648849D01*
X290238Y648377D01*
X290515Y647961D01*
X290793Y647600D01*
X291071Y647322D01*
X291293Y647073D01*
X291543Y646878D01*
X291737Y646740D01*
X291931Y646628D01*
X292098Y646545D01*
X292237Y646490D01*
X292348Y646462D01*
X292431Y646434D01*
X292514D01*
X292764Y646462D01*
X292959Y646545D01*
X293153Y646656D01*
X293319Y646795D01*
X293569Y647156D01*
X293736Y647572D01*
X293819Y647961D01*
X293875Y648322D01*
X293902Y648488D01*
Y648599D01*
Y648655D01*
Y648683D01*
X293875Y649321D01*
X293791Y649988D01*
X293708Y650682D01*
X293569Y651320D01*
X293514Y651598D01*
X293458Y651876D01*
X293403Y652125D01*
X293375Y652320D01*
X293319Y652514D01*
X293292Y652625D01*
X293264Y652708D01*
Y652736D01*
X293125Y653208D01*
X292959Y653680D01*
X292792Y654124D01*
X292625Y654541D01*
X292486Y654902D01*
X292376Y655179D01*
X292320Y655290D01*
X292292Y655374D01*
X292264Y655401D01*
Y655429D01*
X291959Y656068D01*
X291654Y656623D01*
X291376Y657122D01*
X291098Y657539D01*
X290821Y657872D01*
X290543Y658177D01*
X290321Y658427D01*
X290071Y658622D01*
X289877Y658761D01*
X289683Y658872D01*
X289516Y658955D01*
X289377Y659010D01*
X289266Y659038D01*
X289155Y659066D01*
D02*
G37*
G36*
X555808Y653316D02*
X552283D01*
X552033Y653260D01*
X551811Y653205D01*
X551616Y653149D01*
X551450Y653094D01*
X551339Y653038D01*
X551255Y653010D01*
X551228Y652983D01*
X551006Y652844D01*
X550811Y652705D01*
X550534Y652372D01*
X550312Y652039D01*
X550145Y651706D01*
X550062Y651400D01*
X550034Y651150D01*
X550006Y650984D01*
Y650956D01*
Y650928D01*
X550034Y650484D01*
X550145Y650040D01*
X550312Y649651D01*
X550478Y649290D01*
X550672Y648985D01*
X550811Y648763D01*
X550922Y648624D01*
X550978Y648569D01*
X551255Y648291D01*
X551505Y648041D01*
X551783Y647847D01*
X552061Y647652D01*
X552338Y647514D01*
X552616Y647375D01*
X553116Y647180D01*
X553560Y647069D01*
X553754Y647042D01*
X553921Y647014D01*
X554032Y646986D01*
X557502D01*
X555808Y653316D01*
D02*
G37*
G36*
X540373D02*
X540262D01*
X539984Y653288D01*
X539706Y653233D01*
X539484Y653149D01*
X539290Y653066D01*
X539123Y652983D01*
X539012Y652899D01*
X538929Y652844D01*
X538901Y652816D01*
X538707Y652622D01*
X538568Y652400D01*
X538485Y652178D01*
X538402Y651983D01*
X538374Y651789D01*
X538346Y651650D01*
Y651539D01*
Y651511D01*
X538374Y651317D01*
X538402Y651150D01*
X538429Y650984D01*
X538457Y650956D01*
Y650928D01*
X539512Y646986D01*
X541955D01*
X542288Y647014D01*
X542594Y647042D01*
X542871Y647125D01*
X543093Y647208D01*
X543288Y647319D01*
X543454Y647458D01*
X543565Y647597D01*
X543676Y647736D01*
X543815Y647986D01*
X543899Y648235D01*
X543926Y648402D01*
Y648430D01*
Y648457D01*
X543899Y648763D01*
X543843Y649068D01*
Y649179D01*
X543815Y649263D01*
X543787Y649318D01*
Y649346D01*
X543343Y650928D01*
X543204Y651345D01*
X543038Y651706D01*
X542816Y652039D01*
X542594Y652317D01*
X542344Y652539D01*
X542094Y652733D01*
X541816Y652899D01*
X541567Y653010D01*
X541317Y653122D01*
X541067Y653177D01*
X540845Y653233D01*
X540650Y653288D01*
X540484D01*
X540373Y653316D01*
D02*
G37*
G36*
X555808Y630316D02*
X552283D01*
X552033Y630260D01*
X551811Y630205D01*
X551616Y630149D01*
X551450Y630094D01*
X551339Y630038D01*
X551255Y630010D01*
X551228Y629983D01*
X551006Y629844D01*
X550811Y629705D01*
X550534Y629372D01*
X550312Y629039D01*
X550145Y628706D01*
X550062Y628400D01*
X550034Y628150D01*
X550006Y627984D01*
Y627956D01*
Y627928D01*
X550034Y627484D01*
X550145Y627040D01*
X550312Y626651D01*
X550478Y626290D01*
X550672Y625985D01*
X550811Y625763D01*
X550922Y625624D01*
X550978Y625569D01*
X551255Y625291D01*
X551505Y625041D01*
X551783Y624847D01*
X552061Y624652D01*
X552338Y624514D01*
X552616Y624375D01*
X553116Y624180D01*
X553560Y624069D01*
X553754Y624042D01*
X553921Y624014D01*
X554032Y623986D01*
X557502D01*
X555808Y630316D01*
D02*
G37*
G36*
X540400D02*
X540289D01*
X539929Y630288D01*
X539651Y630260D01*
X539373Y630177D01*
X539151Y630094D01*
X538957Y629983D01*
X538790Y629844D01*
X538679Y629705D01*
X538568Y629566D01*
X538429Y629289D01*
X538346Y629039D01*
X538318Y628872D01*
Y628844D01*
Y628817D01*
X538346Y628539D01*
X538374Y628234D01*
X538402Y628123D01*
X538429Y628012D01*
X538457Y627956D01*
Y627928D01*
X538596Y627512D01*
X538763Y627151D01*
X538957Y626846D01*
X539207Y626568D01*
X539429Y626346D01*
X539706Y626152D01*
X539956Y625985D01*
X540234Y625874D01*
X540734Y625707D01*
X540956Y625652D01*
X541150Y625596D01*
X541317D01*
X541428Y625569D01*
X541539D01*
X541872Y625596D01*
X542177Y625624D01*
X542427Y625707D01*
X542649Y625791D01*
X542844Y625902D01*
X543010Y626040D01*
X543149Y626179D01*
X543232Y626318D01*
X543371Y626568D01*
X543454Y626818D01*
X543482Y626984D01*
Y627012D01*
Y627040D01*
X543454Y627345D01*
X543399Y627623D01*
Y627734D01*
X543371Y627845D01*
X543343Y627901D01*
Y627928D01*
X543204Y628345D01*
X543038Y628706D01*
X542844Y629039D01*
X542594Y629316D01*
X542372Y629539D01*
X542094Y629733D01*
X541844Y629899D01*
X541594Y630010D01*
X541344Y630122D01*
X541095Y630177D01*
X540872Y630233D01*
X540678Y630288D01*
X540512D01*
X540400Y630316D01*
D02*
G37*
G36*
X542066Y623986D02*
X541955D01*
X541622Y623958D01*
X541317Y623931D01*
X541067Y623847D01*
X540817Y623764D01*
X540650Y623653D01*
X540484Y623514D01*
X540345Y623375D01*
X540262Y623237D01*
X540123Y622959D01*
X540039Y622709D01*
X540012Y622542D01*
Y622515D01*
Y622487D01*
X540039Y622182D01*
X540067Y621904D01*
X540095Y621765D01*
X540123Y621682D01*
X540151Y621626D01*
Y621599D01*
X540567Y620044D01*
X540706Y619627D01*
X540872Y619267D01*
X541095Y618961D01*
X541317Y618684D01*
X541567Y618461D01*
X541816Y618267D01*
X542094Y618101D01*
X542344Y617990D01*
X542844Y617823D01*
X543066Y617767D01*
X543260Y617712D01*
X543427D01*
X543538Y617684D01*
X543649D01*
X543982Y617712D01*
X544287Y617740D01*
X544537Y617823D01*
X544759Y617906D01*
X544953Y618017D01*
X545120Y618156D01*
X545259Y618295D01*
X545342Y618434D01*
X545481Y618684D01*
X545564Y618933D01*
X545592Y619100D01*
Y619128D01*
Y619156D01*
X545564Y619461D01*
X545536Y619739D01*
X545509Y619877D01*
Y619961D01*
X545481Y620016D01*
Y620044D01*
X545037Y621599D01*
X544898Y622015D01*
X544731Y622376D01*
X544509Y622709D01*
X544287Y622987D01*
X544037Y623209D01*
X543787Y623403D01*
X543510Y623570D01*
X543260Y623681D01*
X543010Y623792D01*
X542760Y623847D01*
X542538Y623903D01*
X542344Y623958D01*
X542177D01*
X542066Y623986D01*
D02*
G37*
G36*
X736234Y401994D02*
X736206D01*
X736178D01*
X735734Y401966D01*
X735290Y401855D01*
X734901Y401688D01*
X734540Y401522D01*
X734235Y401328D01*
X734013Y401189D01*
X733874Y401078D01*
X733819Y401022D01*
X733541Y400745D01*
X733291Y400495D01*
X733097Y400217D01*
X732902Y399939D01*
X732764Y399662D01*
X732625Y399384D01*
X732430Y398884D01*
X732319Y398440D01*
X732292Y398246D01*
X732264Y398079D01*
X732236Y397968D01*
Y394498D01*
X738566Y396191D01*
Y399717D01*
X738510Y399967D01*
X738455Y400189D01*
X738399Y400384D01*
X738344Y400550D01*
X738288Y400661D01*
X738260Y400745D01*
X738233Y400772D01*
X738094Y400994D01*
X737955Y401189D01*
X737622Y401466D01*
X737289Y401688D01*
X736956Y401855D01*
X736650Y401938D01*
X736400Y401966D01*
X736234Y401994D01*
D02*
G37*
G36*
X767058Y388316D02*
X763533D01*
X763283Y388260D01*
X763061Y388205D01*
X762866Y388149D01*
X762700Y388094D01*
X762589Y388038D01*
X762505Y388010D01*
X762478Y387983D01*
X762256Y387844D01*
X762061Y387705D01*
X761784Y387372D01*
X761562Y387039D01*
X761395Y386706D01*
X761312Y386400D01*
X761284Y386151D01*
X761256Y385984D01*
Y385956D01*
Y385928D01*
X761284Y385484D01*
X761395Y385040D01*
X761562Y384651D01*
X761728Y384290D01*
X761922Y383985D01*
X762061Y383763D01*
X762172Y383624D01*
X762228Y383569D01*
X762505Y383291D01*
X762755Y383041D01*
X763033Y382847D01*
X763310Y382652D01*
X763588Y382514D01*
X763866Y382375D01*
X764365Y382180D01*
X764810Y382069D01*
X765004Y382042D01*
X765171Y382014D01*
X765282Y381986D01*
X768752D01*
X767058Y388316D01*
D02*
G37*
G36*
X1066821Y678711D02*
X1063684Y677850D01*
Y674380D01*
X1063740Y674185D01*
X1063851Y673852D01*
X1063989Y673630D01*
X1064184Y673464D01*
X1064350Y673380D01*
X1064517Y673325D01*
X1064628Y673297D01*
X1064656D01*
X1064989Y673325D01*
X1065322Y673380D01*
X1065572Y673491D01*
X1065794Y673602D01*
X1065988Y673686D01*
X1066099Y673797D01*
X1066183Y673852D01*
X1066210Y673880D01*
X1066405Y674130D01*
X1066571Y674380D01*
X1066682Y674630D01*
X1066738Y674879D01*
X1066793Y675101D01*
X1066821Y675268D01*
Y678711D01*
D02*
G37*
G36*
X1074761Y668439D02*
X1074678D01*
X1074622D01*
X1074595D01*
X1074372D01*
X1074178Y668411D01*
X1074012Y668383D01*
X1073956Y668355D01*
X1073928D01*
X1073567Y668244D01*
X1073262Y668105D01*
X1072984Y667911D01*
X1072735Y667717D01*
X1072540Y667522D01*
X1072374Y667356D01*
X1072290Y667273D01*
X1072263Y667217D01*
X1072040Y666856D01*
X1071874Y666523D01*
X1071735Y666190D01*
X1071652Y665884D01*
X1071596Y665635D01*
X1071569Y665440D01*
Y661998D01*
X1076316Y663247D01*
Y666523D01*
X1076288Y666856D01*
X1076233Y667161D01*
X1076149Y667411D01*
X1076038Y667634D01*
X1075927Y667828D01*
X1075761Y667967D01*
X1075622Y668105D01*
X1075455Y668189D01*
X1075150Y668327D01*
X1074872Y668411D01*
X1074761Y668439D01*
D02*
G37*
G36*
X1067876Y667411D02*
X1067821D01*
X1067793D01*
X1067487D01*
X1067210Y667356D01*
X1066655Y667217D01*
X1066155Y666995D01*
X1065739Y666773D01*
X1065378Y666523D01*
X1065128Y666301D01*
X1064961Y666162D01*
X1064933Y666134D01*
X1064906Y666106D01*
X1064684Y665857D01*
X1064517Y665607D01*
X1064212Y665107D01*
X1063989Y664607D01*
X1063851Y664135D01*
X1063740Y663747D01*
X1063712Y663441D01*
X1063684Y663330D01*
Y659888D01*
X1069986Y661581D01*
Y664857D01*
X1069958Y665301D01*
X1069903Y665690D01*
X1069792Y666051D01*
X1069653Y666329D01*
X1069486Y666579D01*
X1069292Y666801D01*
X1069098Y666967D01*
X1068903Y667106D01*
X1068681Y667189D01*
X1068487Y667273D01*
X1068126Y667384D01*
X1067987D01*
X1067876Y667411D01*
D02*
G37*
G36*
X1066821Y477711D02*
X1063684Y476850D01*
Y473380D01*
X1063740Y473185D01*
X1063851Y472852D01*
X1063989Y472630D01*
X1064184Y472463D01*
X1064350Y472380D01*
X1064517Y472325D01*
X1064628Y472297D01*
X1064656D01*
X1064989Y472325D01*
X1065322Y472380D01*
X1065572Y472491D01*
X1065794Y472602D01*
X1065988Y472686D01*
X1066099Y472797D01*
X1066183Y472852D01*
X1066210Y472880D01*
X1066405Y473130D01*
X1066571Y473380D01*
X1066682Y473630D01*
X1066738Y473879D01*
X1066794Y474101D01*
X1066821Y474268D01*
Y477711D01*
D02*
G37*
G36*
X1074761Y467439D02*
X1074678D01*
X1074622D01*
X1074595D01*
X1074373D01*
X1074178Y467411D01*
X1074012Y467383D01*
X1073956Y467355D01*
X1073928D01*
X1073567Y467244D01*
X1073262Y467105D01*
X1072984Y466911D01*
X1072735Y466717D01*
X1072540Y466522D01*
X1072374Y466356D01*
X1072290Y466273D01*
X1072263Y466217D01*
X1072040Y465856D01*
X1071874Y465523D01*
X1071735Y465190D01*
X1071652Y464884D01*
X1071596Y464635D01*
X1071569Y464440D01*
Y460998D01*
X1076316Y462247D01*
Y465523D01*
X1076288Y465856D01*
X1076233Y466161D01*
X1076149Y466411D01*
X1076038Y466633D01*
X1075927Y466828D01*
X1075761Y466967D01*
X1075622Y467105D01*
X1075455Y467189D01*
X1075150Y467327D01*
X1074872Y467411D01*
X1074761Y467439D01*
D02*
G37*
G36*
X1067876Y466411D02*
X1067821D01*
X1067793D01*
X1067487D01*
X1067210Y466356D01*
X1066655Y466217D01*
X1066155Y465995D01*
X1065739Y465773D01*
X1065378Y465523D01*
X1065128Y465301D01*
X1064961Y465162D01*
X1064933Y465134D01*
X1064906Y465107D01*
X1064684Y464857D01*
X1064517Y464607D01*
X1064212Y464107D01*
X1063989Y463607D01*
X1063851Y463135D01*
X1063740Y462747D01*
X1063712Y462441D01*
X1063684Y462330D01*
Y458888D01*
X1069986Y460581D01*
Y463857D01*
X1069958Y464301D01*
X1069903Y464690D01*
X1069792Y465051D01*
X1069653Y465329D01*
X1069486Y465578D01*
X1069292Y465801D01*
X1069098Y465967D01*
X1068903Y466106D01*
X1068681Y466189D01*
X1068487Y466273D01*
X1068126Y466384D01*
X1067987D01*
X1067876Y466411D01*
D02*
G37*
%LPD*%
D11*
X489500Y641500D02*
X490500D01*
X489500Y654500D02*
X490500D01*
X762750Y353000D02*
X763750D01*
X762750Y366000D02*
X763750D01*
X340500Y659250D02*
X341500D01*
X340500Y646250D02*
X341500D01*
X340750Y629500D02*
X341750D01*
X340750Y616500D02*
X341750D01*
X500500Y628500D02*
X501500D01*
X500500Y615500D02*
X501500D01*
X698500Y628500D02*
X699500D01*
X698500Y615500D02*
X699500D01*
X709500Y640500D02*
X710500D01*
X709500Y653500D02*
X710500D01*
X1112750Y577400D02*
X1140750D01*
X1112750D02*
Y706400D01*
X1140750D01*
Y577400D02*
Y706400D01*
X870000Y520000D02*
X900000D01*
X520000D02*
X550000D01*
X535000Y505000D02*
Y535000D01*
X370000Y430000D02*
Y610000D01*
X1050000D01*
Y430000D02*
Y610000D01*
X370000Y430000D02*
X1050000D01*
X502500Y450000D02*
Y590000D01*
X405000Y475000D02*
Y520000D01*
X370000Y475000D02*
X405000D01*
X370000D02*
Y520000D01*
Y565000D01*
X405000D01*
Y520000D02*
Y565000D01*
Y450000D02*
X502500D01*
X405000Y590000D02*
X502500D01*
X405000Y565000D02*
Y590000D01*
Y450000D02*
Y475000D01*
X917500Y450000D02*
Y590000D01*
X1015000Y520000D02*
Y565000D01*
X1050000D01*
Y520000D02*
Y565000D01*
Y475000D02*
Y520000D01*
X1015000Y475000D02*
X1050000D01*
X1015000D02*
Y520000D01*
X917500Y590000D02*
X1015000D01*
X917500Y450000D02*
X1015000D01*
Y475000D01*
Y565000D02*
Y590000D01*
Y775000D02*
Y800000D01*
Y660000D02*
Y685000D01*
X917500Y660000D02*
X1015000D01*
X917500Y800000D02*
X1015000D01*
Y685000D02*
Y730000D01*
Y685000D02*
X1050000D01*
Y730000D01*
Y775000D01*
X1015000D02*
X1050000D01*
X1015000Y730000D02*
Y775000D01*
X917500Y660000D02*
Y800000D01*
X405000Y660000D02*
Y685000D01*
Y775000D02*
Y800000D01*
X502500D01*
X405000Y660000D02*
X502500D01*
X405000Y730000D02*
Y775000D01*
X370000D02*
X405000D01*
X370000Y730000D02*
Y775000D01*
Y685000D02*
Y730000D01*
Y685000D02*
X405000D01*
Y730000D01*
X502500Y660000D02*
Y800000D01*
X370000Y640000D02*
X1050000D01*
Y820000D01*
X370000D02*
X1050000D01*
X370000Y640000D02*
Y820000D01*
X535000Y715000D02*
Y745000D01*
X520000Y730000D02*
X550000D01*
X870000D02*
X900000D01*
X729000Y369500D02*
Y370500D01*
X716000Y369500D02*
Y370500D01*
X627500Y314000D02*
Y315000D01*
X639000Y314000D02*
Y315000D01*
X691000Y369500D02*
Y370500D01*
X704000Y369500D02*
Y370500D01*
X655750Y366000D02*
X656750D01*
X655750Y353000D02*
X656750D01*
D12*
X841500Y1028500D02*
G03*
X842636Y1028494I0J-100000D01*
G01*
X902750Y230001D02*
Y310000D01*
X812750Y230001D02*
X902750D01*
X812750D02*
Y310000D01*
Y340000D02*
X902750D01*
X812750Y335000D02*
Y340000D01*
X902750Y335000D02*
Y340000D01*
X370250Y711250D02*
X1049500Y711250D01*
X370250Y560000D02*
X1049500Y560000D01*
D14*
X1108500Y921750D02*
G03*
X1108500Y921750I-70000J0D01*
G01*
X1038500Y855750D02*
Y867750D01*
X1032500Y861750D02*
X1044500D01*
X592750Y302000D02*
Y317000D01*
X578750Y302000D02*
X592750D01*
X530750D02*
X544750D01*
X530750D02*
Y317000D01*
X530604Y357000D02*
Y359000D01*
X530750D01*
X541750D01*
X592750Y357000D02*
Y359000D01*
X581750D02*
X592750D01*
X930367Y342500D02*
X952873Y318365D01*
X912648Y280855D02*
X952873Y318365D01*
X912648Y280855D02*
X936518Y255257D01*
X1053535Y364377D01*
X1009353Y416155D02*
X1032541Y391289D01*
X1036929Y395381D01*
X1060117Y370515D01*
X1053535Y364377D02*
X1060117Y370515D01*
X909907Y364440D02*
X988893Y438096D01*
X909907Y364440D02*
X930367Y342500D01*
X1009353Y416155D01*
X988893Y438096D02*
X1009353Y416155D01*
X365000Y955000D02*
X374000D01*
X390000Y865000D02*
X618000D01*
Y995000D01*
X390000D02*
X618000D01*
X378000Y865000D02*
X390000D01*
X378000D02*
Y995000D01*
X390000D01*
X395750Y616750D02*
X396750D01*
Y650750D01*
X376750Y616750D02*
X377750D01*
X376750D02*
Y650750D01*
X381750Y627750D02*
X383750Y632750D01*
X379750D02*
X383750D01*
X379750D02*
X381750Y627750D01*
X1146750Y591400D02*
X1156750Y594400D01*
Y588400D02*
Y594400D01*
X1146750Y591400D02*
X1156750Y588400D01*
X665000Y319250D02*
X755000D01*
Y277250D02*
Y292250D01*
Y238700D02*
Y252250D01*
X665000Y277250D02*
Y292250D01*
Y238700D02*
Y252250D01*
Y238700D02*
X755000D01*
X440250Y617250D02*
X441250D01*
Y651250D01*
X421250Y617250D02*
X422250D01*
X421250D02*
Y651250D01*
X426250Y628250D02*
X428250Y633250D01*
X424250D02*
X428250D01*
X424250D02*
X426250Y628250D01*
M02*
